<svg viewBox="0 0 797 678" xmlns="http://www.w3.org/2000/svg"><g fill="currentColor" fill-rule="evenodd"><path d="M583 473 L582 474 L582 673 L583 674 L620 674 L622 671 L622 477 L620 473 Z M407 473 L405 475 L405 672 L407 674 L485 674 L486 673 L493 673 L494 672 L502 671 L503 670 L511 668 L525 661 L527 659 L531 657 L534 654 L535 654 L548 640 L548 639 L552 634 L559 620 L559 618 L560 617 L560 615 L562 611 L563 604 L564 603 L564 598 L565 597 L565 590 L566 589 L566 572 L567 571 L566 569 L566 555 L565 554 L565 549 L564 548 L564 544 L563 543 L563 540 L562 539 L561 532 L558 526 L558 524 L551 510 L546 504 L546 503 L539 496 L539 495 L538 495 L533 490 L532 490 L526 485 L516 480 L514 480 L508 477 L505 477 L504 476 L501 476 L500 475 L496 475 L495 474 L489 474 L488 473 Z M449 508 L480 508 L481 509 L486 509 L487 510 L490 510 L491 511 L493 511 L499 514 L501 516 L502 516 L512 526 L519 539 L519 541 L521 545 L521 548 L522 549 L522 552 L523 553 L523 558 L524 559 L524 589 L523 590 L523 595 L522 596 L521 603 L520 604 L519 609 L517 613 L515 615 L514 618 L512 620 L512 621 L504 629 L498 632 L496 634 L494 634 L491 636 L488 636 L487 637 L484 637 L483 638 L476 638 L475 639 L449 639 L447 638 L445 635 L445 625 L446 624 L445 623 L445 617 L446 616 L446 611 L445 610 L445 608 L446 607 L445 606 L445 601 L446 600 L446 595 L445 594 L445 584 L446 583 L446 579 L445 578 L446 577 L446 575 L445 574 L446 573 L446 567 L445 566 L446 564 L445 562 L445 560 L446 559 L445 558 L445 556 L446 555 L445 554 L445 551 L446 550 L445 549 L446 548 L446 546 L445 545 L445 541 L446 540 L445 538 L446 536 L446 531 L445 530 L446 529 L445 528 L446 527 L445 526 L445 524 L446 523 L446 510 Z M282 473 L280 476 L280 478 L277 484 L277 486 L276 487 L276 489 L275 490 L273 498 L271 501 L269 509 L267 512 L267 514 L266 515 L266 517 L265 518 L263 526 L261 529 L261 532 L259 535 L259 537 L258 538 L256 546 L254 549 L254 551 L253 552 L253 554 L252 555 L250 563 L248 566 L248 568 L247 569 L245 577 L243 580 L243 582 L242 583 L242 585 L241 586 L241 588 L240 589 L240 591 L239 592 L237 600 L235 603 L235 605 L234 606 L234 608 L233 609 L231 617 L229 620 L229 622 L228 623 L228 625 L227 626 L225 634 L223 637 L223 639 L222 640 L220 648 L218 651 L218 653 L217 654 L217 656 L216 657 L216 659 L213 665 L213 668 L211 672 L213 674 L251 674 L253 672 L253 670 L254 669 L254 667 L255 666 L255 664 L256 663 L256 661 L257 660 L257 658 L258 657 L258 655 L259 654 L259 652 L260 651 L260 649 L261 648 L263 640 L267 635 L339 635 L341 636 L343 639 L343 641 L344 642 L344 644 L345 645 L347 653 L350 659 L350 662 L353 668 L353 671 L355 674 L392 674 L394 673 L394 669 L392 665 L392 662 L391 661 L389 653 L387 650 L387 648 L386 647 L386 645 L385 644 L385 642 L384 641 L384 639 L383 638 L383 636 L382 635 L382 633 L381 632 L381 630 L380 629 L380 627 L379 626 L377 618 L375 615 L375 613 L374 612 L374 610 L373 609 L373 607 L372 606 L372 604 L371 603 L369 595 L367 592 L367 590 L366 589 L366 587 L365 586 L365 584 L364 583 L364 581 L363 580 L363 578 L362 577 L362 575 L361 574 L359 566 L357 563 L357 561 L356 560 L356 558 L355 557 L355 555 L354 554 L352 546 L350 543 L350 541 L349 540 L349 538 L348 537 L348 535 L347 534 L347 532 L346 531 L344 523 L342 520 L342 518 L341 517 L341 515 L340 514 L338 506 L336 503 L336 501 L335 500 L335 498 L334 497 L334 495 L333 494 L333 492 L332 491 L332 489 L331 488 L331 486 L330 485 L330 483 L329 482 L329 480 L328 479 L328 477 L326 473 Z M303 518 L304 519 L304 522 L305 523 L305 525 L306 526 L306 528 L307 529 L307 531 L308 532 L308 534 L309 535 L309 537 L310 538 L310 540 L311 541 L311 543 L312 544 L312 546 L314 550 L314 553 L316 556 L317 562 L318 563 L318 565 L319 566 L319 568 L320 569 L320 571 L321 572 L321 574 L322 575 L322 577 L323 578 L323 580 L324 581 L324 583 L325 584 L325 586 L326 587 L326 589 L327 590 L327 592 L329 596 L329 599 L327 601 L326 600 L325 601 L281 601 L277 599 L277 596 L278 595 L278 593 L279 592 L279 590 L280 589 L280 587 L281 586 L281 584 L282 583 L282 581 L283 580 L283 578 L284 577 L284 575 L285 574 L285 572 L286 571 L286 569 L287 568 L287 566 L288 565 L288 563 L290 559 L290 556 L291 555 L291 553 L292 552 L292 550 L293 549 L293 547 L294 546 L294 544 L295 543 L295 541 L296 540 L296 538 L297 537 L297 535 L299 531 L299 528 L301 524 L301 520 Z M62 473 L61 475 L61 673 L62 674 L99 674 L101 672 L101 601 L103 599 L105 599 L106 598 L130 598 L133 600 L139 613 L141 615 L169 672 L171 674 L206 674 L209 671 L209 670 L207 667 L207 665 L205 662 L205 660 L185 620 L185 618 L183 616 L183 614 L174 597 L174 595 L175 594 L186 589 L193 583 L194 583 L198 579 L198 578 L204 571 L210 558 L211 550 L212 549 L212 542 L213 541 L213 531 L212 530 L212 524 L211 523 L211 519 L210 518 L208 510 L202 499 L191 487 L190 487 L187 484 L184 483 L182 481 L178 480 L172 477 L169 477 L168 476 L166 476 L165 475 L161 475 L160 474 L153 474 L152 473 Z M101 510 L105 507 L143 507 L144 508 L149 508 L150 509 L153 509 L159 512 L166 518 L170 526 L170 530 L171 531 L171 542 L170 543 L170 546 L169 547 L168 551 L161 559 L154 563 L152 563 L148 565 L144 565 L143 566 L103 566 L101 564 Z M702 472 L692 477 L690 477 L688 479 L685 480 L683 482 L680 483 L677 486 L676 486 L662 500 L662 501 L659 504 L658 507 L656 509 L655 512 L653 514 L650 520 L650 522 L648 525 L648 527 L647 528 L647 530 L646 531 L646 533 L644 537 L643 545 L642 546 L642 550 L641 551 L641 559 L640 560 L640 589 L641 590 L641 597 L642 598 L642 602 L643 603 L644 611 L645 612 L645 614 L646 615 L648 623 L655 637 L663 647 L663 648 L673 658 L674 658 L677 661 L678 661 L683 665 L686 666 L688 668 L692 669 L700 673 L703 673 L704 674 L706 674 L707 675 L711 675 L712 676 L717 676 L718 677 L747 677 L748 676 L754 676 L755 675 L762 674 L763 673 L771 671 L781 666 L783 664 L790 660 L796 654 L787 636 L787 634 L776 613 L773 620 L768 626 L768 627 L763 632 L762 632 L759 635 L756 636 L754 638 L752 638 L751 639 L749 639 L745 641 L741 641 L740 642 L727 642 L726 641 L721 641 L720 640 L717 640 L706 634 L695 623 L694 620 L692 618 L688 610 L688 608 L687 607 L687 605 L685 601 L684 591 L683 590 L682 568 L683 567 L683 558 L684 557 L685 547 L686 546 L686 543 L687 542 L689 534 L697 520 L705 512 L711 509 L713 507 L715 507 L718 505 L721 505 L723 504 L707 471 L705 472 Z M398 240 L397 241 L397 245 L396 246 L397 247 L396 248 L397 250 L396 251 L396 270 L397 271 L397 276 L398 277 L450 277 L451 278 L454 278 L457 281 L457 447 L458 449 L460 450 L496 450 L497 449 L499 449 L500 447 L500 283 L504 278 L507 278 L508 277 L559 277 L560 276 L560 241 L556 239 L401 239 L400 240 Z M62 240 L61 241 L61 365 L60 366 L61 367 L61 371 L60 372 L61 373 L60 374 L61 375 L61 377 L60 378 L60 380 L61 381 L61 385 L60 386 L60 393 L61 394 L61 401 L60 402 L60 414 L61 415 L61 417 L60 418 L60 423 L61 424 L60 425 L61 426 L61 434 L60 436 L61 437 L61 448 L64 450 L188 450 L191 448 L191 414 L189 412 L106 412 L104 410 L103 408 L103 242 L99 239 L65 239 L64 240 Z M319 237 L313 237 L312 236 L297 236 L296 235 L295 236 L280 236 L279 237 L274 237 L273 238 L269 238 L265 240 L262 240 L259 242 L257 242 L254 244 L252 244 L248 246 L246 248 L243 249 L237 254 L236 254 L232 258 L231 258 L225 264 L225 265 L218 273 L215 279 L213 281 L206 295 L206 297 L205 298 L205 300 L203 304 L202 311 L201 312 L200 322 L199 323 L199 330 L198 331 L198 361 L199 362 L199 369 L200 370 L201 380 L202 381 L202 384 L203 385 L203 387 L204 388 L204 390 L205 391 L207 399 L213 411 L215 413 L217 417 L224 425 L224 426 L229 431 L230 431 L234 435 L235 435 L238 438 L239 438 L244 442 L254 447 L256 447 L257 448 L259 448 L260 449 L262 449 L266 451 L269 451 L270 452 L274 452 L275 453 L281 453 L282 454 L310 454 L311 453 L322 452 L323 451 L326 451 L327 450 L335 448 L351 440 L357 435 L358 435 L372 421 L372 420 L375 417 L375 416 L379 411 L386 397 L387 392 L389 389 L389 386 L390 385 L391 378 L392 377 L392 373 L393 372 L393 366 L394 365 L394 352 L395 351 L395 340 L394 339 L394 328 L393 327 L393 320 L392 319 L392 315 L391 314 L391 311 L390 310 L390 307 L389 306 L389 303 L388 302 L387 297 L385 294 L385 292 L378 278 L370 268 L370 267 L359 256 L358 256 L354 252 L353 252 L348 248 L338 243 L336 243 L333 241 L331 241 L327 239 L320 238 Z M287 273 L304 273 L305 274 L309 274 L310 275 L315 276 L326 282 L336 292 L336 293 L340 298 L345 308 L345 310 L346 311 L346 313 L348 317 L348 321 L349 322 L349 326 L350 327 L350 333 L351 334 L351 357 L350 358 L350 365 L349 366 L349 370 L348 371 L348 374 L347 375 L345 383 L340 393 L335 399 L335 400 L324 410 L314 415 L306 416 L305 417 L297 417 L296 418 L295 417 L285 417 L281 415 L278 415 L265 408 L257 400 L257 399 L251 391 L249 387 L249 385 L247 382 L247 380 L245 376 L245 373 L244 372 L244 368 L243 367 L243 360 L242 359 L242 333 L243 332 L243 325 L244 324 L244 320 L245 319 L246 312 L247 311 L247 309 L249 306 L249 304 L252 298 L254 296 L255 293 L259 289 L259 288 L267 281 L276 276 L282 275 L283 274 L286 274 Z M384 0 L382 2 L382 214 L384 217 L529 217 L531 215 L531 182 L528 180 L426 180 L424 177 L424 132 L427 129 L517 129 L519 127 L519 92 L517 90 L427 90 L424 87 L424 41 L426 39 L428 38 L496 38 L484 15 L484 13 L478 1 L477 0 Z M185 0 L183 2 L183 215 L185 217 L223 217 L225 215 L225 136 L226 135 L226 132 L229 130 L305 130 L308 132 L308 134 L309 135 L309 216 L311 217 L347 217 L349 215 L349 213 L350 212 L350 4 L349 3 L349 1 L348 0 L311 0 L309 2 L309 87 L306 90 L303 90 L302 91 L231 91 L230 90 L228 90 L225 86 L225 2 L223 0 Z M3 0 L1 2 L1 4 L0 5 L0 19 L1 20 L1 37 L2 38 L57 38 L60 40 L60 42 L61 43 L61 215 L63 217 L102 217 L104 214 L104 41 L107 38 L163 38 L165 36 L165 2 L163 0 Z"></path></g></svg>