<svg width="67" height="51" viewBox="0 0 67 51" xmlns="http://www.w3.org/2000/svg"> <path style="fill: #1E1E1E" d="M12.4546 13.084H18.6694V22.258C18.6694 24.9705 17.9156 26.9814 16.416 28.2753C14.9164 29.5692 12.5989 30.2161 9.47143 30.2161C6.34395 30.2161 4.02641 29.5692 2.52682 28.2753C1.02724 26.9814 0.273438 24.9783 0.273438 22.258V13.084H6.4883V22.7491C6.4883 23.6688 6.72085 24.3391 7.18597 24.76C7.65108 25.1809 8.4129 25.3914 9.47143 25.3914C10.53 25.3914 11.2918 25.1809 11.7569 24.76C12.222 24.3391 12.4546 23.6688 12.4546 22.7491V13.084Z"/><path style="fill: #1E1E1E" d="M31.6035 24.4327V29.7952H25.3887V13.084H40.2241V17.5346H31.6035V19.9898H39.743V24.4405H31.6035V24.4327Z"/><path style="fill: #1E1E1E" d="M66.2085 21.4386C66.2085 23.2313 65.7996 24.7902 64.9656 26.1075C64.1396 27.4248 62.9287 28.438 61.3409 29.1473C59.7531 29.8566 57.8445 30.2152 55.6072 30.2152C53.4741 30.2152 51.6217 29.88 50.0579 29.1941C48.4942 28.516 47.2833 27.5183 46.4333 26.201C45.5832 24.8838 45.1582 23.2937 45.1582 21.4386C45.1582 19.6459 45.5752 18.087 46.4012 16.7698C47.2271 15.4525 48.4381 14.4392 50.0258 13.7299C51.6136 13.0207 53.5222 12.6621 55.7596 12.6621C57.8927 12.6621 59.7451 12.9973 61.3088 13.6832C62.8726 14.3613 64.0835 15.359 64.9335 16.6762C65.7835 17.9935 66.2085 19.5836 66.2085 21.4386ZM59.7531 21.4386C59.7531 20.1759 59.3922 19.2016 58.6785 18.5157C57.9648 17.8298 56.9624 17.4869 55.6794 17.4869C54.3963 17.4869 53.3939 17.8298 52.6802 18.5157C51.9665 19.2016 51.6056 20.1759 51.6056 21.4386C51.6056 22.7013 51.9665 23.6756 52.6802 24.3615C53.3939 25.0475 54.3963 25.3904 55.6794 25.3904C56.9624 25.3904 57.9648 25.0475 58.6785 24.3615C59.3922 23.6756 59.7531 22.7013 59.7531 21.4386Z"/></svg>
