<svg width="842" height="599" viewBox="0 0 842 599" fill="none" xmlns="http://www.w3.org/2000/svg">
<g clip-path="url(#clip0_2668_27328)">
<path fill-rule="evenodd" clip-rule="evenodd" d="M311.425 396.418L313.979 406.953L593.503 597.588L774.72 465.066L776.795 452.134L754.923 466.343L592.483 578.414L311.105 390.031L311.425 396.418Z" fill="#8A92D7"/>
<path fill-rule="evenodd" clip-rule="evenodd" d="M493.484 321.543L511.683 109.852L840.236 163.493L777.974 451.096L593.343 578.255L311.008 389.314L493.484 321.543Z" fill="#A6ADEB"/>
<mask id="mask0_2668_27328" style="mask-type:luminance" maskUnits="userSpaceOnUse" x="310" y="108" width="532" height="472">
<path d="M310 108.844H841.244V579.262H310V108.844Z" fill="white"/>
</mask>
<g mask="url(#mask0_2668_27328)">
<path fill-rule="evenodd" clip-rule="evenodd" d="M313.207 389.57L593.335 577.035L777.073 450.491L839.026 164.314L512.595 111.02L494.488 321.628C494.455 322.016 494.201 322.35 493.835 322.486L313.207 389.57ZM593.343 579.262C593.147 579.262 592.952 579.205 592.783 579.09L310.448 390.149C310.133 389.939 309.962 389.57 310.007 389.193C310.052 388.818 310.303 388.499 310.657 388.367L492.534 320.819L510.68 109.764C510.703 109.484 510.843 109.227 511.064 109.054C511.285 108.882 511.57 108.815 511.846 108.855L840.399 162.496C840.671 162.541 840.914 162.695 841.07 162.923C841.226 163.152 841.28 163.434 841.222 163.705L778.96 451.307C778.905 451.558 778.757 451.779 778.546 451.925L593.915 579.084C593.742 579.201 593.543 579.262 593.343 579.262Z" fill="black"/>
</g>
<path fill-rule="evenodd" clip-rule="evenodd" d="M502.105 318.188L766.48 434.571L822.517 175.942L520.066 120.625L502.105 318.188Z" fill="#D4B9E4"/>
<path fill-rule="evenodd" clip-rule="evenodd" d="M503.176 317.557L765.758 433.15L821.312 176.746L520.971 121.815L503.176 317.557ZM766.481 435.579C766.344 435.579 766.205 435.55 766.076 435.493L501.7 319.111C501.303 318.937 501.062 318.527 501.102 318.097L519.063 120.534C519.088 120.251 519.232 119.993 519.458 119.822C519.683 119.651 519.973 119.584 520.248 119.633L822.699 174.95C822.967 175 823.205 175.156 823.356 175.383C823.508 175.611 823.56 175.89 823.503 176.156L767.467 434.784C767.403 435.08 767.209 435.331 766.939 435.469C766.796 435.542 766.638 435.579 766.481 435.579Z" fill="black"/>
<path fill-rule="evenodd" clip-rule="evenodd" d="M593.105 598.419C592.793 598.419 592.486 598.273 592.288 598.001C591.962 597.551 592.063 596.92 592.514 596.594L774.189 465.118L776.833 451.681L493.067 322.458C492.561 322.227 492.337 321.629 492.568 321.124C492.799 320.616 493.397 320.389 493.902 320.624L778.393 450.176C778.818 450.37 779.055 450.831 778.965 451.288L776.091 465.896C776.041 466.146 775.899 466.369 775.692 466.518L593.695 598.226C593.517 598.356 593.31 598.419 593.105 598.419Z" fill="black"/>
<path fill-rule="evenodd" clip-rule="evenodd" d="M400.942 369.628L640.968 513.359L740.965 446.693L497.754 332.213L400.942 369.628ZM640.996 515.559C640.817 515.559 640.638 515.512 640.479 515.416L398.135 370.297C397.804 370.099 397.615 369.73 397.648 369.346C397.681 368.962 397.93 368.631 398.289 368.491L497.43 330.176C497.688 330.078 497.974 330.088 498.223 330.204L743.439 445.629C743.768 445.784 743.989 446.104 744.018 446.467C744.042 446.829 743.872 447.178 743.57 447.38L641.556 515.389C641.387 515.502 641.192 515.559 640.996 515.559Z" fill="black"/>
<path fill-rule="evenodd" clip-rule="evenodd" d="M427.396 436.143L481.099 474.569L518.781 453.684L461.353 418.485L427.396 436.143ZM481.031 476.767C480.823 476.767 480.618 476.704 480.443 476.579L424.887 436.826C424.601 436.622 424.442 436.285 424.467 435.935C424.492 435.586 424.697 435.274 425.008 435.112L460.928 416.434C461.243 416.271 461.62 416.284 461.921 416.468L521.309 452.868C521.614 453.056 521.797 453.391 521.789 453.75C521.781 454.109 521.584 454.435 521.271 454.609L481.519 476.641C481.367 476.726 481.199 476.767 481.031 476.767Z" fill="black"/>
<path fill-rule="evenodd" clip-rule="evenodd" d="M593.104 598.42C592.904 598.42 592.703 598.36 592.532 598.242L314.267 406.667C314.061 406.524 313.914 406.309 313.857 406.064L310.026 389.541C309.901 388.998 310.238 388.456 310.78 388.331C311.326 388.205 311.863 388.544 311.99 389.084L315.732 405.228L592.119 595.51L592.335 578.242C592.343 577.689 592.792 577.246 593.343 577.246H593.356C593.913 577.254 594.358 577.711 594.351 578.267L594.112 597.424C594.107 597.797 593.897 598.136 593.567 598.307C593.421 598.382 593.262 598.42 593.104 598.42Z" fill="black"/>
<path fill-rule="evenodd" clip-rule="evenodd" d="M735.35 452.823C735.205 452.823 735.058 452.792 734.919 452.726L488.264 335.865C487.761 335.626 487.546 335.026 487.785 334.522C488.023 334.018 488.622 333.803 489.127 334.044L735.782 450.904C736.285 451.142 736.5 451.744 736.261 452.246C736.089 452.61 735.727 452.823 735.35 452.823Z" fill="black"/>
<path fill-rule="evenodd" clip-rule="evenodd" d="M700.065 476.127C699.91 476.127 699.753 476.092 699.606 476.016L452.154 349.257C451.659 349.003 451.463 348.395 451.716 347.901C451.971 347.405 452.58 347.209 453.073 347.462L700.525 474.221C701.021 474.476 701.217 475.083 700.963 475.579C700.784 475.927 700.431 476.127 700.065 476.127Z" fill="black"/>
<path fill-rule="evenodd" clip-rule="evenodd" d="M713.475 466.554C713.323 466.554 713.17 466.519 713.025 466.447L467.807 343.838C467.309 343.589 467.108 342.984 467.357 342.486C467.606 341.988 468.211 341.788 468.709 342.035L713.927 464.644C714.425 464.892 714.627 465.499 714.377 465.997C714.201 466.35 713.845 466.554 713.475 466.554Z" fill="black"/>
<path fill-rule="evenodd" clip-rule="evenodd" d="M680.59 489.224C680.427 489.224 680.262 489.184 680.109 489.101L435.53 355.955C435.041 355.689 434.861 355.077 435.127 354.588C435.394 354.1 436.007 353.92 436.494 354.185L681.073 487.33C681.562 487.597 681.742 488.208 681.476 488.698C681.293 489.033 680.947 489.224 680.59 489.224Z" fill="black"/>
<path fill-rule="evenodd" clip-rule="evenodd" d="M662.389 500.715C662.22 500.715 662.048 500.672 661.89 500.583L418.909 362.329C418.424 362.054 418.255 361.438 418.531 360.954C418.806 360.471 419.423 360.302 419.906 360.577L662.888 498.831C663.372 499.106 663.541 499.721 663.266 500.206C663.08 500.532 662.739 500.715 662.389 500.715Z" fill="black"/>
<path fill-rule="evenodd" clip-rule="evenodd" d="M606.833 494.967C606.487 494.967 606.15 494.788 605.963 494.468C605.681 493.987 605.842 493.371 606.323 493.089L628.673 479.999C629.152 479.716 629.772 479.878 630.052 480.358C630.334 480.84 630.172 481.456 629.692 481.738L607.341 494.828C607.182 494.922 607.006 494.967 606.833 494.967Z" fill="black"/>
<path fill-rule="evenodd" clip-rule="evenodd" d="M585.442 482.838C585.106 482.838 584.775 482.669 584.585 482.361C584.292 481.888 584.438 481.266 584.911 480.973L623.546 457.027C624.017 456.733 624.64 456.878 624.933 457.353C625.227 457.825 625.08 458.447 624.607 458.74L585.972 482.686C585.808 482.789 585.624 482.838 585.442 482.838Z" fill="black"/>
<path fill-rule="evenodd" clip-rule="evenodd" d="M566.603 471.343C566.254 471.343 565.914 471.161 565.728 470.836C565.45 470.353 565.618 469.738 566.1 469.461L605.054 447.109C605.537 446.834 606.154 447.001 606.431 447.482C606.708 447.965 606.541 448.581 606.059 448.858L567.104 471.209C566.946 471.299 566.773 471.343 566.603 471.343Z" fill="black"/>
<path fill-rule="evenodd" clip-rule="evenodd" d="M538.505 454.736C538.141 454.736 537.789 454.539 537.61 454.194C537.353 453.701 537.544 453.092 538.038 452.834L560.708 441.02C561.201 440.764 561.811 440.955 562.068 441.448C562.324 441.942 562.133 442.55 561.639 442.808L538.97 454.622C538.822 454.699 538.662 454.736 538.505 454.736Z" fill="black"/>
<path fill-rule="evenodd" clip-rule="evenodd" d="M451.337 402.371C450.949 402.371 450.58 402.145 450.413 401.767C450.19 401.258 450.421 400.664 450.932 400.439L472.005 391.18C472.511 390.954 473.109 391.188 473.333 391.697C473.556 392.207 473.325 392.801 472.814 393.026L451.741 402.285C451.61 402.344 451.473 402.371 451.337 402.371Z" fill="black"/>
<path fill-rule="evenodd" clip-rule="evenodd" d="M430.582 389.919C430.185 389.919 429.808 389.683 429.65 389.292C429.439 388.777 429.686 388.189 430.201 387.978L451.274 379.358C451.789 379.144 452.377 379.394 452.587 379.909C452.798 380.424 452.551 381.012 452.036 381.222L430.963 389.843C430.839 389.895 430.709 389.919 430.582 389.919Z" fill="black"/>
<path fill-rule="evenodd" clip-rule="evenodd" d="M417.172 382.256C416.774 382.256 416.398 382.02 416.239 381.629C416.029 381.114 416.276 380.525 416.79 380.315L437.864 371.694C438.378 371.48 438.968 371.73 439.177 372.245C439.388 372.76 439.141 373.348 438.626 373.558L417.553 382.18C417.429 382.232 417.299 382.256 417.172 382.256Z" fill="black"/>
<path fill-rule="evenodd" clip-rule="evenodd" d="M655.685 475.811C655.361 475.811 655.045 475.656 654.85 475.369C654.537 474.908 654.657 474.282 655.118 473.969L673.956 461.198C674.419 460.884 675.044 461.005 675.357 461.466C675.669 461.927 675.548 462.553 675.089 462.866L656.25 475.637C656.076 475.755 655.879 475.811 655.685 475.811Z" fill="black"/>
<path fill-rule="evenodd" clip-rule="evenodd" d="M669.735 461.119C669.417 461.119 669.104 460.969 668.908 460.687C668.589 460.231 668.701 459.603 669.158 459.284L682.887 449.705C683.342 449.387 683.972 449.497 684.291 449.956C684.609 450.412 684.497 451.04 684.04 451.359L670.312 460.938C670.136 461.06 669.934 461.119 669.735 461.119Z" fill="black"/>
<path fill-rule="evenodd" clip-rule="evenodd" d="M673.567 446.755C673.236 446.755 672.913 446.593 672.72 446.294C672.418 445.827 672.552 445.202 673.02 444.9L693.774 431.49C694.239 431.188 694.865 431.321 695.167 431.789C695.469 432.256 695.335 432.881 694.867 433.183L674.113 446.594C673.945 446.703 673.756 446.755 673.567 446.755Z" fill="black"/>
<path fill-rule="evenodd" clip-rule="evenodd" d="M634.61 464.634C634.28 464.634 633.958 464.472 633.765 464.175C633.461 463.708 633.593 463.084 634.06 462.781L653.217 450.328C653.683 450.023 654.308 450.156 654.613 450.623C654.916 451.09 654.784 451.714 654.317 452.018L635.159 464.471C634.989 464.582 634.799 464.634 634.61 464.634Z" fill="black"/>
<path fill-rule="evenodd" clip-rule="evenodd" d="M649.938 450.269C649.6 450.269 649.269 450.099 649.079 449.789C648.787 449.313 648.936 448.693 649.41 448.402L663.459 439.782C663.935 439.491 664.553 439.639 664.845 440.113C665.136 440.588 664.988 441.208 664.514 441.499L650.465 450.12C650.3 450.22 650.118 450.269 649.938 450.269Z" fill="black"/>
<path fill-rule="evenodd" clip-rule="evenodd" d="M653.45 436.858C653.116 436.858 652.788 436.692 652.597 436.388C652.3 435.917 652.441 435.295 652.911 434.997L673.665 421.906C674.138 421.608 674.759 421.751 675.056 422.22C675.352 422.691 675.212 423.314 674.742 423.61L653.988 436.702C653.82 436.808 653.634 436.858 653.45 436.858Z" fill="black"/>
<path fill-rule="evenodd" clip-rule="evenodd" d="M709.646 440.687C709.308 440.687 708.977 440.516 708.786 440.207C708.495 439.733 708.643 439.112 709.116 438.819L717.418 433.711C717.892 433.422 718.513 433.567 718.805 434.042C719.096 434.516 718.949 435.138 718.475 435.429L710.173 440.537C710.008 440.638 709.826 440.687 709.646 440.687Z" fill="black"/>
<path fill-rule="evenodd" clip-rule="evenodd" d="M689.849 431.108C689.511 431.108 689.18 430.938 688.989 430.628C688.698 430.154 688.846 429.533 689.319 429.241L697.621 424.133C698.095 423.844 698.716 423.989 699.008 424.464C699.3 424.937 699.152 425.559 698.678 425.85L690.376 430.959C690.212 431.059 690.029 431.108 689.849 431.108Z" fill="black"/>
<path fill-rule="evenodd" clip-rule="evenodd" d="M670.693 422.166C670.334 422.166 669.986 421.974 669.804 421.636C669.54 421.146 669.724 420.535 670.214 420.27L678.516 415.801C679.007 415.536 679.617 415.72 679.881 416.21C680.145 416.7 679.961 417.312 679.472 417.576L671.17 422.045C671.018 422.128 670.854 422.166 670.693 422.166Z" fill="black"/>
<path fill-rule="evenodd" clip-rule="evenodd" d="M652.494 413.548C652.124 413.548 651.768 413.344 651.591 412.99C651.342 412.492 651.543 411.886 652.042 411.639L660.983 407.168C661.478 406.921 662.086 407.121 662.335 407.619C662.584 408.117 662.382 408.723 661.884 408.972L652.943 413.441C652.798 413.514 652.646 413.548 652.494 413.548Z" fill="black"/>
<path fill-rule="evenodd" clip-rule="evenodd" d="M614.817 453.777C614.473 453.777 614.136 453.599 613.949 453.281C613.666 452.801 613.825 452.184 614.304 451.901L633.78 440.406C634.26 440.122 634.879 440.282 635.161 440.762C635.444 441.241 635.285 441.859 634.806 442.142L615.329 453.636C615.169 453.731 614.991 453.777 614.817 453.777Z" fill="black"/>
<path fill-rule="evenodd" clip-rule="evenodd" d="M630.462 440.684C630.13 440.684 629.806 440.521 629.613 440.22C629.312 439.753 629.448 439.128 629.917 438.827L643.327 430.207C643.793 429.907 644.419 430.041 644.72 430.511C645.021 430.978 644.885 431.602 644.416 431.903L631.006 440.524C630.838 440.632 630.649 440.684 630.462 440.684Z" fill="black"/>
<path fill-rule="evenodd" clip-rule="evenodd" d="M634.931 427.596C634.582 427.596 634.243 427.414 634.057 427.09C633.779 426.608 633.945 425.992 634.427 425.714L655.5 413.58C655.981 413.301 656.6 413.469 656.877 413.952C657.155 414.434 656.989 415.05 656.506 415.328L635.433 427.461C635.275 427.552 635.102 427.596 634.931 427.596Z" fill="black"/>
<path fill-rule="evenodd" clip-rule="evenodd" d="M596.614 443.881C596.249 443.881 595.897 443.682 595.718 443.335C595.463 442.841 595.657 442.233 596.151 441.977L616.586 431.44C617.079 431.186 617.688 431.379 617.944 431.875C618.199 432.369 618.005 432.977 617.51 433.232L597.075 443.769C596.928 443.845 596.77 443.881 596.614 443.881Z" fill="black"/>
<path fill-rule="evenodd" clip-rule="evenodd" d="M610.985 430.794C610.638 430.794 610.299 430.613 610.112 430.29C609.834 429.807 609.998 429.192 610.48 428.913L624.849 420.611C625.331 420.335 625.947 420.497 626.226 420.979C626.504 421.462 626.339 422.078 625.858 422.357L611.489 430.658C611.33 430.75 611.157 430.794 610.985 430.794Z" fill="black"/>
<path fill-rule="evenodd" clip-rule="evenodd" d="M570.114 447.391C569.769 447.391 569.432 447.213 569.245 446.894C568.963 446.414 569.122 445.797 569.603 445.514L585.886 435.935C586.367 435.654 586.984 435.815 587.266 436.293C587.549 436.772 587.388 437.391 586.908 437.673L570.624 447.252C570.464 447.346 570.288 447.391 570.114 447.391Z" fill="black"/>
<path fill-rule="evenodd" clip-rule="evenodd" d="M578.099 433.982C577.743 433.982 577.399 433.793 577.215 433.46C576.947 432.973 577.125 432.359 577.613 432.091L596.771 421.555C597.259 421.286 597.871 421.466 598.139 421.953C598.408 422.44 598.23 423.053 597.742 423.322L578.584 433.858C578.43 433.942 578.263 433.982 578.099 433.982Z" fill="black"/>
<path fill-rule="evenodd" clip-rule="evenodd" d="M513.919 380.98C513.535 380.98 513.167 380.758 512.999 380.384C512.771 379.877 512.998 379.28 513.506 379.052L529.151 372.027C529.656 371.798 530.254 372.025 530.483 372.533C530.711 373.042 530.484 373.638 529.976 373.866L514.331 380.891C514.197 380.951 514.057 380.98 513.919 380.98Z" fill="black"/>
<path fill-rule="evenodd" clip-rule="evenodd" d="M499.552 372.997C499.169 372.997 498.802 372.777 498.633 372.405C498.404 371.899 498.627 371.301 499.135 371.071L513.184 364.684C513.688 364.454 514.288 364.679 514.518 365.186C514.748 365.692 514.524 366.29 514.018 366.52L499.968 372.907C499.833 372.968 499.691 372.997 499.552 372.997Z" fill="black"/>
<path fill-rule="evenodd" clip-rule="evenodd" d="M486.142 365.973C485.759 365.973 485.392 365.753 485.223 365.382C484.994 364.875 485.217 364.277 485.724 364.047L499.774 357.66C500.278 357.431 500.878 357.655 501.108 358.162C501.338 358.668 501.114 359.266 500.607 359.496L486.558 365.883C486.423 365.944 486.281 365.973 486.142 365.973Z" fill="black"/>
<path fill-rule="evenodd" clip-rule="evenodd" d="M472.411 359.591C472.028 359.591 471.661 359.371 471.492 358.999C471.263 358.493 471.487 357.895 471.994 357.665L486.044 351.278C486.547 351.047 487.147 351.273 487.378 351.78C487.608 352.286 487.384 352.884 486.877 353.114L472.827 359.501C472.693 359.562 472.551 359.591 472.411 359.591Z" fill="black"/>
<path fill-rule="evenodd" clip-rule="evenodd" d="M458.043 367.893C457.643 367.893 457.265 367.654 457.107 367.259C456.901 366.742 457.152 366.156 457.669 365.949L475.23 358.924C475.745 358.717 476.334 358.969 476.541 359.486C476.748 360.003 476.496 360.59 475.979 360.797L458.417 367.821C458.295 367.87 458.168 367.893 458.043 367.893Z" fill="black"/>
<path fill-rule="evenodd" clip-rule="evenodd" d="M471.133 375.236C470.733 375.236 470.354 374.996 470.197 374.601C469.991 374.085 470.242 373.498 470.759 373.292L488.32 366.267C488.834 366.062 489.424 366.312 489.631 366.829C489.837 367.345 489.585 367.933 489.069 368.139L471.507 375.163C471.385 375.213 471.257 375.236 471.133 375.236Z" fill="black"/>
<path fill-rule="evenodd" clip-rule="evenodd" d="M484.543 382.26C484.143 382.26 483.765 382.02 483.607 381.626C483.401 381.109 483.652 380.523 484.169 380.316L501.73 373.29C502.245 373.085 502.833 373.336 503.041 373.852C503.248 374.369 502.996 374.956 502.479 375.163L484.917 382.188C484.795 382.237 484.668 382.26 484.543 382.26Z" fill="black"/>
<path fill-rule="evenodd" clip-rule="evenodd" d="M498.594 389.923C498.194 389.923 497.815 389.684 497.658 389.289C497.452 388.773 497.703 388.186 498.22 387.98L515.78 380.955C516.295 380.749 516.883 381 517.091 381.517C517.297 382.033 517.045 382.62 516.529 382.827L498.968 389.851C498.846 389.901 498.718 389.923 498.594 389.923Z" fill="black"/>
<path fill-rule="evenodd" clip-rule="evenodd" d="M513.598 397.58C513.198 397.58 512.819 397.34 512.662 396.946C512.456 396.429 512.707 395.843 513.224 395.636L530.784 388.611C531.298 388.405 531.888 388.656 532.095 389.173C532.301 389.69 532.049 390.277 531.533 390.483L513.972 397.507C513.85 397.557 513.722 397.58 513.598 397.58Z" fill="black"/>
<path fill-rule="evenodd" clip-rule="evenodd" d="M529.247 406.52C528.883 406.52 528.531 406.322 528.352 405.976C528.096 405.482 528.288 404.873 528.782 404.616L546.024 395.677C546.518 395.418 547.127 395.613 547.384 396.107C547.64 396.602 547.447 397.211 546.953 397.467L529.711 406.406C529.562 406.484 529.403 406.52 529.247 406.52Z" fill="black"/>
<path fill-rule="evenodd" clip-rule="evenodd" d="M545.528 415.145C545.164 415.145 544.812 414.947 544.633 414.601C544.377 414.107 544.569 413.498 545.063 413.241L562.306 404.301C562.8 404.043 563.408 404.239 563.665 404.732C563.921 405.226 563.728 405.834 563.234 406.091L545.992 415.031C545.843 415.109 545.685 415.145 545.528 415.145Z" fill="black"/>
<path fill-rule="evenodd" clip-rule="evenodd" d="M562.134 423.763C561.769 423.763 561.417 423.564 561.238 423.219C560.982 422.724 561.175 422.116 561.669 421.859L578.911 412.919C579.406 412.66 580.013 412.856 580.27 413.35C580.527 413.844 580.333 414.452 579.839 414.709L562.598 423.649C562.449 423.726 562.29 423.763 562.134 423.763Z" fill="black"/>
<path fill-rule="evenodd" clip-rule="evenodd" d="M552.235 437.497C551.871 437.497 551.519 437.299 551.34 436.954C551.084 436.459 551.276 435.851 551.77 435.594L569.013 426.653C569.508 426.395 570.115 426.59 570.372 427.084C570.628 427.578 570.435 428.186 569.941 428.443L552.699 437.384C552.55 437.461 552.392 437.497 552.235 437.497Z" fill="black"/>
<path fill-rule="evenodd" clip-rule="evenodd" d="M534.993 428.237C534.629 428.237 534.277 428.039 534.098 427.694C533.842 427.199 534.034 426.59 534.528 426.334L551.771 417.395C552.263 417.138 552.872 417.331 553.13 417.825C553.386 418.32 553.193 418.929 552.699 419.185L535.457 428.124C535.308 428.201 535.149 428.237 534.993 428.237Z" fill="black"/>
<path fill-rule="evenodd" clip-rule="evenodd" d="M519.028 419.614C518.664 419.614 518.312 419.416 518.133 419.071C517.877 418.576 518.069 417.968 518.563 417.711L535.805 408.771C536.299 408.512 536.906 408.707 537.164 409.202C537.42 409.696 537.227 410.304 536.733 410.561L519.492 419.501C519.343 419.578 519.185 419.614 519.028 419.614Z" fill="black"/>
<path fill-rule="evenodd" clip-rule="evenodd" d="M503.064 409.719C502.678 409.719 502.31 409.496 502.142 409.12C501.916 408.612 502.145 408.016 502.654 407.79L519.896 400.126C520.407 399.9 521.001 400.131 521.226 400.638C521.453 401.147 521.223 401.742 520.715 401.968L503.472 409.632C503.34 409.691 503.2 409.719 503.064 409.719Z" fill="black"/>
<path fill-rule="evenodd" clip-rule="evenodd" d="M489.013 401.734C488.627 401.734 488.259 401.51 488.091 401.135C487.865 400.627 488.094 400.031 488.603 399.804L505.844 392.141C506.355 391.917 506.95 392.145 507.175 392.652C507.402 393.161 507.172 393.757 506.663 393.983L489.421 401.646C489.289 401.706 489.149 401.734 489.013 401.734Z" fill="black"/>
<path fill-rule="evenodd" clip-rule="evenodd" d="M474.009 394.389C473.623 394.389 473.255 394.166 473.087 393.791C472.861 393.282 473.09 392.687 473.599 392.46L490.84 384.797C491.352 384.572 491.945 384.802 492.171 385.309C492.398 385.818 492.168 386.414 491.659 386.64L474.418 394.302C474.285 394.362 474.145 394.389 474.009 394.389Z" fill="black"/>
<path fill-rule="evenodd" clip-rule="evenodd" d="M460.279 386.092C459.892 386.092 459.525 385.869 459.357 385.493C459.131 384.985 459.36 384.39 459.869 384.163L477.11 376.5C477.621 376.276 478.215 376.504 478.441 377.012C478.667 377.521 478.437 378.116 477.929 378.342L460.687 386.005C460.554 386.064 460.415 386.092 460.279 386.092Z" fill="black"/>
<path fill-rule="evenodd" clip-rule="evenodd" d="M447.824 378.104C447.428 378.104 447.052 377.869 446.893 377.48C446.68 376.965 446.926 376.375 447.441 376.164L463.725 369.46C464.239 369.246 464.828 369.492 465.04 370.007C465.253 370.523 465.007 371.112 464.493 371.324L448.208 378.028C448.083 378.08 447.952 378.104 447.824 378.104Z" fill="black"/>
<path fill-rule="evenodd" clip-rule="evenodd" d="M434.735 371.082C434.338 371.082 433.963 370.847 433.803 370.458C433.59 369.943 433.837 369.353 434.351 369.141L450.635 362.437C451.148 362.222 451.738 362.469 451.95 362.984C452.163 363.5 451.917 364.089 451.403 364.301L435.118 371.005C434.993 371.058 434.862 371.082 434.735 371.082Z" fill="black"/>
<path fill-rule="evenodd" clip-rule="evenodd" d="M528.927 387.685C528.544 387.685 528.177 387.465 528.008 387.094C527.779 386.587 528.002 385.989 528.509 385.759L542.558 379.372C543.064 379.14 543.662 379.368 543.892 379.873C544.123 380.38 543.898 380.978 543.393 381.208L529.344 387.595C529.208 387.656 529.066 387.685 528.927 387.685Z" fill="black"/>
<path fill-rule="evenodd" clip-rule="evenodd" d="M543.294 395.349C542.911 395.349 542.544 395.129 542.375 394.757C542.146 394.251 542.369 393.653 542.877 393.423L556.927 387.036C557.431 386.805 558.03 387.03 558.26 387.538C558.491 388.044 558.266 388.642 557.76 388.872L543.71 395.259C543.576 395.32 543.434 395.349 543.294 395.349Z" fill="black"/>
<path fill-rule="evenodd" clip-rule="evenodd" d="M559.9 403.333C559.517 403.333 559.15 403.113 558.981 402.742C558.751 402.235 558.975 401.637 559.481 401.407L573.53 395.02C574.037 394.789 574.635 395.016 574.865 395.521C575.095 396.028 574.871 396.626 574.365 396.856L560.316 403.243C560.181 403.304 560.039 403.333 559.9 403.333Z" fill="black"/>
<path fill-rule="evenodd" clip-rule="evenodd" d="M576.181 411.949C575.798 411.949 575.431 411.729 575.262 411.358C575.033 410.851 575.256 410.253 575.763 410.023L589.813 403.638C590.316 403.407 590.917 403.633 591.147 404.139C591.377 404.646 591.153 405.244 590.647 405.474L576.597 411.859C576.462 411.921 576.32 411.949 576.181 411.949Z" fill="black"/>
<path fill-rule="evenodd" clip-rule="evenodd" d="M593.423 420.254C593.04 420.254 592.673 420.034 592.504 419.662C592.275 419.156 592.498 418.558 593.006 418.328L607.055 411.942C607.559 411.712 608.158 411.937 608.389 412.443C608.619 412.95 608.394 413.548 607.888 413.778L593.839 420.164C593.705 420.225 593.563 420.254 593.423 420.254Z" fill="black"/>
<path fill-rule="evenodd" clip-rule="evenodd" d="M616.412 417.7C616.053 417.7 615.705 417.508 615.523 417.17C615.259 416.68 615.443 416.069 615.933 415.804L636.687 404.628C637.179 404.365 637.788 404.547 638.052 405.038C638.316 405.529 638.132 406.139 637.643 406.404L616.889 417.579C616.737 417.661 616.573 417.7 616.412 417.7Z" fill="black"/>
<path fill-rule="evenodd" clip-rule="evenodd" d="M598.853 409.081C598.494 409.081 598.146 408.889 597.964 408.551C597.7 408.061 597.884 407.45 598.374 407.185L619.128 396.01C619.62 395.749 620.229 395.93 620.494 396.42C620.758 396.91 620.574 397.521 620.084 397.786L599.33 408.96C599.178 409.043 599.014 409.081 598.853 409.081Z" fill="black"/>
<path fill-rule="evenodd" clip-rule="evenodd" d="M582.247 400.777C581.889 400.777 581.541 400.585 581.359 400.247C581.095 399.757 581.279 399.146 581.769 398.882L602.523 387.706C603.015 387.443 603.624 387.626 603.888 388.116C604.152 388.607 603.968 389.217 603.478 389.482L582.725 400.656C582.573 400.739 582.409 400.777 582.247 400.777Z" fill="black"/>
<path fill-rule="evenodd" clip-rule="evenodd" d="M565.966 393.113C565.608 393.113 565.26 392.921 565.077 392.583C564.814 392.093 564.998 391.482 565.487 391.217L586.241 380.042C586.733 379.779 587.343 379.962 587.607 380.452C587.871 380.942 587.687 381.553 587.197 381.818L566.443 392.992C566.291 393.075 566.127 393.113 565.966 393.113Z" fill="black"/>
<path fill-rule="evenodd" clip-rule="evenodd" d="M550.638 385.131C550.275 385.131 549.924 384.934 549.744 384.59C549.486 384.097 549.676 383.488 550.169 383.229L570.285 372.692C570.778 372.437 571.387 372.625 571.646 373.118C571.903 373.611 571.713 374.221 571.22 374.479L551.105 385.016C550.955 385.094 550.795 385.131 550.638 385.131Z" fill="black"/>
<path fill-rule="evenodd" clip-rule="evenodd" d="M535.951 377.152C535.562 377.152 535.192 376.926 535.026 376.548C534.803 376.038 535.036 375.444 535.546 375.22L555.98 366.28C556.495 366.057 557.086 366.29 557.309 366.799C557.531 367.309 557.298 367.904 556.789 368.127L536.354 377.067C536.222 377.125 536.085 377.152 535.951 377.152Z" fill="black"/>
<path fill-rule="evenodd" clip-rule="evenodd" d="M521.263 369.808C520.874 369.808 520.505 369.582 520.338 369.204C520.116 368.694 520.348 368.099 520.858 367.876L541.293 358.936C541.807 358.713 542.398 358.946 542.621 359.456C542.844 359.965 542.611 360.56 542.102 360.784L521.666 369.723C521.534 369.781 521.398 369.808 521.263 369.808Z" fill="black"/>
<path fill-rule="evenodd" clip-rule="evenodd" d="M506.896 363.418C506.507 363.418 506.137 363.192 505.971 362.814C505.749 362.304 505.981 361.709 506.491 361.486L526.926 352.546C527.441 352.323 528.03 352.555 528.254 353.065C528.476 353.575 528.244 354.169 527.735 354.393L507.299 363.333C507.167 363.391 507.03 363.418 506.896 363.418Z" fill="black"/>
<path fill-rule="evenodd" clip-rule="evenodd" d="M493.802 356.714C493.413 356.714 493.044 356.488 492.877 356.11C492.655 355.601 492.887 355.006 493.397 354.782L513.832 345.842C514.346 345.62 514.937 345.852 515.16 346.361C515.383 346.871 515.15 347.466 514.641 347.689L494.205 356.63C494.074 356.687 493.937 356.714 493.802 356.714Z" fill="black"/>
<path fill-rule="evenodd" clip-rule="evenodd" d="M480.712 350.331C480.323 350.331 479.954 350.105 479.788 349.727C479.565 349.217 479.798 348.622 480.308 348.399L500.742 339.46C501.256 339.237 501.848 339.469 502.07 339.979C502.293 340.489 502.06 341.083 501.551 341.307L481.116 350.246C480.984 350.304 480.847 350.331 480.712 350.331Z" fill="black"/>
<path fill-rule="evenodd" clip-rule="evenodd" d="M634.931 405.569C634.617 405.569 634.309 405.424 634.112 405.15C633.787 404.698 633.889 404.068 634.341 403.743L642.323 397.995C642.773 397.67 643.405 397.771 643.73 398.224C644.055 398.676 643.952 399.306 643.5 399.631L635.519 405.378C635.341 405.508 635.135 405.569 634.931 405.569Z" fill="black"/>
<path fill-rule="evenodd" clip-rule="evenodd" d="M618.009 396.622C617.64 396.622 617.283 396.418 617.107 396.065C616.858 395.567 617.059 394.96 617.557 394.712L625.221 390.88C625.72 390.631 626.324 390.833 626.573 391.331C626.822 391.829 626.621 392.435 626.123 392.684L618.459 396.515C618.314 396.587 618.161 396.622 618.009 396.622Z" fill="black"/>
<path fill-rule="evenodd" clip-rule="evenodd" d="M601.724 388.645C601.354 388.645 600.998 388.44 600.822 388.088C600.572 387.59 600.774 386.983 601.272 386.735L608.935 382.903C609.435 382.655 610.038 382.855 610.288 383.353C610.537 383.851 610.336 384.458 609.838 384.707L602.174 388.538C602.029 388.61 601.876 388.645 601.724 388.645Z" fill="black"/>
<path fill-rule="evenodd" clip-rule="evenodd" d="M585.443 381.621C585.073 381.621 584.717 381.417 584.541 381.065C584.291 380.566 584.493 379.96 584.991 379.712L592.654 375.88C593.153 375.631 593.758 375.832 594.007 376.33C594.256 376.828 594.054 377.435 593.556 377.684L585.893 381.515C585.748 381.587 585.595 381.621 585.443 381.621Z" fill="black"/>
<path fill-rule="evenodd" clip-rule="evenodd" d="M570.435 374.278C570.065 374.278 569.709 374.074 569.533 373.721C569.283 373.223 569.485 372.616 569.983 372.368L577.646 368.536C578.146 368.288 578.75 368.488 578.999 368.987C579.248 369.485 579.047 370.091 578.549 370.34L570.885 374.171C570.74 374.243 570.587 374.278 570.435 374.278Z" fill="black"/>
<path fill-rule="evenodd" clip-rule="evenodd" d="M555.747 367.254C555.378 367.254 555.022 367.05 554.845 366.697C554.596 366.199 554.797 365.593 555.296 365.345L562.958 361.513C563.457 361.264 564.062 361.466 564.31 361.963C564.56 362.461 564.358 363.068 563.86 363.316L556.198 367.147C556.052 367.22 555.899 367.254 555.747 367.254Z" fill="black"/>
<path fill-rule="evenodd" clip-rule="evenodd" d="M541.697 360.542C541.327 360.542 540.971 360.338 540.795 359.986C540.545 359.487 540.747 358.881 541.245 358.633L548.908 354.801C549.407 354.554 550.012 354.754 550.26 355.251C550.51 355.749 550.308 356.356 549.81 356.605L542.147 360.436C542.002 360.508 541.849 360.542 541.697 360.542Z" fill="black"/>
<path fill-rule="evenodd" clip-rule="evenodd" d="M528.287 354.161C527.917 354.161 527.561 353.956 527.384 353.604C527.135 353.106 527.336 352.499 527.835 352.251L535.498 348.419C535.997 348.171 536.602 348.371 536.85 348.869C537.1 349.368 536.898 349.974 536.4 350.223L528.737 354.054C528.591 354.126 528.439 354.161 528.287 354.161Z" fill="black"/>
<path fill-rule="evenodd" clip-rule="evenodd" d="M514.876 348.411C514.507 348.411 514.151 348.206 513.974 347.854C513.725 347.356 513.926 346.749 514.424 346.501L522.087 342.669C522.587 342.421 523.191 342.621 523.439 343.119C523.689 343.618 523.487 344.224 522.989 344.473L515.327 348.304C515.181 348.376 515.028 348.411 514.876 348.411Z" fill="black"/>
<path fill-rule="evenodd" clip-rule="evenodd" d="M501.146 341.707C500.776 341.707 500.42 341.502 500.244 341.15C499.994 340.651 500.196 340.045 500.694 339.797L508.357 335.965C508.857 335.718 509.461 335.918 509.71 336.415C509.959 336.913 509.758 337.52 509.259 337.769L501.596 341.6C501.451 341.672 501.298 341.707 501.146 341.707Z" fill="black"/>
<path fill-rule="evenodd" clip-rule="evenodd" d="M517.909 142.414L700.386 218.566L675.002 333.033L506.574 268.695L517.909 142.414Z" fill="#C8EDFF"/>
<path fill-rule="evenodd" clip-rule="evenodd" d="M507.468 268.141L674.393 331.904L699.415 219.074L518.644 143.634L507.468 268.141ZM675.002 333.876C674.9 333.876 674.8 333.858 674.703 333.821L506.275 269.484C505.923 269.349 505.704 268.999 505.738 268.623L517.074 142.342C517.097 142.076 517.247 141.837 517.476 141.698C517.706 141.562 517.987 141.54 518.233 141.642L700.71 217.794C701.086 217.951 701.295 218.354 701.207 218.752L675.823 333.218C675.769 333.456 675.616 333.66 675.4 333.776C675.276 333.843 675.14 333.876 675.002 333.876Z" fill="black"/>
<path fill-rule="evenodd" clip-rule="evenodd" d="M563.676 232.405C556.216 232.405 551.448 233.994 550.448 236.871C549.336 240.069 552.859 244.904 560.113 250.138C567.737 255.638 578.577 260.976 590.635 265.169C602.693 269.361 614.506 271.9 623.897 272.316C632.83 272.708 638.595 271.105 639.708 267.909C641.854 261.738 626.217 248.895 599.521 239.611C587.462 235.419 575.649 232.88 566.258 232.464C565.366 232.424 564.503 232.405 563.676 232.405ZM626.447 274.054C625.603 274.054 624.73 274.035 623.823 273.994C614.273 273.571 602.291 271 590.083 266.755C577.875 262.511 566.882 257.094 559.131 251.499C551.115 245.717 547.468 240.326 548.861 236.32C550.253 232.315 556.454 230.352 566.332 230.786C575.882 231.209 587.864 233.78 600.072 238.025C622.791 245.925 644.422 259.469 641.294 268.46C640.029 272.099 634.794 274.054 626.447 274.054Z" fill="black"/>
<path fill-rule="evenodd" clip-rule="evenodd" d="M590.001 345.691C589.809 345.691 589.625 345.65 589.452 345.567C588.66 345.184 588.563 344.201 588.461 343.157C588.334 341.866 588.184 340.858 587.516 340.627C587.036 340.46 586.903 340.509 586.288 341.481C585.694 342.421 584.788 343.847 582.651 343.446C580.538 343.057 580.157 341.128 579.88 339.72C579.606 338.332 579.391 337.47 578.467 337.225C577.567 336.993 576.816 337.657 575.665 338.768C574.327 340.059 572.658 341.664 570.118 341.103C567.405 340.503 567.403 337.99 567.402 335.97C567.401 333.993 567.319 332.754 566.214 332.207C564.986 331.598 564.052 332.496 562.668 334.049C561.565 335.289 560.315 336.697 558.681 336.127C556.899 335.508 557.251 333.422 557.534 331.744C557.664 330.973 557.882 329.68 557.624 329.421C557.58 329.376 557.377 329.308 556.922 329.381C555.451 329.611 554.36 330.249 553.397 330.812C551.974 331.643 550.363 332.584 548.59 330.766C547.185 329.325 548.487 326.563 551.081 321.062C553.765 315.368 557.822 306.764 560.217 295.928C561.693 289.252 562.217 273.028 549.144 239.393C548.826 238.574 548.768 238.42 548.739 238.309C548.623 237.861 548.892 237.402 549.342 237.286C549.784 237.169 550.236 237.432 550.361 237.87C550.395 237.975 550.518 238.288 550.711 238.784C556.39 253.399 565.392 280.304 561.858 296.29C559.423 307.311 555.317 316.017 552.602 321.778C551.007 325.157 549.202 328.987 549.793 329.593C550.615 330.439 551.043 330.241 552.55 329.361C553.586 328.756 554.878 328 556.663 327.721C557.606 327.575 558.334 327.748 558.819 328.24C559.681 329.113 559.432 330.592 559.19 332.024C559.022 333.021 558.792 334.387 559.232 334.541C559.765 334.722 560.442 334.023 561.414 332.932C562.711 331.475 564.489 329.481 566.958 330.701C569.079 331.749 569.081 334.089 569.082 335.97C569.083 338.232 569.21 339.182 570.481 339.462C572.148 339.83 573.288 338.727 574.497 337.56C575.686 336.411 577.036 335.109 578.895 335.601C580.884 336.125 581.241 337.939 581.528 339.394C581.839 340.97 582.055 341.629 582.954 341.794C583.939 341.972 584.27 341.528 584.869 340.582C585.416 339.716 586.241 338.402 588.067 339.04C589.804 339.644 590.002 341.659 590.133 342.994C590.158 343.257 590.193 343.605 590.238 343.861C591.118 343.046 591.906 336.866 592.54 331.886C593.254 326.281 594.064 319.926 595.404 315.388C595.673 314.476 595.925 313.6 596.167 312.758C598.465 304.771 599.984 299.495 607.609 293.72C615.697 287.596 638.601 269.841 638.832 269.662C639.197 269.377 639.726 269.444 640.01 269.812C640.294 270.178 640.227 270.706 639.86 270.99C639.63 271.169 616.719 288.929 608.623 295.059C601.443 300.497 600.064 305.287 597.782 313.223C597.538 314.068 597.286 314.947 597.015 315.863C595.714 320.272 594.913 326.556 594.207 332.099C593.184 340.121 592.582 344.35 591.115 345.302C590.716 345.562 590.343 345.691 590.001 345.691Z" fill="black"/>
<path fill-rule="evenodd" clip-rule="evenodd" d="M593.563 329.867C593.243 329.867 592.938 329.684 592.798 329.375C592.769 329.312 589.811 322.766 578.298 294.409C566.678 265.781 577.454 233.349 577.564 233.024C577.714 232.584 578.19 232.347 578.63 232.5C579.07 232.648 579.304 233.125 579.156 233.565C579.048 233.883 568.474 265.74 579.856 293.778C591.344 322.076 594.299 328.617 594.327 328.68C594.519 329.102 594.332 329.6 593.909 329.792C593.796 329.844 593.679 329.867 593.563 329.867Z" fill="black"/>
<path fill-rule="evenodd" clip-rule="evenodd" d="M561.878 295.987C561.704 295.987 561.529 295.933 561.378 295.821C561.006 295.545 560.928 295.019 561.204 294.646C583.456 264.673 582.851 234.216 582.842 233.912C582.829 233.448 583.194 233.062 583.658 233.047C584.099 233.036 584.509 233.399 584.522 233.864C584.53 234.174 585.149 265.213 562.553 295.647C562.388 295.869 562.135 295.987 561.878 295.987Z" fill="black"/>
<path fill-rule="evenodd" clip-rule="evenodd" d="M596.208 316.465C595.818 316.465 595.468 316.191 595.386 315.793C595.146 314.619 589.509 286.95 589.813 280.988C590.034 276.616 591.895 272.106 594.712 265.281C595.856 262.505 597.155 259.358 598.597 255.624C603.827 242.078 612.073 243.2 612.421 243.255C612.88 243.326 613.193 243.755 613.122 244.214C613.05 244.67 612.62 244.974 612.166 244.915C611.847 244.87 604.868 244.048 600.164 256.229C598.715 259.981 597.414 263.137 596.264 265.922C593.417 272.824 591.698 276.989 591.491 281.073C591.197 286.825 596.974 315.171 597.032 315.457C597.126 315.911 596.832 316.355 596.377 316.447C596.321 316.459 596.264 316.465 596.208 316.465Z" fill="black"/>
<path fill-rule="evenodd" clip-rule="evenodd" d="M556.723 311.527C556.516 311.527 556.309 311.451 556.146 311.299C555.809 310.98 555.794 310.448 556.111 310.11C560.124 305.862 568.185 297.945 576.717 289.565C586.679 279.782 597.97 268.694 604.236 262.025C615.114 250.449 613.119 245.027 613.095 244.975C612.905 244.553 613.092 244.055 613.515 243.865C613.941 243.671 614.437 243.862 614.627 244.285C614.74 244.537 617.275 250.603 605.46 263.175C599.171 269.868 587.868 280.97 577.894 290.764C569.373 299.133 561.324 307.038 557.334 311.265C557.168 311.439 556.946 311.527 556.723 311.527Z" fill="black"/>
<path fill-rule="evenodd" clip-rule="evenodd" d="M600.419 304.358C600.365 304.358 600.308 304.352 600.252 304.341C599.797 304.249 599.503 303.807 599.595 303.352C599.627 303.195 602.906 287.475 615.55 271.308C628.552 254.684 635.958 259.39 636.269 259.599C636.653 259.858 636.754 260.381 636.495 260.766C636.238 261.147 635.723 261.25 635.336 260.997C633.121 259.587 626.408 260.152 616.874 272.343C604.488 288.18 601.273 303.532 601.241 303.685C601.161 304.084 600.811 304.358 600.419 304.358Z" fill="black"/>
<path fill-rule="evenodd" clip-rule="evenodd" d="M549.281 330.046C549.129 330.046 548.975 330.005 548.837 329.919C548.443 329.673 548.323 329.155 548.569 328.762C551.391 324.241 565.123 311.014 586.82 295.762C607.862 280.969 637.795 260.522 638.094 260.317C638.479 260.058 639 260.155 639.263 260.537C639.525 260.921 639.426 261.443 639.042 261.705C638.743 261.909 608.819 282.35 587.787 297.136C566.282 312.253 552.741 325.25 549.995 329.65C549.835 329.906 549.561 330.046 549.281 330.046Z" fill="black"/>
<path fill-rule="evenodd" clip-rule="evenodd" d="M563.35 332.926C562.941 332.926 562.582 332.627 562.52 332.209L558.24 303.336C558.172 302.878 558.488 302.45 558.948 302.382C559.407 302.323 559.834 302.631 559.902 303.089L564.182 331.964C564.25 332.421 563.933 332.849 563.474 332.917C563.433 332.923 563.391 332.926 563.35 332.926Z" fill="black"/>
<path fill-rule="evenodd" clip-rule="evenodd" d="M575.894 338.042C575.517 338.042 575.175 337.786 575.079 337.403C574.391 334.626 558.224 269.159 559.28 251.018C559.306 250.555 559.709 250.208 560.166 250.227C560.63 250.255 560.984 250.652 560.957 251.115C559.916 269.004 576.541 336.321 576.71 337C576.821 337.45 576.546 337.906 576.096 338.017C576.029 338.033 575.961 338.042 575.894 338.042Z" fill="black"/>
<path fill-rule="evenodd" clip-rule="evenodd" d="M586.672 340.285C586.338 340.285 586.021 340.083 585.89 339.753C585.184 337.962 568.604 295.752 570.028 285.094C571.453 274.432 580.458 262.52 580.841 262.018C581.122 261.651 581.648 261.577 582.018 261.86C582.386 262.141 582.458 262.668 582.176 263.037C582.086 263.156 573.058 275.1 571.693 285.317C570.326 295.545 587.283 338.702 587.454 339.137C587.624 339.568 587.412 340.057 586.98 340.227C586.879 340.267 586.774 340.285 586.672 340.285Z" fill="black"/>
<path fill-rule="evenodd" clip-rule="evenodd" d="M558.519 329.488C558.314 329.488 558.108 329.413 557.946 329.261C557.607 328.945 557.589 328.413 557.906 328.074C557.97 328.007 564.385 321.04 575.78 300.332C587.086 279.783 582.832 264.14 582.789 263.984C582.661 263.537 582.92 263.074 583.367 262.946C583.808 262.82 584.277 263.077 584.404 263.525C584.593 264.187 588.888 279.993 577.251 301.143C565.729 322.084 559.396 328.941 559.132 329.223C558.967 329.399 558.744 329.488 558.519 329.488Z" fill="black"/>
<path fill-rule="evenodd" clip-rule="evenodd" d="M601.987 299.129C601.829 299.129 601.667 299.084 601.524 298.99C601.431 298.928 592.262 292.702 595.54 281.765C598.793 270.909 606.19 269.72 606.503 269.675C606.962 269.598 607.389 269.925 607.455 270.385C607.521 270.843 607.205 271.269 606.748 271.337C606.477 271.379 600.079 272.474 597.149 282.247C594.225 292.003 602.37 297.535 602.453 297.589C602.839 297.846 602.945 298.366 602.689 298.754C602.527 298.997 602.26 299.129 601.987 299.129Z" fill="black"/>
<path fill-rule="evenodd" clip-rule="evenodd" d="M564.715 331.896C564.495 331.896 564.277 331.811 564.111 331.64C563.789 331.307 563.798 330.775 564.131 330.452L603.497 292.384C603.83 292.063 604.362 292.071 604.685 292.404C605.007 292.738 604.998 293.27 604.665 293.591L565.299 331.66C565.136 331.817 564.925 331.896 564.715 331.896Z" fill="black"/>
<path fill-rule="evenodd" clip-rule="evenodd" d="M568.705 337.053C568.431 337.053 568.162 336.918 568 336.671C567.746 336.283 567.856 335.763 568.245 335.509C568.377 335.423 581.657 326.669 596.931 309.017C597.234 308.665 597.765 308.629 598.116 308.931C598.467 309.235 598.504 309.765 598.2 310.116C582.76 327.961 569.297 336.828 569.162 336.917C569.021 337.008 568.862 337.053 568.705 337.053Z" fill="black"/>
<path fill-rule="evenodd" clip-rule="evenodd" d="M580.895 340.285C580.677 340.285 580.457 340.201 580.294 340.032C579.969 339.7 579.976 339.167 580.309 338.844C580.381 338.773 587.584 331.747 593.513 325.385C593.828 325.045 594.361 325.027 594.7 325.343C595.039 325.659 595.057 326.19 594.741 326.53C588.785 332.922 581.554 339.976 581.481 340.047C581.318 340.206 581.107 340.285 580.895 340.285Z" fill="black"/>
<path fill-rule="evenodd" clip-rule="evenodd" d="M597.681 289.84C597.4 289.84 597.125 289.699 596.965 289.442C596.722 289.048 596.844 288.53 597.238 288.285C610.301 280.195 607.934 272.063 607.909 271.982C607.77 271.54 608.016 271.068 608.459 270.929C608.903 270.791 609.373 271.037 609.512 271.48C609.632 271.862 612.283 280.944 598.122 289.715C597.984 289.8 597.832 289.84 597.681 289.84Z" fill="black"/>
<path fill-rule="evenodd" clip-rule="evenodd" d="M530.429 256.854L640.051 297.914L653.424 241.27L547.667 198.148L530.429 256.854ZM640.65 299.875C640.551 299.875 640.451 299.856 640.355 299.821L529.109 258.154C528.696 257.999 528.473 257.552 528.596 257.13L546.317 196.783C546.384 196.556 546.546 196.366 546.759 196.263C546.973 196.16 547.221 196.152 547.441 196.242L654.724 239.986C655.107 240.142 655.319 240.554 655.224 240.957L641.467 299.227C641.412 299.463 641.258 299.662 641.046 299.776C640.922 299.841 640.786 299.875 640.65 299.875Z" fill="black"/>
<path fill-rule="evenodd" clip-rule="evenodd" d="M655.985 212.313C648.773 229.612 628.905 237.79 611.606 230.579C594.307 223.368 586.129 203.499 593.34 186.199C600.551 168.9 620.42 160.723 637.719 167.934C655.018 175.145 663.196 195.013 655.985 212.313Z" fill="#FFCA71"/>
<path fill-rule="evenodd" clip-rule="evenodd" d="M624.706 166.16C611.739 166.16 599.407 173.826 594.115 186.521C587.093 203.365 595.085 222.781 611.929 229.802C628.771 236.822 648.186 228.831 655.209 211.988C662.23 195.145 654.239 175.729 637.395 168.707C633.247 166.978 628.942 166.16 624.706 166.16ZM624.615 234.029C620.162 234.029 615.642 233.171 611.282 231.353C593.583 223.975 585.186 203.573 592.564 185.874C596.137 177.301 602.836 170.633 611.426 167.097C620.016 163.562 629.469 163.582 638.042 167.157C655.74 174.534 664.137 194.936 656.759 212.635C651.199 225.973 638.238 234.029 624.615 234.029Z" fill="black"/>
<path fill-rule="evenodd" clip-rule="evenodd" d="M597.175 220.389C596.784 220.389 596.434 220.115 596.353 219.718C596.31 219.506 592.245 198.381 611.883 179.804C631.703 161.054 649.128 174.19 649.303 174.325C649.668 174.61 649.735 175.136 649.451 175.503C649.168 175.87 648.642 175.938 648.273 175.653C647.61 175.139 631.786 163.289 613.038 181.025C594.071 198.965 597.958 219.178 597.998 219.38C598.092 219.834 597.799 220.278 597.345 220.371C597.288 220.383 597.231 220.389 597.175 220.389Z" fill="black"/>
<path fill-rule="evenodd" clip-rule="evenodd" d="M658.101 202.203C657.763 202.203 657.444 201.996 657.315 201.66C657.286 201.582 654.225 193.69 646.172 187.107C641.966 183.668 637.507 181.965 633.196 180.32C629.134 178.77 625.296 177.304 622.196 174.529C619.8 172.384 618.716 170.33 618.975 168.424C619.287 166.113 621.461 165.01 621.554 164.964C621.969 164.756 622.473 164.926 622.679 165.343C622.885 165.757 622.717 166.259 622.304 166.467C622.271 166.484 620.822 167.246 620.637 168.662C620.468 169.96 621.395 171.557 623.317 173.277C626.186 175.846 629.881 177.257 633.795 178.751C638.025 180.365 642.819 182.196 647.235 185.806C655.654 192.69 658.759 200.727 658.888 201.065C659.051 201.5 658.832 201.984 658.399 202.148C658.3 202.185 658.2 202.203 658.101 202.203Z" fill="black"/>
<path fill-rule="evenodd" clip-rule="evenodd" d="M645.605 225.408C645.259 225.408 644.934 225.193 644.813 224.848C636.723 201.946 625.342 189.025 617.811 180.475C617.207 179.788 616.626 179.13 616.073 178.494C609.141 170.54 605.065 172.47 605.025 172.495C604.615 172.7 604.111 172.545 603.896 172.142C603.682 171.736 603.825 171.239 604.225 171.017C604.432 170.9 609.419 168.302 617.339 177.39C617.891 178.024 618.469 178.68 619.072 179.364C626.688 188.011 638.199 201.08 646.397 224.288C646.551 224.726 646.322 225.205 645.884 225.36C645.792 225.392 645.697 225.408 645.605 225.408Z" fill="black"/>
<path fill-rule="evenodd" clip-rule="evenodd" d="M623.66 234.254C623.425 234.254 623.189 234.156 623.024 233.963C622.858 233.77 618.912 229.157 616.128 222.169C612.87 213.994 613.059 198.252 613.069 197.586C613.145 192.232 612.547 184.795 606.482 182.042C600.254 179.213 593.262 188.568 593.192 188.665C592.916 189.038 592.39 189.118 592.017 188.841C591.644 188.566 591.564 188.041 591.84 187.667C592.157 187.235 599.726 177.127 607.176 180.513C614.138 183.673 614.832 191.784 614.749 197.61C614.663 203.545 615.185 215.266 617.688 221.547C620.363 228.259 624.257 232.82 624.296 232.866C624.598 233.218 624.56 233.747 624.208 234.05C624.05 234.187 623.854 234.254 623.66 234.254Z" fill="black"/>
<path fill-rule="evenodd" clip-rule="evenodd" d="M681.476 286.227C681.476 286.227 653.2 287.838 652.081 283.983C650.96 280.127 656.275 280.104 661.487 279.73C666.699 279.355 678.888 280.755 678.888 280.755C678.888 280.755 667.677 251.325 667.574 245.084C667.47 238.842 671.598 242.583 671.598 242.583L681.011 267.785C681.011 267.785 682.748 246.946 682.951 241.756C683.153 236.566 681.851 231.433 684.532 230.844C687.21 230.256 687.878 233.863 687.756 239.979C687.633 246.097 685.986 264.629 685.986 264.629C685.986 264.629 688.619 259.303 691.703 248.335C694.788 237.366 698.597 231.508 698.597 231.508C698.597 231.508 703.899 228.828 700.216 240.35C696.533 251.873 689.459 271.84 689.459 271.84L710.285 409.663L701.025 405.832L681.476 286.227Z" fill="#E8F2DC"/>
<path fill-rule="evenodd" clip-rule="evenodd" d="M701.78 405.238L709.233 408.322L688.63 271.969C688.608 271.833 688.622 271.693 688.668 271.562C688.739 271.363 695.779 251.475 699.417 240.097C701.41 233.861 700.536 232.499 700.221 232.23C699.929 231.982 699.437 232.096 699.167 232.187C698.468 233.339 695.197 239.02 692.513 248.565C689.442 259.483 686.849 264.784 686.74 265.005C686.56 265.366 686.148 265.551 685.759 265.441C685.37 265.332 685.113 264.961 685.149 264.557C685.166 264.373 686.796 245.984 686.917 239.966C687.009 235.324 686.589 232.586 685.666 231.829C685.501 231.692 685.241 231.55 684.713 231.667C683.485 231.937 683.596 234.471 683.724 237.404C683.783 238.752 683.849 240.278 683.79 241.792C683.59 246.941 681.867 267.649 681.848 267.858C681.816 268.25 681.516 268.567 681.127 268.62C680.743 268.678 680.363 268.451 680.225 268.082L670.888 243.084C670.328 242.632 669.466 242.166 669.058 242.355C668.727 242.506 668.385 243.299 668.414 245.073C668.513 251.096 679.563 280.165 679.674 280.459C679.778 280.733 679.732 281.042 679.553 281.273C679.371 281.505 679.081 281.63 678.793 281.593C678.672 281.578 666.631 280.204 661.547 280.57L660.335 280.654C657.137 280.866 653.832 281.085 652.98 282.302C652.89 282.43 652.617 282.821 652.888 283.751C653.339 285.304 664.916 286.331 681.429 285.391C681.837 285.373 682.236 285.669 682.306 286.094L701.78 405.238ZM710.286 410.506C710.177 410.506 710.068 410.485 709.965 410.442L700.705 406.611C700.436 406.501 700.244 406.258 700.196 405.971L680.77 287.11C671.701 287.599 652.419 288.166 651.275 284.221C650.945 283.089 651.056 282.12 651.604 281.338C652.917 279.463 656.303 279.237 660.223 278.977L661.428 278.895C665.672 278.588 674.267 279.42 677.619 279.775C675.434 273.965 666.828 250.734 666.734 245.101C666.695 242.738 667.229 241.34 668.366 240.824C670.015 240.082 671.947 241.77 672.163 241.964C672.262 242.054 672.339 242.166 672.386 242.293L680.482 263.97C680.991 257.723 681.964 245.495 682.112 241.726C682.167 240.282 682.106 238.857 682.046 237.478C681.884 233.787 681.745 230.6 684.351 230.027C685.505 229.773 686.283 230.16 686.733 230.531C688.168 231.708 688.707 234.452 688.597 239.999C688.516 243.986 687.785 253.298 687.286 259.283C688.279 256.628 689.547 252.906 690.895 248.11C693.979 237.145 697.735 231.298 697.894 231.054C697.975 230.929 698.087 230.829 698.219 230.762C698.888 230.425 700.292 230.082 701.31 230.952C702.808 232.229 702.715 235.297 701.016 240.609C697.567 251.399 691.07 269.809 690.321 271.925L711.116 409.541C711.162 409.84 711.042 410.141 710.803 410.328C710.653 410.445 710.47 410.506 710.286 410.506Z" fill="black"/>
<path fill-rule="evenodd" clip-rule="evenodd" d="M589.322 356.478C589.322 356.478 571.57 344.921 561.642 338.009C551.714 331.097 557.554 330.003 557.554 330.003C557.554 330.003 564.139 332.341 573.255 339.176C582.37 346.012 587.698 348.641 587.698 348.641C587.698 348.641 575.128 334.925 571.313 330.142C567.497 325.359 565.835 322.089 568.321 320.928C570.806 319.766 572.892 324.634 576.207 328.632C579.522 332.631 593.567 348.125 593.567 348.125L585.725 322.39C585.725 322.39 586.729 316.911 590.441 321.929C594.152 326.949 603.134 357.134 603.134 357.134C603.134 357.134 611.964 348.615 616.331 345.744C620.698 342.874 624.932 339.662 626.386 343.405C627.84 347.148 604.405 363.052 604.405 363.052L589.322 356.478Z" fill="#E8F2DC"/>
<path fill-rule="evenodd" clip-rule="evenodd" d="M589.721 355.735L604.315 362.096C616.539 353.763 626.252 345.381 625.601 343.709C625.25 342.804 624.797 342.66 624.647 342.613C623.233 342.162 620.473 344 617.806 345.774L616.791 346.445C612.539 349.24 603.805 357.653 603.717 357.738C603.506 357.941 603.204 358.022 602.921 357.945C602.637 357.87 602.412 357.654 602.329 357.372C602.239 357.072 593.346 327.273 589.765 322.428C588.711 321.002 587.963 320.584 587.601 320.661C587.165 320.761 586.761 321.651 586.591 322.353L594.369 347.879C594.484 348.255 594.322 348.66 593.98 348.855C593.639 349.046 593.208 348.979 592.943 348.687C592.803 348.533 578.849 333.135 575.56 329.168C574.593 328.002 573.718 326.748 572.946 325.644C571.264 323.235 569.813 321.153 568.675 321.688C568.182 321.918 568.064 322.187 568.014 322.396C567.742 323.558 569.073 325.988 571.967 329.617C575.722 334.323 588.191 347.936 588.316 348.073C588.589 348.37 588.612 348.821 588.369 349.144C588.126 349.47 587.687 349.575 587.325 349.393C587.105 349.285 581.823 346.652 572.75 339.847C564.82 333.902 558.772 331.378 557.513 330.886C557.243 330.979 556.778 331.19 556.7 331.564C556.616 331.97 556.758 333.585 562.121 337.319C571.641 343.947 588.588 354.997 589.721 355.735ZM604.404 363.891C604.291 363.891 604.176 363.869 604.069 363.822L588.986 357.248C588.943 357.229 588.902 357.207 588.863 357.182C588.686 357.066 570.985 345.537 561.161 338.697C556.584 335.511 554.645 333.132 555.058 331.207C555.34 329.898 556.662 329.315 557.398 329.177C557.542 329.15 557.694 329.161 557.834 329.211C558.107 329.308 564.643 331.67 573.757 338.503C577.744 341.493 581.012 343.678 583.414 345.183C579.381 340.734 573.142 333.782 570.655 330.665C567.239 326.385 565.961 323.797 566.379 322.012C566.512 321.446 566.895 320.665 567.965 320.165C570.385 319.036 572.209 321.654 574.324 324.681C575.113 325.813 575.93 326.983 576.853 328.095C579.26 331 587.465 340.118 591.665 344.77L584.92 322.634C584.882 322.505 584.873 322.369 584.898 322.238C584.95 321.952 585.461 319.433 587.22 319.025C588.434 318.741 589.71 319.528 591.115 321.429C594.465 325.96 601.748 349.638 603.545 355.58C605.99 353.262 612.311 347.38 615.868 345.041L616.875 344.374C620.147 342.199 622.975 340.319 625.154 341.012C626.064 341.3 626.741 342.002 627.168 343.1C628.698 347.04 612.088 358.851 604.876 363.746C604.735 363.842 604.57 363.891 604.404 363.891Z" fill="black"/>
<path fill-rule="evenodd" clip-rule="evenodd" d="M-451 629.857L239.697 271.378C239.697 271.378 224.949 227.135 225.686 174.78C226.424 122.425 244.121 86.2927 247.07 69.3327C250.02 52.3727 244.858 38.3623 247.808 29.5127C250.758 20.6647 259.606 23.1223 260.098 34.9207C260.59 46.7191 260.59 91.4543 256.166 109.152C251.741 126.85 263.048 186.333 263.048 186.333C263.048 186.333 402.169 22.1399 408.56 16.2399C414.951 10.3407 424.291 5.9167 431.174 14.2735C438.056 22.6311 362.842 105.219 362.842 105.219L321.056 158.311C321.056 158.311 335.804 204.03 364.808 187.807C393.812 171.585 370.707 240.408 370.707 240.408L390.37 248.273C390.37 248.273 333.346 269.904 296.476 295.958C259.606 322.013 -451 676.382 -451 676.382V629.857Z" fill="#E8F2DC"/>
<mask id="mask1_2668_27328" style="mask-type:luminance" maskUnits="userSpaceOnUse" x="-452" y="8" width="885" height="670">
<path d="M-452 8.65625H432.692V677.382H-452V8.65625Z" fill="white"/>
</mask>
<g mask="url(#mask1_2668_27328)">
<path fill-rule="evenodd" clip-rule="evenodd" d="M-450 630.465V674.766C-413.903 656.758 260.308 320.293 295.899 295.142C328.198 272.317 376.461 252.673 387.647 248.262L370.336 241.337C369.844 241.14 369.59 240.593 369.759 240.09C373.954 227.594 383.15 193.764 375.438 187.37C373.355 185.642 369.942 186.082 365.297 188.681C358.238 192.629 351.382 193.341 344.914 190.8C328.579 184.382 320.442 159.668 320.104 158.618C320.002 158.301 320.064 157.954 320.27 157.693L362.056 104.601C362.29 104.34 381.099 83.6639 398.822 62.2391C431.629 22.5783 431.288 15.9855 430.402 14.9103C428.251 12.2983 425.715 10.8751 422.865 10.6807C417.369 10.2983 411.961 14.4623 409.238 16.9759C402.966 22.7663 265.202 185.337 263.81 186.979C263.562 187.274 263.166 187.396 262.793 187.3C262.42 187.201 262.137 186.898 262.066 186.519C261.602 184.081 250.768 126.617 255.195 108.91C259.686 90.9479 259.54 45.5487 259.099 34.9623C258.84 28.7495 256.172 25.5607 253.803 25.2263C251.736 24.9439 249.801 26.6983 248.757 29.8295C247.409 33.8751 247.853 39.2439 248.366 45.4599C248.951 52.5295 249.614 60.5431 248.056 69.5039C247.214 74.3439 245.238 80.5647 242.737 88.4423C236.555 107.906 227.214 137.319 226.686 174.794C225.96 226.365 240.498 270.622 240.646 271.062C240.801 271.53 240.594 272.04 240.158 272.266L-450 630.465ZM-451 677.382C-451.183 677.382 -451.366 677.333 -451.526 677.233C-451.821 677.05 -452 676.729 -452 676.382V629.857C-452 629.483 -451.792 629.141 -451.461 628.969L238.487 270.881C236.508 264.585 224.01 222.829 224.686 174.766C225.218 136.996 234.614 107.413 240.83 87.8367C243.31 80.0319 245.267 73.8671 246.086 69.1615C247.6 60.4527 246.949 52.5751 246.374 45.6247C245.842 39.1887 245.382 33.6311 246.859 29.1967C248.495 24.2887 251.661 22.9007 254.082 23.2463C257.352 23.7071 260.789 27.4831 261.098 34.8799C261.541 45.5271 261.678 91.2231 257.135 109.394C253.277 124.829 261.718 173.431 263.649 184.077C278.911 166.068 401.785 21.1335 407.882 15.5063C410.84 12.7743 416.737 8.2559 423.001 8.6847C426.422 8.9183 429.432 10.5847 431.946 13.6383C433.266 15.2415 436.771 19.4983 400.359 63.5175C382.606 84.9799 363.769 105.685 363.582 105.893L322.178 158.503C323.422 162.046 331.423 183.354 345.649 188.94C351.53 191.249 357.813 190.574 364.32 186.935C369.759 183.892 373.931 183.519 376.716 185.83C386.377 193.842 374.117 233.168 371.951 239.829L390.742 247.346C391.125 247.498 391.374 247.871 391.37 248.282C391.366 248.695 391.11 249.063 390.726 249.21C390.157 249.425 333.394 271.094 297.054 296.775C260.544 322.576 -443.447 673.734 -450.554 677.278C-450.694 677.348 -450.848 677.382 -451 677.382Z" fill="black"/>
</g>
<mask id="mask2_2668_27328" style="mask-type:luminance" maskUnits="userSpaceOnUse" x="-452" y="0" width="885" height="678">
<path d="M-452 677.382H432.692V0H-452V677.382Z" fill="white"/>
</mask>
<g mask="url(#mask2_2668_27328)">
<path fill-rule="evenodd" clip-rule="evenodd" d="M259.605 250.731H397.744V1H259.605V250.731Z" fill="#A6ADEB"/>
</g>
<mask id="mask3_2668_27328" style="mask-type:luminance" maskUnits="userSpaceOnUse" x="-452" y="0" width="885" height="678">
<path d="M-452 677.382H432.692V0H-452V677.382Z" fill="white"/>
</mask>
<g mask="url(#mask3_2668_27328)">
<path fill-rule="evenodd" clip-rule="evenodd" d="M259.605 250.731H397.744V1H259.605V250.731Z" stroke="black" stroke-width="2" stroke-linecap="round" stroke-linejoin="round"/>
</g>
<mask id="mask4_2668_27328" style="mask-type:luminance" maskUnits="userSpaceOnUse" x="-452" y="0" width="885" height="678">
<path d="M-452 677.382H432.692V0H-452V677.382Z" fill="white"/>
</mask>
<g mask="url(#mask4_2668_27328)">
<path fill-rule="evenodd" clip-rule="evenodd" d="M269.438 222.713H388.404V22.6328H269.438V222.713Z" fill="#D4B9E4"/>
</g>
<mask id="mask5_2668_27328" style="mask-type:luminance" maskUnits="userSpaceOnUse" x="-452" y="0" width="885" height="678">
<path d="M-452 677.382H432.692V0H-452V677.382Z" fill="white"/>
</mask>
<g mask="url(#mask5_2668_27328)">
<path fill-rule="evenodd" clip-rule="evenodd" d="M269.438 222.713H388.404V22.6328H269.438V222.713Z" stroke="black" stroke-width="2" stroke-linecap="round" stroke-linejoin="round"/>
</g>
<mask id="mask6_2668_27328" style="mask-type:luminance" maskUnits="userSpaceOnUse" x="-452" y="0" width="885" height="678">
<path d="M-452 677.382H432.692V0H-452V677.382Z" fill="white"/>
</mask>
<g mask="url(#mask6_2668_27328)">
<path fill-rule="evenodd" clip-rule="evenodd" d="M310.422 239.063H345.817V233.164H310.422V239.063Z" fill="#D4B9E4"/>
</g>
<mask id="mask7_2668_27328" style="mask-type:luminance" maskUnits="userSpaceOnUse" x="-452" y="0" width="885" height="678">
<path d="M-452 677.382H432.692V0H-452V677.382Z" fill="white"/>
</mask>
<g mask="url(#mask7_2668_27328)">
<path fill-rule="evenodd" clip-rule="evenodd" d="M310.422 239.063H345.817V233.164H310.422V239.063Z" stroke="black" stroke-width="2" stroke-linecap="round" stroke-linejoin="round"/>
</g>
<mask id="mask8_2668_27328" style="mask-type:luminance" maskUnits="userSpaceOnUse" x="-452" y="0" width="885" height="678">
<path d="M-452 677.382H432.692V0H-452V677.382Z" fill="white"/>
</mask>
<g mask="url(#mask8_2668_27328)">
<path fill-rule="evenodd" clip-rule="evenodd" d="M310.242 16.242H346.621V9.85156H310.242V16.242Z" fill="#A6ADEB"/>
</g>
<mask id="mask9_2668_27328" style="mask-type:luminance" maskUnits="userSpaceOnUse" x="-452" y="0" width="885" height="678">
<path d="M-452 677.382H432.692V0H-452V677.382Z" fill="white"/>
</mask>
<g mask="url(#mask9_2668_27328)">
<path fill-rule="evenodd" clip-rule="evenodd" d="M310.242 16.242H346.621V9.85156H310.242V16.242Z" stroke="black" stroke-width="2" stroke-linecap="round" stroke-linejoin="round"/>
</g>
<mask id="mask10_2668_27328" style="mask-type:luminance" maskUnits="userSpaceOnUse" x="-452" y="0" width="885" height="678">
<path d="M-452 677.382H432.692V0H-452V677.382Z" fill="white"/>
</mask>
<g mask="url(#mask10_2668_27328)">
<path fill-rule="evenodd" clip-rule="evenodd" d="M384.966 190.509C384.32 191.677 378.082 201.57 384.966 207.224C391.848 212.877 416.427 189.526 419.378 185.592C422.326 181.66 426.014 172.074 416.427 167.404C406.842 162.733 397.594 169.831 397.594 169.831L397.778 178.158C397.778 178.158 385.611 189.341 384.966 190.509Z" fill="#E8F2DC"/>
</g>
<mask id="mask11_2668_27328" style="mask-type:luminance" maskUnits="userSpaceOnUse" x="-452" y="0" width="885" height="678">
<path d="M-452 677.382H432.692V0H-452V677.382Z" fill="white"/>
</mask>
<g mask="url(#mask11_2668_27328)">
<path fill-rule="evenodd" clip-rule="evenodd" d="M384.966 190.509C384.32 191.677 378.082 201.57 384.966 207.224C391.848 212.877 416.427 189.526 419.378 185.592C422.326 181.66 426.014 172.074 416.427 167.404C406.842 162.733 397.594 169.831 397.594 169.831L397.778 178.158C397.778 178.158 385.611 189.341 384.966 190.509Z" stroke="black" stroke-width="2" stroke-linecap="round" stroke-linejoin="round"/>
</g>
<mask id="mask12_2668_27328" style="mask-type:luminance" maskUnits="userSpaceOnUse" x="-452" y="0" width="885" height="678">
<path d="M-452 677.382H432.692V0H-452V677.382Z" fill="white"/>
</mask>
<g mask="url(#mask12_2668_27328)">
<path fill-rule="evenodd" clip-rule="evenodd" d="M269.469 147.263L315.648 161.75L311.715 74.9826L269.469 47.0234V147.263Z" fill="#C8EDFF"/>
</g>
<mask id="mask13_2668_27328" style="mask-type:luminance" maskUnits="userSpaceOnUse" x="-452" y="0" width="885" height="678">
<path d="M-452 677.382H432.692V0H-452V677.382Z" fill="white"/>
</mask>
<g mask="url(#mask13_2668_27328)">
<path fill-rule="evenodd" clip-rule="evenodd" d="M269.469 147.263L315.648 161.75L311.715 74.9826L269.469 47.0234V147.263Z" stroke="black" stroke-width="1.2" stroke-linecap="round" stroke-linejoin="round"/>
</g>
<mask id="mask14_2668_27328" style="mask-type:luminance" maskUnits="userSpaceOnUse" x="-452" y="0" width="885" height="678">
<path d="M-452 677.382H432.692V0H-452V677.382Z" fill="white"/>
</mask>
<g mask="url(#mask14_2668_27328)">
<path fill-rule="evenodd" clip-rule="evenodd" d="M401.922 216.319C401.922 216.319 393.566 216.565 388.404 222.71C383.241 228.855 382.012 237.212 387.911 241.391C393.811 245.57 400.694 245.815 407.084 240.653C413.474 235.491 415.687 228.855 412.491 221.972C409.296 215.091 401.922 216.319 401.922 216.319Z" fill="#E8F2DC"/>
</g>
<mask id="mask15_2668_27328" style="mask-type:luminance" maskUnits="userSpaceOnUse" x="-452" y="0" width="885" height="678">
<path d="M-452 677.382H432.692V0H-452V677.382Z" fill="white"/>
</mask>
<g mask="url(#mask15_2668_27328)">
<path fill-rule="evenodd" clip-rule="evenodd" d="M401.922 216.319C401.922 216.319 393.566 216.565 388.404 222.71C383.241 228.855 382.012 237.212 387.911 241.391C393.811 245.57 400.694 245.815 407.084 240.653C413.474 235.491 415.687 228.855 412.491 221.972C409.296 215.091 401.922 216.319 401.922 216.319Z" stroke="black" stroke-width="2" stroke-linecap="round" stroke-linejoin="round"/>
</g>
<mask id="mask16_2668_27328" style="mask-type:luminance" maskUnits="userSpaceOnUse" x="-452" y="0" width="885" height="678">
<path d="M-452 677.382H432.692V0H-452V677.382Z" fill="white"/>
</mask>
<g mask="url(#mask16_2668_27328)">
<path d="M269.684 84.5703L288.364 94.6479L289.593 132.254L269.806 124.021" stroke="black" stroke-width="1.2" stroke-linecap="round" stroke-linejoin="round"/>
</g>
<mask id="mask17_2668_27328" style="mask-type:luminance" maskUnits="userSpaceOnUse" x="-452" y="0" width="885" height="678">
<path d="M-452 677.382H432.692V0H-452V677.382Z" fill="white"/>
</mask>
<g mask="url(#mask17_2668_27328)">
<path fill-rule="evenodd" clip-rule="evenodd" d="M353.554 126.092C353.554 132.257 336.828 137.254 316.195 137.254C295.562 137.254 278.836 132.257 278.836 126.092C278.836 119.927 295.562 114.93 316.195 114.93C336.828 114.93 353.554 119.927 353.554 126.092Z" stroke="black" stroke-width="1.2" stroke-linecap="round" stroke-linejoin="round"/>
</g>
<mask id="mask18_2668_27328" style="mask-type:luminance" maskUnits="userSpaceOnUse" x="-452" y="0" width="885" height="678">
<path d="M-452 677.382H432.692V0H-452V677.382Z" fill="white"/>
</mask>
<g mask="url(#mask18_2668_27328)">
<path d="M279.148 127.219C279.517 127.771 300.533 151.184 302.376 166.853C304.22 182.523 300.164 193.768 302.376 194.874C304.588 195.98 304.773 193.215 307.538 191.74C310.304 190.266 308.829 196.165 310.856 196.165C312.884 196.165 312.516 191.003 315.465 191.372C318.415 191.74 317.308 197.271 320.443 196.902C323.576 196.534 323.208 192.109 325.604 191.925C328.001 191.74 327.816 195.796 330.213 195.428C332.61 195.059 331.135 192.109 333.163 192.109C335.191 192.109 335.191 196.534 336.481 194.874C337.772 193.215 333.532 179.942 333.163 172.2C332.794 164.457 332.056 160.216 336.481 153.58C340.905 146.944 353.256 127.956 353.256 127.956" stroke="black" stroke-width="1.2" stroke-linecap="round" stroke-linejoin="round"/>
</g>
<mask id="mask19_2668_27328" style="mask-type:luminance" maskUnits="userSpaceOnUse" x="-452" y="0" width="885" height="678">
<path d="M-452 677.382H432.692V0H-452V677.382Z" fill="white"/>
</mask>
<g mask="url(#mask19_2668_27328)">
<path d="M299.059 116.344C299.059 116.344 299.243 142.705 315.097 160.771C330.951 178.837 334.638 182.709 334.638 182.709" stroke="black" stroke-width="1.2" stroke-linecap="round" stroke-linejoin="round"/>
</g>
<mask id="mask20_2668_27328" style="mask-type:luminance" maskUnits="userSpaceOnUse" x="-452" y="0" width="885" height="678">
<path d="M-452 677.382H432.692V0H-452V677.382Z" fill="white"/>
</mask>
<g mask="url(#mask20_2668_27328)">
<path d="M303.111 115.422C303.111 115.422 311.591 137.728 302.742 165.933" stroke="black" stroke-width="1.2" stroke-linecap="round" stroke-linejoin="round"/>
</g>
<mask id="mask21_2668_27328" style="mask-type:luminance" maskUnits="userSpaceOnUse" x="-452" y="0" width="885" height="678">
<path d="M-452 677.382H432.692V0H-452V677.382Z" fill="white"/>
</mask>
<g mask="url(#mask21_2668_27328)">
<path d="M326.71 115.602C326.71 115.602 320.627 116.707 320.258 127.584C319.89 138.46 318.968 143.806 320.258 148.231C321.549 152.655 333.162 172.196 333.162 172.196" stroke="black" stroke-width="1.2" stroke-linecap="round" stroke-linejoin="round"/>
</g>
<mask id="mask22_2668_27328" style="mask-type:luminance" maskUnits="userSpaceOnUse" x="-452" y="0" width="885" height="678">
<path d="M-452 677.382H432.692V0H-452V677.382Z" fill="white"/>
</mask>
<g mask="url(#mask22_2668_27328)">
<path d="M328.001 115.602C328.001 115.602 331.319 119.104 325.973 131.086C320.627 143.07 306.985 169.616 302.93 178.649" stroke="black" stroke-width="1.2" stroke-linecap="round" stroke-linejoin="round"/>
</g>
<mask id="mask23_2668_27328" style="mask-type:luminance" maskUnits="userSpaceOnUse" x="-452" y="0" width="885" height="678">
<path d="M-452 677.382H432.692V0H-452V677.382Z" fill="white"/>
</mask>
<g mask="url(#mask23_2668_27328)">
<path d="M348.092 121.499C348.092 121.499 341.824 119.84 336.663 134.956C331.501 150.073 333.16 162.24 333.16 162.24" stroke="black" stroke-width="1.2" stroke-linecap="round" stroke-linejoin="round"/>
</g>
<mask id="mask24_2668_27328" style="mask-type:luminance" maskUnits="userSpaceOnUse" x="-452" y="0" width="885" height="678">
<path d="M-452 677.382H432.692V0H-452V677.382Z" fill="white"/>
</mask>
<g mask="url(#mask24_2668_27328)">
<path d="M350.307 121.32C350.307 121.32 333.531 143.995 321.733 160.402C309.935 176.808 303.114 190.082 302.191 194.137" stroke="black" stroke-width="1.2" stroke-linecap="round" stroke-linejoin="round"/>
</g>
<mask id="mask25_2668_27328" style="mask-type:luminance" maskUnits="userSpaceOnUse" x="-452" y="0" width="885" height="678">
<path d="M-452 677.382H432.692V0H-452V677.382Z" fill="white"/>
</mask>
<g mask="url(#mask25_2668_27328)">
<path d="M313.25 192.665L302.742 172.57" stroke="black" stroke-width="1.2" stroke-linecap="round" stroke-linejoin="round"/>
</g>
<mask id="mask26_2668_27328" style="mask-type:luminance" maskUnits="userSpaceOnUse" x="-452" y="0" width="885" height="678">
<path d="M-452 677.382H432.692V0H-452V677.382Z" fill="white"/>
</mask>
<g mask="url(#mask26_2668_27328)">
<path d="M323.758 193.215C323.758 193.215 294.078 147.681 290.207 134.039" stroke="black" stroke-width="1.2" stroke-linecap="round" stroke-linejoin="round"/>
</g>
<mask id="mask27_2668_27328" style="mask-type:luminance" maskUnits="userSpaceOnUse" x="-452" y="0" width="885" height="678">
<path d="M-452 677.382H432.692V0H-452V677.382Z" fill="white"/>
</mask>
<g mask="url(#mask27_2668_27328)">
<path d="M332.24 192.104C332.24 192.104 308.459 164.452 306.8 156.34C305.141 148.229 308.828 136.984 308.828 136.984" stroke="black" stroke-width="1.2" stroke-linecap="round" stroke-linejoin="round"/>
</g>
<mask id="mask28_2668_27328" style="mask-type:luminance" maskUnits="userSpaceOnUse" x="-452" y="0" width="885" height="678">
<path d="M-452 677.382H432.692V0H-452V677.382Z" fill="white"/>
</mask>
<g mask="url(#mask28_2668_27328)">
<path d="M310.671 137.359C310.671 137.359 318.045 147.867 314.911 166.302C311.778 184.737 308.828 191.374 308.828 191.374" stroke="black" stroke-width="1.2" stroke-linecap="round" stroke-linejoin="round"/>
</g>
<mask id="mask29_2668_27328" style="mask-type:luminance" maskUnits="userSpaceOnUse" x="-452" y="0" width="885" height="678">
<path d="M-452 677.382H432.692V0H-452V677.382Z" fill="white"/>
</mask>
<g mask="url(#mask29_2668_27328)">
<path d="M329.288 136.438C329.288 136.438 324.311 139.018 324.68 147.498C325.048 155.978 332.976 158.006 332.976 158.006" stroke="black" stroke-width="1.2" stroke-linecap="round" stroke-linejoin="round"/>
</g>
<mask id="mask30_2668_27328" style="mask-type:luminance" maskUnits="userSpaceOnUse" x="-452" y="0" width="885" height="678">
<path d="M-452 677.382H432.692V0H-452V677.382Z" fill="white"/>
</mask>
<g mask="url(#mask30_2668_27328)">
<path d="M313.988 191.554L333.16 153.578" stroke="black" stroke-width="1.2" stroke-linecap="round" stroke-linejoin="round"/>
</g>
<mask id="mask31_2668_27328" style="mask-type:luminance" maskUnits="userSpaceOnUse" x="-452" y="0" width="885" height="678">
<path d="M-452 677.382H432.692V0H-452V677.382Z" fill="white"/>
</mask>
<g mask="url(#mask31_2668_27328)">
<path d="M318.23 194.321C318.23 194.321 325.789 184.551 332.61 167.406" stroke="black" stroke-width="1.2" stroke-linecap="round" stroke-linejoin="round"/>
</g>
<mask id="mask32_2668_27328" style="mask-type:luminance" maskUnits="userSpaceOnUse" x="-452" y="0" width="885" height="678">
<path d="M-452 677.382H432.692V0H-452V677.382Z" fill="white"/>
</mask>
<g mask="url(#mask32_2668_27328)">
<path d="M328 193.585C328 193.585 331.502 186.581 334.267 180.312" stroke="black" stroke-width="1.2" stroke-linecap="round" stroke-linejoin="round"/>
</g>
<mask id="mask33_2668_27328" style="mask-type:luminance" maskUnits="userSpaceOnUse" x="-452" y="0" width="885" height="678">
<path d="M-452 677.382H432.692V0H-452V677.382Z" fill="white"/>
</mask>
<g mask="url(#mask33_2668_27328)">
<path d="M331.132 136.805C331.132 136.805 335.372 142.52 327.445 152.289" stroke="black" stroke-width="1.2" stroke-linecap="round" stroke-linejoin="round"/>
</g>
<mask id="mask34_2668_27328" style="mask-type:luminance" maskUnits="userSpaceOnUse" x="-452" y="0" width="885" height="678">
<path d="M-452 677.382H432.692V0H-452V677.382Z" fill="white"/>
</mask>
<g mask="url(#mask34_2668_27328)">
<path d="M275.46 149.156L269.438 163.229" stroke="black" stroke-width="2" stroke-linecap="round" stroke-linejoin="round"/>
</g>
<mask id="mask35_2668_27328" style="mask-type:luminance" maskUnits="userSpaceOnUse" x="-452" y="0" width="885" height="678">
<path d="M-452 677.382H432.692V0H-452V677.382Z" fill="white"/>
</mask>
<g mask="url(#mask35_2668_27328)">
<path fill-rule="evenodd" clip-rule="evenodd" d="M354.361 82.6038C354.361 97.163 342.558 108.965 327.999 108.965C313.44 108.965 301.637 97.163 301.637 82.6038C301.637 68.0446 313.44 56.2422 327.999 56.2422C342.558 56.2422 354.361 68.0446 354.361 82.6038Z" fill="#FFCA71"/>
</g>
<mask id="mask36_2668_27328" style="mask-type:luminance" maskUnits="userSpaceOnUse" x="-452" y="0" width="885" height="678">
<path d="M-452 677.382H432.692V0H-452V677.382Z" fill="white"/>
</mask>
<g mask="url(#mask36_2668_27328)">
<path fill-rule="evenodd" clip-rule="evenodd" d="M354.361 82.6038C354.361 97.163 342.558 108.965 327.999 108.965C313.44 108.965 301.637 97.163 301.637 82.6038C301.637 68.0446 313.44 56.2422 327.999 56.2422C342.558 56.2422 354.361 68.0446 354.361 82.6038Z" stroke="black" stroke-width="1.2" stroke-linecap="round" stroke-linejoin="round"/>
</g>
<mask id="mask37_2668_27328" style="mask-type:luminance" maskUnits="userSpaceOnUse" x="-452" y="0" width="885" height="678">
<path d="M-452 677.382H432.692V0H-452V677.382Z" fill="white"/>
</mask>
<g mask="url(#mask37_2668_27328)">
<path d="M338.048 57.9927C338.048 57.9927 322.102 53.6608 313.622 72.7416C305.142 91.8208 314.359 105.371 314.359 105.371" stroke="black" stroke-width="1.2" stroke-linecap="round" stroke-linejoin="round"/>
</g>
<mask id="mask38_2668_27328" style="mask-type:luminance" maskUnits="userSpaceOnUse" x="-452" y="0" width="885" height="678">
<path d="M-452 677.382H432.692V0H-452V677.382Z" fill="white"/>
</mask>
<g mask="url(#mask38_2668_27328)">
<path d="M316.018 59.375C316.018 59.375 312.977 62.8774 319.06 64.9974C325.144 67.1182 331.965 64.4446 339.984 66.8414C348.002 69.2374 352.612 74.123 352.612 74.123" stroke="black" stroke-width="1.2" stroke-linecap="round" stroke-linejoin="round"/>
</g>
<mask id="mask39_2668_27328" style="mask-type:luminance" maskUnits="userSpaceOnUse" x="-452" y="0" width="885" height="678">
<path d="M-452 677.382H432.692V0H-452V677.382Z" fill="white"/>
</mask>
<g mask="url(#mask39_2668_27328)">
<path d="M305.418 68.8713C305.418 68.8713 307.907 65.7377 315.926 69.7009C323.945 73.6641 336.849 79.2873 350.584 94.4961" stroke="black" stroke-width="1.2" stroke-linecap="round" stroke-linejoin="round"/>
</g>
<mask id="mask40_2668_27328" style="mask-type:luminance" maskUnits="userSpaceOnUse" x="-452" y="0" width="885" height="678">
<path d="M-452 677.382H432.692V0H-452V677.382Z" fill="white"/>
</mask>
<g mask="url(#mask40_2668_27328)">
<path d="M301.637 84.2664C301.637 84.2664 303.941 74.8648 309.84 75.0496C315.739 75.2336 318.505 81.4096 319.795 84.6352C321.086 87.8616 325.142 96.9864 329.197 101.134C333.253 105.283 337.493 107.402 337.493 107.402" stroke="black" stroke-width="1.2" stroke-linecap="round" stroke-linejoin="round"/>
</g>
<mask id="mask41_2668_27328" style="mask-type:luminance" maskUnits="userSpaceOnUse" x="-452" y="0" width="885" height="678">
<path d="M-452 677.382H432.692V0H-452V677.382Z" fill="white"/>
</mask>
<g mask="url(#mask41_2668_27328)">
<path fill-rule="evenodd" clip-rule="evenodd" d="M388.466 114.066C388.466 114.066 385.209 94.1562 382.997 82.849C380.784 71.5434 377.589 76.2138 377.589 76.2138C377.589 76.2138 377.098 82.849 379.556 93.4186C382.014 103.988 382.26 109.642 382.26 109.642C382.26 109.642 375.132 93.4186 372.428 88.257C369.724 83.0954 367.512 80.3914 365.545 82.1122C363.579 83.833 367.02 87.5194 369.232 91.9442C371.444 96.369 379.556 114.558 379.556 114.558L360.138 97.8434C360.138 97.8434 354.976 96.6146 357.926 101.776C360.876 106.938 383.735 126.355 383.735 126.355C383.735 126.355 372.92 130.781 368.741 133.483C364.562 136.187 360.138 138.646 362.842 141.349C365.545 144.053 388.405 129.735 388.405 129.735L388.466 114.066Z" fill="#E8F2DC"/>
</g>
<mask id="mask42_2668_27328" style="mask-type:luminance" maskUnits="userSpaceOnUse" x="-452" y="0" width="885" height="678">
<path d="M-452 677.382H432.692V0H-452V677.382Z" fill="white"/>
</mask>
<g mask="url(#mask42_2668_27328)">
<path fill-rule="evenodd" clip-rule="evenodd" d="M388.466 114.066C388.466 114.066 385.209 94.1562 382.997 82.849C380.784 71.5434 377.589 76.2138 377.589 76.2138C377.589 76.2138 377.098 82.849 379.556 93.4186C382.014 103.988 382.26 109.642 382.26 109.642C382.26 109.642 375.132 93.4186 372.428 88.257C369.724 83.0954 367.512 80.3914 365.545 82.1122C363.579 83.833 367.02 87.5194 369.232 91.9442C371.444 96.369 379.556 114.558 379.556 114.558L360.138 97.8434C360.138 97.8434 354.976 96.6146 357.926 101.776C360.876 106.938 383.735 126.355 383.735 126.355C383.735 126.355 372.92 130.781 368.741 133.483C364.562 136.187 360.138 138.646 362.842 141.349C365.545 144.053 388.405 129.735 388.405 129.735L388.466 114.066Z" stroke="black" stroke-width="1.2" stroke-linecap="round" stroke-linejoin="round"/>
</g>
<mask id="mask43_2668_27328" style="mask-type:luminance" maskUnits="userSpaceOnUse" x="-452" y="0" width="885" height="678">
<path d="M-452 677.382H432.692V0H-452V677.382Z" fill="white"/>
</mask>
<g mask="url(#mask43_2668_27328)">
<path fill-rule="evenodd" clip-rule="evenodd" d="M332.267 222.713C332.267 222.713 312.328 219.637 301.002 217.528C289.676 215.417 294.316 212.18 294.316 212.18C294.316 212.18 300.949 211.629 311.54 213.991C322.131 216.353 327.786 216.547 327.786 216.547C327.786 216.547 311.5 209.566 306.314 206.909C301.128 204.253 298.404 202.065 300.107 200.083C301.809 198.101 305.528 201.509 309.972 203.681C314.416 205.853 332.678 213.798 332.678 213.798L315.788 194.533C315.788 194.533 314.512 189.383 319.7 192.285C324.889 195.189 344.513 217.87 344.513 217.87C344.513 217.87 348.84 207.016 351.505 202.813C354.171 198.609 356.588 194.163 359.317 196.842C362.045 199.522 347.935 222.509 347.935 222.509L332.267 222.713Z" fill="#E8F2DC"/>
</g>
<mask id="mask44_2668_27328" style="mask-type:luminance" maskUnits="userSpaceOnUse" x="-452" y="0" width="885" height="678">
<path d="M-452 677.382H432.692V0H-452V677.382Z" fill="white"/>
</mask>
<g mask="url(#mask44_2668_27328)">
<path fill-rule="evenodd" clip-rule="evenodd" d="M332.267 222.713C332.267 222.713 312.328 219.637 301.002 217.528C289.676 215.417 294.316 212.18 294.316 212.18C294.316 212.18 300.949 211.629 311.54 213.991C322.131 216.353 327.786 216.547 327.786 216.547C327.786 216.547 311.5 209.566 306.314 206.909C301.128 204.253 298.404 202.065 300.107 200.083C301.809 198.101 305.528 201.509 309.972 203.681C314.416 205.853 332.678 213.798 332.678 213.798L315.788 194.533C315.788 194.533 314.512 189.383 319.7 192.285C324.889 195.189 344.513 217.87 344.513 217.87C344.513 217.87 348.84 207.016 351.505 202.813C354.171 198.609 356.588 194.163 359.317 196.842C362.045 199.522 347.935 222.509 347.935 222.509L332.267 222.713Z" stroke="black" stroke-width="1.2" stroke-linecap="round" stroke-linejoin="round"/>
</g>
</g>
<defs>
<clipPath id="clip0_2668_27328">
<rect width="842" height="599" fill="white"/>
</clipPath>
</defs>
</svg>
