<svg width="422" height="717" viewBox="0 0 422 717" fill="none" xmlns="http://www.w3.org/2000/svg">
<mask id="mask0_2674_23459" style="mask-type:alpha" maskUnits="userSpaceOnUse" x="0" y="0" width="422" height="717">
<rect width="422" height="717" fill="#D9D9D9"/>
</mask>
<g mask="url(#mask0_2674_23459)">
<path fill-rule="evenodd" clip-rule="evenodd" d="M172.359 573.592C172.969 573.57 173.441 573.495 173.691 573.445C232.505 576.378 290.634 577.381 334.996 577.381C371.412 577.381 398.546 576.704 409.133 575.862L407.883 580.848L175.378 578.229L172.359 573.592Z" fill="#97F2EF"/>
<path fill-rule="evenodd" clip-rule="evenodd" d="M290.581 652.286V681.782C290.483 682.049 289.824 683.364 286.327 683.558C282.777 683.751 281.617 681.925 281.355 681.397V652.145C284.24 652.723 287.365 652.781 290.581 652.286Z" fill="#EDF864"/>
<path fill-rule="evenodd" clip-rule="evenodd" d="M-88.0587 554.364C-76.4144 554.503 -61.9544 554.572 -46.3794 554.63C-35.5003 554.671 -26.1058 554.705 -21.1458 554.786C-15.384 554.877 7.06468 554.982 33.961 554.982C71.91 554.982 118.701 554.775 139.924 554.039L128.178 558.341L-98.0625 556.712L-88.0587 554.364Z" fill="#EDF864"/>
<path fill-rule="evenodd" clip-rule="evenodd" d="M-100.294 707.923C-101.447 707.258 -102.833 700.499 -102.056 684.232C-101.786 678.571 -105.503 572.496 -105.977 559.031L127.185 560.71L126.349 704.774C49.6289 706.314 -94.4672 708.916 -100.294 707.923Z" fill="#EDF864"/>
<path fill-rule="evenodd" clip-rule="evenodd" d="M128.746 702.294L129.57 560.366L145.885 554.391L146.161 678.702L128.746 702.294Z" fill="#EDF864"/>
<path fill-rule="evenodd" clip-rule="evenodd" d="M287.158 711.247C240.023 711.247 207.176 703.731 207.176 696.985V690.688C216.656 698.764 252.834 703.074 287.158 703.074C321.485 703.074 357.662 698.764 367.142 690.688V696.985C367.142 703.731 334.294 711.247 287.158 711.247Z" fill="#EDF864"/>
<path fill-rule="evenodd" clip-rule="evenodd" d="M367.142 686.436C367.142 693.181 334.294 700.698 287.158 700.698C240.023 700.698 207.176 693.181 207.176 686.436C207.176 683.991 212.552 680.266 227.641 677.144C241.084 674.362 259.282 672.633 278.969 672.255V681.83L279.03 682.013C279.086 682.179 280.41 685.954 285.786 685.953C286.002 685.953 286.226 685.947 286.456 685.934C292.39 685.605 292.915 682.413 292.956 682.051L292.958 672.215C341.366 672.859 367.142 680.858 367.142 686.436Z" fill="#EDF864"/>
<path fill-rule="evenodd" clip-rule="evenodd" d="M413.662 624.65C413.805 634.742 411.72 642.023 407.632 645.707C404.299 648.712 400.803 648.345 400.658 648.326L400.517 648.308L400.375 648.324C396.035 648.804 392.317 647.795 389.637 645.399C387.225 643.246 385.841 640.072 385.841 636.693C385.841 635.963 385.861 635.037 385.885 633.964C386.055 625.975 386.373 611.108 380.64 606.715C378.934 605.405 376.869 605.092 374.501 605.779C364.876 608.568 365.414 616.482 365.933 624.136C366.104 626.663 366.282 629.275 366.095 631.702C366.022 632.636 365.967 633.557 365.913 634.463C365.404 643.015 365.036 649.194 351.746 649.826C345.123 650.132 340.019 648.551 336.554 645.099C333.599 642.156 332.021 637.876 332.228 633.356L332.29 632.043C332.657 624.56 333.271 612.036 328.18 607.241C326.588 605.741 324.581 605.105 322.226 605.362C311.478 606.511 305.335 613.876 304.927 626.102C304.497 638.935 301.933 647.882 290.808 649.842C284.255 650.999 278.096 649.654 273.923 646.161C271.106 643.801 269.554 640.708 269.554 637.447C269.554 636.827 269.56 636.152 269.566 635.431C269.631 627.844 269.73 616.378 264.322 611.253C262.38 609.412 259.886 608.566 256.964 608.748C245.103 609.466 245.866 624.431 246.275 632.471C246.345 633.829 246.404 635.002 246.404 635.94L246.408 636.896C246.427 640.779 246.449 645.182 243.698 647.941C241.677 649.969 238.382 650.955 233.628 650.955C229.009 650.955 225.651 649.805 223.645 647.536C221.158 644.721 221.591 641.029 221.595 640.996L221.605 617.192C221.72 616.44 222.17 612.488 219.565 609.547C217.526 607.248 214.232 606.221 209.769 606.487C204.993 606.776 201.59 608.215 199.655 610.766C197.586 613.495 197.964 616.546 198.08 617.219C198.109 618.638 198.436 635.081 198.08 640.764C197.666 647.383 190.409 650.955 183.79 650.955C174.88 650.955 168.969 646.828 167.978 639.916C166.928 632.568 167.876 589.706 167.982 585.11L172.928 578.829L174.076 580.592L409.742 583.249L411.652 575.622C412.69 575.501 413.397 575.378 413.745 575.254C413.822 575.226 413.889 575.19 413.964 575.16C413.783 582.663 413.363 603.406 413.662 624.65Z" fill="#EDF864"/>
<path fill-rule="evenodd" clip-rule="evenodd" d="M413.703 397.889C417.521 398.728 418.903 405.758 419.297 411.027C416.915 408.914 413.214 408.938 406.16 408.993C404.903 409.001 403.528 409.012 402.019 409.012C390.068 409.012 203.325 408.074 169.98 407.906L177.484 404.218C177.86 404.217 178.245 404.214 178.647 404.208C181.356 404.163 184.723 404.108 188.939 404.599C204.022 406.349 301.72 408.044 336.582 408.044C339.868 408.044 342.602 408.029 344.649 407.999C348.849 407.933 352.993 407.913 357.003 407.894C377.246 407.795 393.235 407.717 397.659 402.283C398.804 400.875 399.675 399.056 400.341 396.988C402.798 396.867 408.511 396.751 413.703 397.889Z" fill="#97F2EF"/>
<path fill-rule="evenodd" clip-rule="evenodd" d="M172.649 231.7L172.417 231.722C172.342 231.736 170.516 232.075 169.59 229.963C168.623 227.71 168.109 200.733 168.369 165.816C168.443 155.819 167.99 146.615 167.626 139.218C167.22 130.962 166.762 121.636 167.938 120.262C172.146 120.205 211.644 119.68 239.494 119.324C269.612 118.935 301.039 119.933 304.795 121.005C306.324 125.014 305.387 160.451 304.983 175.733C304.84 181.134 304.736 185.035 304.736 186.724C304.736 194.135 304.03 225.976 303.985 228.049C303.893 228.45 303.296 230.572 300.835 230.959C297.814 231.412 207.278 231.647 172.649 231.7Z" fill="#97F2EF"/>
<path fill-rule="evenodd" clip-rule="evenodd" d="M179.661 234.06C202.072 234.018 270.663 233.865 293.674 233.52C293.719 236.543 293.317 243.521 289.058 247.332C288.432 247.332 287.827 247.332 287.243 247.332C263.109 247.332 197.729 248.235 184.042 248.428C180.361 246.217 179.635 238.268 179.661 234.06Z" fill="#97F2EF"/>
<path fill-rule="evenodd" clip-rule="evenodd" d="M170.174 252.477C172.654 250.552 179.136 250.644 181.421 250.839L181.481 250.845L181.541 250.844C182.326 250.832 260.375 249.713 287.24 249.713C305.908 249.713 346.305 249.531 370.44 249.424C381.786 249.373 390.05 249.336 391.824 249.336C398.255 249.336 401.666 252.757 401.959 259.503C402.2 265.05 401.339 307.317 400.71 338.182C400.353 355.706 400.07 369.549 400.07 372.511L400.074 374.18C400.095 382.141 400.133 395.464 395.806 400.779C392.095 405.339 375.043 405.422 356.99 405.51C352.972 405.531 348.819 405.551 344.611 405.615C320.873 405.986 205.658 404.141 189.213 402.231C186.149 401.876 183.536 401.798 181.29 401.798C180.331 401.798 179.438 401.811 178.608 401.825C171.195 401.946 169.877 401.965 169.121 390.896C168.006 374.57 166.48 286.761 166.48 273.396C166.48 261.424 167.052 254.901 170.174 252.477Z" fill="#97F2EF"/>
<path fill-rule="evenodd" clip-rule="evenodd" d="M156.228 259.948C156.243 260.805 156.294 263.121 156.364 266.443C156.725 283.219 157.822 334.272 157.396 336.801C157.105 337.963 153.489 340.866 147.639 342.557C150.641 338.907 151.097 334.655 151.097 331.155C151.097 330.66 151.102 329.637 151.11 328.187C151.334 285.187 150.738 262.786 149.284 259.703C148.501 258.041 147.339 256.935 145.829 256.412C145.414 256.269 144.998 256.185 144.59 256.138L147.556 253.465C148.704 253.436 152.219 253.527 154.404 255.498C155.597 256.573 156.193 258.03 156.228 259.948Z" fill="#97F2EF"/>
<path fill-rule="evenodd" clip-rule="evenodd" d="M133.787 177.75C135.922 208.121 138.695 256.277 137.282 259.576C136.358 260.832 129.094 262.298 99.6971 262.137C98.5002 262.131 97.4736 262.125 96.6684 262.125L94.5753 262.129C85.8673 262.149 62.6941 262.2 58.8557 259.813C56.2221 257.019 53.8197 216.392 52.8672 179.125L133.787 177.75Z" fill="#97F2EF"/>
<path fill-rule="evenodd" clip-rule="evenodd" d="M145.87 251.775L139.867 257.186C140.607 243.592 137.546 197.326 136.25 178.805L144.478 183.992L145.87 251.775Z" fill="#97F2EF"/>
<path fill-rule="evenodd" clip-rule="evenodd" d="M59.5974 262.607C65.7216 264.316 80.4999 264.54 94.5852 264.508L96.6724 264.505C97.4743 264.505 98.4963 264.509 99.688 264.517C101.361 264.526 102.967 264.53 104.517 264.53C127.547 264.53 137.203 263.534 139.177 261.017L141.431 258.985C141.739 258.847 143.499 258.119 145.051 258.656C145.945 258.965 146.625 259.638 147.131 260.712C147.852 262.24 149.017 273.038 148.73 328.171C148.722 329.626 148.716 330.654 148.716 331.15C148.716 336.874 147.165 340.478 143.532 343.197C142.184 344.141 130.409 345.348 101.666 345.648C80.7305 345.863 61.6932 345.46 59.885 344.981C56.025 343.953 54.8228 342.886 54.8228 338.217C54.8228 337.251 54.796 334.678 54.7567 331.067C54.5844 314.735 54.1782 276.489 55.0849 271.733C56.2071 265.85 56.7424 263.773 59.5974 262.607Z" fill="#97F2EF"/>
<path fill-rule="evenodd" clip-rule="evenodd" d="M145.038 181.529L136.043 175.858L136.006 175.334L55.2825 176.703L52.6875 173.467L137.207 172.93L146.701 176.919L145.038 181.529Z" fill="#97F2EF"/>
<path fill-rule="evenodd" clip-rule="evenodd" d="M146.455 96.1872L147.004 174.464L138.617 170.939L136.18 85.4766L146.455 96.1872Z" fill="#97F2EF"/>
<path fill-rule="evenodd" clip-rule="evenodd" d="M133.735 83.6328L136.216 170.556L49.7041 171.106L48.6016 85.2833L133.735 83.6328Z" fill="#97F2EF"/>
<path fill-rule="evenodd" clip-rule="evenodd" d="M30.0318 99.9834L22.5161 98.9123L20.3477 4.49219L27.8135 12.7957L30.0318 99.9834Z" fill="#97F2EF"/>
<path fill-rule="evenodd" clip-rule="evenodd" d="M-116.762 3.89219L17.9131 2.50391L20.1248 98.7511L-115.104 98.1959L-116.762 3.89219Z" fill="#97F2EF"/>
<path fill-rule="evenodd" clip-rule="evenodd" d="M-105.824 100.613L21.2583 101.136L26.3879 101.867C26.3355 103.453 25.8002 107.382 22.0601 109.403C20.3253 109.372 18.4307 109.348 16.3559 109.322C11.1968 109.258 4.77586 109.179 -2.97234 108.932C-20.2697 108.381 -68.5402 109.033 -99.9281 109.55L-105.824 100.613Z" fill="#97F2EF"/>
<path fill-rule="evenodd" clip-rule="evenodd" d="M-3.04326 111.314C4.72722 111.563 11.1612 111.642 16.3315 111.707C28.2974 111.855 34.4163 111.931 37.1934 113.802C37.859 115.447 40.0039 128.923 42.6795 228.394C44.2164 285.552 45.0432 339.085 44.7995 341.183C44.6757 342.177 44.6429 343.007 44.6134 343.741C44.5158 346.231 44.4929 346.823 40.7757 348.122L40.8713 348.397L-115.775 348.877L-115.4 348.212C-115.482 348.163 -117.405 347.011 -117.632 344.066C-117.655 343.779 -117.72 343.044 -117.82 341.896C-120.63 310.193 -125.443 247.802 -126.124 186.144C-126.462 155.534 -126.751 133.711 -126.982 121.278C-127.072 116.474 -127.136 113.956 -127.181 112.64C-127.183 112.565 -127.186 112.494 -127.188 112.421C-115.682 112.199 -27.7134 110.528 -3.04326 111.314Z" fill="#97F2EF"/>
<path fill-rule="evenodd" clip-rule="evenodd" d="M150.255 551.015C139.624 552.968 -5.48081 552.66 -21.1089 552.407C-26.0846 552.328 -35.487 552.293 -46.3732 552.253C-58.4682 552.208 -74.5818 552.147 -88.1482 551.983L-88.1574 551.945L-88.3152 551.982C-102.162 551.813 -113.318 551.536 -114.762 551.056C-115.574 550.786 -116.477 550.644 -117.434 550.492C-121.769 549.805 -127.164 548.953 -127.826 534.887C-128.684 516.577 -132.397 387.709 -132.637 378.608C-132.752 374.237 -132.916 370.584 -133.047 367.649C-133.241 363.312 -133.369 360.446 -133.209 358.679C-132.97 356.07 -132.534 351.271 -124.847 351.271C-124.649 351.271 -124.446 351.275 -124.239 351.281L-124.218 351.282L152.165 350.434C152.692 350.438 157.324 350.632 157.779 355.847C158.122 359.774 158.687 393.922 159.186 424.048C159.511 443.652 159.819 462.17 160.041 471.094C160.678 496.915 160.785 536.057 159.509 541.155C159.226 542.282 159.073 543.311 158.937 544.217C158.706 545.765 158.526 546.957 157.806 547.929L157.086 548.677C155.922 549.622 153.909 550.343 150.255 551.015Z" fill="#97F2EF"/>
<path fill-rule="evenodd" clip-rule="evenodd" d="M161.344 544.255C161.464 543.455 161.597 542.628 161.822 541.729C163.335 535.694 162.961 492.706 162.423 471.033C162.203 462.118 161.897 443.605 161.572 424.005C161.048 392.366 160.504 359.648 160.155 355.639C159.632 349.637 154.705 348.051 152.168 348.051L45.4075 348.379C46.7689 347.174 46.9196 345.781 46.9969 343.829C47.0237 343.144 47.0539 342.367 47.1659 341.473C47.4646 339.093 46.5331 282.558 45.0164 226.574C42.6809 140.45 40.8603 119.48 39.668 114.039L46.6163 115.946L47.3559 173.502L49.6528 173.487L52.2726 176.756L50.4258 176.787L50.456 177.986C50.4606 178.186 50.963 198.232 52.0132 218.366C53.8613 253.764 55.79 259.875 56.9902 261.328C54.2767 263.257 53.6556 266.498 52.7417 271.29C51.9032 275.687 52.084 303.988 52.3716 331.094C52.4096 334.691 52.4371 337.257 52.4371 338.218C52.4371 344.341 54.7372 346.074 59.2688 347.281C61.2721 347.815 75.2539 348.089 89.9281 348.089C93.9146 348.089 97.9535 348.068 101.817 348.028C124.458 347.789 138.348 347.03 143.251 345.773L143.267 345.898C150.888 344.883 157.474 341.301 159.284 338.34C160.993 338.518 164.041 339.045 165.193 340.18C165.679 362.704 166.252 383.844 166.745 391.06C167.364 400.137 168.918 403.013 172.787 403.873L164.64 407.877L163.726 407.872L163.722 409.065C163.719 410.195 163.477 500.379 163.382 542.14L161.344 544.255Z" fill="#97F2EF"/>
<path fill-rule="evenodd" clip-rule="evenodd" d="M416.306 565.424L416.301 565.544L416.322 565.663C416.33 565.713 417.017 570.083 414.362 572.225L414.041 572.216C414.04 572.229 414.037 572.311 414.033 572.453C413.71 572.67 413.358 572.867 412.943 573.014C407.969 574.787 294.486 577.094 173.655 571.062L173.479 571.054L173.307 571.096C173.281 571.104 170.586 571.752 168.459 570.094C166.646 568.679 165.727 565.982 165.727 562.075C165.727 550.392 166.064 423.974 166.1 410.266C183.79 410.354 389.45 411.39 402.017 411.39C403.532 411.39 404.913 411.381 406.176 411.371C416.073 411.305 417.755 411.407 419.41 415.537C420.99 419.894 418.42 507.561 416.306 565.424Z" fill="#97F2EF"/>
<mask id="mask1_2674_23459" style="mask-type:luminance" maskUnits="userSpaceOnUse" x="-394" y="0" width="817" height="718">
<path d="M-394 0.101562H422.254V717.368H-394V0.101562Z" fill="white"/>
</mask>
<g mask="url(#mask1_2674_23459)">
<path fill-rule="evenodd" clip-rule="evenodd" d="M416.308 565.423L416.304 565.543L416.324 565.662C416.332 565.713 417.019 570.082 414.364 572.224L414.043 572.215C414.042 572.228 414.039 572.31 414.035 572.452C413.713 572.669 413.36 572.866 412.945 573.014C407.971 574.787 294.488 577.093 173.657 571.062L173.481 571.053L173.309 571.096C173.283 571.104 170.588 571.752 168.461 570.093C166.648 568.679 165.729 565.981 165.729 562.075C165.729 550.392 166.066 423.973 166.102 410.265C183.792 410.353 389.452 411.389 402.019 411.389C403.534 411.389 404.915 411.38 406.178 411.37C416.075 411.305 417.757 411.406 419.412 415.536C420.992 419.893 418.422 507.56 416.308 565.423ZM413.664 624.651C413.807 634.743 411.722 642.024 407.634 645.707C404.301 648.712 400.805 648.346 400.66 648.326L400.518 648.309L400.377 648.324C396.037 648.805 392.319 647.795 389.638 645.401C387.227 643.246 385.843 640.072 385.843 636.694C385.843 635.963 385.863 635.037 385.886 633.964C386.057 625.976 386.375 611.108 380.642 606.716C378.936 605.407 376.871 605.093 374.502 605.779C364.878 608.568 365.415 616.483 365.934 624.137C366.106 626.664 366.284 629.276 366.096 631.703C366.024 632.636 365.969 633.557 365.915 634.464C365.406 643.016 365.038 649.195 351.748 649.826C345.125 650.132 340.021 648.551 336.556 645.1C333.601 642.157 332.023 637.876 332.23 633.357L332.292 632.043C332.658 624.561 333.273 612.037 328.182 607.241C326.59 605.741 324.583 605.106 322.228 605.362C311.48 606.511 305.337 613.877 304.929 626.102C304.499 638.935 301.935 647.883 290.81 649.843C284.257 650.999 278.098 649.655 273.925 646.162C271.108 643.802 269.556 640.708 269.556 637.448C269.556 636.828 269.562 636.152 269.568 635.432C269.633 627.844 269.732 616.379 264.324 611.254C262.382 609.413 259.888 608.567 256.965 608.749C245.105 609.467 245.868 624.431 246.277 632.471C246.347 633.829 246.406 635.002 246.406 635.94L246.41 636.896C246.429 640.78 246.451 645.183 243.699 647.942C241.679 649.97 238.384 650.956 233.629 650.956C229.01 650.956 225.652 649.805 223.647 647.536C221.16 644.722 221.593 641.029 221.597 640.996L221.607 617.193C221.721 616.441 222.172 612.489 219.566 609.548C217.528 607.248 214.234 606.222 209.771 606.487C204.995 606.777 201.592 608.216 199.657 610.767C197.588 613.496 197.966 616.547 198.082 617.219C198.11 618.638 198.437 635.081 198.082 640.765C197.668 647.384 190.411 650.956 183.792 650.956C174.881 650.956 168.971 646.829 167.98 639.917C166.93 632.569 167.878 589.707 167.984 585.111L172.93 578.83L174.078 580.593L409.743 583.249L411.654 575.624C412.691 575.502 413.399 575.379 413.747 575.254C413.824 575.227 413.891 575.191 413.966 575.161C413.784 582.663 413.365 603.406 413.664 624.651ZM367.144 686.434C367.144 693.179 334.296 700.695 287.161 700.695C240.026 700.695 207.178 693.179 207.178 686.434C207.178 683.989 212.554 680.264 227.643 677.142C241.086 674.36 259.284 672.63 278.971 672.253V681.827L279.033 682.011C279.088 682.177 280.412 685.951 285.788 685.95C286.005 685.95 286.228 685.945 286.458 685.932C292.393 685.602 292.917 682.411 292.958 682.049L292.96 672.213C341.369 672.857 367.144 680.855 367.144 686.434ZM287.161 711.248C240.026 711.248 207.178 703.732 207.178 696.986V690.689C216.658 698.765 252.837 703.075 287.161 703.075C321.487 703.075 357.664 698.765 367.144 690.689V696.986C367.144 703.732 334.296 711.248 287.161 711.248ZM290.581 652.284V681.78C290.483 682.047 289.824 683.362 286.327 683.556C282.777 683.749 281.617 681.923 281.356 681.395V652.142C284.24 652.721 287.365 652.779 290.581 652.284ZM172.363 573.592C172.972 573.57 173.445 573.495 173.694 573.446C232.509 576.378 290.638 577.381 335 577.381C371.415 577.381 398.55 576.704 409.137 575.862L407.887 580.848L175.382 578.229L172.363 573.592ZM161.343 544.256C161.464 543.456 161.597 542.629 161.822 541.73C163.334 535.695 162.96 492.707 162.424 471.034C162.203 462.118 161.897 443.606 161.572 424.006C161.047 392.367 160.504 359.649 160.155 355.639C159.632 349.638 154.705 348.052 152.168 348.052L45.4078 348.38C46.7691 347.175 46.9192 345.782 46.9965 343.83C47.0233 343.145 47.0535 342.367 47.1655 341.474C47.4643 339.094 46.5327 282.559 45.016 226.575C42.6805 140.451 40.8599 119.481 39.6682 114.039L46.6158 115.946L47.3555 173.503L49.6524 173.488L52.2722 176.757L50.4261 176.788L50.4562 177.987C50.4601 178.187 50.9626 198.233 52.0134 218.366C53.8609 253.765 55.7896 259.876 56.9898 261.329C54.2769 263.258 53.6552 266.499 52.7413 271.29C51.9034 275.687 52.0836 303.989 52.3712 331.094C52.4092 334.692 52.4367 337.258 52.4367 338.219C52.4367 344.342 54.7375 346.075 59.269 347.282C61.2717 347.815 75.2535 348.089 89.9284 348.089C93.9148 348.089 97.9537 348.069 101.816 348.028C124.458 347.789 138.348 347.031 143.251 345.774L143.268 345.899C150.887 344.884 157.473 341.302 159.284 338.341C160.993 338.518 164.041 339.046 165.193 340.181C165.68 362.705 166.252 383.845 166.745 391.061C167.365 400.138 168.917 403.014 172.787 403.874L164.641 407.878L163.725 407.873L163.721 409.066C163.718 410.196 163.476 500.38 163.382 542.141L161.343 544.256ZM150.257 551.013C139.625 552.966 -5.47931 552.658 -21.1081 552.405C-26.0831 552.326 -35.4855 552.292 -46.3718 552.25C-58.4668 552.206 -74.581 552.145 -88.1474 551.982L-88.1559 551.943L-88.3144 551.98C-102.161 551.812 -113.317 551.534 -114.761 551.054C-115.572 550.784 -116.476 550.642 -117.433 550.49C-121.768 549.803 -127.163 548.951 -127.825 534.885C-128.683 516.576 -132.396 387.707 -132.636 378.605C-132.751 374.235 -132.915 370.582 -133.046 367.647C-133.24 363.31 -133.368 360.444 -133.207 358.677C-132.969 356.068 -132.533 351.269 -124.845 351.269C-124.648 351.269 -124.445 351.273 -124.238 351.278L-124.217 351.28L152.166 350.431C152.692 350.436 157.325 350.63 157.781 355.845C158.123 359.772 158.689 393.919 159.187 424.047C159.512 443.651 159.82 462.168 160.042 471.092C160.68 496.912 160.786 536.055 159.51 541.153C159.228 542.279 159.075 543.309 158.938 544.214C158.708 545.763 158.528 546.955 157.808 547.927L157.087 548.675C155.923 549.62 153.911 550.342 150.257 551.013ZM128.749 702.293L129.573 560.365L145.888 554.39L146.164 678.701L128.749 702.293ZM-100.293 707.926C-101.446 707.261 -102.831 700.501 -102.055 684.234C-101.785 678.573 -105.502 572.498 -105.975 559.034L127.187 560.713L126.35 704.777C49.6301 706.317 -94.4661 708.918 -100.293 707.926ZM-88.0596 554.364C-76.4153 554.503 -61.9553 554.572 -46.3803 554.629C-35.5012 554.67 -26.1067 554.705 -21.1467 554.785C-15.3849 554.877 7.06378 554.982 33.9601 554.982C71.909 554.982 118.7 554.775 139.923 554.039L128.177 558.34L-98.0634 556.711L-88.0596 554.364ZM-131.081 642.324C-144.549 680.038 -146.892 691.762 -146.977 692.201C-147.005 692.307 -147.68 694.8 -153.343 694.671C-154.353 694.652 -155.067 694.376 -155.527 693.829C-156.221 693.002 -156.238 691.633 -156.174 691.019C-154.627 687.718 -132.046 638.687 -131.409 592.241C-130.872 553.072 -144.37 531.27 -147.054 527.331C-146.458 523.787 -145.107 519.96 -141.852 519.439C-141.289 519.351 -140.856 519.445 -140.475 519.734C-138.77 521.031 -138.25 525.772 -137.831 529.581C-137.3 534.405 -136.881 538.215 -134.439 538.91C-132.465 539.472 -130.967 539.205 -129.894 538.632C-128.464 549.996 -123.193 551.88 -119.047 552.633C-118.934 560.351 -118.776 607.865 -131.081 642.324ZM-151.593 544.369C-153.373 546.438 -156.454 547.526 -160.75 547.6C-166.125 547.723 -170.228 546.315 -172.829 543.497C-176.483 539.538 -175.99 534.156 -175.967 533.928C-175.925 533.521 -175.015 523.88 -179.398 519.198C-180.967 517.524 -183.009 516.701 -185.403 516.793C-194.882 517.098 -194.802 528.748 -194.772 533.134L-194.769 533.81C-194.769 534.144 -194.755 534.523 -194.741 534.938C-194.576 539.51 -194.302 547.161 -209.773 547.885C-215.308 548.135 -219.554 546.914 -222.366 544.232C-224.196 542.485 -226.376 539.176 -226.364 533.245C-226.364 531.91 -227.27 523.784 -231.273 519.945C-232.751 518.527 -234.483 517.85 -236.382 517.923C-243.537 518.209 -244.882 525.733 -245.685 530.229C-245.793 530.83 -245.892 531.384 -245.995 531.865C-246.16 532.634 -246.217 533.617 -246.283 534.754C-246.594 540.175 -247.022 547.6 -257.856 547.6C-268.806 547.6 -271.105 538.872 -271.105 531.549C-271.105 529.139 -271.105 524.126 -273.973 521.492C-275.312 520.262 -277.056 519.731 -279.192 519.905C-285.924 520.466 -285.909 528.488 -285.902 531.913C-285.901 532.527 -285.901 533.107 -285.947 533.434C-286.688 538.65 -289.776 547.323 -302.099 547.323C-302.256 547.323 -302.414 547.321 -302.574 547.318C-319.383 547.019 -320.619 534.526 -320.664 533.993C-320.705 533.503 -320.707 532.863 -320.709 532.123C-320.722 528.148 -320.745 520.749 -328.364 520.749C-336.93 520.749 -337.2 527.077 -337.46 533.197L-337.484 533.759C-337.601 536.462 -338.973 540.486 -342.47 543.676C-344.747 545.754 -348.76 548.17 -354.927 547.885C-359.653 547.665 -363.361 546.113 -365.946 543.272C-368.664 540.283 -369.495 536.455 -369.367 533.869C-369.285 532.249 -369.272 529.137 -369.258 525.536C-369.226 517.892 -369.169 503.666 -368.117 501.918C-367.103 500.231 -358.472 495.217 -352.274 491.972L-350.735 491.979L-345.301 497.689L-148.274 498.256L-147.856 498.257L-141.118 492.932L-131.638 492.975C-131.012 513.029 -130.471 529.32 -130.205 534.997C-130.193 535.241 -130.176 535.471 -130.162 535.708C-130.393 536.142 -131.276 537.343 -133.784 536.623C-134.686 536.366 -135.19 531.784 -135.461 529.322C-135.978 524.62 -136.513 519.757 -139.03 517.841C-139.939 517.15 -141.014 516.896 -142.228 517.089C-149.187 518.201 -149.724 528.383 -149.926 532.217C-149.95 532.648 -149.974 533.136 -149.991 533.238C-150.088 533.62 -150.032 534.031 -149.921 534.851C-149.632 536.975 -149.035 541.396 -151.593 544.369ZM-164.587 635.467C-184.986 682.509 -177.878 709.513 -176.509 713.796C-177.075 714.465 -178.911 715.818 -183.917 714.318C-189.907 712.525 -188.349 680.333 -184.228 661.826C-182.952 656.093 -180.452 647.583 -177.804 638.574C-172.484 620.47 -166.455 599.951 -166.455 589.585C-166.455 581.075 -169.364 567.82 -173.695 556.607C-176.755 548.679 -183.188 535.074 -192.376 531.297C-192.246 525.143 -191.067 519.356 -185.326 519.172C-183.611 519.098 -182.232 519.657 -181.14 520.824C-178.108 524.061 -178.09 531.21 -178.34 533.692C-178.407 534.369 -178.879 540.452 -174.582 545.109C-171.501 548.448 -166.826 550.08 -160.709 549.98C-157.079 549.916 -154.159 549.171 -151.967 547.777C-150.568 555.281 -145.409 591.239 -164.587 635.467ZM-324.142 606.171C-321.496 616.855 -316.283 629.76 -310.766 643.423C-303.418 661.622 -295.82 680.434 -294.2 694.612C-294.639 695.171 -295.816 696.367 -297.878 696.367C-300.095 696.367 -300.754 695.233 -300.879 694.966C-301.302 692.725 -307.753 659.434 -320.382 640.188C-332.373 621.915 -333.99 616.105 -334.003 616.055L-334.042 616.064C-336.908 605.352 -339.066 595.606 -339.066 589.585C-339.066 575.018 -328.857 544.553 -321.283 539.814C-320.185 541.95 -318.407 544.314 -315.543 546.198C-318.623 552.276 -330.883 578.949 -324.142 606.171ZM-323.676 661.826C-319.555 680.333 -317.997 712.525 -323.988 714.318C-329.014 715.823 -330.846 714.45 -331.398 713.802C-330.032 709.534 -322.909 682.528 -343.317 635.467C-362.845 590.433 -357.797 556.215 -356.66 550.128C-356.129 550.188 -355.589 550.235 -355.038 550.26C-348.058 550.594 -343.473 547.813 -340.862 545.432C-337.485 542.354 -335.279 537.92 -335.102 533.861L-335.078 533.298C-334.785 526.43 -334.378 523.128 -328.364 523.128C-323.516 523.128 -323.109 527.205 -323.093 532.13C-323.09 532.922 -323.088 533.606 -323.04 534.191C-323.024 534.373 -322.886 535.754 -322.228 537.619C-331.25 542.857 -341.449 575.024 -341.449 589.585C-341.449 599.951 -335.42 620.47 -330.099 638.574C-327.452 647.583 -324.952 656.093 -323.676 661.826ZM-144.937 492.915L-148.683 495.876L-344.275 495.312L-347.433 491.994L-144.937 492.915ZM-378.097 489.475L-377.62 476.97L-132.086 478.465C-131.96 482.606 -131.834 486.666 -131.712 490.594L-352.657 489.591L-352.699 489.509C-352.745 489.533 -352.802 489.563 -352.855 489.59L-378.097 489.475ZM-135.644 319.43L-134.547 354.084H-134.543C-135.329 355.798 -135.494 357.508 -135.581 358.462C-135.758 360.389 -135.626 363.319 -135.427 367.753C-135.296 370.678 -135.134 374.32 -135.019 378.667C-134.874 384.19 -133.449 433.814 -132.159 476.084L-377.639 474.59L-386.192 318.685L-135.644 319.43ZM-335.243 315.528L-328.707 315.655V316.476L-335.243 316.456V315.528ZM-370.374 305.665L-159.414 302.477L-123.311 303.212C-123.24 304.187 -123.17 305.156 -123.099 306.115L-130.003 307.264L-129.919 308.349C-129.917 308.386 -129.641 312 -129.637 313.881C-129.789 314.536 -132.219 316.047 -134.705 317.051L-370.48 312.461L-370.374 305.665ZM-391.476 148.71L-168.959 147.962C-168.598 148.058 -166.641 148.797 -166.641 153.555C-166.641 155.904 -165.896 170.027 -164.953 187.907C-163.276 219.732 -160.977 263.315 -160.977 276.036C-160.977 290.9 -160.771 297.606 -160.662 300.115L-382.552 303.47L-391.476 148.71ZM-291.776 138.398C-269.161 139.096 -200.302 141.092 -165.296 141.092C-153.594 141.092 -145.668 140.868 -144.528 140.299C-139.954 138.016 -140.262 134.478 -140.653 129.997C-140.721 129.213 -140.794 128.375 -140.85 127.477C-141.191 122.022 -142.485 53.1662 -142.704 41.4368L-140.672 44.1152L-137.608 145.295L-168.857 145.582L-291.776 145.996V138.398ZM-303.383 134.064C-304.41 132.698 -303.991 130.867 -303.988 130.856L-303.945 130.686L-308.108 40.8182L-308.117 40.7129C-308.387 38.74 -308.501 35.0813 -307.657 33.6603C-306.913 32.4028 -305.427 32.2269 -304.66 32.2269C-304.387 32.2269 -304.204 32.2491 -304.179 32.2531L-304.019 32.2648C-302.606 32.2727 -162.725 33.0234 -153.414 33.3948C-150.37 33.5164 -148.444 34.4045 -147.224 35.4815L-145.722 37.4603C-145.149 38.6478 -145.121 39.6587 -145.12 39.7647C-145.058 43.1049 -143.604 121.639 -143.229 127.627C-143.172 128.543 -143.097 129.401 -143.027 130.203C-142.612 134.964 -142.62 136.687 -145.555 138.153C-151.056 140.141 -287.181 136.377 -299.045 135.786C-301.142 135.681 -302.602 135.101 -303.383 134.064ZM-128.507 186.168C-128.055 227.133 -125.781 268.412 -123.48 300.827L-158.274 300.119C-158.378 297.736 -158.593 291.006 -158.593 276.036C-158.593 263.253 -160.893 219.633 -162.573 187.783C-163.514 169.937 -164.257 155.84 -164.257 153.555C-164.257 150.888 -164.815 149.115 -165.536 147.932L-128.967 147.595C-128.837 157.499 -128.685 170.108 -128.507 186.168ZM-132.257 351.097L-133.271 319.033C-130.999 318.071 -127.256 316.147 -127.256 313.911C-127.256 312.567 -127.38 310.508 -127.466 309.253L-122.924 308.498C-121.947 321.684 -120.991 333.124 -120.196 342.103C-120.094 343.236 -120.031 343.961 -120.008 344.245C-119.841 346.413 -118.988 347.916 -118.171 348.881L-124.184 348.9C-128.053 348.791 -130.587 349.738 -132.257 351.097ZM-278.876 316.624L-326.322 316.483V315.701L-278.876 316.624ZM-3.04223 111.311C4.72825 111.559 11.1616 111.639 16.3325 111.703C28.2978 111.851 34.4167 111.928 37.1938 113.798C37.8594 115.443 40.005 128.919 42.6805 228.391C44.2168 285.549 45.0442 339.082 44.8005 341.18C44.676 342.173 44.6439 343.003 44.6144 343.737C44.5161 346.228 44.4932 346.82 40.776 348.118L40.8723 348.393L-115.775 348.874L-115.399 348.208C-115.481 348.16 -117.405 347.007 -117.632 344.062C-117.654 343.775 -117.719 343.04 -117.82 341.893C-120.629 310.189 -125.442 247.798 -126.123 186.14C-126.461 155.531 -126.751 133.707 -126.981 121.275C-127.071 116.47 -127.135 113.953 -127.181 112.637C-127.183 112.562 -127.185 112.49 -127.187 112.418C-115.681 112.195 -27.7131 110.524 -3.04223 111.311ZM-105.819 100.614L21.2637 101.137L26.3933 101.868C26.3409 103.454 25.8057 107.383 22.0656 109.404C20.3301 109.373 18.4361 109.349 16.3614 109.324C11.2022 109.259 4.7813 109.18 -2.9669 108.933C-20.2649 108.382 -68.5348 109.034 -99.9226 109.551L-105.819 100.614ZM-116.758 3.89302L17.9173 2.50473L20.129 98.7526L-115.1 98.1967L-116.758 3.89302ZM30.0313 99.9826L22.5156 98.9121L20.3472 4.49136L27.813 12.7949L30.0313 99.9826ZM133.74 83.6345L136.22 170.557L49.7087 171.107L48.6055 85.2857L133.74 83.6345ZM146.453 96.1885L147.003 174.465L138.616 170.939L136.178 85.4779L146.453 96.1885ZM145.04 181.531L136.045 175.86L136.008 175.336L55.2845 176.706L52.6895 173.469L137.209 172.931L146.703 176.921L145.04 181.531ZM59.5952 262.609C65.7187 264.318 80.4978 264.543 94.583 264.51L96.6703 264.507C97.4722 264.507 98.4942 264.512 99.6858 264.519C101.358 264.528 102.965 264.532 104.515 264.532C127.545 264.532 137.201 263.537 139.174 261.019L141.429 258.988C141.737 258.849 143.497 258.12 145.049 258.659C145.943 258.967 146.623 259.64 147.129 260.714C147.85 262.243 149.015 273.04 148.727 328.173C148.72 329.628 148.714 330.656 148.714 331.153C148.714 336.876 147.163 340.48 143.53 343.2C142.181 344.143 130.407 345.351 101.664 345.651C80.7284 345.865 61.691 345.462 59.8829 344.983C56.0229 343.955 54.8207 342.888 54.8207 338.219C54.8207 337.254 54.7938 334.68 54.7545 331.069C54.5815 314.738 54.1754 276.492 55.0827 271.736C56.205 265.852 56.7395 263.776 59.5952 262.609ZM145.872 251.775L139.869 257.187C140.609 243.592 137.548 197.327 136.253 178.805L144.48 183.992L145.872 251.775ZM133.789 177.752C135.924 208.123 138.697 256.279 137.284 259.578C136.36 260.834 129.096 262.3 99.699 262.139C98.502 262.133 97.4754 262.127 96.6703 262.127L94.5771 262.131C85.8692 262.151 62.696 262.202 58.8576 259.815C56.224 257.021 53.8216 216.394 52.8691 179.127L133.789 177.752ZM156.229 259.946C156.244 260.803 156.294 263.119 156.365 266.441C156.726 283.217 157.823 334.271 157.397 336.799C157.106 337.961 153.49 340.865 147.64 342.556C150.641 338.906 151.098 334.653 151.098 331.153C151.098 330.658 151.103 329.636 151.11 328.186C151.336 285.185 150.739 262.784 149.286 259.701C148.502 258.039 147.339 256.933 145.83 256.41C145.415 256.267 144.999 256.184 144.591 256.136L147.556 253.463C148.705 253.434 152.221 253.525 154.405 255.496C155.598 256.571 156.195 258.028 156.229 259.946ZM170.176 252.479C172.656 250.554 179.138 250.646 181.423 250.841L181.483 250.846L181.543 250.846C182.328 250.834 260.377 249.715 287.242 249.715C305.91 249.715 346.306 249.534 370.442 249.426C381.788 249.375 390.052 249.338 391.826 249.338C398.257 249.338 401.668 252.759 401.961 259.505C402.203 265.051 401.341 307.32 400.712 338.184C400.354 355.708 400.073 369.551 400.073 372.513L400.076 374.182C400.098 382.143 400.135 395.467 395.809 400.781C392.097 405.341 375.045 405.424 356.992 405.512C352.974 405.533 348.821 405.553 344.613 405.617C320.875 405.988 205.661 404.143 189.215 402.233C186.151 401.878 183.538 401.799 181.293 401.799C180.333 401.799 179.44 401.813 178.611 401.826C171.197 401.948 169.88 401.967 169.123 390.898C168.008 374.572 166.483 286.762 166.483 273.399C166.483 261.426 167.055 254.904 170.176 252.479ZM179.66 234.063C202.071 234.021 270.663 233.868 293.674 233.522C293.718 236.546 293.317 243.524 289.057 247.334C288.432 247.335 287.826 247.335 287.242 247.335C263.108 247.335 197.728 248.238 184.042 248.43C180.361 246.219 179.634 238.271 179.66 234.063ZM172.651 231.695L172.42 231.718C172.345 231.732 170.518 232.071 169.593 229.959C168.626 227.706 168.111 200.729 168.371 165.812C168.446 155.815 167.993 146.611 167.629 139.214C167.223 130.958 166.764 121.633 167.94 120.258C172.149 120.201 211.647 119.677 239.497 119.32C269.614 118.931 301.042 119.929 304.797 121.001C306.327 125.01 305.39 160.446 304.985 175.729C304.843 181.129 304.739 185.031 304.739 186.72C304.739 194.131 304.033 225.972 303.988 228.045C303.896 228.446 303.298 230.569 300.838 230.955C297.816 231.408 207.282 231.643 172.651 231.695ZM413.704 397.888C417.523 398.727 418.904 405.756 419.298 411.026C416.917 408.913 413.215 408.936 406.162 408.991C404.904 409 403.529 409.01 402.019 409.01C390.068 409.01 203.325 408.072 169.981 407.904L177.485 404.217C177.861 404.216 178.246 404.212 178.648 404.206C181.357 404.162 184.724 404.107 188.939 404.598C204.022 406.348 301.722 408.043 336.584 408.043C339.868 408.043 342.602 408.028 344.65 407.997C348.85 407.932 352.993 407.912 357.004 407.893C377.247 407.793 393.236 407.715 397.659 402.282C398.804 400.873 399.676 399.055 400.341 396.986C402.799 396.865 408.513 396.75 413.704 397.888ZM421.778 415.27L421.806 415.27C421.81 415.092 421.906 410.86 421.116 406.36C419.991 399.955 417.67 396.322 414.216 395.564C409.199 394.463 403.871 394.462 401.005 394.571C402.496 388.155 402.476 380.136 402.459 374.175L402.457 372.513C402.457 369.575 402.738 355.743 403.095 338.232C403.726 307.336 404.588 265.024 404.344 259.403C403.872 248.575 396.299 246.958 391.826 246.958C390.051 246.958 381.784 246.995 370.431 247.046C348.286 247.145 312.463 247.305 292.289 247.331C295.763 242.796 296.116 236.461 296.063 233.483C298.986 233.428 300.807 233.37 301.209 233.307C304.717 232.754 306.108 229.837 306.352 228.37L306.368 228.201C306.376 227.864 307.124 194.369 307.124 186.72C307.124 185.063 307.231 180.972 307.369 175.791C308.624 128.332 307.987 119.899 306.087 118.95C302.988 117.405 267.105 116.59 239.465 116.94C210.017 117.317 167.541 117.882 167.541 117.882L167.296 117.886L167.073 117.985C164.368 119.186 164.545 125.034 165.248 139.331C165.61 146.698 166.062 155.864 165.987 165.795C165.941 172.022 165.588 226.758 167.408 230.912C168.529 233.468 170.665 234.123 172.104 234.123C172.345 234.123 172.565 234.105 172.758 234.075C173.356 234.074 174.926 234.072 177.282 234.067C177.27 237.129 177.59 244.304 180.603 248.404C178.054 248.278 171.766 248.229 168.713 250.6C164.789 253.647 164.099 260.38 164.099 273.399C164.099 280.628 164.546 309.629 165.133 337.341C163.372 336.515 161.169 336.153 159.812 336.002C159.994 330.484 159.663 308.946 158.748 266.389C158.678 263.073 158.627 260.758 158.612 259.903C158.566 257.327 157.688 255.25 156.003 253.73C153.568 251.533 150.091 251.134 148.241 251.088L146.854 183.523L148.903 177.845L149.412 178.059L148.833 95.6987L148.829 95.226L136.077 81.9304L136.057 81.2097L46.1926 82.9518L46.5844 113.47L36.3886 110.671L36.3592 110.778C34 109.971 30.6995 109.653 25.847 109.495C28.174 107.015 28.6791 103.902 28.7675 102.207L32.4854 102.736L30.1846 12.2966L30.1741 11.8578L20.2633 0.835919L20.2469 0.101562L-119.183 1.53823L-117.444 100.567L-108.682 100.603L-102.746 109.599C-116.984 109.838 -127.177 110.038 -128.364 110.061H-128.368L-129.472 109.994L-129.827 112.471L-129.569 112.465C-129.485 114.796 -129.308 122.143 -128.999 145.216L-135.224 145.273L-138.312 43.2841L-143.759 36.1086C-144.156 35.3513 -144.71 34.566 -145.478 33.8434L-145.621 33.6544L-145.656 33.6806C-147.222 32.2877 -149.623 31.1643 -153.319 31.0171C-162.59 30.647 -300.212 29.9048 -303.939 29.8858C-304.563 29.8231 -308.018 29.5935 -309.709 32.4479C-311.207 34.9727 -310.595 40.161 -310.486 40.9797L-306.342 130.472C-306.472 131.158 -306.768 133.501 -305.309 135.465C-304.086 137.112 -302.018 138.019 -299.163 138.162C-299.011 138.169 -297.222 138.229 -294.16 138.324V146.004L-392.741 146.335L-394 146.341L-384.867 304.746L-384.801 305.884L-372.759 305.702L-372.898 314.794L-337.626 315.481V316.45L-388.71 316.297L-379.961 475.785L-380.572 491.843L-357.265 491.95C-362.116 494.619 -368.913 498.615 -370.162 500.694C-371.449 502.833 -371.59 512.765 -371.641 525.526C-371.656 529.098 -371.667 532.183 -371.746 533.751C-371.945 537.718 -370.436 541.875 -367.711 544.871C-365.512 547.29 -362.549 548.934 -359.019 549.733C-359.574 552.633 -360.879 560.985 -360.421 573.519C-359.901 587.719 -356.89 610.157 -345.505 636.413C-324.091 685.793 -333.724 713.268 -333.824 713.539L-333.982 713.968L-333.813 714.392C-333.751 714.545 -332.554 717.368 -327.961 717.368C-326.686 717.368 -325.149 717.15 -323.302 716.598C-319.309 715.402 -317.404 707.801 -317.639 694.004C-317.816 683.618 -319.307 670.479 -321.348 661.309C-322.642 655.499 -325.153 646.953 -327.812 637.904C-328.753 634.7 -329.717 631.421 -330.665 628.138C-328.669 631.603 -325.988 635.987 -322.376 641.491C-309.635 660.909 -303.265 695.166 -303.202 695.51L-303.161 695.672C-303.119 695.797 -302.085 698.748 -297.878 698.748C-293.833 698.748 -292.009 695.642 -291.933 695.51L-291.742 695.176L-291.783 694.793C-293.33 680.239 -301.071 661.071 -308.556 642.534C-314.041 628.95 -319.222 616.12 -321.827 605.599C-328.35 579.26 -316.494 553.361 -313.468 547.371C-310.713 548.707 -307.177 549.617 -302.617 549.698C-287.525 549.943 -284.281 538.647 -283.577 533.695C-283.517 533.273 -283.517 532.701 -283.519 531.909C-283.528 527.431 -283.186 522.626 -278.993 522.278C-277.536 522.15 -276.425 522.473 -275.587 523.243C-273.489 525.17 -273.489 529.478 -273.489 531.549C-273.489 543.434 -267.937 549.98 -257.856 549.98C-244.77 549.98 -244.206 540.164 -243.902 534.891C-243.842 533.852 -243.791 532.954 -243.664 532.364C-243.556 531.859 -243.451 531.278 -243.338 530.645C-242.384 525.305 -241.126 520.494 -236.287 520.302C-235.009 520.246 -233.93 520.697 -232.925 521.66C-229.793 524.664 -228.749 531.64 -228.749 533.334C-228.762 540.015 -226.18 543.884 -224.012 545.952C-220.987 548.839 -216.68 550.298 -211.194 550.298C-210.692 550.298 -210.181 550.287 -209.661 550.26C-191.835 549.428 -192.201 539.214 -192.359 534.853C-192.371 534.51 -192.38 534.198 -192.383 533.914C-178.906 540.728 -168.839 574.242 -168.839 589.585C-168.839 599.609 -174.817 619.954 -180.091 637.904C-182.751 646.953 -185.262 655.499 -186.556 661.309C-189.699 675.433 -193.861 713.825 -184.601 716.598C-182.754 717.15 -181.218 717.368 -179.943 717.368C-175.352 717.368 -174.153 714.545 -174.091 714.392L-173.923 713.966L-174.08 713.539C-174.179 713.268 -183.812 685.793 -162.4 636.413C-141.471 588.148 -149.152 549.409 -149.888 546.023C-149.855 545.986 -149.817 545.955 -149.784 545.918C-146.53 542.135 -147.251 536.807 -147.558 534.532C-147.599 534.231 -147.649 533.862 -147.656 533.711C-147.606 533.449 -147.585 533.084 -147.546 532.342C-147.528 532.006 -147.507 531.612 -147.478 531.178C-145.922 533.857 -143.637 538.266 -141.387 544.345C-137.757 554.157 -133.495 570.423 -133.793 592.208C-134.442 639.528 -158.168 689.665 -158.407 690.168L-158.506 690.484C-158.527 690.602 -158.973 693.411 -157.366 695.343C-156.451 696.442 -155.114 697.017 -153.39 697.051C-153.256 697.053 -153.125 697.055 -152.996 697.055C-145.616 697.054 -144.683 692.886 -144.645 692.695C-144.622 692.58 -142.241 680.667 -128.836 643.123C-116.617 608.907 -116.548 562.076 -116.658 553.034C-116.239 553.113 -115.849 553.2 -115.515 553.312C-114.212 553.745 -107.733 554.026 -97.8439 554.215L-108.167 556.638L-108.445 556.636L-108.401 557.877C-108.358 559.081 -104.158 678.303 -104.436 684.123C-105.59 708.305 -102.252 709.693 -101.156 710.149C-100.603 710.38 -95.3335 710.478 -86.7087 710.478C-41.4622 710.478 95.9909 707.767 127.56 707.132L128.72 707.108L128.725 706.336L148.317 679.796L148.551 679.481L148.27 553.623C149.35 553.537 150.17 553.448 150.689 553.352C154.22 552.703 156.503 551.911 158.018 550.923L158.127 551.028L158.742 550.392C159.109 550.083 159.42 549.758 159.683 549.414L163.374 545.582C163.356 553.981 163.344 559.941 163.344 562.075C163.344 566.752 164.572 570.081 166.994 571.968C167.724 572.536 168.491 572.912 169.239 573.162L171.557 576.722L165.619 584.263L165.61 584.659C165.564 586.601 164.489 632.332 165.622 640.254C166.794 648.445 173.586 653.335 183.792 653.335C192.852 653.335 200.018 647.994 200.46 640.914C200.838 634.903 200.478 617.797 200.463 617.071L200.436 616.844C200.43 616.82 199.946 614.329 201.558 612.203C203.054 610.232 205.865 609.108 209.915 608.863C213.609 608.638 216.239 609.397 217.768 611.11C219.831 613.422 219.248 616.85 219.243 616.88L219.223 640.772C219.15 641.455 218.845 645.674 221.834 649.082C224.31 651.904 228.278 653.335 233.629 653.335C239.052 653.335 242.899 652.12 245.39 649.62C248.84 646.16 248.814 641.017 248.794 636.883L248.79 635.94C248.79 634.943 248.73 633.742 248.659 632.35C248.126 621.901 248.339 611.654 257.109 611.125C259.399 610.98 261.22 611.593 262.683 612.98C267.34 617.392 267.243 628.672 267.185 635.411C267.178 636.139 267.171 636.822 267.171 637.448C267.171 641.423 269.027 645.164 272.393 647.984C274.279 649.563 276.511 650.748 278.971 651.529V669.871C241.959 670.581 204.795 676.464 204.795 686.434V696.986C204.795 707.795 247.232 713.628 287.161 713.628C327.091 713.628 369.529 707.795 369.529 696.986V686.434C369.529 676.18 331.176 670.349 292.961 669.832L292.965 651.805C304.866 648.772 306.925 637.743 307.312 626.182C307.569 618.476 310.409 609.018 322.482 607.728C324.141 607.551 325.469 607.959 326.546 608.972C330.838 613.014 330.235 625.318 329.912 631.927L329.848 633.248C329.612 638.436 331.443 643.37 334.872 646.786C338.774 650.672 344.643 652.546 351.86 652.203C367.291 651.47 367.778 643.279 368.296 634.605C368.347 633.712 368.402 632.804 368.473 631.885C368.674 629.288 368.49 626.587 368.313 623.976C367.795 616.345 367.386 610.319 375.168 608.064C376.788 607.593 378.104 607.77 379.19 608.604C383.965 612.262 383.653 626.886 383.503 633.914C383.48 635.006 383.459 635.95 383.459 636.694C383.459 640.748 385.133 644.568 388.049 647.174C390.265 649.153 394.22 651.368 400.517 650.703C401.371 650.77 405.396 650.89 409.173 647.526C413.891 643.323 416.204 635.616 416.049 624.618C415.724 601.595 416.245 579.16 416.389 573.596C418.769 571.224 419.016 567.508 418.695 565.394C419.242 550.37 423.695 426.446 421.778 415.27Z" fill="#030000"/>
</g>
<path fill-rule="evenodd" clip-rule="evenodd" d="M110.847 572.302L111.288 578.448L109.325 579.819L73.7919 579.274C73.0601 577.219 70.9879 574.398 66.7132 574.173C61.3641 573.894 42.803 573.89 42.0156 573.89L41.726 573.925C41.6231 573.951 39.1906 574.568 37.5895 575.847C36.4882 576.726 35.5691 578.139 35.0856 578.969L-14.0537 578.421C-14.6498 576.955 -16.1992 574.102 -19.4466 573.355C-23.1422 572.503 -45.053 572.477 -46.8173 572.476C-48.6627 572.231 -51.9089 572.493 -52.8294 574.944C-53.3646 576.371 -53.6856 577.784 -53.8592 578.702L-88.0799 578.974L-91.8855 575.65L-92.0945 570.626L110.847 572.302ZM-88.9689 581.36L-51.7943 581.064L-51.6639 580.032C-51.6606 580.011 -51.3842 577.874 -50.5974 575.779C-50.1754 574.656 -47.703 574.753 -47.0675 574.844L-46.8985 574.856C-40.3989 574.856 -22.8933 575.003 -19.9819 575.673C-17.0626 576.345 -16.0616 579.876 -16.0524 579.907L-15.8205 580.781L36.5184 581.364L36.8518 580.7C37.1342 580.135 38.0861 578.498 39.0792 577.705C40.0914 576.895 41.7037 576.401 42.1734 576.269C44.0301 576.27 61.558 576.286 66.5881 576.549C70.9218 576.777 71.6778 580.505 71.7073 580.655L71.8776 581.624L110.061 582.21L113.761 579.623L113.069 569.942L-93.3288 568.236L-94.582 568.227L-94.225 576.769L-88.9689 581.36Z" fill="#030000"/>
<path fill-rule="evenodd" clip-rule="evenodd" d="M111.629 692.337L-84.1041 695.965C-84.1788 694.325 -85.0278 691.766 -89.0556 689.89L-92.1222 598.605L-89.0267 596.619L-54.3475 596.889C-54.396 599.544 -54.4163 605.503 -53.6917 607.674L-53.5961 607.96C-52.7798 610.424 -51.8541 613.218 -46.4689 613.85C-41.6262 614.422 -20.8462 613.882 -19.9644 613.857L-19.6591 613.81C-19.4344 613.744 -14.1318 612.145 -13.4433 608.359C-12.9912 605.877 -13.0522 600.492 -13.1072 598.044L33.4928 598.582L33.7463 608.429C33.7463 608.601 33.7968 612.657 38.1914 614.343C41.9891 615.802 65.7015 615.076 68.4439 614.985C68.6234 614.971 72.851 614.611 74.2555 611.455C75.2527 609.217 75.2716 602.558 75.2317 599.714L107.647 599.446L112.461 602.569L111.629 692.337ZM72.79 597.356L72.8247 598.569C72.9315 602.291 72.8221 608.816 72.0766 610.489C71.2531 612.34 68.2945 612.61 68.3142 612.61C57.9383 612.946 41.583 613.096 39.047 612.122C36.2129 611.035 36.1323 608.525 36.1297 608.398L35.8172 596.229L-15.5665 595.636L-15.5239 596.881C-15.5213 596.962 -15.2514 604.984 -15.7886 607.933C-16.1293 609.802 -18.9555 611.085 -20.1917 611.483C-22.1951 611.533 -41.7363 612.007 -46.1905 611.488C-50.0675 611.031 -50.5713 609.513 -51.3333 607.213L-51.4296 606.922C-52.0709 605.001 -52.0126 598.204 -51.936 595.746L-51.898 594.529L-89.7172 594.234L-94.5508 597.335L-91.3865 691.488L-90.6731 691.78C-85.6574 693.828 -86.4979 696.678 -86.53 696.779L-87.1105 698.401L112.832 694.695L113.991 694.673L114.858 601.286L108.345 597.06L72.79 597.356Z" fill="#030000"/>
<path fill-rule="evenodd" clip-rule="evenodd" d="M182.643 586.34L182.305 588.695C183.036 588.799 233.166 595.796 296.471 595.796C325.98 595.796 358.361 594.275 389.919 589.826L389.585 587.47C290.667 601.417 183.711 586.49 182.643 586.34Z" fill="#030000"/>
<path fill-rule="evenodd" clip-rule="evenodd" d="M406.109 555.846L406.105 555.972L406.126 556.093C406.16 556.294 406.91 561.009 403.129 562.294C398.596 563.834 295.139 565.832 184.99 560.596L184.821 560.588L184.662 560.625C184.637 560.631 182.074 561.193 180.174 559.678C178.641 558.457 177.865 556.193 177.865 552.945C177.865 542.84 178.169 433.922 178.204 421.243C195.034 421.323 381.754 422.219 393.187 422.219C394.567 422.219 395.826 422.21 396.977 422.202C405.944 422.145 407.477 422.232 408.951 425.733C410.372 429.756 408.03 505.749 406.109 555.846ZM411.153 424.824C409.015 419.741 405.974 419.767 396.96 419.823C395.815 419.831 394.561 419.839 393.187 419.839C381.281 419.839 179.063 418.867 177.021 418.857L175.828 418.852L175.824 420.044C175.82 421.265 175.48 542.265 175.48 552.945C175.48 556.97 176.569 559.868 178.713 561.559C181.202 563.522 184.242 563.122 185.024 562.979C238.626 565.525 291.607 566.396 332.051 566.396C372.997 566.396 401.084 565.503 403.898 564.547C408.392 563.02 408.876 558.247 408.497 555.817C409.012 542.355 413.253 429.816 411.153 424.824Z" fill="#030000"/>
<path fill-rule="evenodd" clip-rule="evenodd" d="M175.351 257.027C191.672 257.11 368.008 257.995 378.819 257.995C380.125 257.995 381.317 257.985 382.405 257.978C391.142 257.914 392.304 258.04 393.678 261.452C395.024 265.408 392.808 340.681 390.988 390.31L390.984 390.432L391.003 390.547C391.036 390.745 391.748 395.426 388.196 396.688C383.836 398.209 285.792 400.177 181.717 395L181.541 394.994L181.375 395.032C181.353 395.039 179.05 395.563 177.298 394.18C175.792 392.993 175.029 390.724 175.029 387.437C175.029 377.433 175.317 269.642 175.351 257.027ZM175.849 396.071C178.191 397.896 180.989 397.526 181.752 397.384C232.454 399.903 282.582 400.765 320.863 400.765C359.69 400.765 386.328 399.877 388.995 398.93C393.273 397.411 393.735 392.683 393.374 390.282C393.862 376.975 397.88 265.515 395.893 260.576C393.858 255.517 390.971 255.538 382.388 255.599C381.305 255.605 380.119 255.614 378.819 255.614C367.547 255.614 176.101 254.652 174.168 254.643L172.974 254.637L172.97 255.829C172.968 257.038 172.645 376.861 172.645 387.437C172.645 391.507 173.722 394.412 175.849 396.071Z" fill="#030000"/>
<path fill-rule="evenodd" clip-rule="evenodd" d="M296.582 175.699C296.456 180.451 296.365 183.882 296.365 185.369C296.365 191.87 295.748 219.753 295.704 221.7C295.619 222.06 295.108 223.813 293.056 224.136C290.288 224.533 210.743 224.739 180.328 224.784L180.112 224.805C179.846 224.849 178.49 224.988 177.771 223.345C176.927 221.273 176.48 197.569 176.707 166.981C176.772 158.183 176.373 150.085 176.053 143.579C175.687 136.125 175.309 128.427 176.267 127.052C180.364 126.998 214.797 126.541 239.125 126.231C265.357 125.897 292.88 126.753 296.447 127.682C297.75 131.524 296.935 162.369 296.582 175.699ZM297.758 125.633C294.782 124.147 260.476 123.58 239.095 123.85C213.192 124.182 175.832 124.678 175.832 124.678L175.587 124.682L175.364 124.781C172.923 125.865 173.022 130.486 173.673 143.695C173.991 150.172 174.388 158.234 174.323 166.964C174.257 175.904 174.005 220.695 175.586 224.296C176.6 226.612 178.54 227.207 179.849 227.207C180.064 227.207 180.26 227.19 180.434 227.164C192.153 227.146 290.281 226.982 293.426 226.487C297.383 225.863 298.042 222.184 298.069 222.027L298.084 221.857C298.091 221.561 298.75 192.099 298.75 185.369C298.75 183.914 298.844 180.317 298.965 175.763C300.171 130.171 299.313 126.409 297.758 125.633Z" fill="#030000"/>
<path fill-rule="evenodd" clip-rule="evenodd" d="M126.932 90.8349L129.005 163.445L56.7395 163.904L55.8191 92.2134L126.932 90.8349ZM131.457 165.809L129.249 88.4102L53.4062 89.8802L54.387 166.3L131.457 165.809Z" fill="#030000"/>
<path fill-rule="evenodd" clip-rule="evenodd" d="M125.906 186.377C127.592 210.4 129.771 248.233 128.708 251.591C127.694 252.546 121.647 253.632 98.8149 253.52C97.8538 253.514 97.0303 253.51 96.3844 253.51L94.7059 253.512C88.4462 253.516 69.5235 253.567 66.2314 251.696C64.1678 248.884 62.2849 216.827 61.5289 187.471L125.906 186.377ZM60.3641 218.693C62.0989 251.925 63.9162 253.06 64.8943 253.67C68.1051 255.673 81.1408 255.933 94.7111 255.892L96.3844 255.889C97.027 255.889 97.8473 255.893 98.8025 255.899C100.115 255.906 101.376 255.909 102.593 255.909C121.656 255.909 129.391 255.043 130.754 252.832C132.624 249.797 129.276 200.21 128.205 185.084L128.126 183.961L59.0859 185.131L59.1161 186.33C59.12 186.491 59.5222 202.557 60.3641 218.693Z" fill="#030000"/>
<path fill-rule="evenodd" clip-rule="evenodd" d="M61.7165 271.278L140.737 268.076C141.788 293.12 142.863 332.526 141.435 336.096C138.443 338.214 106.539 339.278 96.7462 338.858C94.4887 338.762 91.1318 338.756 87.2443 338.75C78.043 338.733 64.1719 338.709 61.0824 337.162C58.83 334.382 59.6286 301.758 61.7165 271.278ZM59.8861 339.224C63.1054 340.949 73.7113 341.105 87.2403 341.129C91.1017 341.136 94.4356 341.142 96.6454 341.236C97.366 341.266 98.899 341.287 100.989 341.287C112.45 341.287 140.639 340.664 143.271 337.633C145.697 334.842 143.939 287.16 143.07 266.789L143.019 265.602L59.4858 268.987L59.4118 270.05C59.4006 270.214 58.2607 286.68 57.6763 303.223C56.4696 337.392 58.6924 338.583 59.8861 339.224Z" fill="#030000"/>
<path fill-rule="evenodd" clip-rule="evenodd" d="M147.381 532.36C147.119 533.383 146.978 534.315 146.852 535.137C146.356 538.392 146.129 539.878 138.929 541.174C129.498 542.872 -0.312696 542.726 -19.0022 542.43C-23.5822 542.359 -32.2365 542.327 -42.258 542.291C-64.8527 542.209 -102.669 542.072 -105.3 541.214C-106.052 540.969 -106.888 540.84 -107.772 540.704C-111.734 540.089 -116.664 539.326 -117.268 526.732C-118.061 510.182 -121.482 393.939 -121.703 385.731C-121.809 381.787 -121.96 378.49 -122.08 375.841C-122.252 372.074 -122.377 369.351 -122.229 367.767C-122.014 365.449 -121.617 361.186 -114.612 361.186C-114.432 361.186 -114.247 361.189 -114.057 361.195L-114.037 361.196L140.707 360.431C140.897 360.431 145.362 360.485 145.783 365.213C146.098 368.751 146.62 399.575 147.081 426.77C147.38 444.444 147.664 461.137 147.867 469.185C148.455 492.473 148.555 527.772 147.381 532.36ZM149.465 426.73C148.981 398.164 148.479 368.625 148.158 365.001C147.668 359.503 143.069 358.051 140.703 358.051L-114.004 358.816C-123.779 358.544 -124.395 365.316 -124.604 367.546C-124.765 369.295 -124.646 371.942 -124.462 375.949C-124.342 378.589 -124.192 381.873 -124.085 385.795C-123.865 394.005 -120.442 510.282 -119.648 526.846C-118.951 541.38 -112.444 542.388 -108.138 543.054C-107.351 543.176 -106.608 543.291 -106.039 543.476C-103.277 544.375 -75.5234 544.549 -42.2658 544.67C-32.2528 544.707 -23.6051 544.738 -19.0382 544.81C-13.7389 544.894 6.88062 544.987 31.6071 544.987C75.6966 544.987 132.828 544.69 139.352 543.516C147.817 541.992 148.583 539.597 149.209 535.495C149.332 534.69 149.459 533.859 149.691 532.949C151.087 527.49 150.744 488.687 150.25 469.125C150.046 461.087 149.763 444.398 149.465 426.73Z" fill="#030000"/>
<path fill-rule="evenodd" clip-rule="evenodd" d="M-6.67673 122.669C0.352142 122.892 6.17163 122.965 10.8479 123.023C21.6169 123.156 27.1443 123.226 29.6436 124.88C30.2515 126.488 32.1829 139.038 34.5898 228.568C35.9767 280.153 36.7268 328.597 36.5087 330.552C36.3947 331.455 36.3646 332.209 36.3384 332.875C36.2519 335.077 36.2329 335.569 33.1308 336.671H-108.512C-108.985 336.302 -110.094 335.224 -110.254 333.165C-110.274 332.905 -110.332 332.238 -110.425 331.195C-112.965 302.506 -117.32 246.05 -117.937 190.269C-118.243 162.569 -118.504 142.82 -118.713 131.57C-118.793 127.22 -118.853 124.942 -118.892 123.751C-118.893 123.723 -118.895 123.696 -118.895 123.668C-108.03 123.457 -28.9249 121.959 -6.67673 122.669ZM-120.321 190.295C-119.703 246.156 -115.343 302.681 -112.8 331.404C-112.709 332.432 -112.65 333.091 -112.629 333.349C-112.327 337.266 -109.575 338.835 -109.459 338.9L-109.189 339.05H33.5377L33.7283 338.983C38.3352 337.375 38.6084 335.815 38.7211 332.969C38.7453 332.35 38.7735 331.65 38.873 330.847C39.1436 328.687 38.3018 277.519 36.9286 226.856C34.1731 125.239 32.1796 123.779 31.2211 123.078C28.1892 120.859 22.7641 120.791 10.8781 120.644C6.21225 120.586 0.405195 120.513 -6.6014 120.29C-30.0714 119.545 -116.564 121.241 -120.074 121.311L-121.177 121.243L-121.531 123.721L-121.278 123.716C-121.165 126.936 -120.879 139.718 -120.321 190.295Z" fill="#030000"/>
<path fill-rule="evenodd" clip-rule="evenodd" d="M-106.335 91.9105L-107.775 10.0791L9.22022 8.87192L11.1384 92.3937L-106.335 91.9105ZM11.5492 6.46875L-110.199 7.72429L-108.679 94.281L13.5768 94.7838L11.5754 7.6432L11.5492 6.46875Z" fill="#030000"/>
<path fill-rule="evenodd" clip-rule="evenodd" d="M45.3697 581.528C43.876 581.528 42.6607 582.741 42.6607 584.232V605.198C42.6607 606.69 43.876 607.902 45.3697 607.902H62.9349C64.4286 607.902 65.6433 606.69 65.6433 605.198V584.232C65.6433 582.741 64.4286 581.528 62.9349 581.528H45.3697ZM62.9349 609.864H45.3697C42.7917 609.864 40.6953 607.771 40.6953 605.198V584.232C40.6953 581.659 42.7917 579.566 45.3697 579.566H62.9349C65.5122 579.566 67.6086 581.659 67.6086 584.232V605.198C67.6086 607.771 65.5122 609.864 62.9349 609.864Z" fill="black"/>
<path fill-rule="evenodd" clip-rule="evenodd" d="M296.584 175.699C296.459 180.45 296.368 183.881 296.368 185.368C296.368 191.869 295.75 219.752 295.706 221.699C295.622 222.059 295.111 223.812 293.059 224.135C290.29 224.532 210.746 224.738 180.331 224.783L180.115 224.804C179.849 224.848 178.492 224.987 177.774 223.344C176.929 221.272 176.482 197.568 176.709 166.98C176.774 158.183 176.376 150.084 176.055 143.578C175.69 136.124 175.311 128.426 176.27 127.051C180.367 126.997 214.799 126.54 239.128 126.23C265.36 125.896 292.882 126.752 296.449 127.682C297.753 131.523 296.937 162.368 296.584 175.699Z" fill="#FFCA71"/>
<path fill-rule="evenodd" clip-rule="evenodd" d="M406.105 555.979L406.109 555.853C408.03 505.755 410.371 429.763 408.95 425.741C407.476 422.238 405.943 422.152 396.976 422.209C395.826 422.217 394.567 422.226 393.186 422.226C381.754 422.226 195.032 421.33 178.203 421.25C178.168 433.928 177.863 542.847 177.863 552.952C177.863 556.2 178.641 558.464 180.173 559.685C182.073 561.2 184.636 560.638 184.662 560.631L184.821 560.595L184.988 560.602C295.139 565.839 398.596 563.841 403.129 562.301C406.909 561.017 406.159 556.3 406.124 556.1L406.105 555.979Z" fill="#FFA3A3"/>
<path fill-rule="evenodd" clip-rule="evenodd" d="M147.383 532.355C147.121 533.378 146.98 534.309 146.854 535.131C146.357 538.387 146.131 539.873 138.931 541.169C129.5 542.867 -0.310999 542.721 -19.0005 542.425C-23.5805 542.353 -32.2348 542.321 -42.2563 542.286C-64.851 542.204 -102.668 542.066 -105.298 541.209C-106.051 540.964 -106.886 540.834 -107.77 540.698C-111.732 540.084 -116.662 539.321 -117.266 526.727C-118.059 510.177 -121.48 393.934 -121.702 385.726C-121.807 381.782 -121.958 378.485 -122.078 375.835C-122.251 372.069 -122.375 369.346 -122.227 367.762C-122.012 365.444 -121.615 361.18 -114.611 361.18C-114.43 361.18 -114.245 361.184 -114.056 361.19L-114.035 361.191L140.709 360.426C140.899 360.426 145.363 360.48 145.785 365.207C146.1 368.746 146.622 399.57 147.082 426.764C147.382 444.439 147.666 461.132 147.869 469.18C148.457 492.467 148.556 527.766 147.383 532.355Z" fill="#D4B9E4"/>
<path fill-rule="evenodd" clip-rule="evenodd" d="M175.354 257.027C191.675 257.11 368.01 257.995 378.821 257.995C380.128 257.995 381.319 257.985 382.408 257.978C391.144 257.914 392.307 258.04 393.68 261.452C395.027 265.408 392.811 340.681 390.991 390.31L390.987 390.432L391.006 390.547C391.039 390.745 391.751 395.426 388.199 396.688C383.839 398.209 285.795 400.177 181.719 395L181.544 394.994L181.378 395.032C181.356 395.039 179.052 395.563 177.301 394.18C175.795 392.993 175.031 390.723 175.031 387.437C175.031 377.433 175.32 269.642 175.354 257.027Z" fill="#A6ADEB"/>
<path fill-rule="evenodd" clip-rule="evenodd" d="M126.925 90.8359L128.998 163.446L56.733 163.905L55.8125 92.2144L126.925 90.8359Z" fill="#FFA3A3"/>
<path fill-rule="evenodd" clip-rule="evenodd" d="M125.905 186.375C127.591 210.398 129.769 248.231 128.707 251.589C127.693 252.544 121.645 253.63 98.8134 253.517C97.8523 253.512 97.0288 253.508 96.3828 253.508L94.7044 253.51C88.4446 253.514 69.5219 253.564 66.2299 251.694C64.1662 248.882 62.2834 216.825 61.5273 187.468L125.905 186.375Z" fill="#FFA3A3"/>
<path fill-rule="evenodd" clip-rule="evenodd" d="M61.7224 271.28L140.743 268.078C141.794 293.122 142.869 332.528 141.44 336.098C138.448 338.216 106.545 339.28 96.7522 338.86C94.4946 338.764 91.1377 338.758 87.2502 338.752C78.0489 338.735 64.1779 338.711 61.0883 337.165C58.8359 334.384 59.6345 301.76 61.7224 271.28Z" fill="#FFCA71"/>
<path fill-rule="evenodd" clip-rule="evenodd" d="M-106.334 91.9097L-107.773 10.0782L9.22139 8.87109L11.1396 92.3929L-106.334 91.9097Z" fill="#FFA3A3"/>
<path fill-rule="evenodd" clip-rule="evenodd" d="M-6.67624 122.674C0.352632 122.897 6.17212 122.97 10.8484 123.028C21.6174 123.162 27.1448 123.231 29.6441 124.885C30.252 126.493 32.1834 139.043 34.5903 228.573C35.9772 280.158 36.7273 328.602 36.5092 330.558C36.3952 331.46 36.365 332.215 36.3388 332.88C36.2524 335.082 36.2333 335.574 33.1313 336.676H-108.511C-108.984 336.307 -110.094 335.229 -110.253 333.171C-110.274 332.91 -110.332 332.243 -110.424 331.2C-112.965 302.511 -117.32 246.055 -117.936 190.274C-118.243 162.574 -118.503 142.825 -118.712 131.576C-118.793 127.225 -118.853 124.947 -118.892 123.756C-118.893 123.728 -118.895 123.701 -118.895 123.674C-108.03 123.462 -28.9244 121.964 -6.67624 122.674Z" fill="#A6ADEB"/>
<path fill-rule="evenodd" clip-rule="evenodd" d="M6.00781 462.635L30.1434 447.494L6.00781 432.352V462.635Z" stroke="#030000" stroke-width="1.96539" stroke-linecap="round" stroke-linejoin="round"/>
<path fill-rule="evenodd" clip-rule="evenodd" d="M285.617 498.176L304.599 486.267L285.617 474.359V498.176Z" stroke="#030000" stroke-width="1.96539" stroke-linecap="round" stroke-linejoin="round"/>
<path fill-rule="evenodd" clip-rule="evenodd" d="M276.652 338.595L295.634 326.686L276.652 314.777V338.595Z" stroke="#030000" stroke-width="1.96539" stroke-linecap="round" stroke-linejoin="round"/>
<path fill-rule="evenodd" clip-rule="evenodd" d="M227.191 184.732L245.255 173.399L227.191 162.066V184.732Z" stroke="#030000" stroke-width="1.96539" stroke-linecap="round" stroke-linejoin="round"/>
<path fill-rule="evenodd" clip-rule="evenodd" d="M85.3555 134.132L98.8315 125.677L85.3555 117.223V134.132Z" stroke="#030000" stroke-width="1.96539" stroke-linecap="round" stroke-linejoin="round"/>
<path fill-rule="evenodd" clip-rule="evenodd" d="M86.8477 225.105L100.324 216.65L86.8477 208.195V225.105Z" stroke="#030000" stroke-width="1.96539" stroke-linecap="round" stroke-linejoin="round"/>
<path fill-rule="evenodd" clip-rule="evenodd" d="M95.0625 311.608L108.538 303.153L95.0625 294.699V311.608Z" stroke="#030000" stroke-width="1.96539" stroke-linecap="round" stroke-linejoin="round"/>
<path d="M194.82 547.781L388.694 550.724" stroke="#030000" stroke-width="1.63782" stroke-linecap="round" stroke-linejoin="round"/>
<path d="M-61.7891 529.094L132.448 528.348" stroke="#030000" stroke-width="1.63782" stroke-linecap="round" stroke-linejoin="round"/>
<path fill-rule="evenodd" clip-rule="evenodd" d="M269.466 549.229C269.466 551.042 267.993 552.512 266.176 552.512C264.359 552.512 262.887 551.042 262.887 549.229C262.887 547.415 264.359 545.945 266.176 545.945C267.993 545.945 269.466 547.415 269.466 549.229Z" fill="#DF0087"/>
<path fill-rule="evenodd" clip-rule="evenodd" d="M269.466 549.229C269.466 551.042 267.993 552.512 266.176 552.512C264.359 552.512 262.887 551.042 262.887 549.229C262.887 547.415 264.359 545.945 266.176 545.945C267.993 545.945 269.466 547.415 269.466 549.229Z" stroke="#030000" stroke-width="1.63782" stroke-linecap="round" stroke-linejoin="round"/>
<path fill-rule="evenodd" clip-rule="evenodd" d="M112.579 528.651C112.579 530.464 111.107 531.934 109.29 531.934C107.473 531.934 106 530.464 106 528.651C106 526.838 107.473 525.367 109.29 525.367C111.107 525.367 112.579 526.838 112.579 528.651Z" fill="#DF0087"/>
<path fill-rule="evenodd" clip-rule="evenodd" d="M112.579 528.651C112.579 530.464 111.107 531.934 109.29 531.934C107.473 531.934 106 530.464 106 528.651C106 526.838 107.473 525.367 109.29 525.367C111.107 525.367 112.579 526.838 112.579 528.651Z" stroke="#030000" stroke-width="1.63782" stroke-linecap="round" stroke-linejoin="round"/>
<path d="M189.59 380.742L375.993 384.431" stroke="#030000" stroke-width="1.63782" stroke-linecap="round" stroke-linejoin="round"/>
<path d="M184.746 215.16L285.6 215.906" stroke="#030000" stroke-width="1.63782" stroke-linecap="round" stroke-linejoin="round"/>
<path d="M65.957 331.486L133.94 331.113" stroke="#030000" stroke-width="1.63782" stroke-linecap="round" stroke-linejoin="round"/>
<path fill-rule="evenodd" clip-rule="evenodd" d="M343.423 384.159C343.423 385.972 341.95 387.442 340.134 387.442C338.316 387.442 336.844 385.972 336.844 384.159C336.844 382.346 338.316 380.875 340.134 380.875C341.95 380.875 343.423 382.346 343.423 384.159Z" fill="#DF0087"/>
<path fill-rule="evenodd" clip-rule="evenodd" d="M343.423 384.159C343.423 385.972 341.95 387.442 340.134 387.442C338.316 387.442 336.844 385.972 336.844 384.159C336.844 382.346 338.316 380.875 340.134 380.875C341.95 380.875 343.423 382.346 343.423 384.159Z" stroke="#030000" stroke-width="1.63782" stroke-linecap="round" stroke-linejoin="round"/>
<path fill-rule="evenodd" clip-rule="evenodd" d="M208.204 215.463C208.204 217.276 206.732 218.746 204.915 218.746C203.098 218.746 201.625 217.276 201.625 215.463C201.625 213.65 203.098 212.18 204.915 212.18C206.732 212.18 208.204 213.65 208.204 215.463Z" fill="#DF0087"/>
<path fill-rule="evenodd" clip-rule="evenodd" d="M208.204 215.463C208.204 217.276 206.732 218.746 204.915 218.746C203.098 218.746 201.625 217.276 201.625 215.463C201.625 213.65 203.098 212.18 204.915 212.18C206.732 212.18 208.204 213.65 208.204 215.463Z" stroke="#030000" stroke-width="1.63782" stroke-linecap="round" stroke-linejoin="round"/>
<path fill-rule="evenodd" clip-rule="evenodd" d="M78.2123 155.877C78.2123 157.69 76.7396 159.16 74.9229 159.16C73.1056 159.16 71.6328 157.69 71.6328 155.877C71.6328 154.064 73.1056 152.594 74.9229 152.594C76.7396 152.594 78.2123 154.064 78.2123 155.877Z" fill="#DF0087"/>
<path fill-rule="evenodd" clip-rule="evenodd" d="M78.2123 155.877C78.2123 157.69 76.7396 159.16 74.9229 159.16C73.1056 159.16 71.6328 157.69 71.6328 155.877C71.6328 154.064 73.1056 152.594 74.9229 152.594C76.7396 152.594 78.2123 154.064 78.2123 155.877Z" stroke="#030000" stroke-width="1.96539" stroke-linecap="round" stroke-linejoin="round"/>
<path d="M71.5625 245.36L124.978 244.988" stroke="#030000" stroke-width="1.63782" stroke-linecap="round" stroke-linejoin="round"/>
<path d="M65.2148 155.877L118.629 155.504" stroke="#030000" stroke-width="1.63782" stroke-linecap="round" stroke-linejoin="round"/>
<path d="M-52.0781 82.7985L1.33713 82.4258" stroke="#030000" stroke-width="1.63782" stroke-linecap="round" stroke-linejoin="round"/>
<path d="M17.7773 135.742L20.392 318.81" stroke="#030000" stroke-width="1.63782" stroke-linecap="round" stroke-linejoin="round"/>
<path fill-rule="evenodd" clip-rule="evenodd" d="M77.9421 155.553C77.9421 157.366 76.4693 158.836 74.6527 158.836C72.836 158.836 71.3633 157.366 71.3633 155.553C71.3633 153.74 72.836 152.27 74.6527 152.27C76.4693 152.27 77.9421 153.74 77.9421 155.553Z" fill="#DF0087"/>
<path fill-rule="evenodd" clip-rule="evenodd" d="M77.9421 155.553C77.9421 157.366 76.4693 158.836 74.6527 158.836C72.836 158.836 71.3633 157.366 71.3633 155.553C71.3633 153.74 72.836 152.27 74.6527 152.27C76.4693 152.27 77.9421 153.74 77.9421 155.553Z" stroke="#030000" stroke-width="1.63782" stroke-linecap="round" stroke-linejoin="round"/>
<path fill-rule="evenodd" clip-rule="evenodd" d="M113.7 244.24C113.7 246.054 112.227 247.524 110.41 247.524C108.594 247.524 107.121 246.054 107.121 244.24C107.121 242.427 108.594 240.957 110.41 240.957C112.227 240.957 113.7 242.427 113.7 244.24Z" fill="#DF0087"/>
<path fill-rule="evenodd" clip-rule="evenodd" d="M113.7 244.24C113.7 246.054 112.227 247.524 110.41 247.524C108.594 247.524 107.121 246.054 107.121 244.24C107.121 242.427 108.594 240.957 110.41 240.957C112.227 240.957 113.7 242.427 113.7 244.24Z" stroke="#030000" stroke-width="1.63782" stroke-linecap="round" stroke-linejoin="round"/>
<path fill-rule="evenodd" clip-rule="evenodd" d="M94.6537 331.486C94.6537 333.3 93.181 334.77 91.3643 334.77C89.5476 334.77 88.0742 333.3 88.0742 331.486C88.0742 329.673 89.5476 328.203 91.3643 328.203C93.181 328.203 94.6537 329.673 94.6537 331.486Z" fill="#DF0087"/>
<path fill-rule="evenodd" clip-rule="evenodd" d="M94.6537 331.486C94.6537 333.3 93.181 334.77 91.3643 334.77C89.5476 334.77 88.0742 333.3 88.0742 331.486C88.0742 329.673 89.5476 328.203 91.3643 328.203C93.181 328.203 94.6537 329.673 94.6537 331.486Z" stroke="#030000" stroke-width="1.63782" stroke-linecap="round" stroke-linejoin="round"/>
<path fill-rule="evenodd" clip-rule="evenodd" d="M23.403 248.713C23.403 250.526 21.9303 251.996 20.1136 251.996C18.297 251.996 16.8242 250.526 16.8242 248.713C16.8242 246.9 18.297 245.43 20.1136 245.43C21.9303 245.43 23.403 246.9 23.403 248.713Z" fill="#DF0087"/>
<path fill-rule="evenodd" clip-rule="evenodd" d="M23.403 248.713C23.403 250.526 21.9303 251.996 20.1136 251.996C18.297 251.996 16.8242 250.526 16.8242 248.713C16.8242 246.9 18.297 245.43 20.1136 245.43C21.9303 245.43 23.403 246.9 23.403 248.713Z" stroke="#030000" stroke-width="1.63782" stroke-linecap="round" stroke-linejoin="round"/>
</g>
</svg>
