<svg width="712" height="717" viewBox="0 0 712 717" fill="none" xmlns="http://www.w3.org/2000/svg">
<mask id="mask0_2674_23456" style="mask-type:alpha" maskUnits="userSpaceOnUse" x="0" y="0" width="712" height="717">
<rect width="712" height="717" fill="#D9D9D9"/>
</mask>
<g mask="url(#mask0_2674_23456)">
<path fill-rule="evenodd" clip-rule="evenodd" d="M282.738 524.617L287.054 694.264L270.096 691.846L265.824 505.805L282.738 524.617Z" fill="#97F2EF"/>
<path fill-rule="evenodd" clip-rule="evenodd" d="M2.14062 506.751L263.692 504.055L268 691.703L5.37244 690.625L2.14062 506.751Z" fill="#97F2EF"/>
<path fill-rule="evenodd" clip-rule="evenodd" d="M270.463 712.368L35.4063 712.91L22.1289 692.785L268.991 693.799L280.026 695.371C280.085 697.416 279.893 707.737 270.463 712.368Z" fill="#97F2EF"/>
<path fill-rule="evenodd" clip-rule="evenodd" d="M399.2 661.826C403.321 680.334 404.88 712.526 398.888 714.319C393.863 715.823 392.031 714.451 391.479 713.803C392.845 709.535 399.967 682.528 379.56 635.468C360.032 590.433 365.079 556.216 366.216 550.128C366.748 550.188 367.287 550.236 367.839 550.262C374.818 550.594 379.404 547.813 382.015 545.433C385.391 542.354 387.597 537.921 387.775 533.862L387.799 533.298C388.091 526.431 388.498 523.129 394.513 523.129C399.36 523.129 399.768 527.205 399.783 532.13C399.787 532.923 399.788 533.606 399.837 534.191C399.852 534.374 399.99 535.754 400.648 537.62C391.626 542.858 381.427 575.024 381.427 589.586C381.427 599.951 387.456 620.471 392.777 638.574C395.424 647.584 397.925 656.093 399.2 661.826Z" fill="#EDF864"/>
<path fill-rule="evenodd" clip-rule="evenodd" d="M398.732 606.169C401.378 616.854 406.59 629.759 412.107 643.422C419.456 661.621 427.053 680.433 428.673 694.61C428.234 695.17 427.057 696.367 424.996 696.367C422.779 696.367 422.119 695.231 421.995 694.965C421.571 692.724 415.121 659.433 402.491 640.187C390.501 621.913 388.884 616.103 388.87 616.054L388.832 616.063C385.967 605.351 383.809 595.605 383.809 589.585C383.809 575.017 394.017 544.551 401.591 539.812C402.689 541.948 404.467 544.313 407.33 546.197C404.251 552.274 391.99 578.948 398.732 606.169Z" fill="#EDF864"/>
<path fill-rule="evenodd" clip-rule="evenodd" d="M558.285 635.471C537.886 682.513 544.995 709.516 546.364 713.8C545.797 714.468 543.962 715.821 538.956 714.322C532.966 712.529 534.524 680.336 538.645 661.829C539.921 656.096 542.421 647.586 545.068 638.577C550.388 620.473 556.418 599.954 556.418 589.589C556.418 581.077 553.508 567.824 549.178 556.609C546.118 548.682 539.685 535.078 530.496 531.301C530.626 525.147 531.805 519.359 537.547 519.174C539.262 519.102 540.64 519.659 541.732 520.827C544.764 524.064 544.783 531.213 544.533 533.695C544.465 534.372 543.994 540.456 548.29 545.112C551.371 548.452 556.047 550.083 562.164 549.983C565.794 549.919 568.714 549.174 570.906 547.78C572.304 555.285 577.464 591.242 558.285 635.471Z" fill="#EDF864"/>
<path fill-rule="evenodd" clip-rule="evenodd" d="M571.277 544.369C569.497 546.439 566.417 547.526 562.121 547.601C556.746 547.724 552.644 546.316 550.043 543.497C546.388 539.538 546.882 534.156 546.905 533.928C546.945 533.521 547.855 523.88 543.473 519.199C541.903 517.525 539.863 516.701 537.469 516.794C527.99 517.098 528.069 528.749 528.099 533.135L528.102 533.811C528.102 534.144 528.116 534.524 528.131 534.938C528.295 539.51 528.57 547.162 513.098 547.885C507.562 548.136 503.318 546.915 500.506 544.232C498.675 542.486 496.496 539.177 496.506 533.246C496.506 531.91 495.601 523.784 491.598 519.946C490.119 518.528 488.389 517.85 486.489 517.924C479.333 518.209 477.989 525.733 477.186 530.229C477.078 530.83 476.98 531.385 476.876 531.865C476.71 532.635 476.654 533.618 476.588 534.754C476.277 540.175 475.849 547.601 465.016 547.601C454.065 547.601 451.766 538.873 451.766 531.549C451.766 529.14 451.766 524.126 448.897 521.493C447.559 520.263 445.815 519.732 443.679 519.906C436.947 520.466 436.962 528.488 436.968 531.914C436.969 532.528 436.97 533.107 436.924 533.435C436.183 538.65 433.095 547.324 420.773 547.324C420.615 547.324 420.456 547.322 420.296 547.319C403.489 547.02 402.252 534.526 402.208 533.994C402.166 533.503 402.164 532.863 402.162 532.124C402.149 528.148 402.126 520.749 394.507 520.749C385.941 520.749 385.672 527.078 385.411 533.197L385.387 533.759C385.269 536.462 383.898 540.487 380.402 543.676C378.124 545.754 374.111 548.171 367.945 547.885C363.218 547.665 359.51 546.114 356.925 543.272C354.207 540.283 353.376 536.455 353.505 533.87C353.587 532.249 353.599 529.138 353.614 525.536C353.645 517.893 353.702 503.667 354.753 501.918C355.768 500.231 364.4 495.217 370.597 491.973L372.135 491.98L377.57 497.689L574.597 498.256L575.014 498.258L581.753 492.933L591.233 492.976C591.859 513.029 592.399 529.32 592.666 534.998C592.678 535.242 592.695 535.472 592.709 535.708C592.478 536.142 591.595 537.343 589.087 536.623C588.185 536.367 587.681 531.784 587.41 529.323C586.893 524.62 586.358 519.758 583.841 517.843C582.931 517.15 581.856 516.896 580.643 517.09C573.684 518.202 573.147 528.384 572.945 532.218C572.922 532.649 572.897 533.137 572.879 533.239C572.784 533.62 572.839 534.031 572.95 534.851C573.238 536.975 573.836 541.396 571.277 544.369Z" fill="#EDF864"/>
<path fill-rule="evenodd" clip-rule="evenodd" d="M591.793 642.326C578.325 680.042 575.982 691.766 575.897 692.204C575.869 692.31 575.194 694.803 569.531 694.674C568.521 694.655 567.807 694.379 567.347 693.832C566.653 693.004 566.636 691.636 566.7 691.022C568.247 687.721 590.828 638.69 591.465 592.244C592.002 553.075 578.504 531.274 575.82 527.334C576.416 523.79 577.767 519.962 581.022 519.442C581.585 519.354 582.018 519.448 582.399 519.737C584.103 521.035 584.624 525.775 585.043 529.585C585.574 534.409 585.993 538.217 588.435 538.913C590.409 539.475 591.907 539.208 592.98 538.636C594.41 550 599.681 551.882 603.827 552.636C603.94 560.354 604.098 607.869 591.793 642.326Z" fill="#EDF864"/>
<path fill-rule="evenodd" clip-rule="evenodd" d="M634.816 554.364C646.461 554.503 660.921 554.572 676.496 554.63C687.375 554.671 696.769 554.705 701.729 554.786C707.491 554.877 729.94 554.982 756.836 554.982C794.785 554.982 841.576 554.775 862.799 554.039L851.053 558.341L624.812 556.712L634.816 554.364Z" fill="#EDF864"/>
<path fill-rule="evenodd" clip-rule="evenodd" d="M622.585 707.923C621.432 707.258 620.046 700.499 620.823 684.232C621.093 678.571 617.376 572.496 616.902 559.031L850.065 560.71L849.228 704.774C772.508 706.314 628.412 708.916 622.585 707.923Z" fill="#EDF864"/>
<path fill-rule="evenodd" clip-rule="evenodd" d="M606.117 3.89219L740.792 2.50391L743.004 98.7511L607.775 98.1959L606.117 3.89219Z" fill="#97F2EF"/>
<path fill-rule="evenodd" clip-rule="evenodd" d="M617.051 100.613L744.133 101.136L749.264 101.867C749.211 103.453 748.675 107.382 744.935 109.403C743.2 109.372 741.306 109.348 739.231 109.322C734.072 109.258 727.651 109.179 719.903 108.932C702.605 108.381 654.335 109.033 622.947 109.55L617.051 100.613Z" fill="#97F2EF"/>
<path fill-rule="evenodd" clip-rule="evenodd" d="M719.836 111.314C727.606 111.563 734.04 111.642 739.21 111.707C751.176 111.855 757.295 111.931 760.072 113.802C760.738 115.447 762.883 128.923 765.558 228.394C767.095 285.552 767.922 339.085 767.678 341.183C767.555 342.177 767.522 343.007 767.492 343.741C767.395 346.231 767.372 346.823 763.655 348.122L763.75 348.397L607.104 348.877L607.479 348.212C607.397 348.163 605.474 347.011 605.247 344.066C605.224 343.779 605.159 343.044 605.058 341.896C602.249 310.193 597.436 247.802 596.755 186.144C596.417 155.534 596.128 133.711 595.897 121.278C595.807 116.474 595.743 113.956 595.698 112.64C595.696 112.565 595.693 112.494 595.691 112.421C607.197 112.199 695.166 110.528 719.836 111.314Z" fill="#97F2EF"/>
<path fill-rule="evenodd" clip-rule="evenodd" d="M590.619 351.095L589.605 319.032C591.877 318.07 595.62 316.146 595.62 313.909C595.62 312.566 595.496 310.507 595.41 309.252L599.952 308.496C600.929 321.682 601.885 333.122 602.68 342.101C602.781 343.235 602.846 343.96 602.868 344.243C603.035 346.411 603.888 347.915 604.705 348.88L598.692 348.899C594.823 348.79 592.289 349.736 590.619 351.095Z" fill="#97F2EF"/>
<path fill-rule="evenodd" clip-rule="evenodd" d="M594.368 186.17C594.821 227.135 597.095 268.414 599.395 300.829L564.601 300.121C564.498 297.737 564.283 291.008 564.283 276.038C564.283 263.255 561.983 219.635 560.303 187.785C559.362 169.939 558.619 155.842 558.619 153.558C558.619 150.89 558.06 149.117 557.34 147.934L593.908 147.598C594.038 157.501 594.191 170.11 594.368 186.17Z" fill="#97F2EF"/>
<path fill-rule="evenodd" clip-rule="evenodd" d="M419.491 134.059C418.464 132.694 418.883 130.863 418.886 130.851L418.929 130.681L414.766 40.8133L414.756 40.708C414.487 38.7357 414.373 35.077 415.217 33.6554C415.961 32.3979 417.447 32.2227 418.214 32.2227C418.487 32.2227 418.671 32.2449 418.695 32.2488L418.855 32.2599C420.268 32.2684 560.149 33.0185 569.46 33.3906C572.504 33.5115 574.43 34.4002 575.65 35.4766L577.152 37.456C577.725 38.6435 577.753 39.6545 577.754 39.7604C577.816 43.1 579.27 121.634 579.645 127.622C579.703 128.539 579.777 129.396 579.847 130.199C580.262 134.96 580.254 136.682 577.319 138.149C571.818 140.137 435.693 136.373 423.829 135.781C421.732 135.677 420.272 135.097 419.491 134.059Z" fill="#97F2EF"/>
<path fill-rule="evenodd" clip-rule="evenodd" d="M431.098 138.399C453.713 139.096 522.571 141.092 557.578 141.092C569.279 141.092 577.206 140.868 578.346 140.299C582.92 138.017 582.611 134.479 582.221 129.997C582.153 129.213 582.079 128.375 582.023 127.478C581.682 122.023 580.388 53.1663 580.169 41.4375L582.202 44.1153L585.265 145.296L554.016 145.582L431.098 145.996V138.399Z" fill="#97F2EF"/>
<path fill-rule="evenodd" clip-rule="evenodd" d="M331.395 148.71L553.912 147.961C554.273 148.057 556.229 148.796 556.229 153.555C556.229 155.903 556.975 170.026 557.918 187.907C559.596 219.731 561.894 263.314 561.894 276.035C561.894 290.9 562.099 297.606 562.209 300.115L340.319 303.469L331.395 148.71Z" fill="#97F2EF"/>
<path fill-rule="evenodd" clip-rule="evenodd" d="M352.504 305.666L563.465 302.477L599.567 303.212C599.637 304.187 599.708 305.156 599.778 306.115L592.875 307.263L592.958 308.349C592.961 308.386 593.237 312 593.241 313.881C593.088 314.536 590.658 316.047 588.173 317.051L352.398 312.461L352.504 305.666Z" fill="#97F2EF"/>
<path fill-rule="evenodd" clip-rule="evenodd" d="M587.228 319.43L588.324 354.084H588.329C587.542 355.797 587.378 357.507 587.29 358.461C587.114 360.388 587.245 363.318 587.445 367.752C587.575 370.678 587.737 374.319 587.853 378.667C587.998 384.19 589.423 433.814 590.712 476.083L345.232 474.589L336.68 318.684L587.228 319.43Z" fill="#97F2EF"/>
<path fill-rule="evenodd" clip-rule="evenodd" d="M344.773 489.478L345.25 476.973L590.785 478.467C590.911 482.608 591.036 486.668 591.159 490.597L370.214 489.593L370.171 489.512C370.125 489.536 370.068 489.565 370.016 489.593L344.773 489.478Z" fill="#97F2EF"/>
<path fill-rule="evenodd" clip-rule="evenodd" d="M577.938 492.917L574.192 495.877L378.6 495.315L375.441 491.996L577.938 492.917Z" fill="#97F2EF"/>
<path fill-rule="evenodd" clip-rule="evenodd" d="M873.13 551.015C862.499 552.968 717.394 552.66 701.766 552.407C696.79 552.328 687.388 552.293 676.502 552.253C664.407 552.208 648.293 552.147 634.727 551.983L634.718 551.945L634.56 551.982C620.713 551.813 609.557 551.536 608.113 551.056C607.301 550.786 606.397 550.644 605.441 550.492C601.106 549.805 595.711 548.953 595.049 534.887C594.191 516.577 590.478 387.709 590.238 378.608C590.123 374.237 589.959 370.584 589.828 367.649C589.634 363.312 589.506 360.446 589.666 358.679C589.905 356.07 590.341 351.271 598.028 351.271C598.226 351.271 598.429 351.275 598.636 351.281L598.657 351.282L875.04 350.434C875.566 350.438 880.199 350.632 880.654 355.847C880.997 359.774 881.562 393.922 882.061 424.048C882.386 443.652 882.694 462.17 882.916 471.094C883.553 496.915 883.66 536.057 882.384 541.155C882.101 542.282 881.948 543.311 881.812 544.217C881.581 545.765 881.401 546.957 880.681 547.929L879.961 548.677C878.797 549.622 876.784 550.343 873.13 551.015Z" fill="#97F2EF"/>
<mask id="mask1_2674_23456" style="mask-type:luminance" maskUnits="userSpaceOnUse" x="328" y="0" width="818" height="718">
<path d="M328.871 0.101562H1145.13V717.368H328.871V0.101562Z" fill="white"/>
</mask>
<g mask="url(#mask1_2674_23456)">
<path fill-rule="evenodd" clip-rule="evenodd" d="M1139.18 565.423L1139.17 565.543L1139.19 565.662C1139.2 565.713 1139.89 570.082 1137.23 572.224L1136.91 572.215C1136.91 572.228 1136.91 572.31 1136.91 572.452C1136.58 572.669 1136.23 572.866 1135.82 573.014C1130.84 574.787 1017.36 577.093 896.528 571.062L896.352 571.053L896.18 571.096C896.154 571.104 893.46 571.752 891.332 570.093C889.519 568.679 888.6 565.981 888.6 562.075C888.6 550.392 888.937 423.973 888.973 410.265C906.663 410.353 1112.32 411.389 1124.89 411.389C1126.41 411.389 1127.79 411.38 1129.05 411.37C1138.95 411.305 1140.63 411.406 1142.28 415.536C1143.86 419.893 1141.29 507.56 1139.18 565.423ZM1136.54 624.651C1136.68 634.743 1134.59 642.024 1130.5 645.707C1127.17 648.712 1123.68 648.346 1123.53 648.326L1123.39 648.309L1123.25 648.324C1118.91 648.805 1115.19 647.795 1112.51 645.401C1110.1 643.246 1108.71 640.072 1108.71 636.694C1108.71 635.963 1108.73 635.037 1108.76 633.964C1108.93 625.976 1109.25 611.108 1103.51 606.716C1101.81 605.407 1099.74 605.093 1097.37 605.779C1087.75 608.568 1088.29 616.483 1088.81 624.137C1088.98 626.664 1089.15 629.276 1088.97 631.703C1088.9 632.636 1088.84 633.557 1088.79 634.464C1088.28 643.016 1087.91 649.195 1074.62 649.826C1068 650.132 1062.89 648.551 1059.43 645.1C1056.47 642.157 1054.89 637.876 1055.1 633.357L1055.16 632.043C1055.53 624.561 1056.14 612.037 1051.05 607.241C1049.46 605.741 1047.45 605.106 1045.1 605.362C1034.35 606.511 1028.21 613.877 1027.8 626.102C1027.37 638.935 1024.81 647.883 1013.68 649.843C1007.13 650.999 1000.97 649.655 996.796 646.162C993.979 643.802 992.427 640.708 992.427 637.448C992.427 636.828 992.433 636.152 992.439 635.432C992.504 627.844 992.603 616.379 987.195 611.254C985.254 609.413 982.759 608.567 979.836 608.749C967.976 609.467 968.739 624.431 969.149 632.471C969.218 633.829 969.277 635.002 969.277 635.94L969.282 636.896C969.301 640.78 969.322 645.183 966.571 647.942C964.55 649.97 961.256 650.956 956.501 650.956C951.881 650.956 948.523 649.805 946.518 647.536C944.031 644.722 944.464 641.029 944.468 640.996L944.478 617.193C944.592 616.441 945.043 612.489 942.437 609.548C940.4 607.248 937.106 606.222 932.642 606.487C927.866 606.777 924.464 608.216 922.528 610.767C920.459 613.496 920.837 616.547 920.953 617.219C920.982 618.638 921.308 635.081 920.953 640.765C920.539 647.384 913.282 650.956 906.663 650.956C897.752 650.956 891.842 646.829 890.851 639.917C889.801 632.569 890.749 589.707 890.855 585.111L895.801 578.83L896.949 580.593L1132.61 583.249L1134.53 575.624C1135.56 575.502 1136.27 575.379 1136.62 575.254C1136.7 575.227 1136.76 575.191 1136.84 575.161C1136.66 582.663 1136.24 603.406 1136.54 624.651ZM1090.02 686.434C1090.02 693.179 1057.17 700.695 1010.03 700.695C962.897 700.695 930.049 693.179 930.049 686.434C930.049 683.989 935.425 680.264 950.514 677.142C963.957 674.36 982.155 672.63 1001.84 672.253V681.827L1001.9 682.011C1001.96 682.177 1003.28 685.951 1008.66 685.95C1008.88 685.95 1009.1 685.945 1009.33 685.932C1015.26 685.602 1015.79 682.411 1015.83 682.049L1015.83 672.213C1064.24 672.857 1090.02 680.855 1090.02 686.434ZM1010.03 711.248C962.897 711.248 930.049 703.732 930.049 696.986V690.689C939.529 698.765 975.708 703.075 1010.03 703.075C1044.36 703.075 1080.54 698.765 1090.02 690.689V696.986C1090.02 703.732 1057.17 711.248 1010.03 711.248ZM1013.45 652.284V681.78C1013.35 682.047 1012.69 683.362 1009.2 683.556C1005.65 683.749 1004.49 681.923 1004.23 681.395V652.142C1007.11 652.721 1010.24 652.779 1013.45 652.284ZM895.234 573.592C895.844 573.57 896.316 573.495 896.566 573.446C955.38 576.378 1013.51 577.381 1057.87 577.381C1094.29 577.381 1121.42 576.704 1132.01 575.862L1130.76 580.848L898.253 578.229L895.234 573.592ZM884.214 544.256C884.335 543.456 884.468 542.629 884.693 541.73C886.205 535.695 885.831 492.707 885.295 471.034C885.075 462.118 884.768 443.606 884.443 424.006C883.918 392.367 883.375 359.649 883.026 355.639C882.503 349.638 877.576 348.052 875.039 348.052L768.279 348.38C769.64 347.175 769.79 345.782 769.868 343.83C769.894 343.145 769.925 342.367 770.037 341.474C770.335 339.094 769.404 282.559 767.887 226.575C765.552 140.451 763.731 119.481 762.539 114.039L769.487 115.946L770.227 173.503L772.523 173.488L775.143 176.757L773.297 176.788L773.327 177.987C773.331 178.187 773.834 198.233 774.885 218.366C776.732 253.765 778.661 259.876 779.861 261.329C777.148 263.258 776.526 266.499 775.612 271.29C774.775 275.687 774.955 303.989 775.242 331.094C775.28 334.692 775.308 337.258 775.308 338.219C775.308 344.342 777.609 346.075 782.14 347.282C784.143 347.815 798.125 348.089 812.799 348.089C816.786 348.089 820.825 348.069 824.687 348.028C847.329 347.789 861.219 347.031 866.122 345.774L866.139 345.899C873.759 344.884 880.345 341.302 882.155 338.341C883.864 338.518 886.912 339.046 888.064 340.181C888.551 362.705 889.123 383.845 889.617 391.061C890.236 400.138 891.788 403.014 895.658 403.874L887.512 407.878L886.596 407.873L886.593 409.066C886.589 410.196 886.347 500.38 886.253 542.141L884.214 544.256ZM873.128 551.013C862.496 552.966 717.392 552.658 701.763 552.405C696.788 552.326 687.386 552.292 676.499 552.25C664.404 552.206 648.29 552.145 634.724 551.982L634.715 551.943L634.557 551.98C620.711 551.812 609.554 551.534 608.11 551.054C607.299 550.784 606.395 550.642 605.438 550.49C601.103 549.803 595.708 548.951 595.047 534.885C594.188 516.576 590.475 387.707 590.235 378.605C590.12 374.235 589.956 370.582 589.825 367.647C589.631 363.31 589.503 360.444 589.664 358.677C589.902 356.068 590.338 351.269 598.026 351.269C598.223 351.269 598.426 351.273 598.633 351.278L598.654 351.28L875.037 350.431C875.563 350.436 880.196 350.63 880.652 355.845C880.994 359.772 881.56 393.919 882.058 424.047C882.383 443.651 882.691 462.168 882.913 471.092C883.551 496.912 883.657 536.055 882.381 541.153C882.099 542.279 881.946 543.309 881.809 544.214C881.579 545.763 881.399 546.955 880.679 547.927L879.958 548.675C878.795 549.62 876.782 550.342 873.128 551.013ZM851.62 702.293L852.444 560.365L868.759 554.39L869.035 678.701L851.62 702.293ZM622.578 707.926C621.425 707.261 620.04 700.501 620.816 684.234C621.087 678.573 617.369 572.498 616.896 559.034L850.058 560.713L849.221 704.777C772.501 706.317 628.405 708.918 622.578 707.926ZM634.812 554.364C646.456 554.503 660.916 554.572 676.491 554.629C687.37 554.67 696.764 554.705 701.724 554.785C707.486 554.877 729.935 554.982 756.831 554.982C794.78 554.982 841.571 554.775 862.794 554.039L851.048 558.34L624.808 556.711L634.812 554.364ZM591.791 642.324C578.322 680.038 575.979 691.762 575.895 692.201C575.866 692.307 575.192 694.8 569.528 694.671C568.518 694.652 567.804 694.376 567.344 693.829C566.65 693.002 566.633 691.633 566.697 691.019C568.244 687.718 590.825 638.687 591.462 592.241C591.999 553.072 578.501 531.27 575.817 527.331C576.413 523.787 577.764 519.96 581.02 519.439C581.582 519.351 582.015 519.445 582.396 519.734C584.101 521.031 584.621 525.772 585.04 529.581C585.571 534.405 585.99 538.215 588.432 538.91C590.406 539.472 591.905 539.205 592.977 538.632C594.407 549.996 599.678 551.88 603.824 552.633C603.937 560.351 604.095 607.865 591.791 642.324ZM571.278 544.369C569.498 546.438 566.417 547.526 562.121 547.6C556.746 547.723 552.643 546.315 550.042 543.497C546.388 539.538 546.881 534.156 546.904 533.928C546.946 533.521 547.856 523.88 543.473 519.198C541.904 517.524 539.862 516.701 537.469 516.793C527.99 517.098 528.069 528.748 528.099 533.134L528.102 533.81C528.102 534.144 528.116 534.523 528.13 534.938C528.295 539.51 528.569 547.161 513.098 547.885C507.563 548.135 503.317 546.914 500.506 544.232C498.675 542.485 496.496 539.176 496.507 533.245C496.507 531.91 495.601 523.784 491.598 519.945C490.12 518.527 488.388 517.85 486.489 517.923C479.334 518.209 477.989 525.733 477.186 530.229C477.078 530.83 476.979 531.384 476.876 531.865C476.711 532.634 476.654 533.617 476.588 534.754C476.277 540.175 475.849 547.6 465.015 547.6C454.065 547.6 451.766 538.872 451.766 531.549C451.766 529.139 451.766 524.126 448.898 521.492C447.559 520.262 445.815 519.731 443.679 519.905C436.947 520.466 436.962 528.488 436.969 531.913C436.97 532.527 436.971 533.107 436.924 533.434C436.183 538.65 433.095 547.323 420.773 547.323C420.615 547.323 420.457 547.321 420.297 547.318C403.488 547.019 402.252 534.526 402.207 533.993C402.166 533.503 402.164 532.863 402.162 532.123C402.149 528.148 402.126 520.749 394.507 520.749C385.941 520.749 385.671 527.077 385.411 533.197L385.387 533.759C385.27 536.462 383.898 540.486 380.402 543.676C378.124 545.754 374.111 548.17 367.944 547.885C363.218 547.665 359.51 546.113 356.925 543.272C354.207 540.283 353.376 536.455 353.505 533.869C353.586 532.249 353.6 529.137 353.613 525.536C353.645 517.892 353.702 503.666 354.754 501.918C355.768 500.231 364.399 495.217 370.597 491.972L372.136 491.979L377.57 497.689L574.597 498.256L575.015 498.257L581.753 492.932L591.233 492.975C591.859 513.029 592.4 529.32 592.666 534.997C592.678 535.241 592.695 535.471 592.709 535.708C592.478 536.142 591.595 537.343 589.087 536.623C588.185 536.366 587.681 531.784 587.41 529.322C586.893 524.62 586.358 519.757 583.841 517.841C582.932 517.15 581.857 516.896 580.643 517.089C573.684 518.201 573.147 528.383 572.945 532.217C572.922 532.648 572.897 533.136 572.88 533.238C572.783 533.62 572.839 534.031 572.95 534.851C573.239 536.975 573.836 541.396 571.278 544.369ZM558.284 635.467C537.885 682.509 544.993 709.513 546.362 713.796C545.796 714.465 543.96 715.818 538.954 714.318C532.964 712.525 534.522 680.333 538.643 661.826C539.919 656.093 542.419 647.583 545.067 638.574C550.387 620.47 556.416 599.951 556.416 589.585C556.416 581.075 553.507 567.82 549.176 556.607C546.116 548.679 539.684 535.074 530.495 531.297C530.625 525.143 531.804 519.356 537.545 519.172C539.26 519.098 540.639 519.657 541.731 520.824C544.763 524.061 544.781 531.21 544.532 533.692C544.464 534.369 543.992 540.452 548.289 545.109C551.37 548.448 556.045 550.08 562.162 549.98C565.792 549.916 568.712 549.171 570.904 547.777C572.303 555.281 577.462 591.239 558.284 635.467ZM398.729 606.171C401.375 616.855 406.588 629.76 412.105 643.423C419.453 661.622 427.051 680.434 428.671 694.612C428.232 695.171 427.055 696.367 424.994 696.367C422.777 696.367 422.117 695.233 421.992 694.966C421.569 692.725 415.118 659.434 402.489 640.188C390.498 621.915 388.881 616.105 388.868 616.055L388.829 616.064C385.964 605.352 383.806 595.606 383.806 589.585C383.806 575.018 394.014 544.553 401.588 539.814C402.686 541.95 404.464 544.314 407.328 546.198C404.248 552.276 391.988 578.949 398.729 606.171ZM399.195 661.826C403.316 680.333 404.875 712.525 398.883 714.318C393.857 715.823 392.025 714.45 391.473 713.802C392.839 709.534 399.962 682.528 379.554 635.467C360.026 590.433 365.074 556.215 366.211 550.128C366.742 550.188 367.282 550.235 367.834 550.26C374.813 550.594 379.399 547.813 382.009 545.432C385.386 542.354 387.592 537.92 387.769 533.861L387.793 533.298C388.086 526.43 388.493 523.128 394.507 523.128C399.355 523.128 399.763 527.205 399.778 532.13C399.781 532.922 399.783 533.606 399.831 534.191C399.847 534.373 399.985 535.754 400.643 537.619C391.621 542.857 381.422 575.024 381.422 589.585C381.422 599.951 387.451 620.47 392.772 638.574C395.419 647.583 397.919 656.093 399.195 661.826ZM577.935 492.915L574.188 495.876L378.596 495.312L375.438 491.994L577.935 492.915ZM344.774 489.475L345.251 476.97L590.785 478.465C590.911 482.606 591.037 486.666 591.159 490.594L370.214 489.591L370.172 489.509C370.126 489.533 370.069 489.563 370.016 489.59L344.774 489.475ZM587.228 319.43L588.324 354.084H588.328C587.542 355.798 587.377 357.508 587.29 358.462C587.114 360.389 587.245 363.319 587.444 367.753C587.575 370.678 587.737 374.32 587.852 378.667C587.997 384.19 589.422 433.814 590.712 476.084L345.232 474.59L336.679 318.685L587.228 319.43ZM387.628 315.528L394.164 315.655V316.476L387.628 316.456V315.528ZM352.497 305.665L563.458 302.477L599.56 303.212C599.631 304.187 599.701 305.156 599.772 306.115L592.868 307.264L592.952 308.349C592.954 308.386 593.231 312 593.234 313.881C593.082 314.536 590.652 316.047 588.166 317.051L352.392 312.461L352.497 305.665ZM331.395 148.71L553.912 147.962C554.273 148.058 556.23 148.797 556.23 153.555C556.23 155.904 556.975 170.027 557.918 187.907C559.596 219.732 561.894 263.315 561.894 276.036C561.894 290.9 562.1 297.606 562.21 300.115L340.319 303.47L331.395 148.71ZM431.095 138.398C453.71 139.096 522.569 141.092 557.575 141.092C569.277 141.092 577.203 140.868 578.343 140.299C582.917 138.016 582.609 134.478 582.218 129.997C582.15 129.213 582.077 128.375 582.021 127.477C581.68 122.022 580.386 53.1662 580.167 41.4368L582.199 44.1152L585.263 145.295L554.014 145.582L431.095 145.996V138.398ZM419.488 134.064C418.461 132.698 418.88 130.867 418.883 130.856L418.926 130.686L414.763 40.8182L414.754 40.7129C414.484 38.74 414.37 35.0813 415.214 33.6603C415.958 32.4028 417.444 32.2269 418.211 32.2269C418.484 32.2269 418.668 32.2491 418.692 32.2531L418.852 32.2648C420.265 32.2727 560.146 33.0234 569.457 33.3948C572.501 33.5164 574.427 34.4045 575.647 35.4815L577.149 37.4603C577.722 38.6478 577.75 39.6587 577.751 39.7647C577.813 43.1049 579.267 121.639 579.642 127.627C579.699 128.543 579.774 129.401 579.844 130.203C580.259 134.964 580.251 136.687 577.316 138.153C571.815 140.141 435.69 136.377 423.826 135.786C421.729 135.681 420.269 135.101 419.488 134.064ZM594.364 186.168C594.817 227.133 597.091 268.412 599.391 300.827L564.597 300.119C564.493 297.736 564.278 291.006 564.278 276.036C564.278 263.253 561.978 219.633 560.299 187.783C559.357 169.937 558.614 155.84 558.614 153.555C558.614 150.888 558.056 149.115 557.335 147.932L593.904 147.595C594.034 157.499 594.186 170.108 594.364 186.168ZM590.614 351.097L589.6 319.033C591.872 318.071 595.615 316.147 595.615 313.911C595.615 312.567 595.491 310.508 595.406 309.253L599.947 308.498C600.924 321.684 601.88 333.124 602.675 342.103C602.777 343.236 602.841 343.961 602.863 344.245C603.03 346.413 603.884 347.916 604.7 348.881L598.687 348.9C594.818 348.791 592.285 349.738 590.614 351.097ZM443.996 316.624L396.549 316.483V315.701L443.996 316.624ZM719.829 111.311C727.599 111.559 734.033 111.639 739.204 111.703C751.169 111.851 757.288 111.928 760.065 113.798C760.73 115.443 762.876 128.919 765.552 228.391C767.088 285.549 767.915 339.082 767.672 341.18C767.547 342.173 767.515 343.003 767.486 343.737C767.387 346.228 767.364 346.82 763.647 348.118L763.743 348.393L607.096 348.874L607.472 348.208C607.39 348.16 605.466 347.007 605.239 344.062C605.217 343.775 605.153 343.04 605.051 341.893C602.242 310.189 597.429 247.798 596.748 186.14C596.41 155.531 596.12 133.707 595.89 121.275C595.8 116.47 595.736 113.953 595.691 112.637C595.689 112.562 595.686 112.49 595.684 112.418C607.19 112.195 695.158 110.524 719.829 111.311ZM617.052 100.614L744.135 101.137L749.264 101.868C749.212 103.454 748.677 107.383 744.937 109.404C743.201 109.373 741.307 109.349 739.232 109.324C734.073 109.259 727.652 109.18 719.904 108.933C702.606 108.382 654.336 109.034 622.948 109.551L617.052 100.614ZM606.113 3.89302L740.788 2.50473L743 98.7526L607.771 98.1967L606.113 3.89302ZM752.902 99.9826L745.387 98.9121L743.218 4.49136L750.684 12.7949L752.902 99.9826ZM856.611 83.6345L859.091 170.557L772.58 171.107L771.477 85.2857L856.611 83.6345ZM869.324 96.1885L869.874 174.465L861.487 170.939L859.049 85.4779L869.324 96.1885ZM867.911 181.531L858.916 175.86L858.879 175.336L778.156 176.706L775.561 173.469L860.08 172.931L869.574 176.921L867.911 181.531ZM782.466 262.609C788.59 264.318 803.369 264.543 817.454 264.51L819.541 264.507C820.343 264.507 821.365 264.512 822.557 264.519C824.229 264.528 825.836 264.532 827.386 264.532C850.416 264.532 860.072 263.537 862.045 261.019L864.3 258.988C864.608 258.849 866.368 258.12 867.92 258.659C868.814 258.967 869.494 259.64 870 260.714C870.721 262.243 871.886 273.04 871.599 328.173C871.591 329.628 871.585 330.656 871.585 331.153C871.585 336.876 870.034 340.48 866.401 343.2C865.052 344.143 853.278 345.351 824.535 345.651C803.599 345.865 784.562 345.462 782.754 344.983C778.894 343.955 777.692 342.888 777.692 338.219C777.692 337.254 777.665 334.68 777.626 331.069C777.453 314.738 777.046 276.492 777.954 271.736C779.076 265.852 779.611 263.776 782.466 262.609ZM868.743 251.775L862.74 257.187C863.48 243.592 860.419 197.327 859.124 178.805L867.351 183.992L868.743 251.775ZM856.66 177.752C858.795 208.123 861.568 256.279 860.155 259.578C859.231 260.834 851.967 262.3 822.57 262.139C821.373 262.133 820.347 262.127 819.541 262.127L817.448 262.131C808.74 262.151 785.567 262.202 781.729 259.815C779.095 257.021 776.693 216.394 775.74 179.127L856.66 177.752ZM879.1 259.946C879.115 260.803 879.165 263.119 879.236 266.441C879.597 283.217 880.694 334.271 880.269 336.799C879.977 337.961 876.361 340.865 870.511 342.556C873.512 338.906 873.969 334.653 873.969 331.153C873.969 330.658 873.974 329.636 873.981 328.186C874.207 285.185 873.61 262.784 872.157 259.701C871.373 258.039 870.21 256.933 868.701 256.41C868.286 256.267 867.87 256.184 867.462 256.136L870.427 253.463C871.576 253.434 875.092 253.525 877.276 255.496C878.469 256.571 879.066 258.028 879.1 259.946ZM893.047 252.479C895.527 250.554 902.009 250.646 904.294 250.841L904.354 250.846L904.414 250.846C905.199 250.834 983.248 249.715 1010.11 249.715C1028.78 249.715 1069.18 249.534 1093.31 249.426C1104.66 249.375 1112.92 249.338 1114.7 249.338C1121.13 249.338 1124.54 252.759 1124.83 259.505C1125.07 265.051 1124.21 307.32 1123.58 338.184C1123.23 355.708 1122.94 369.551 1122.94 372.513L1122.95 374.182C1122.97 382.143 1123.01 395.467 1118.68 400.781C1114.97 405.341 1097.92 405.424 1079.86 405.512C1075.85 405.533 1071.69 405.553 1067.48 405.617C1043.75 405.988 928.532 404.143 912.086 402.233C909.022 401.878 906.409 401.799 904.164 401.799C903.204 401.799 902.311 401.813 901.482 401.826C894.068 401.948 892.751 401.967 891.994 390.898C890.879 374.572 889.354 286.762 889.354 273.399C889.354 261.426 889.926 254.904 893.047 252.479ZM902.531 234.063C924.942 234.021 993.534 233.868 1016.55 233.522C1016.59 236.546 1016.19 243.524 1011.93 247.334C1011.3 247.335 1010.7 247.335 1010.11 247.335C985.979 247.335 920.6 248.238 906.913 248.43C903.232 246.219 902.505 238.271 902.531 234.063ZM895.523 231.695L895.291 231.718C895.216 231.732 893.389 232.071 892.464 229.959C891.497 227.706 890.983 200.729 891.243 165.812C891.317 155.815 890.864 146.611 890.5 139.214C890.094 130.958 889.636 121.633 890.812 120.258C895.02 120.201 934.518 119.677 962.368 119.32C992.486 118.931 1023.91 119.929 1027.67 121.001C1029.2 125.01 1028.26 160.446 1027.86 175.729C1027.71 181.129 1027.61 185.031 1027.61 186.72C1027.61 194.131 1026.9 225.972 1026.86 228.045C1026.77 228.446 1026.17 230.569 1023.71 230.955C1020.69 231.408 930.153 231.643 895.523 231.695ZM1136.58 397.888C1140.39 398.727 1141.77 405.756 1142.17 411.026C1139.79 408.913 1136.09 408.936 1129.03 408.991C1127.78 409 1126.4 409.01 1124.89 409.01C1112.94 409.01 926.196 408.072 892.852 407.904L900.356 404.217C900.732 404.216 901.117 404.212 901.519 404.206C904.228 404.162 907.595 404.107 911.81 404.598C926.893 406.348 1024.59 408.043 1059.45 408.043C1062.74 408.043 1065.47 408.028 1067.52 407.997C1071.72 407.932 1075.86 407.912 1079.88 407.893C1100.12 407.793 1116.11 407.715 1120.53 402.282C1121.68 400.873 1122.55 399.055 1123.21 396.986C1125.67 396.865 1131.38 396.75 1136.58 397.888ZM1144.65 415.27L1144.68 415.27C1144.68 415.092 1144.78 410.86 1143.99 406.36C1142.86 399.955 1140.54 396.322 1137.09 395.564C1132.07 394.463 1126.74 394.462 1123.88 394.571C1125.37 388.155 1125.35 380.136 1125.33 374.175L1125.33 372.513C1125.33 369.575 1125.61 355.743 1125.97 338.232C1126.6 307.336 1127.46 265.024 1127.21 259.403C1126.74 248.575 1119.17 246.958 1114.7 246.958C1112.92 246.958 1104.65 246.995 1093.3 247.046C1071.16 247.145 1035.33 247.305 1015.16 247.331C1018.63 242.796 1018.99 236.461 1018.93 233.483C1021.86 233.428 1023.68 233.37 1024.08 233.307C1027.59 232.754 1028.98 229.837 1029.22 228.37L1029.24 228.201C1029.25 227.864 1029.99 194.369 1029.99 186.72C1029.99 185.063 1030.1 180.972 1030.24 175.791C1031.5 128.332 1030.86 119.899 1028.96 118.95C1025.86 117.405 989.976 116.59 962.336 116.94C932.888 117.317 890.413 117.882 890.413 117.882L890.167 117.886L889.944 117.985C887.239 119.186 887.416 125.034 888.119 139.331C888.481 146.698 888.933 155.864 888.859 165.795C888.812 172.022 888.459 226.758 890.28 230.912C891.4 233.468 893.536 234.123 894.976 234.123C895.216 234.123 895.436 234.105 895.629 234.075C896.227 234.074 897.797 234.072 900.153 234.067C900.141 237.129 900.461 244.304 903.474 248.404C900.925 248.278 894.637 248.229 891.584 250.6C887.66 253.647 886.97 260.38 886.97 273.399C886.97 280.628 887.417 309.629 888.004 337.341C886.243 336.515 884.04 336.153 882.683 336.002C882.865 330.484 882.534 308.946 881.619 266.389C881.549 263.073 881.498 260.758 881.483 259.903C881.437 257.327 880.559 255.25 878.874 253.73C876.439 251.533 872.963 251.134 871.112 251.088L869.726 183.523L871.774 177.845L872.283 178.059L871.704 95.6987L871.7 95.226L858.948 81.9304L858.928 81.2097L769.064 82.9518L769.456 113.47L759.26 110.671L759.23 110.778C756.871 109.971 753.571 109.653 748.718 109.495C751.045 107.015 751.55 103.902 751.639 102.207L755.356 102.736L753.056 12.2966L753.045 11.8578L743.134 0.835919L743.118 0.101562L603.688 1.53823L605.427 100.567L614.189 100.603L620.125 109.599C605.887 109.838 595.694 110.038 594.507 110.061H594.503L593.4 109.994L593.044 112.471L593.302 112.465C593.386 114.796 593.563 122.143 593.872 145.216L587.647 145.273L584.559 43.2841L579.112 36.1086C578.715 35.3513 578.161 34.566 577.393 33.8434L577.25 33.6544L577.215 33.6806C575.649 32.2877 573.248 31.1643 569.552 31.0171C560.281 30.647 422.659 29.9048 418.932 29.8858C418.308 29.8231 414.853 29.5935 413.162 32.4479C411.664 34.9727 412.276 40.161 412.385 40.9797L416.529 130.472C416.4 131.158 416.103 133.501 417.562 135.465C418.785 137.112 420.853 138.019 423.708 138.162C423.86 138.169 425.649 138.229 428.711 138.324V146.004L330.13 146.335L328.871 146.341L338.004 304.746L338.07 305.884L350.112 305.702L349.973 314.794L385.245 315.481V316.45L334.161 316.297L342.91 475.785L342.299 491.843L365.606 491.95C360.755 494.619 353.958 498.615 352.709 500.694C351.423 502.833 351.281 512.765 351.23 525.526C351.215 529.098 351.204 532.183 351.125 533.751C350.926 537.718 352.435 541.875 355.16 544.871C357.359 547.29 360.322 548.934 363.852 549.733C363.297 552.633 361.992 560.985 362.45 573.519C362.971 587.719 365.981 610.157 377.366 636.413C398.78 685.793 389.147 713.268 389.047 713.539L388.889 713.968L389.058 714.392C389.12 714.545 390.318 717.368 394.91 717.368C396.185 717.368 397.722 717.15 399.569 716.598C403.562 715.402 405.467 707.801 405.232 694.004C405.055 683.618 403.564 670.479 401.523 661.309C400.229 655.499 397.718 646.953 395.059 637.904C394.118 634.7 393.154 631.421 392.206 628.138C394.202 631.603 396.883 635.987 400.495 641.491C413.237 660.909 419.606 695.166 419.669 695.51L419.711 695.672C419.752 695.797 420.786 698.748 424.994 698.748C429.038 698.748 430.862 695.642 430.938 695.51L431.129 695.176L431.088 694.793C429.541 680.239 421.8 661.071 414.316 642.534C408.83 628.95 403.649 616.12 401.044 605.599C394.521 579.26 406.377 553.361 409.403 547.371C412.158 548.707 415.694 549.617 420.254 549.698C435.347 549.943 438.59 538.647 439.294 533.695C439.355 533.273 439.354 532.701 439.352 531.909C439.343 527.431 439.685 522.626 443.878 522.278C445.335 522.15 446.446 522.473 447.284 523.243C449.382 525.17 449.382 529.478 449.382 531.549C449.382 543.434 454.934 549.98 465.015 549.98C478.101 549.98 478.665 540.164 478.969 534.891C479.029 533.852 479.08 532.954 479.207 532.364C479.315 531.859 479.42 531.278 479.533 530.645C480.487 525.305 481.745 520.494 486.584 520.302C487.862 520.246 488.941 520.697 489.946 521.66C493.078 524.664 494.122 531.64 494.122 533.334C494.11 540.015 496.691 543.884 498.859 545.952C501.884 548.839 506.191 550.298 511.677 550.298C512.179 550.298 512.69 550.287 513.21 550.26C531.037 549.428 530.67 539.214 530.512 534.853C530.5 534.51 530.491 534.198 530.488 533.914C543.965 540.728 554.032 574.242 554.032 589.585C554.032 599.609 548.054 619.954 542.78 637.904C540.121 646.953 537.609 655.499 536.315 661.309C533.172 675.433 529.01 713.825 538.27 716.598C540.117 717.15 541.653 717.368 542.928 717.368C547.52 717.368 548.718 714.545 548.78 714.392L548.948 713.966L548.791 713.539C548.692 713.268 539.059 685.793 560.471 636.413C581.4 588.148 573.719 549.409 572.983 546.023C573.016 545.986 573.055 545.955 573.087 545.918C576.341 542.135 575.62 536.807 575.313 534.532C575.272 534.231 575.222 533.862 575.215 533.711C575.265 533.449 575.286 533.084 575.325 532.342C575.344 532.006 575.364 531.612 575.393 531.178C576.949 533.857 579.234 538.266 581.484 544.345C585.114 554.157 589.376 570.423 589.078 592.208C588.429 639.528 564.704 689.665 564.464 690.168L564.365 690.484C564.345 690.602 563.898 693.411 565.505 695.343C566.42 696.442 567.757 697.017 569.481 697.051C569.615 697.053 569.746 697.055 569.875 697.055C577.255 697.054 578.188 692.886 578.226 692.695C578.249 692.58 580.63 680.667 594.035 643.123C606.254 608.907 606.323 562.076 606.213 553.034C606.632 553.113 607.022 553.2 607.356 553.312C608.659 553.745 615.138 554.026 625.027 554.215L614.704 556.638L614.427 556.636L614.47 557.877C614.513 559.081 618.713 678.303 618.435 684.123C617.281 708.305 620.619 709.693 621.715 710.149C622.268 710.38 627.538 710.478 636.162 710.478C681.409 710.478 818.862 707.767 850.431 707.132L851.592 707.108L851.596 706.336L871.188 679.796L871.422 679.481L871.141 553.623C872.221 553.537 873.041 553.448 873.56 553.352C877.091 552.703 879.374 551.911 880.89 550.923L880.998 551.028L881.613 550.392C881.98 550.083 882.292 549.758 882.554 549.414L886.245 545.582C886.227 553.981 886.215 559.941 886.215 562.075C886.215 566.752 887.444 570.081 889.866 571.968C890.595 572.536 891.362 572.912 892.11 573.162L894.428 576.722L888.49 584.263L888.481 584.659C888.435 586.601 887.36 632.332 888.493 640.254C889.665 648.445 896.457 653.335 906.663 653.335C915.723 653.335 922.889 647.994 923.331 640.914C923.709 634.903 923.349 617.797 923.334 617.071L923.307 616.844C923.301 616.82 922.817 614.329 924.429 612.203C925.925 610.232 928.736 609.108 932.786 608.863C936.48 608.638 939.11 609.397 940.639 611.11C942.702 613.422 942.119 616.85 942.114 616.88L942.094 640.772C942.022 641.455 941.716 645.674 944.705 649.082C947.181 651.904 951.149 653.335 956.501 653.335C961.923 653.335 965.77 652.12 968.261 649.62C971.711 646.16 971.685 641.017 971.665 636.883L971.662 635.94C971.662 634.943 971.601 633.742 971.53 632.35C970.997 621.901 971.21 611.654 979.98 611.125C982.27 610.98 984.091 611.593 985.554 612.98C990.211 617.392 990.114 628.672 990.056 635.411C990.049 636.139 990.043 636.822 990.043 637.448C990.043 641.423 991.898 645.164 995.265 647.984C997.15 649.563 999.382 650.748 1001.84 651.529V669.871C964.831 670.581 927.666 676.464 927.666 686.434V696.986C927.666 707.795 970.103 713.628 1010.03 713.628C1049.96 713.628 1092.4 707.795 1092.4 696.986V686.434C1092.4 676.18 1054.05 670.349 1015.83 669.832L1015.84 651.805C1027.74 648.772 1029.8 637.743 1030.18 626.182C1030.44 618.476 1033.28 609.018 1045.35 607.728C1047.01 607.551 1048.34 607.959 1049.42 608.972C1053.71 613.014 1053.11 625.318 1052.78 631.927L1052.72 633.248C1052.48 638.436 1054.31 643.37 1057.74 646.786C1061.65 650.672 1067.51 652.546 1074.73 652.203C1090.16 651.47 1090.65 643.279 1091.17 634.605C1091.22 633.712 1091.27 632.804 1091.34 631.885C1091.54 629.288 1091.36 626.587 1091.18 623.976C1090.67 616.345 1090.26 610.319 1098.04 608.064C1099.66 607.593 1100.97 607.77 1102.06 608.604C1106.84 612.262 1106.52 626.886 1106.37 633.914C1106.35 635.006 1106.33 635.95 1106.33 636.694C1106.33 640.748 1108 644.568 1110.92 647.174C1113.14 649.153 1117.09 651.368 1123.39 650.703C1124.24 650.77 1128.27 650.89 1132.04 647.526C1136.76 643.323 1139.08 635.616 1138.92 624.618C1138.59 601.595 1139.12 579.16 1139.26 573.596C1141.64 571.224 1141.89 567.508 1141.57 565.394C1142.11 550.37 1146.57 426.446 1144.65 415.27Z" fill="#030000"/>
</g>
<path fill-rule="evenodd" clip-rule="evenodd" d="M833.722 572.302L834.163 578.448L832.2 579.819L796.667 579.274C795.935 577.219 793.863 574.398 789.588 574.173C784.239 573.894 765.678 573.89 764.89 573.89L764.601 573.925C764.498 573.951 762.066 574.568 760.464 575.847C759.363 576.726 758.444 578.139 757.961 578.969L708.821 578.421C708.225 576.955 706.676 574.102 703.428 573.355C699.733 572.503 677.822 572.477 676.058 572.476C674.212 572.231 670.966 572.493 670.045 574.944C669.51 576.371 669.189 577.784 669.016 578.702L634.795 578.974L630.989 575.65L630.78 570.626L833.722 572.302ZM633.906 581.36L671.081 581.064L671.211 580.032C671.214 580.011 671.491 577.874 672.278 575.779C672.699 574.656 675.172 574.753 675.807 574.844L675.976 574.856C682.476 574.856 699.982 575.003 702.893 575.673C705.812 576.345 706.813 579.876 706.822 579.907L707.055 580.781L759.393 581.364L759.727 580.7C760.009 580.135 760.961 578.498 761.954 577.705C762.966 576.895 764.579 576.401 765.048 576.269C766.905 576.27 784.433 576.286 789.463 576.549C793.797 576.777 794.553 580.505 794.582 580.655L794.753 581.624L832.936 582.21L836.636 579.623L835.944 569.942L629.546 568.236L628.293 568.227L628.65 576.769L633.906 581.36Z" fill="#030000"/>
<path fill-rule="evenodd" clip-rule="evenodd" d="M834.504 692.337L638.771 695.965C638.696 694.325 637.847 691.766 633.819 689.89L630.753 598.605L633.848 596.619L668.527 596.889C668.479 599.544 668.459 605.503 669.183 607.674L669.279 607.96C670.095 610.424 671.021 613.218 676.406 613.85C681.249 614.422 702.029 613.882 702.911 613.857L703.216 613.81C703.441 613.744 708.743 612.145 709.432 608.359C709.884 605.877 709.823 600.492 709.768 598.044L756.368 598.582L756.621 608.429C756.621 608.601 756.672 612.657 761.066 614.343C764.864 615.802 788.577 615.076 791.319 614.985C791.498 614.971 795.726 614.611 797.13 611.455C798.128 609.217 798.147 602.558 798.107 599.714L830.522 599.446L835.336 602.569L834.504 692.337ZM795.665 597.356L795.7 598.569C795.807 602.291 795.697 608.816 794.952 610.489C794.128 612.34 791.17 612.61 791.189 612.61C780.813 612.946 764.458 613.096 761.922 612.122C759.088 611.035 759.007 608.525 759.005 608.398L758.692 596.229L707.308 595.636L707.351 596.881C707.354 596.962 707.624 604.984 707.086 607.933C706.746 609.802 703.92 611.085 702.683 611.483C700.68 611.533 681.139 612.007 676.685 611.488C672.807 611.031 672.304 609.513 671.542 607.213L671.445 606.922C670.804 605.001 670.862 598.204 670.939 595.746L670.977 594.529L633.158 594.234L628.324 597.335L631.489 691.488L632.202 691.78C637.218 693.828 636.377 696.678 636.345 696.779L635.765 698.401L835.707 694.695L836.866 694.673L837.733 601.286L831.22 597.06L795.665 597.356Z" fill="#030000"/>
<path fill-rule="evenodd" clip-rule="evenodd" d="M373.689 503.797L373.422 506.161C374.006 506.227 416.83 510.933 478.875 510.933C502.262 510.933 528.38 510.265 555.995 508.427L555.836 506.052C455.181 512.752 374.493 503.887 373.689 503.797Z" fill="#030000"/>
<path fill-rule="evenodd" clip-rule="evenodd" d="M870.256 532.36C869.994 533.383 869.853 534.315 869.727 535.137C869.231 538.392 869.004 539.878 861.804 541.174C852.373 542.872 722.562 542.726 703.873 542.43C699.293 542.359 690.638 542.327 680.617 542.291C658.022 542.209 620.206 542.072 617.575 541.214C616.823 540.969 615.987 540.84 615.103 540.704C611.141 540.089 606.211 539.326 605.607 526.732C604.814 510.182 601.393 393.939 601.171 385.731C601.066 381.787 600.915 378.49 600.794 375.841C600.622 372.074 600.498 369.351 600.646 367.767C600.861 365.449 601.258 361.186 608.263 361.186C608.443 361.186 608.628 361.189 608.818 361.195L608.838 361.196L863.582 360.431C863.772 360.431 868.237 360.485 868.658 365.213C868.973 368.751 869.495 399.575 869.956 426.77C870.255 444.444 870.539 461.137 870.742 469.185C871.33 492.473 871.43 527.772 870.256 532.36ZM872.34 426.73C871.856 398.164 871.354 368.625 871.033 365.001C870.543 359.503 865.944 358.051 863.578 358.051L608.871 358.816C599.096 358.544 598.48 365.316 598.271 367.546C598.11 369.295 598.229 371.942 598.413 375.949C598.533 378.589 598.683 381.873 598.79 385.795C599.01 394.005 602.432 510.282 603.227 526.846C603.924 541.38 610.431 542.388 614.737 543.054C615.524 543.176 616.267 543.291 616.836 543.476C619.598 544.375 647.352 544.549 680.609 544.67C690.622 544.707 699.27 544.738 703.837 544.81C709.136 544.894 729.756 544.987 754.482 544.987C798.572 544.987 855.703 544.69 862.226 543.516C870.692 541.992 871.458 539.597 872.084 535.495C872.207 534.69 872.334 533.859 872.566 532.949C873.962 527.49 873.619 488.687 873.125 469.125C872.921 461.087 872.638 444.398 872.34 426.73Z" fill="#030000"/>
<path fill-rule="evenodd" clip-rule="evenodd" d="M716.202 122.669C723.231 122.892 729.051 122.965 733.727 123.023C744.496 123.156 750.023 123.226 752.522 124.88C753.13 126.488 755.062 139.038 757.469 228.568C758.856 280.153 759.606 328.597 759.388 330.552C759.274 331.455 759.243 332.209 759.217 332.875C759.131 335.077 759.112 335.569 756.01 336.671H614.367C613.894 336.302 612.785 335.224 612.625 333.165C612.605 332.905 612.546 332.238 612.454 331.195C609.913 302.506 605.559 246.05 604.942 190.269C604.636 162.569 604.375 142.82 604.166 131.57C604.085 127.22 604.026 124.942 603.986 123.751C603.986 123.723 603.984 123.696 603.984 123.668C614.849 123.457 693.954 121.959 716.202 122.669ZM602.558 190.295C603.176 246.156 607.536 302.681 610.079 331.404C610.17 332.432 610.229 333.091 610.249 333.349C610.552 337.266 613.304 338.835 613.42 338.9L613.69 339.05H756.417L756.607 338.983C761.214 337.375 761.487 335.815 761.6 332.969C761.624 332.35 761.652 331.65 761.752 330.847C762.023 328.687 761.181 277.519 759.808 226.856C757.052 125.239 755.058 123.779 754.1 123.078C751.068 120.859 745.643 120.791 733.757 120.644C729.091 120.586 723.284 120.513 716.277 120.29C692.807 119.545 606.315 121.241 602.805 121.311L601.701 121.243L601.348 123.721L601.601 123.716C601.714 126.936 602 139.718 602.558 190.295Z" fill="#030000"/>
<path fill-rule="evenodd" clip-rule="evenodd" d="M616.544 91.9105L615.104 10.0791L732.099 8.87192L734.017 92.3937L616.544 91.9105ZM734.428 6.46875L612.68 7.72429L614.2 94.281L736.456 94.7838L734.454 7.6432L734.428 6.46875Z" fill="#030000"/>
<path fill-rule="evenodd" clip-rule="evenodd" d="M431.555 128.484C429.704 128.393 428.43 127.902 427.771 127.023C426.952 125.931 427.291 124.477 427.293 124.471L427.337 124.297L423.644 47.1375L423.634 47.0276C423.398 45.3627 423.293 42.2815 424.014 41.1031C424.64 40.081 425.948 39.9456 426.599 39.9456C426.83 39.9456 426.978 39.9626 426.982 39.9633L427.138 39.9738C428.39 39.9796 552.5 40.6238 560.759 40.9435C567.706 41.2116 567.98 45.7198 567.988 46.2449C568.043 49.113 569.333 116.52 569.666 121.663C569.717 122.451 569.783 123.19 569.846 123.879C570.213 127.96 570.208 129.31 567.703 130.522C562.653 132.221 442.044 128.989 431.555 128.484ZM572.22 123.666C572.159 122.995 572.094 122.277 572.045 121.51C571.715 116.42 570.385 46.9014 570.373 46.2226C570.373 46.1507 570.264 38.9288 560.852 38.5652C552.628 38.248 430.621 37.6124 427.212 37.5954C426.632 37.534 423.521 37.3502 421.981 39.8619C420.624 42.0748 421.164 46.562 421.265 47.3042L424.94 124.08C424.821 124.717 424.582 126.714 425.839 128.418C426.942 129.912 428.827 130.734 431.441 130.86C432.442 130.908 512.837 133.369 550.161 133.369C560.6 133.369 567.676 133.176 568.695 132.684C572.852 130.677 572.572 127.583 572.22 123.666Z" fill="#030000"/>
<path fill-rule="evenodd" clip-rule="evenodd" d="M347.193 298.43L338.848 153.71L547.057 153.009C547.399 153.103 549.164 153.804 549.164 158.169C549.164 160.369 549.861 173.59 550.744 190.329C552.315 220.119 554.465 260.919 554.465 272.826C554.465 286.587 554.653 292.88 554.756 295.291L347.193 298.43ZM556.849 272.826C556.849 260.856 554.695 220.021 553.124 190.204C552.243 173.5 551.548 160.306 551.548 158.169C551.548 151.187 547.479 150.656 547.306 150.636L547.238 150.629L337.583 151.334L336.324 151.339L344.944 300.844L556.029 297.651L557.287 297.632L557.199 296.377C557.195 296.328 556.849 291.218 556.849 272.826Z" fill="#030000"/>
<path fill-rule="evenodd" clip-rule="evenodd" d="M578.97 329.363L582.31 465.494H353.026L345.233 326.566L578.97 329.363ZM584.753 467.874L581.296 327.011L343.986 324.171L342.711 324.156L350.772 467.874H584.753Z" fill="#030000"/>
<path fill-rule="evenodd" clip-rule="evenodd" d="M270.459 712.369L35.4025 712.912L22.1251 692.787L268.987 693.8L280.022 695.373C280.081 697.417 279.889 707.738 270.459 712.369ZM2.1331 506.752L263.684 504.055L267.993 691.703L5.36426 690.625L2.1331 506.752ZM282.735 524.615L287.052 694.262L270.094 691.843L265.822 505.802L282.735 524.615ZM289.21 696.683L284.822 524.176L284.812 523.791L265.748 502.588L265.733 501.941L0 504.681L3.30455 692.709L19.6088 692.776L34.2751 715.006L270.703 714.461H270.938L271.151 714.36C281.403 709.487 282.128 698.728 282.119 695.672L289.21 696.683Z" fill="#030000"/>
<path fill-rule="evenodd" clip-rule="evenodd" d="M22.2326 678.523L19.4222 518.639L246.961 516.293L250.709 679.462L22.2326 678.523ZM17.2891 516.569L20.1722 680.608L252.854 681.563L249.01 514.18L17.2891 516.569Z" fill="#030000"/>
<path fill-rule="evenodd" clip-rule="evenodd" d="M680.038 580.536C678.544 580.536 677.329 581.748 677.329 583.24V604.207C677.329 605.698 678.544 606.911 680.038 606.911H697.603C699.097 606.911 700.311 605.698 700.311 604.207V583.24C700.311 581.748 699.097 580.536 697.603 580.536H680.038ZM697.603 608.872H680.038C677.46 608.872 675.363 606.78 675.363 604.207V583.24C675.363 580.667 677.46 578.574 680.038 578.574H697.603C700.18 578.574 702.277 580.667 702.277 583.24V604.207C702.277 606.78 700.18 608.872 697.603 608.872Z" fill="black"/>
<path fill-rule="evenodd" clip-rule="evenodd" d="M870.262 532.355C870 533.378 869.859 534.309 869.733 535.131C869.236 538.387 869.01 539.873 861.81 541.169C852.379 542.867 722.568 542.721 703.879 542.425C699.299 542.353 690.644 542.321 680.623 542.286C658.028 542.204 620.211 542.066 617.581 541.209C616.828 540.964 615.993 540.834 615.109 540.698C611.147 540.084 606.217 539.321 605.613 526.727C604.82 510.177 601.399 393.934 601.177 385.726C601.072 381.782 600.921 378.485 600.8 375.835C600.628 372.069 600.504 369.346 600.652 367.762C600.867 365.444 601.264 361.18 608.268 361.18C608.449 361.18 608.634 361.184 608.823 361.19L608.844 361.191L863.588 360.426C863.778 360.426 868.242 360.48 868.664 365.207C868.979 368.746 869.501 399.57 869.961 426.764C870.261 444.439 870.545 461.132 870.748 469.18C871.336 492.467 871.435 527.766 870.262 532.355Z" fill="#FFCA71"/>
<path fill-rule="evenodd" clip-rule="evenodd" d="M22.2323 678.527L19.4219 518.643L246.961 516.297L250.708 679.466L22.2323 678.527Z" fill="#A6ADEB"/>
<path fill-rule="evenodd" clip-rule="evenodd" d="M578.975 329.368L582.316 465.498H353.032L345.238 326.57L578.975 329.368Z" fill="#FFA3A3"/>
<path fill-rule="evenodd" clip-rule="evenodd" d="M347.201 298.429L338.855 153.709L547.064 153.008C547.406 153.103 549.171 153.804 549.171 158.169C549.171 160.368 549.868 173.589 550.751 190.329C552.322 220.119 554.472 260.918 554.472 272.825C554.472 286.586 554.66 292.88 554.763 295.29L347.201 298.429Z" fill="#D4B9E4"/>
<path fill-rule="evenodd" clip-rule="evenodd" d="M716.199 122.674C723.227 122.897 729.047 122.97 733.723 123.028C744.492 123.162 750.02 123.231 752.519 124.885C753.127 126.493 755.058 139.043 757.465 228.573C758.852 280.158 759.602 328.602 759.384 330.558C759.27 331.46 759.24 332.215 759.214 332.88C759.127 335.082 759.108 335.574 756.006 336.676H614.363C613.89 336.307 612.781 335.229 612.622 333.171C612.601 332.91 612.543 332.243 612.451 331.2C609.91 302.511 605.555 246.055 604.939 190.274C604.632 162.574 604.372 142.825 604.163 131.576C604.082 127.225 604.022 124.947 603.983 123.756C603.982 123.728 603.98 123.701 603.98 123.674C614.845 123.462 693.95 121.964 716.199 122.674Z" fill="#FFA3A3"/>
<path fill-rule="evenodd" clip-rule="evenodd" d="M616.545 91.9097L615.105 10.0782L732.1 8.87109L734.018 92.3929L616.545 91.9097Z" fill="#FFCA71"/>
<path fill-rule="evenodd" clip-rule="evenodd" d="M431.551 128.483C429.7 128.393 428.426 127.902 427.766 127.023C426.948 125.93 427.287 124.477 427.289 124.471L427.333 124.296L423.64 47.1372L423.63 47.0273C423.393 45.3624 423.289 42.2811 424.01 41.1028C424.636 40.0807 425.944 39.9453 426.594 39.9453C426.826 39.9453 426.974 39.9623 426.978 39.963L427.134 39.9734C428.386 39.9793 552.496 40.6234 560.755 40.9432C567.702 41.2113 567.976 45.7195 567.984 46.2446C568.039 49.1127 569.329 116.519 569.662 121.662C569.713 122.451 569.779 123.189 569.842 123.878C570.209 127.96 570.204 129.309 567.699 130.522C562.649 132.221 442.04 128.988 431.551 128.483Z" fill="#A6ADEB"/>
<path fill-rule="evenodd" clip-rule="evenodd" d="M122.441 606.035L146.576 590.892L122.441 575.75V606.035Z" stroke="#030000" stroke-width="1.96539" stroke-linecap="round" stroke-linejoin="round"/>
<path fill-rule="evenodd" clip-rule="evenodd" d="M452.441 408.095L473.667 394.778L452.441 381.461V408.095Z" stroke="#030000" stroke-width="1.96539" stroke-linecap="round" stroke-linejoin="round"/>
<path fill-rule="evenodd" clip-rule="evenodd" d="M668.668 214.285L682.009 235.472L695.351 214.285H668.668Z" stroke="#030000" stroke-width="1.96539" stroke-linecap="round" stroke-linejoin="round"/>
<path fill-rule="evenodd" clip-rule="evenodd" d="M431.152 235.841L452.378 222.524L431.152 209.207V235.841Z" stroke="#030000" stroke-width="1.96539" stroke-linecap="round" stroke-linejoin="round"/>
<path fill-rule="evenodd" clip-rule="evenodd" d="M483.75 90.7397L501.306 79.7256L483.75 68.7109V90.7397Z" stroke="#030000" stroke-width="1.96539" stroke-linecap="round" stroke-linejoin="round"/>
<path fill-rule="evenodd" clip-rule="evenodd" d="M667.785 58.5563L683.964 48.4054L667.785 38.2539V58.5563Z" stroke="#030000" stroke-width="1.96539" stroke-linecap="round" stroke-linejoin="round"/>
<path fill-rule="evenodd" clip-rule="evenodd" d="M387.637 315.527L394.173 315.654V316.476L387.637 316.457V315.527Z" fill="#97F2EF"/>
<path d="M357.965 285.816L536.14 283.02" stroke="#030000" stroke-width="1.63782" stroke-linecap="round" stroke-linejoin="round"/>
<path d="M434.168 120.625L557.436 124.007" stroke="#030000" stroke-width="1.63782" stroke-linecap="round" stroke-linejoin="round"/>
<path d="M622.426 83.1523L723.842 83.359" stroke="#030000" stroke-width="1.63782" stroke-linecap="round" stroke-linejoin="round"/>
<path d="M615.145 135.93L623.548 322.726" stroke="#030000" stroke-width="1.63782" stroke-linecap="round" stroke-linejoin="round"/>
<path d="M368.605 451.954L563.6 451.355" stroke="#030000" stroke-width="1.63782" stroke-linecap="round" stroke-linejoin="round"/>
<path d="M622.426 526.863H852.148" stroke="#030000" stroke-width="1.63782" stroke-linecap="round" stroke-linejoin="round"/>
<path fill-rule="evenodd" clip-rule="evenodd" d="M480.041 284.139C480.041 285.952 478.568 287.422 476.751 287.422C474.934 287.422 473.461 285.952 473.461 284.139C473.461 282.325 474.934 280.855 476.751 280.855C478.568 280.855 480.041 282.325 480.041 284.139Z" fill="#DF0087"/>
<path fill-rule="evenodd" clip-rule="evenodd" d="M480.041 284.139C480.041 285.952 478.568 287.422 476.751 287.422C474.934 287.422 473.461 285.952 473.461 284.139C473.461 282.325 474.934 280.855 476.751 280.855C478.568 280.855 480.041 282.325 480.041 284.139Z" stroke="#030000" stroke-width="1.63782" stroke-linecap="round" stroke-linejoin="round"/>
<path fill-rule="evenodd" clip-rule="evenodd" d="M415.602 451.358C415.602 453.171 414.129 454.641 412.313 454.641C410.496 454.641 409.023 453.171 409.023 451.358C409.023 449.544 410.496 448.074 412.313 448.074C414.129 448.074 415.602 449.544 415.602 451.358Z" fill="#DF0087"/>
<path fill-rule="evenodd" clip-rule="evenodd" d="M415.602 451.358C415.602 453.171 414.129 454.641 412.313 454.641C410.496 454.641 409.023 453.171 409.023 451.358C409.023 449.544 410.496 448.074 412.313 448.074C414.129 448.074 415.602 449.544 415.602 451.358Z" stroke="#030000" stroke-width="1.63782" stroke-linecap="round" stroke-linejoin="round"/>
<path fill-rule="evenodd" clip-rule="evenodd" d="M638.044 526.787C638.044 528.601 636.572 530.071 634.755 530.071C632.938 530.071 631.465 528.601 631.465 526.787C631.465 524.974 632.938 523.504 634.755 523.504C636.572 523.504 638.044 524.974 638.044 526.787Z" fill="#DF0087"/>
<path fill-rule="evenodd" clip-rule="evenodd" d="M638.044 526.787C638.044 528.601 636.572 530.071 634.755 530.071C632.938 530.071 631.465 528.601 631.465 526.787C631.465 524.974 632.938 523.504 634.755 523.504C636.572 523.504 638.044 524.974 638.044 526.787Z" stroke="#030000" stroke-width="1.63782" stroke-linecap="round" stroke-linejoin="round"/>
<path fill-rule="evenodd" clip-rule="evenodd" d="M625.72 291.897C625.72 293.71 624.247 295.18 622.431 295.18C620.613 295.18 619.141 293.71 619.141 291.897C619.141 290.083 620.613 288.613 622.431 288.613C624.247 288.613 625.72 290.083 625.72 291.897Z" fill="#DF0087"/>
<path fill-rule="evenodd" clip-rule="evenodd" d="M625.72 291.897C625.72 293.71 624.247 295.18 622.431 295.18C620.613 295.18 619.141 293.71 619.141 291.897C619.141 290.083 620.613 288.613 622.431 288.613C624.247 288.613 625.72 290.083 625.72 291.897Z" stroke="#030000" stroke-width="1.63782" stroke-linecap="round" stroke-linejoin="round"/>
<path fill-rule="evenodd" clip-rule="evenodd" d="M662.622 83.3615C662.622 85.1748 661.15 86.6448 659.333 86.6448C657.516 86.6448 656.043 85.1748 656.043 83.3615C656.043 81.5482 657.516 80.0781 659.333 80.0781C661.15 80.0781 662.622 81.5482 662.622 83.3615Z" fill="#DF0087"/>
<path fill-rule="evenodd" clip-rule="evenodd" d="M662.622 83.3615C662.622 85.1748 661.15 86.6448 659.333 86.6448C657.516 86.6448 656.043 85.1748 656.043 83.3615C656.043 81.5482 657.516 80.0781 659.333 80.0781C661.15 80.0781 662.622 81.5482 662.622 83.3615Z" stroke="#030000" stroke-width="1.63782" stroke-linecap="round" stroke-linejoin="round"/>
<path fill-rule="evenodd" clip-rule="evenodd" d="M555.044 123.627C555.044 125.44 553.572 126.91 551.755 126.91C549.938 126.91 548.465 125.44 548.465 123.627C548.465 121.814 549.938 120.344 551.755 120.344C553.572 120.344 555.044 121.814 555.044 123.627Z" fill="#DF0087"/>
<path fill-rule="evenodd" clip-rule="evenodd" d="M555.044 123.627C555.044 125.44 553.572 126.91 551.755 126.91C549.938 126.91 548.465 125.44 548.465 123.627C548.465 121.814 549.938 120.344 551.755 120.344C553.572 120.344 555.044 121.814 555.044 123.627Z" stroke="#030000" stroke-width="1.63782" stroke-linecap="round" stroke-linejoin="round"/>
<path d="M37.4688 665.04L232.463 664.441" stroke="#030000" stroke-width="1.63782" stroke-linecap="round" stroke-linejoin="round"/>
<path fill-rule="evenodd" clip-rule="evenodd" d="M138.255 664.998C138.255 666.812 136.782 668.282 134.966 668.282C133.148 668.282 131.676 666.812 131.676 664.998C131.676 663.185 133.148 661.715 134.966 661.715C136.782 661.715 138.255 663.185 138.255 664.998Z" fill="#DF0087"/>
<path fill-rule="evenodd" clip-rule="evenodd" d="M138.255 664.998C138.255 666.812 136.782 668.282 134.966 668.282C133.148 668.282 131.676 666.812 131.676 664.998C131.676 663.185 133.148 661.715 134.966 661.715C136.782 661.715 138.255 663.185 138.255 664.998Z" stroke="#030000" stroke-width="1.63782" stroke-linecap="round" stroke-linejoin="round"/>
</g>
</svg>
