<svg width="80" height="80" viewBox="0 0 80 80" fill="none" xmlns="http://www.w3.org/2000/svg">
<g clip-path="url(#clip0_2675_25902)">
<path d="M40 80C62.0914 80 80 62.0914 80 40C80 17.9086 62.0914 0 40 0C17.9086 0 0 17.9086 0 40C0 62.0914 17.9086 80 40 80Z" fill="#9FEFE4"/>
<path d="M54.0951 30.707L52.5234 32.393L59.6712 38.8235C61.3539 40.3428 62.3131 42.4834 62.3136 44.7267V72.7272H64.6446V44.7267C64.6417 41.8415 63.4086 39.09 61.2437 37.1373L54.0951 30.707Z" fill="black"/>
<path d="M44.8893 4.03906H15.3718C12.2384 4.04307 9.69929 6.60337 9.69531 9.76297V67.002C9.69929 70.1616 12.2384 72.7219 15.3718 72.7259H43.754V70.6779C43.7486 65.521 45.2625 60.4773 48.1045 56.1896C48.4053 55.7351 48.3449 55.1304 47.9625 54.7449L40.0155 46.7314C39.281 45.9899 38.8916 44.9701 38.9429 43.9235C38.9946 42.8763 39.4825 41.901 40.2857 41.2364C41.8328 40.0439 44.0208 40.2141 45.3684 41.6311L56.5749 52.9315L58.1802 51.3128L50.5658 43.6325V9.76297C50.5618 6.60337 48.0227 4.04307 44.8893 4.03906ZM48.2952 41.3429L46.9737 40.0104C44.7957 37.7666 41.2927 37.5328 38.8405 39.4683C37.5434 40.5433 36.7564 42.1214 36.6744 43.8131C36.5926 45.5045 37.2227 47.1521 38.4102 48.3501L45.7101 55.7113C42.9877 60.1351 41.5277 65.2305 41.4914 70.4364H15.3718C13.4912 70.4364 11.9659 68.8984 11.9659 67.002V63.5677H40.3482V61.2781H11.9659V13.1973H48.2952V41.3429ZM48.2952 10.9077H11.9659V9.76297C11.9659 7.86664 13.4912 6.32862 15.3718 6.32862H44.8893C46.7699 6.32862 48.2952 7.86664 48.2952 9.76297V10.9077Z" fill="black"/>
<path d="M16.7652 24.2405H21.2096C22.4371 24.2405 23.4319 23.2457 23.4319 22.0182V17.5738C23.4319 16.3463 22.4371 15.3516 21.2096 15.3516H16.7652C15.5377 15.3516 14.543 16.3463 14.543 17.5738V22.0182C14.543 23.2457 15.5377 24.2405 16.7652 24.2405ZM16.7652 17.5738H21.2096V22.0182H16.7652V17.5738Z" fill="black"/>
<path d="M28.0777 24.2405H32.5221C33.7496 24.2405 34.7444 23.2457 34.7444 22.0182V17.5738C34.7444 16.3463 33.7496 15.3516 32.5221 15.3516H28.0777C26.8502 15.3516 25.8555 16.3463 25.8555 17.5738V22.0182C25.8555 23.2457 26.8502 24.2405 28.0777 24.2405ZM28.0777 17.5738H32.5221V22.0182H28.0777V17.5738Z" fill="black"/>
<path d="M39.3941 24.2405H43.8385C45.066 24.2405 46.0608 23.2457 46.0608 22.0182V17.5738C46.0608 16.3463 45.066 15.3516 43.8385 15.3516H39.3941C38.1666 15.3516 37.1719 16.3463 37.1719 17.5738V22.0182C37.1719 23.2457 38.1666 24.2405 39.3941 24.2405ZM39.3941 17.5738H43.8385V22.0182H39.3941V17.5738Z" fill="black"/>
<path d="M16.7652 35.553H21.2096C22.4371 35.553 23.4319 34.5582 23.4319 33.3307V28.8863C23.4319 27.6588 22.4371 26.6641 21.2096 26.6641H16.7652C15.5377 26.6641 14.543 27.6588 14.543 28.8863V33.3307C14.543 34.5582 15.5377 35.553 16.7652 35.553ZM16.7652 28.8863H21.2096V33.3307H16.7652V28.8863Z" fill="black"/>
<path d="M16.7652 47.674H21.2096C22.4371 47.674 23.4319 46.6793 23.4319 45.4518V41.0074C23.4319 39.7799 22.4371 38.7852 21.2096 38.7852H16.7652C15.5377 38.7852 14.543 39.7799 14.543 41.0074V45.4518C14.543 46.6793 15.5377 47.674 16.7652 47.674ZM16.7652 41.0074H21.2096V45.4518H16.7652V41.0074Z" fill="black"/>
<path d="M28.0777 35.553H32.5221C33.7496 35.553 34.7444 34.5582 34.7444 33.3307V28.8863C34.7444 27.6588 33.7496 26.6641 32.5221 26.6641H28.0777C26.8502 26.6641 25.8555 27.6588 25.8555 28.8863V33.3307C25.8555 34.5582 26.8502 35.553 28.0777 35.553ZM28.0777 28.8863H32.5221V33.3307H28.0777V28.8863Z" fill="black"/>
<path d="M39.3941 35.553H43.8385C45.066 35.553 46.0608 34.5582 46.0608 33.3307V28.8863C46.0608 27.6588 45.066 26.6641 43.8385 26.6641H39.3941C38.1666 26.6641 37.1719 27.6588 37.1719 28.8863V33.3307C37.1719 34.5582 38.1666 35.553 39.3941 35.553ZM39.3941 28.8863H43.8385V33.3307H39.3941V28.8863Z" fill="black"/>
<path d="M28.0777 47.674H32.5221C33.7496 47.674 34.7444 46.6793 34.7444 45.4518V41.0074C34.7444 39.7799 33.7496 38.7852 32.5221 38.7852H28.0777C26.8502 38.7852 25.8555 39.7799 25.8555 41.0074V45.4518C25.8555 46.6793 26.8502 47.674 28.0777 47.674ZM28.0777 41.0074H32.5221V45.4518H28.0777V41.0074Z" fill="black"/>
<path d="M16.7652 58.1819H21.2096C22.4371 58.1819 23.4319 57.1871 23.4319 55.9596V51.5152C23.4319 50.2877 22.4371 49.293 21.2096 49.293H16.7652C15.5377 49.293 14.543 50.2877 14.543 51.5152V55.9596C14.543 57.1871 15.5377 58.1819 16.7652 58.1819ZM16.7652 51.5152H21.2096V55.9596H16.7652V51.5152Z" fill="black"/>
<path d="M28.0777 58.1819H32.5221C33.7496 58.1819 34.7444 57.1871 34.7444 55.9596V51.5152C34.7444 50.2877 33.7496 49.293 32.5221 49.293H28.0777C26.8502 49.293 25.8555 50.2877 25.8555 51.5152V55.9596C25.8555 57.1871 26.8502 58.1819 28.0777 58.1819ZM28.0777 51.5152H32.5221V55.9596H28.0777V51.5152Z" fill="black"/>
<path d="M29.0898 66.2617H31.5141V68.686H29.0898V66.2617Z" fill="black"/>
</g>
<defs>
<clipPath id="clip0_2675_25902">
<rect width="80" height="80" fill="white"/>
</clipPath>
</defs>
</svg>
