<svg width="80" height="81" viewBox="0 0 80 81" fill="none" xmlns="http://www.w3.org/2000/svg">
<g clip-path="url(#clip0_2668_29870)">
<path d="M40 80.6875C62.0914 80.6875 80 62.7789 80 40.6875C80 18.5961 62.0914 0.6875 40 0.6875C17.9086 0.6875 0 18.5961 0 40.6875C0 62.7789 17.9086 80.6875 40 80.6875Z" fill="#FFD184"/>
<path d="M67.5009 38.0858H66.1505V30.0047C66.1505 26.7003 63.4496 24.0221 60.1433 24.0221H58.8977L58.9093 21.0192C58.9093 18.7931 57.0932 16.9844 54.858 16.9844H18.8385C16.1493 16.9844 13.949 19.1409 13.9141 21.8192C13.9141 21.8423 13.9141 21.8655 13.9141 21.8887V61.4713C13.9141 63.6974 15.7302 65.5061 17.9654 65.5061H60.155C63.4729 65.5061 66.1621 62.8163 66.1621 59.5235V51.4307H67.5125C69.2588 51.4307 70.6791 50.0163 70.6791 48.2771V41.2394C70.6674 39.5003 69.2472 38.0858 67.5009 38.0858ZM18.8385 19.767H54.858C55.5449 19.767 56.1153 20.3235 56.1153 21.0076L56.1037 24.0221H18.8385C17.6627 24.0221 16.7081 23.0713 16.7081 21.9003C16.7081 20.7293 17.6627 19.767 18.8385 19.767ZM63.3564 59.5119C63.3564 61.2742 61.9129 62.7119 60.1433 62.7119H17.9537C17.2669 62.7119 16.6964 62.1554 16.6964 61.4597V26.3177C17.3484 26.6308 18.0702 26.8047 18.8385 26.8047H60.1433C61.9129 26.8047 63.3564 28.2423 63.3564 30.0047V38.0858H53.8219C52.0756 38.0858 50.6553 39.5003 50.6553 41.2394V48.2771C50.6553 50.0163 52.0756 51.4307 53.8219 51.4307H63.3564V59.5119ZM67.8734 48.2771C67.8734 48.4858 67.7104 48.6481 67.5009 48.6481H53.8335C53.624 48.6481 53.461 48.4858 53.461 48.2771V41.2394C53.461 41.0423 53.624 40.8684 53.8335 40.8684H67.5009C67.6988 40.8684 67.8734 41.0308 67.8734 41.2394V48.2771Z" fill="black"/>
</g>
<defs>
<clipPath id="clip0_2668_29870">
<rect width="80" height="80" fill="white" transform="translate(0 0.6875)"/>
</clipPath>
</defs>
</svg>
