<svg width="81" height="81" viewBox="0 0 81 81" fill="none" xmlns="http://www.w3.org/2000/svg">
<g clip-path="url(#clip0_2668_29905)">
<path d="M40.5938 80.6875C62.6851 80.6875 80.5938 62.7789 80.5938 40.6875C80.5938 18.5961 62.6851 0.6875 40.5938 0.6875C18.5024 0.6875 0.59375 18.5961 0.59375 40.6875C0.59375 62.7789 18.5024 80.6875 40.5938 80.6875Z" fill="#FFD184"/>
<path d="M73.5031 25.1828C70.904 17.7263 59.2984 12.1317 45.0536 11.1549V11.0029C45.0536 9.14905 43.5526 7.64062 41.7074 7.64062H39.4766C37.6315 7.64062 36.1305 9.14905 36.1305 11.0029V11.1549C21.8348 12.1353 10.1969 17.7668 7.6534 25.2632C7.51007 25.6859 7.63012 26.154 7.95888 26.4543C8.28792 26.7548 8.76294 26.8301 9.16796 26.6466C15.9956 23.55 25.6431 21.6118 36.1305 21.1814V26.6938C36.1305 27.3127 36.6299 27.8145 37.2459 27.8145V47.4708C35.9137 48.2472 35.0151 49.695 35.0151 51.3508V70.4039C35.0151 72.8759 37.0165 74.887 39.4766 74.887H41.7074C44.1676 74.887 46.169 72.8759 46.169 70.4039V51.3508C46.169 49.6951 45.2704 48.2472 43.9382 47.4708V27.8145C44.5542 27.8145 45.0536 27.3127 45.0536 26.6938V21.1814C55.5409 21.6118 65.1886 23.55 72.0161 26.6464C72.1632 26.7131 72.3195 26.7456 72.4748 26.7456C72.4779 26.7456 72.4808 26.7456 72.484 26.7456C73.0971 26.7422 73.5933 26.2418 73.5933 25.6248C73.5933 25.4679 73.5611 25.3184 73.5031 25.1828ZM38.3612 11.0029C38.3612 10.385 38.8616 9.88217 39.4766 9.88217H41.7074C42.3224 9.88217 42.8228 10.385 42.8228 11.0029V11.0409C42.0848 11.0158 41.341 11.0029 40.592 11.0029C39.843 11.0029 39.0992 11.0158 38.3612 11.0409V11.0029ZM43.9382 70.4039C43.9382 71.64 42.9374 72.6455 41.7074 72.6455H39.4766C38.2466 72.6455 37.2459 71.64 37.2459 70.4039V51.3508C37.2459 50.1147 38.2466 49.1092 39.4766 49.1092H41.7074C42.9374 49.1092 43.9382 50.1147 43.9382 51.3508V70.4039ZM41.7074 46.8677H39.4766V27.8145H41.7074V46.8677ZM42.8228 25.573H38.3612V21.1129C39.1017 21.0977 39.8454 21.0899 40.592 21.0899C41.3386 21.0899 42.0823 21.0977 42.8228 21.1129V25.573ZM40.592 18.8484C29.5174 18.8484 18.9947 20.4974 11.1304 23.421C12.9122 20.9888 15.983 18.7779 20.0637 17.0307C25.7668 14.5891 33.0573 13.2445 40.592 13.2445C48.1268 13.2445 55.4173 14.5891 61.1204 17.0307C65.2011 18.7779 68.2717 20.9888 70.0537 23.421C62.1894 20.4974 51.6668 18.8484 40.592 18.8484Z" fill="black"/>
</g>
<defs>
<clipPath id="clip0_2668_29905">
<rect width="80" height="80" fill="white" transform="translate(0.59375 0.6875)"/>
</clipPath>
</defs>
</svg>
