<svg width="81" height="80" viewBox="0 0 81 80" fill="none" xmlns="http://www.w3.org/2000/svg">
<g clip-path="url(#clip0_2675_25903)">
<path d="M40.2969 80C62.3883 80 80.2969 62.0914 80.2969 40C80.2969 17.9086 62.3883 0 40.2969 0C18.2055 0 0.296875 17.9086 0.296875 40C0.296875 62.0914 18.2055 80 40.2969 80Z" fill="#9FEFE4"/>
<path d="M20.084 55.0761H32.096V61.0304C32.096 61.5115 32.3891 61.9474 32.8372 62.1308C32.9861 62.1927 33.1423 62.2213 33.2972 62.2213C33.6095 62.2213 33.917 62.0998 34.1465 61.8724L41.0017 55.0761H54.3182C54.6366 55.0761 54.9429 54.9511 55.1675 54.7272L62.9753 46.9867C63.2011 46.764 63.3273 46.4615 63.3273 46.1447V18.1596C63.3273 17.5011 62.7891 16.9688 62.1261 16.9688H20.084C19.421 16.9688 18.8828 17.5011 18.8828 18.1596V53.8853C18.8828 54.5438 19.421 55.0761 20.084 55.0761ZM21.2852 19.3505H60.9249V45.6517L53.821 52.6944H40.5044C40.1861 52.6944 39.8798 52.8195 39.6552 53.0433L34.4984 58.1557V53.8853C34.4984 53.2267 33.9603 52.6944 33.2972 52.6944H21.2852V19.3505Z" fill="black"/>
<path d="M69.4099 10.5039H15.3398C14.9167 10.5039 14.5258 10.7271 14.313 11.0897L10.1538 18.176C10.048 18.3566 9.99219 18.5622 9.99219 18.7712V62.4697C9.99219 63.1228 10.5246 63.6508 11.1805 63.6508H24.2524V70.737C24.2524 71.3901 24.7848 71.9181 25.4408 71.9181H33.7593C34.0528 71.9181 34.3356 71.8094 34.5543 71.6145L43.4586 63.6508H54.5555C54.8537 63.6508 55.1413 63.5386 55.36 63.339L70.2144 49.757C70.4592 49.5338 70.5982 49.2173 70.5982 48.8877V11.6849C70.5982 11.0318 70.0659 10.5039 69.4099 10.5039ZM68.2215 48.3705L54.092 61.2887H43.0023C42.7088 61.2887 42.4259 61.3973 42.2073 61.5922L33.3029 69.556H26.6291V62.4697C26.6291 61.8166 26.0968 61.2887 25.4408 61.2887H12.3689V19.0913L16.0219 12.866H68.2215V48.3705Z" fill="black"/>
<path d="M35.4465 43.6372H40.295C40.9641 43.6372 41.5071 43.1074 41.5071 42.452V27.0446C41.5071 26.3892 40.9641 25.8594 40.295 25.8594H35.4465C34.7774 25.8594 34.2344 26.3892 34.2344 27.0446V42.452C34.2344 43.1074 34.7774 43.6372 35.4465 43.6372ZM36.6586 28.2297H39.0829V41.2668H36.6586V28.2297Z" fill="black"/>
<path d="M46.759 43.6372H51.6075C52.2766 43.6372 52.8196 43.1074 52.8196 42.452V27.0446C52.8196 26.3892 52.2766 25.8594 51.6075 25.8594H46.759C46.0899 25.8594 45.5469 26.3892 45.5469 27.0446V42.452C45.5469 43.1074 46.0899 43.6372 46.759 43.6372ZM47.9711 28.2297H50.3954V41.2668H47.9711V28.2297Z" fill="black"/>
</g>
<defs>
<clipPath id="clip0_2675_25903">
<rect width="80" height="80" fill="white" transform="translate(0.296875)"/>
</clipPath>
</defs>
</svg>
