<svg width="81" height="81" viewBox="0 0 81 81" fill="none" xmlns="http://www.w3.org/2000/svg">
<g clip-path="url(#clip0_2668_29889)">
<path d="M40.2969 80.6875C62.3883 80.6875 80.2969 62.7789 80.2969 40.6875C80.2969 18.5961 62.3883 0.6875 40.2969 0.6875C18.2055 0.6875 0.296875 18.5961 0.296875 40.6875C0.296875 62.7789 18.2055 80.6875 40.2969 80.6875Z" fill="#FFD184"/>
<path d="M49.6138 39.1247L36.8602 31.0087C36.5031 30.7827 36.0509 30.7676 35.6787 30.9705C35.3088 31.1745 35.0781 31.5641 35.0781 31.9873V48.2192C35.0781 48.6424 35.3088 49.0319 35.6799 49.236C35.8538 49.3311 36.0451 49.3786 36.2375 49.3786C36.4544 49.3786 36.6712 49.3172 36.8602 49.1977L49.6138 41.0818C49.9477 40.8685 50.1506 40.4998 50.1506 40.1032C50.1506 39.7067 49.9477 39.338 49.6138 39.1247ZM37.397 46.1079V34.0986L46.8312 40.1032L37.397 46.1079Z" fill="black"/>
<path d="M73.3409 13.4375H61.7467H20.0075H8.41333C7.77333 13.4375 7.25391 13.9558 7.25391 14.5969V27.3505V40.1042V52.8578V65.6114C7.25391 66.2526 7.77333 66.7708 8.41333 66.7708H20.0075H61.7467H73.3409C73.9809 66.7708 74.5003 66.2526 74.5003 65.6114V52.8578V40.1042V27.3505V14.5969C74.5003 13.9558 73.9809 13.4375 73.3409 13.4375ZM18.8481 38.9447H9.57275V28.51H18.8481V38.9447ZM9.57275 41.2636H18.8481V51.6984H9.57275V41.2636ZM21.1669 52.8578V40.1042V27.3505V15.7563H60.5872V27.3505V40.1042V52.8578V64.452H21.1669V52.8578ZM72.1814 38.9447H62.9061V28.51H72.1814V38.9447ZM62.9061 41.2636H72.1814V51.6984H62.9061V41.2636ZM72.1814 15.7563V26.1911H62.9061V15.7563H72.1814ZM9.57275 15.7563H18.8481V26.1911H9.57275V15.7563ZM9.57275 64.452V54.0172H18.8481V64.452H9.57275ZM72.1814 64.452H62.9061V54.0172H72.1814V64.452Z" fill="black"/>
</g>
<defs>
<clipPath id="clip0_2668_29889">
<rect width="80" height="80" fill="white" transform="translate(0.296875 0.6875)"/>
</clipPath>
</defs>
</svg>
