<svg width="81" height="80" viewBox="0 0 81 80" fill="none" xmlns="http://www.w3.org/2000/svg">
<g clip-path="url(#clip0_2675_25901)">
<path d="M40.7031 80C62.7945 80 80.7031 62.0914 80.7031 40C80.7031 17.9086 62.7945 0 40.7031 0C18.6117 0 0.703125 17.9086 0.703125 40C0.703125 62.0914 18.6117 80 40.7031 80Z" fill="#9FEFE4"/>
<path d="M32.592 54.1431C32.3083 54.1431 32.0225 54.0552 31.7893 53.8763L23.7641 47.721C23.4873 47.5084 23.3281 47.1979 23.3281 46.87C23.3281 46.5428 23.488 46.2323 23.7641 46.0197L31.7893 39.8644C32.3104 39.4642 33.0931 39.5209 33.5374 39.9903C33.981 40.4604 33.9187 41.1654 33.3969 41.565L26.4812 46.87L33.3969 52.1751C33.9187 52.5753 33.981 53.2803 33.5374 53.7498C33.2917 54.0097 32.9429 54.1431 32.592 54.1431Z" fill="black"/>
<path d="M46.3854 54.1431C46.0345 54.1431 45.6857 54.0097 45.4407 53.7498C44.9963 53.2803 45.0593 52.5753 45.5805 52.1751L52.4964 46.87L45.5805 41.565C45.0593 41.1654 44.9963 40.4604 45.4407 39.9903C45.8843 39.5209 46.6677 39.4642 47.1882 39.8644L55.2136 46.0197C55.4904 46.2323 55.6496 46.5428 55.6496 46.87C55.6496 47.1979 55.4904 47.5084 55.2136 47.721L47.1882 53.8763C46.9549 54.0552 46.6691 54.1431 46.3854 54.1431Z" fill="black"/>
<path d="M36.6566 58.9919C36.5738 58.9919 36.4904 58.9833 36.4063 58.9661C35.7552 58.8313 35.3381 58.2027 35.4753 57.5628L40.3368 34.8819C40.474 34.2421 41.113 33.8322 41.7648 33.9671C42.416 34.1019 42.8331 34.7299 42.6958 35.3704L37.8344 58.0513C37.7147 58.6092 37.2142 58.9919 36.6566 58.9919Z" fill="black"/>
<path d="M67.1621 71.9209H11.8162C7.47002 71.9209 3.93359 68.3688 3.93359 64.0018V16.8097C3.93359 12.4434 7.47002 8.89062 11.8162 8.89062H67.1621C71.5083 8.89062 75.0447 12.4434 75.0447 16.8097V64.0018C75.0447 68.3688 71.5083 71.9209 67.1621 71.9209ZM11.8162 11.2495C8.76457 11.2495 6.2816 13.744 6.2816 16.8097V64.0018C6.2816 67.0676 8.76457 69.562 11.8162 69.562H67.1621C70.2137 69.562 72.6967 67.0676 72.6967 64.0018V16.8097C72.6967 13.744 70.2137 11.2495 67.1621 11.2495H11.8162Z" fill="black"/>
<path d="M73.8707 27.475H5.1076C4.45901 27.475 3.93359 26.9325 3.93359 26.2629C3.93359 25.5939 4.45901 25.0508 5.1076 25.0508H73.8707C74.5193 25.0508 75.0447 25.5939 75.0447 26.2629C75.0447 26.9325 74.5193 27.475 73.8707 27.475Z" fill="black"/>
<path d="M23.7301 21.8196C21.7257 21.8196 20.0938 20.1877 20.0938 18.1832C20.0938 16.1781 21.7257 14.5469 23.7301 14.5469C25.7352 14.5469 27.3665 16.1781 27.3665 18.1832C27.3665 20.1877 25.7352 21.8196 23.7301 21.8196ZM23.7301 16.845C22.9927 16.845 22.3919 17.4452 22.3919 18.1832C22.3919 18.9213 22.9927 19.5215 23.7301 19.5215C24.4682 19.5215 25.0683 18.9213 25.0683 18.1832C25.0683 17.4452 24.4682 16.845 23.7301 16.845Z" fill="black"/>
<path d="M12.4176 21.8196C10.4125 21.8196 8.78125 20.1883 8.78125 18.1832C8.78125 16.1781 10.4125 14.5469 12.4176 14.5469C14.4227 14.5469 16.054 16.1781 16.054 18.1832C16.054 20.1883 14.4227 21.8196 12.4176 21.8196ZM12.4176 16.845C11.6802 16.845 11.0794 17.4458 11.0794 18.1832C11.0794 18.9213 11.6802 19.5215 12.4176 19.5215C13.1557 19.5215 13.7558 18.9213 13.7558 18.1832C13.7558 17.4458 13.1557 16.845 12.4176 16.845Z" fill="black"/>
<path d="M35.0462 21.8196C33.0416 21.8196 31.4102 20.1882 31.4102 18.1829C31.4102 16.1783 33.0416 14.5469 35.0462 14.5469C37.0515 14.5469 38.6829 16.1783 38.6829 18.1829C38.6829 20.1882 37.0515 21.8196 35.0462 21.8196ZM35.0462 16.8446C34.3087 16.8446 33.7085 17.4448 33.7085 18.1829C33.7085 18.921 34.3087 19.5213 35.0462 19.5213C35.7843 19.5213 36.3845 18.921 36.3845 18.1829C36.3845 17.4448 35.7843 16.8446 35.0462 16.8446Z" fill="black"/>
</g>
<defs>
<clipPath id="clip0_2675_25901">
<rect width="80" height="80" fill="white" transform="translate(0.703125)"/>
</clipPath>
</defs>
</svg>
