<svg width="400" height="401" viewBox="0 0 400 401" fill="none" xmlns="http://www.w3.org/2000/svg">
<rect y="0.6875" width="400" height="400" rx="200" fill="#97F2EF"/>
<g clip-path="url(#clip0_2668_29731)">
<mask id="mask0_2668_29731" style="mask-type:luminance" maskUnits="userSpaceOnUse" x="127" y="101" width="146" height="74">
<path fill-rule="evenodd" clip-rule="evenodd" d="M127.465 173.907L151.159 173.814C151.159 146.541 172.732 125.16 200.004 125.16C227.276 125.16 248.277 146.732 248.277 174.005L271.845 173.434H272.225C272.225 133.457 239.826 101.523 199.85 101.523C159.872 101.523 127.465 133.931 127.465 173.907Z" fill="white"/>
</mask>
<g mask="url(#mask0_2668_29731)">
<path fill-rule="evenodd" clip-rule="evenodd" d="M127.465 173.907L151.159 173.814C151.159 146.541 172.732 125.16 200.004 125.16C227.276 125.16 248.277 146.732 248.277 174.005L271.845 173.434H272.225C272.225 133.457 239.826 101.523 199.85 101.523C159.872 101.523 127.465 133.931 127.465 173.907Z" fill="url(#paint0_linear_2668_29731)"/>
</g>
<path fill-rule="evenodd" clip-rule="evenodd" d="M200.004 123.66C227.406 123.66 248.981 144.975 249.756 172.469L270.71 171.962C270.338 153.612 263.007 136.472 249.973 123.553C236.616 110.314 218.816 103.023 199.85 103.023C161.267 103.023 129.785 134.009 128.981 172.403L149.681 172.32C150.447 144.913 172.275 123.66 200.004 123.66ZM248.277 175.505C247.887 175.505 247.511 175.352 247.23 175.078C246.941 174.796 246.777 174.409 246.777 174.005C246.777 147.456 226.233 126.66 200.004 126.66C173.455 126.66 152.659 147.373 152.659 173.814C152.659 174.64 151.991 175.311 151.165 175.314L127.471 175.409C127.088 175.367 126.689 175.253 126.406 174.972C126.123 174.69 125.965 174.307 125.965 173.909C125.965 133.168 159.109 100.023 199.85 100.023C219.611 100.023 238.162 107.623 252.085 121.422C266.04 135.253 273.725 153.724 273.725 173.434C273.725 174.327 272.897 175.025 272.034 174.923C271.984 174.929 271.933 174.932 271.881 174.934L248.314 175.505H248.277Z" fill="black"/>
<path fill-rule="evenodd" clip-rule="evenodd" d="M199.73 126.035C198.843 126.035 198.125 125.316 198.125 124.431V101.918C198.125 101.032 198.843 100.312 199.73 100.312C200.617 100.312 201.334 101.032 201.334 101.918V124.431C201.334 125.316 200.617 126.035 199.73 126.035Z" fill="black"/>
<path fill-rule="evenodd" clip-rule="evenodd" d="M223.006 131.702C222.741 131.702 222.472 131.636 222.224 131.497C221.451 131.065 221.174 130.087 221.607 129.313L232.595 109.665C233.027 108.892 234.005 108.615 234.779 109.048C235.552 109.48 235.829 110.458 235.396 111.232L224.408 130.881C224.114 131.405 223.568 131.702 223.006 131.702Z" fill="black"/>
<path fill-rule="evenodd" clip-rule="evenodd" d="M242.442 149.649C241.908 149.649 241.385 149.381 241.081 148.897C240.61 148.144 240.838 147.155 241.588 146.684L260.666 134.73C261.416 134.258 262.407 134.486 262.878 135.236C263.347 135.989 263.121 136.978 262.37 137.449L243.293 149.403C243.028 149.57 242.733 149.649 242.442 149.649Z" fill="black"/>
<path fill-rule="evenodd" clip-rule="evenodd" d="M157.496 149.649C157.205 149.649 156.911 149.57 156.646 149.403L137.57 137.449C136.818 136.978 136.592 135.989 137.061 135.236C137.533 134.486 138.523 134.258 139.274 134.73L158.35 146.684C159.101 147.155 159.328 148.144 158.858 148.897C158.553 149.381 158.031 149.649 157.496 149.649Z" fill="black"/>
<path fill-rule="evenodd" clip-rule="evenodd" d="M176.45 131.703C175.888 131.703 175.342 131.407 175.048 130.882L164.06 111.233C163.627 110.459 163.904 109.481 164.677 109.049C165.453 108.616 166.429 108.892 166.861 109.666L177.849 129.314C178.282 130.088 178.005 131.066 177.232 131.498C176.984 131.637 176.715 131.703 176.45 131.703Z" fill="black"/>
<path fill-rule="evenodd" clip-rule="evenodd" d="M199.749 167.069C198.311 167.069 197.141 168.239 197.141 169.677C197.141 171.116 198.311 172.285 199.749 172.285C201.187 172.285 202.357 171.116 202.357 169.677C202.357 168.239 201.187 167.069 199.749 167.069ZM199.749 175.495C196.541 175.495 193.93 172.885 193.93 169.677C193.93 166.468 196.541 163.859 199.749 163.859C202.957 163.859 205.567 166.468 205.567 169.677C205.567 172.885 202.957 175.495 199.749 175.495Z" fill="black"/>
<path fill-rule="evenodd" clip-rule="evenodd" d="M202.363 166.109C202.141 166.423 201.805 166.659 201.4 166.747C200.535 166.94 199.679 166.395 199.486 165.529L196.368 151.501L198.087 165.598C198.196 166.478 197.568 167.278 196.688 167.386C195.809 167.494 195.009 166.866 194.901 165.986L189.197 119.201C189.097 118.351 189.678 117.571 190.52 117.425C191.364 117.28 192.171 117.822 192.358 118.66L202.619 164.834C202.721 165.293 202.616 165.752 202.363 166.109Z" fill="black"/>
<path fill-rule="evenodd" clip-rule="evenodd" d="M316.265 116.983C307.849 116.983 301.003 123.829 301.003 132.246C301.003 140.66 307.849 147.505 316.265 147.505C324.68 147.505 331.526 140.66 331.526 132.246C331.526 123.829 324.68 116.983 316.265 116.983ZM316.265 150.716C306.08 150.716 297.793 142.43 297.793 132.246C297.793 122.06 306.08 113.773 316.265 113.773C326.45 113.773 334.737 122.06 334.737 132.246C334.737 142.43 326.45 150.716 316.265 150.716Z" fill="black"/>
<path fill-rule="evenodd" clip-rule="evenodd" d="M326.25 133.854C325.363 133.854 324.645 133.135 324.645 132.25C324.645 127.626 320.885 123.866 316.262 123.866C311.639 123.866 307.878 127.626 307.878 132.25C307.878 133.135 307.16 133.854 306.273 133.854C305.387 133.854 304.668 133.135 304.668 132.25C304.668 125.857 309.869 120.656 316.262 120.656C322.653 120.656 327.854 125.857 327.854 132.25C327.854 133.135 327.137 133.854 326.25 133.854Z" fill="black"/>
<path fill-rule="evenodd" clip-rule="evenodd" d="M83.0736 116.983C74.6576 116.983 67.8116 123.829 67.8116 132.246C67.8116 140.66 74.6576 147.505 83.0736 147.505C91.4886 147.505 98.3346 140.66 98.3346 132.246C98.3346 123.829 91.4886 116.983 83.0736 116.983ZM83.0736 150.716C72.8876 150.716 64.6016 142.43 64.6016 132.246C64.6016 122.06 72.8876 113.773 83.0736 113.773C93.2586 113.773 101.545 122.06 101.545 132.246C101.545 142.43 93.2586 150.716 83.0736 150.716Z" fill="black"/>
<path fill-rule="evenodd" clip-rule="evenodd" d="M93.0625 133.854C92.1755 133.854 91.4575 133.135 91.4575 132.25C91.4575 127.626 87.6975 123.866 83.0745 123.866C78.4515 123.866 74.6905 127.626 74.6905 132.25C74.6905 133.135 73.9715 133.854 73.0845 133.854C72.1995 133.854 71.4805 133.135 71.4805 132.25C71.4805 125.857 76.6815 120.656 83.0745 120.656C89.4655 120.656 94.6665 125.857 94.6665 132.25C94.6665 133.135 93.9495 133.854 93.0625 133.854Z" fill="black"/>
</g>
<path d="M119.286 208.042H113.022V206.385L118.494 197.871H122.166V205.917H123.66V208.042H122.166V210.688H119.286V208.042ZM119.286 205.917V200.553H119.268L115.848 205.917H119.286ZM130.747 208.042H124.483V206.385L129.955 197.871H133.627V205.917H135.121V208.042H133.627V210.688H130.747V208.042ZM130.747 205.917V200.553H130.729L127.309 205.917H130.747ZM137.729 210.904C137.261 210.904 136.871 210.753 136.559 210.453C136.259 210.153 136.109 209.775 136.109 209.319C136.109 208.863 136.259 208.491 136.559 208.203C136.871 207.903 137.261 207.753 137.729 207.753C138.209 207.753 138.599 207.903 138.899 208.203C139.211 208.491 139.367 208.863 139.367 209.319C139.367 209.775 139.211 210.153 138.899 210.453C138.599 210.753 138.209 210.904 137.729 210.904ZM146.304 208.042H140.04V206.385L145.512 197.871H149.184V205.917H150.678V208.042H149.184V210.688H146.304V208.042ZM146.304 205.917V200.553H146.286L142.866 205.917H146.304ZM157.207 197.475C158.623 197.475 159.733 197.841 160.537 198.573C161.341 199.293 161.833 200.313 162.013 201.633L159.313 201.993C159.133 200.505 158.467 199.761 157.315 199.761C156.571 199.761 155.977 200.085 155.533 200.733C155.101 201.381 154.873 202.293 154.849 203.469C155.605 202.653 156.661 202.245 158.017 202.245C158.821 202.245 159.553 202.425 160.213 202.785C160.873 203.145 161.395 203.643 161.779 204.279C162.163 204.915 162.355 205.641 162.355 206.457C162.355 207.345 162.139 208.137 161.707 208.833C161.275 209.517 160.669 210.051 159.889 210.435C159.109 210.82 158.209 211.012 157.189 211.012C155.581 211.012 154.303 210.526 153.355 209.553C152.419 208.581 151.951 207.099 151.951 205.107C151.951 200.019 153.703 197.475 157.207 197.475ZM157.189 204.243C156.541 204.243 156.013 204.441 155.605 204.837C155.197 205.221 154.993 205.731 154.993 206.367C154.993 207.015 155.197 207.543 155.605 207.951C156.013 208.359 156.541 208.563 157.189 208.563C157.813 208.563 158.323 208.359 158.719 207.951C159.127 207.543 159.331 207.015 159.331 206.367C159.331 205.743 159.127 205.233 158.719 204.837C158.323 204.441 157.813 204.243 157.189 204.243ZM166.733 210.453L176.111 197.259L176.705 197.673L167.327 210.868L166.733 210.453ZM167.039 204.639C166.355 204.639 165.737 204.489 165.185 204.189C164.645 203.877 164.219 203.451 163.907 202.911C163.595 202.371 163.439 201.765 163.439 201.093C163.439 200.397 163.595 199.773 163.907 199.221C164.219 198.657 164.645 198.219 165.185 197.907C165.737 197.595 166.355 197.439 167.039 197.439C167.723 197.439 168.335 197.595 168.875 197.907C169.427 198.219 169.859 198.651 170.171 199.203C170.483 199.743 170.639 200.361 170.639 201.057C170.639 201.741 170.483 202.359 170.171 202.911C169.859 203.451 169.427 203.877 168.875 204.189C168.335 204.489 167.723 204.639 167.039 204.639ZM167.057 202.893C167.597 202.893 168.035 202.719 168.371 202.371C168.719 202.023 168.893 201.585 168.893 201.057C168.893 200.517 168.719 200.073 168.371 199.725C168.035 199.365 167.597 199.185 167.057 199.185C166.517 199.185 166.073 199.365 165.725 199.725C165.377 200.073 165.203 200.517 165.203 201.057C165.203 201.585 165.377 202.023 165.725 202.371C166.085 202.719 166.529 202.893 167.057 202.893ZM176.219 210.94C175.535 210.94 174.917 210.789 174.365 210.489C173.825 210.177 173.399 209.751 173.087 209.211C172.775 208.659 172.619 208.041 172.619 207.357C172.619 206.661 172.775 206.043 173.087 205.503C173.399 204.951 173.825 204.519 174.365 204.207C174.917 203.895 175.535 203.739 176.219 203.739C176.903 203.739 177.515 203.895 178.055 204.207C178.607 204.519 179.039 204.951 179.351 205.503C179.663 206.043 179.819 206.661 179.819 207.357C179.819 208.041 179.663 208.659 179.351 209.211C179.039 209.751 178.607 210.177 178.055 210.489C177.515 210.789 176.903 210.94 176.219 210.94ZM176.237 209.193C176.777 209.193 177.215 209.019 177.551 208.671C177.899 208.323 178.073 207.885 178.073 207.357C178.073 206.817 177.899 206.373 177.551 206.025C177.215 205.665 176.777 205.485 176.237 205.485C175.697 205.485 175.253 205.665 174.905 206.025C174.557 206.373 174.383 206.817 174.383 207.357C174.383 207.885 174.557 208.323 174.905 208.671C175.253 209.019 175.697 209.193 176.237 209.193ZM185.068 201.471H187.336L187.732 203.091H187.75C188.098 202.467 188.536 201.993 189.064 201.669C189.604 201.345 190.222 201.184 190.918 201.184C191.722 201.184 192.442 201.387 193.078 201.795C193.714 202.203 194.206 202.779 194.554 203.523C194.914 204.267 195.094 205.119 195.094 206.079C195.094 207.039 194.914 207.891 194.554 208.635C194.206 209.379 193.714 209.955 193.078 210.363C192.454 210.772 191.74 210.976 190.936 210.976C190.252 210.976 189.64 210.814 189.1 210.489C188.572 210.165 188.14 209.691 187.804 209.067H187.786V214.468H185.068V201.471ZM190.036 208.653C190.72 208.653 191.284 208.407 191.728 207.915C192.172 207.423 192.394 206.811 192.394 206.079C192.394 205.335 192.166 204.717 191.71 204.225C191.266 203.733 190.708 203.487 190.036 203.487C189.352 203.487 188.782 203.739 188.326 204.243C187.882 204.735 187.66 205.347 187.66 206.079C187.66 206.811 187.882 207.423 188.326 207.915C188.782 208.407 189.352 208.653 190.036 208.653ZM199.146 210.976C198.498 210.976 197.916 210.862 197.4 210.633C196.896 210.405 196.5 210.087 196.212 209.679C195.936 209.271 195.798 208.803 195.798 208.275C195.798 207.471 196.14 206.799 196.824 206.259C197.52 205.719 198.516 205.383 199.812 205.251L201.648 205.053C201.876 205.029 202.056 204.957 202.188 204.837C202.332 204.705 202.404 204.537 202.404 204.333C202.404 203.985 202.248 203.697 201.936 203.469C201.624 203.241 201.21 203.127 200.694 203.127C200.142 203.127 199.674 203.295 199.29 203.631C198.918 203.955 198.702 204.345 198.642 204.801L196.05 204.315C196.098 203.715 196.32 203.169 196.716 202.677C197.124 202.185 197.664 201.801 198.336 201.525C199.02 201.249 199.788 201.111 200.64 201.111C201.528 201.111 202.308 201.261 202.98 201.561C203.652 201.861 204.168 202.287 204.528 202.839C204.888 203.391 205.068 204.033 205.068 204.765V210.688H202.872L202.44 209.229H202.422C202.11 209.769 201.666 210.195 201.09 210.507C200.526 210.82 199.878 210.976 199.146 210.976ZM200.136 209.049C200.784 209.049 201.318 208.851 201.738 208.455C202.158 208.059 202.368 207.561 202.368 206.961V206.565L200.46 206.763C199.788 206.835 199.29 206.979 198.966 207.195C198.654 207.411 198.498 207.675 198.498 207.987C198.498 208.299 198.654 208.557 198.966 208.761C199.278 208.953 199.668 209.049 200.136 209.049ZM211.68 201.184C212.496 201.184 213.162 201.465 213.678 202.029C214.194 202.581 214.506 203.355 214.614 204.351L212.328 204.981C212.28 204.441 212.13 204.021 211.878 203.721C211.638 203.409 211.32 203.253 210.924 203.253C210.384 203.253 209.964 203.475 209.664 203.919C209.364 204.351 209.214 204.963 209.214 205.755V210.688H206.496V201.471H208.656L209.07 202.947H209.088C209.328 202.395 209.676 201.963 210.132 201.651C210.6 201.339 211.116 201.184 211.68 201.184ZM220.299 211.048C219.207 211.048 218.337 210.742 217.689 210.129C217.041 209.517 216.717 208.701 216.717 207.681V203.523H214.971V201.471H216.717V198.933L219.435 198.339L219.417 201.471H223.161V203.523H219.417L219.435 207.249C219.435 207.741 219.567 208.137 219.831 208.438C220.095 208.725 220.437 208.869 220.857 208.869C221.697 208.869 222.327 208.431 222.747 207.555L223.701 209.157C223.413 209.733 222.951 210.195 222.315 210.543C221.679 210.88 221.007 211.048 220.299 211.048ZM226.024 200.193C225.532 200.193 225.136 200.049 224.836 199.761C224.548 199.473 224.404 199.089 224.404 198.609C224.404 198.141 224.554 197.763 224.854 197.475C225.154 197.187 225.544 197.043 226.024 197.043C226.516 197.043 226.912 197.187 227.212 197.475C227.512 197.763 227.662 198.141 227.662 198.609C227.662 199.089 227.512 199.473 227.212 199.761C226.912 200.049 226.516 200.193 226.024 200.193ZM224.656 201.471H227.356V210.688H224.656V201.471ZM233.623 211.048C232.651 211.048 231.787 210.838 231.031 210.417C230.275 209.997 229.687 209.415 229.267 208.671C228.847 207.915 228.637 207.051 228.637 206.079C228.637 205.107 228.841 204.249 229.249 203.505C229.657 202.749 230.221 202.161 230.941 201.741C231.673 201.321 232.507 201.111 233.443 201.111C234.199 201.111 234.889 201.255 235.513 201.543C236.149 201.819 236.677 202.215 237.097 202.731C237.517 203.235 237.793 203.817 237.925 204.477L235.441 205.107C235.345 204.555 235.111 204.123 234.739 203.811C234.379 203.487 233.965 203.325 233.497 203.325C232.873 203.325 232.357 203.583 231.949 204.099C231.541 204.615 231.343 205.275 231.355 206.079C231.355 206.895 231.577 207.561 232.021 208.077C232.465 208.581 233.023 208.833 233.695 208.833C234.283 208.833 234.781 208.641 235.189 208.257C235.609 207.861 235.855 207.357 235.927 206.745L238.447 207.105C238.363 207.873 238.099 208.557 237.655 209.157C237.223 209.745 236.653 210.207 235.945 210.543C235.249 210.88 234.475 211.048 233.623 211.048ZM240.948 200.193C240.456 200.193 240.06 200.049 239.76 199.761C239.472 199.473 239.328 199.089 239.328 198.609C239.328 198.141 239.478 197.763 239.778 197.475C240.078 197.187 240.468 197.043 240.948 197.043C241.44 197.043 241.836 197.187 242.136 197.475C242.436 197.763 242.586 198.141 242.586 198.609C242.586 199.089 242.436 199.473 242.136 199.761C241.836 200.049 241.44 200.193 240.948 200.193ZM239.58 201.471H242.28V210.688H239.58V201.471ZM243.884 201.471H246.152L246.548 203.091H246.566C246.914 202.467 247.352 201.993 247.88 201.669C248.42 201.345 249.038 201.184 249.734 201.184C250.538 201.184 251.258 201.387 251.894 201.795C252.53 202.203 253.022 202.779 253.37 203.523C253.73 204.267 253.91 205.119 253.91 206.079C253.91 207.039 253.73 207.891 253.37 208.635C253.022 209.379 252.53 209.955 251.894 210.363C251.27 210.772 250.556 210.976 249.752 210.976C249.068 210.976 248.456 210.814 247.916 210.489C247.388 210.165 246.956 209.691 246.62 209.067H246.602V214.468H243.884V201.471ZM248.852 208.653C249.536 208.653 250.1 208.407 250.544 207.915C250.988 207.423 251.21 206.811 251.21 206.079C251.21 205.335 250.982 204.717 250.526 204.225C250.082 203.733 249.524 203.487 248.852 203.487C248.168 203.487 247.598 203.739 247.142 204.243C246.698 204.735 246.476 205.347 246.476 206.079C246.476 206.811 246.698 207.423 247.142 207.915C247.598 208.407 248.168 208.653 248.852 208.653ZM257.962 210.976C257.314 210.976 256.732 210.862 256.216 210.633C255.712 210.405 255.316 210.087 255.028 209.679C254.752 209.271 254.614 208.803 254.614 208.275C254.614 207.471 254.956 206.799 255.64 206.259C256.336 205.719 257.332 205.383 258.628 205.251L260.464 205.053C260.692 205.029 260.872 204.957 261.004 204.837C261.148 204.705 261.22 204.537 261.22 204.333C261.22 203.985 261.064 203.697 260.752 203.469C260.44 203.241 260.026 203.127 259.51 203.127C258.958 203.127 258.49 203.295 258.106 203.631C257.734 203.955 257.518 204.345 257.458 204.801L254.866 204.315C254.914 203.715 255.136 203.169 255.532 202.677C255.94 202.185 256.48 201.801 257.152 201.525C257.836 201.249 258.604 201.111 259.456 201.111C260.344 201.111 261.124 201.261 261.796 201.561C262.468 201.861 262.984 202.287 263.344 202.839C263.704 203.391 263.884 204.033 263.884 204.765V210.688H261.688L261.256 209.229H261.238C260.926 209.769 260.482 210.195 259.906 210.507C259.342 210.82 258.694 210.976 257.962 210.976ZM258.952 209.049C259.6 209.049 260.134 208.851 260.554 208.455C260.974 208.059 261.184 207.561 261.184 206.961V206.565L259.276 206.763C258.604 206.835 258.106 206.979 257.782 207.195C257.47 207.411 257.314 207.675 257.314 207.987C257.314 208.299 257.47 208.557 257.782 208.761C258.094 208.953 258.484 209.049 258.952 209.049ZM269.834 211.048C268.742 211.048 267.872 210.742 267.224 210.129C266.576 209.517 266.252 208.701 266.252 207.681V203.523H264.506V201.471H266.252V198.933L268.97 198.339L268.952 201.471H272.696V203.523H268.952L268.97 207.249C268.97 207.741 269.102 208.137 269.366 208.438C269.63 208.725 269.972 208.869 270.392 208.869C271.232 208.869 271.862 208.431 272.282 207.555L273.236 209.157C272.948 209.733 272.486 210.195 271.85 210.543C271.214 210.88 270.542 211.048 269.834 211.048ZM275.559 200.193C275.067 200.193 274.671 200.049 274.371 199.761C274.083 199.473 273.939 199.089 273.939 198.609C273.939 198.141 274.089 197.763 274.389 197.475C274.689 197.187 275.079 197.043 275.559 197.043C276.051 197.043 276.447 197.187 276.747 197.475C277.047 197.763 277.197 198.141 277.197 198.609C277.197 199.089 277.047 199.473 276.747 199.761C276.447 200.049 276.051 200.193 275.559 200.193ZM274.191 201.471H276.891V210.688H274.191V201.471ZM283.302 211.048C282.282 211.048 281.382 210.844 280.602 210.435C279.834 210.027 279.234 209.451 278.802 208.707C278.382 207.951 278.172 207.075 278.172 206.079C278.172 205.083 278.382 204.213 278.802 203.469C279.234 202.713 279.834 202.131 280.602 201.723C281.382 201.315 282.282 201.111 283.302 201.111C284.322 201.111 285.216 201.315 285.984 201.723C286.752 202.131 287.346 202.713 287.766 203.469C288.198 204.213 288.414 205.083 288.414 206.079C288.414 207.075 288.198 207.951 287.766 208.707C287.346 209.451 286.752 210.027 285.984 210.435C285.216 210.844 284.322 211.048 283.302 211.048ZM283.302 208.779C284.046 208.779 284.64 208.539 285.084 208.059C285.528 207.567 285.75 206.907 285.75 206.079C285.75 205.251 285.528 204.591 285.084 204.099C284.64 203.607 284.046 203.361 283.302 203.361C282.546 203.361 281.946 203.607 281.502 204.099C281.07 204.591 280.854 205.251 280.854 206.079C280.854 206.907 281.07 207.567 281.502 208.059C281.946 208.539 282.546 208.779 283.302 208.779ZM295.546 201.184C296.506 201.184 297.256 201.471 297.796 202.047C298.336 202.611 298.606 203.397 298.606 204.405V210.688H295.906V205.179C295.906 204.651 295.762 204.231 295.474 203.919C295.198 203.607 294.82 203.451 294.34 203.451C293.74 203.451 293.248 203.649 292.864 204.045C292.48 204.441 292.288 204.963 292.288 205.611V210.688H289.57V201.471H291.856L292.27 203.037H292.288C292.648 202.437 293.098 201.981 293.638 201.669C294.19 201.345 294.826 201.184 295.546 201.184Z" fill="#131418"/>
<rect x="91.4844" y="252.688" width="217.016" height="48" fill="#A6ADEB"/>
<rect x="91.4844" y="252.688" width="217.016" height="48" stroke="black" stroke-width="2"/>
<path d="M113.396 268.643C114.949 268.643 116.133 269.296 116.947 270.603C117.762 271.903 118.169 273.658 118.169 275.867C118.169 278.082 117.762 279.843 116.947 281.149C116.133 282.45 114.949 283.101 113.396 283.101C111.85 283.101 110.666 282.45 109.846 281.149C109.031 279.843 108.624 278.082 108.624 275.867C108.624 273.658 109.031 271.903 109.846 270.603C110.666 269.296 111.85 268.643 113.396 268.643ZM110.733 278.785L115.453 271.394C115.154 270.849 114.829 270.482 114.478 270.295C114.132 270.102 113.771 270.005 113.396 270.005C112.418 270.005 111.674 270.55 111.164 271.64C110.654 272.724 110.399 274.101 110.399 275.771C110.399 276.151 110.411 276.562 110.435 277.001C110.458 277.44 110.558 278.035 110.733 278.785ZM116.042 273.02L111.357 280.455C111.609 280.883 111.899 281.205 112.228 281.422C112.556 281.633 112.922 281.738 113.326 281.738C114.439 281.738 115.23 281.117 115.699 279.875C116.168 278.627 116.402 277.244 116.402 275.727C116.402 274.789 116.282 273.887 116.042 273.02ZM124.207 283.101C123.814 283.101 123.478 282.96 123.196 282.679C122.915 282.397 122.774 282.061 122.774 281.668C122.774 281.27 122.915 280.933 123.196 280.657C123.483 280.376 123.82 280.235 124.207 280.235C124.594 280.235 124.928 280.376 125.209 280.657C125.496 280.933 125.64 281.27 125.64 281.668C125.64 282.061 125.499 282.397 125.218 282.679C124.937 282.96 124.6 283.101 124.207 283.101ZM135.018 268.643C136.57 268.643 137.754 269.296 138.568 270.603C139.383 271.903 139.79 273.658 139.79 275.867C139.79 278.082 139.383 279.843 138.568 281.149C137.754 282.45 136.57 283.101 135.018 283.101C133.471 283.101 132.287 282.45 131.467 281.149C130.652 279.843 130.245 278.082 130.245 275.867C130.245 273.658 130.652 271.903 131.467 270.603C132.287 269.296 133.471 268.643 135.018 268.643ZM132.354 278.785L137.074 271.394C136.775 270.849 136.45 270.482 136.099 270.295C135.753 270.102 135.393 270.005 135.018 270.005C134.039 270.005 133.295 270.55 132.785 271.64C132.275 272.724 132.021 274.101 132.021 275.771C132.021 276.151 132.032 276.562 132.056 277.001C132.079 277.44 132.179 278.035 132.354 278.785ZM137.663 273.02L132.979 280.455C133.23 280.883 133.521 281.205 133.849 281.422C134.177 281.633 134.543 281.738 134.947 281.738C136.061 281.738 136.852 281.117 137.32 279.875C137.789 278.627 138.023 277.244 138.023 275.727C138.023 274.789 137.903 273.887 137.663 273.02ZM149.994 282.688H141.741V281.185C141.741 280.798 141.82 280.385 141.979 279.945C142.137 279.5 142.438 279.002 142.884 278.451C143.329 277.9 143.801 277.37 144.299 276.86L145.23 275.911C145.418 275.718 145.828 275.27 146.461 274.566C147.094 273.863 147.51 273.324 147.709 272.949C147.914 272.574 148.017 272.205 148.017 271.842C148.017 271.256 147.782 270.805 147.313 270.488C146.845 270.166 146.317 270.005 145.731 270.005C145.397 270.005 145.022 270.043 144.606 270.119C144.196 270.195 143.836 270.286 143.525 270.392C143.215 270.491 142.711 270.699 142.014 271.016V269.565C142.752 269.214 143.49 268.974 144.229 268.845C144.973 268.71 145.585 268.643 146.065 268.643C146.774 268.643 147.425 268.76 148.017 268.994C148.614 269.223 149.057 269.58 149.344 270.066C149.637 270.553 149.783 271.071 149.783 271.622C149.783 272.237 149.596 272.867 149.221 273.512C148.852 274.156 148.151 274.985 147.12 275.999L146.118 276.992L145.274 277.818C144.741 278.357 144.311 278.879 143.982 279.383C143.654 279.887 143.473 280.487 143.438 281.185H149.994V282.688ZM160.805 282.688H152.552V281.185C152.552 280.798 152.631 280.385 152.789 279.945C152.947 279.5 153.249 279.002 153.694 278.451C154.14 277.9 154.611 277.37 155.109 276.86L156.041 275.911C156.229 275.718 156.639 275.27 157.271 274.566C157.904 273.863 158.32 273.324 158.52 272.949C158.725 272.574 158.827 272.205 158.827 271.842C158.827 271.256 158.593 270.805 158.124 270.488C157.655 270.166 157.128 270.005 156.542 270.005C156.208 270.005 155.833 270.043 155.417 270.119C155.007 270.195 154.646 270.286 154.336 270.392C154.025 270.491 153.521 270.699 152.824 271.016V269.565C153.562 269.214 154.301 268.974 155.039 268.845C155.783 268.71 156.396 268.643 156.876 268.643C157.585 268.643 158.235 268.76 158.827 268.994C159.425 269.223 159.867 269.58 160.154 270.066C160.447 270.553 160.594 271.071 160.594 271.622C160.594 272.237 160.406 272.867 160.031 273.512C159.662 274.156 158.962 274.985 157.931 275.999L156.929 276.992L156.085 277.818C155.552 278.357 155.121 278.879 154.793 279.383C154.465 279.887 154.283 280.487 154.248 281.185H160.805V282.688ZM168.267 282.688V278.873H162.475V277.502L168.267 269.047H169.91V277.502H172.433V278.873H169.91V282.688H168.267ZM168.267 277.502V271.525L164.215 277.502H168.267ZM175.623 269.047C176.473 269.047 177.138 269.363 177.618 269.996C178.104 270.629 178.348 271.449 178.348 272.457C178.348 273.471 178.104 274.294 177.618 274.927C177.138 275.554 176.473 275.867 175.623 275.867C174.773 275.867 174.105 275.554 173.619 274.927C173.133 274.294 172.89 273.471 172.89 272.457C172.89 271.449 173.133 270.629 173.619 269.996C174.105 269.363 174.773 269.047 175.623 269.047ZM175.623 270.146C175.148 270.146 174.803 270.374 174.586 270.831C174.369 271.282 174.261 271.824 174.261 272.457C174.261 273.096 174.369 273.644 174.586 274.101C174.803 274.552 175.148 274.777 175.623 274.777C176.092 274.777 176.435 274.552 176.651 274.101C176.874 273.644 176.985 273.096 176.985 272.457C176.985 271.824 176.874 271.282 176.651 270.831C176.435 270.374 176.092 270.146 175.623 270.146ZM174.322 283.101H172.881L182.206 268.643H183.656L174.322 283.101ZM180.879 275.867C181.693 275.867 182.355 276.172 182.865 276.781C183.375 277.391 183.63 278.176 183.63 279.137C183.63 280.244 183.36 281.114 182.821 281.747C182.282 282.374 181.629 282.688 180.861 282.688C180.111 282.688 179.476 282.389 178.954 281.791C178.433 281.188 178.172 280.35 178.172 279.277C178.172 278.258 178.418 277.435 178.91 276.808C179.402 276.181 180.059 275.867 180.879 275.867ZM180.905 276.957C180.442 276.957 180.1 277.18 179.877 277.625C179.654 278.07 179.543 278.639 179.543 279.33C179.543 280.098 179.678 280.669 179.947 281.044C180.217 281.413 180.533 281.598 180.896 281.598C181.283 281.598 181.608 281.396 181.872 280.991C182.136 280.587 182.268 280.004 182.268 279.242C182.268 278.645 182.156 278.114 181.934 277.651C181.717 277.188 181.374 276.957 180.905 276.957Z" fill="#131418"/>
<path d="M196.188 269.668C195.616 269.668 195.22 269.272 195.22 268.7C195.22 268.128 195.616 267.732 196.188 267.732C196.782 267.732 197.178 268.128 197.178 268.7C197.178 269.272 196.782 269.668 196.188 269.668ZM195.594 283V271.934H196.804V283H195.594ZM206.711 271.494C210.627 271.494 212.959 273.518 212.959 276.928V283H211.749V277.038C211.749 274.266 209.813 272.638 206.557 272.638C202.421 272.638 199.979 274.838 199.979 278.534V283H198.769V271.934H199.891L200.001 275.146H200.023C200.947 272.858 203.433 271.494 206.711 271.494ZM217.385 283V272.99H213.293V271.934H217.385V271.032C217.385 268.392 219.145 266.698 221.873 266.698C223.853 266.698 225.525 267.644 226.229 269.118L225.195 269.668C224.667 268.524 223.369 267.798 221.873 267.798C219.893 267.798 218.595 269.074 218.595 271.098V271.934H225.965V272.99H218.595V283H217.385ZM227.665 283V266.874H228.875V283H227.665ZM236.02 283.44C232.28 283.44 230.19 282.406 230.19 280.294C230.19 278.38 232.038 277.082 236.724 276.73L242.796 276.246C243.302 276.202 243.566 275.96 243.566 275.498C243.566 273.892 241.366 272.638 238.242 272.638C235.294 272.638 232.346 273.738 231.356 275.278L230.564 274.508C231.708 272.792 234.942 271.494 238.22 271.494C241.828 271.494 244.754 273.034 244.754 275.608V283H243.632L243.544 280.47H243.522C242.488 282.208 239.408 283.44 236.02 283.44ZM236.064 282.362C240.376 282.362 243.544 280.536 243.544 278.05V277.258L236.68 277.786C233.006 278.072 231.4 278.93 231.4 280.228C231.4 281.636 232.962 282.362 236.064 282.362ZM253.836 283.44C251.108 283.44 249.612 281.966 249.634 279.282V273.012H245.52V271.934H249.612V268.392L250.844 268.084V271.934H258.214V273.012H250.844V279.238C250.822 281.24 251.9 282.34 253.858 282.34C255.464 282.34 256.938 281.328 257.422 279.81L258.478 280.36C257.818 282.186 255.926 283.44 253.836 283.44ZM260.791 269.668C260.219 269.668 259.823 269.272 259.823 268.7C259.823 268.128 260.219 267.732 260.791 267.732C261.385 267.732 261.781 268.128 261.781 268.7C261.781 269.272 261.385 269.668 260.791 269.668ZM260.197 283V271.934H261.407V283H260.197ZM271.182 283.44C266.342 283.44 263.152 281.086 263.152 277.478C263.152 273.87 266.342 271.494 271.182 271.494C276.044 271.494 279.212 273.87 279.212 277.478C279.212 281.086 276.044 283.44 271.182 283.44ZM271.182 282.318C275.296 282.318 278.002 280.404 278.002 277.478C278.002 274.552 275.296 272.638 271.182 272.638C267.068 272.638 264.362 274.552 264.362 277.478C264.362 280.404 267.068 282.318 271.182 282.318ZM288.695 271.494C292.611 271.494 294.943 273.518 294.943 276.928V283H293.733V277.038C293.733 274.266 291.797 272.638 288.541 272.638C284.405 272.638 281.963 274.838 281.963 278.534V283H280.753V271.934H281.875L281.985 275.146H282.007C282.931 272.858 285.417 271.494 288.695 271.494Z" fill="#131418"/>
<defs>
<linearGradient id="paint0_linear_2668_29731" x1="127.465" y1="3725.58" x2="14603.5" y2="3725.58" gradientUnits="userSpaceOnUse">
<stop stop-color="#24A8DF"/>
<stop offset="1" stop-color="#EB858A"/>
</linearGradient>
<clipPath id="clip0_2668_29731">
<rect width="271" height="76" fill="white" transform="translate(64.5 99.6875)"/>
</clipPath>
</defs>
</svg>
