<svg width="123" height="34" viewBox="0 0 123 34" fill="none" xmlns="http://www.w3.org/2000/svg">
<g clip-path="url(#clip0_2674_23179)">
<path fill-rule="evenodd" clip-rule="evenodd" d="M123 9.8793L122.265 7.54642L115.451 9.9279L114.863 7.44922H112.363V26.5497H115.598V12.9898L123 9.8793Z" fill="#131418"/>
<path fill-rule="evenodd" clip-rule="evenodd" d="M94.3032 10.8569C95.6801 8.57461 98.2862 6.875 101.63 6.875C104.138 6.875 106.104 7.79765 107.58 9.25446C109.153 10.954 110.087 13.4306 110.038 16.0043L109.989 17.9467H96.2701C96.2701 19.6949 96.9586 21.5888 98.1387 22.7542C99.0238 23.6283 100.204 24.1139 101.679 24.1139C103.203 24.1139 104.482 23.6769 105.269 22.8513C105.809 22.3172 106.154 21.783 106.4 20.7632H109.596C109.301 22.6571 108.17 24.4053 106.596 25.4736C105.219 26.3963 103.498 26.9304 101.679 26.9304C98.9255 26.9304 96.7127 25.8135 95.2375 24.0654C93.6148 22.2201 92.8281 19.6949 92.8281 16.9755C92.8281 14.6932 93.2214 12.6537 94.3032 10.8569ZM101.629 9.59368C98.1382 9.59368 96.4171 12.4102 96.3188 15.2267H106.645C106.645 13.8184 106.251 12.3616 105.465 11.3418C104.629 10.2735 103.35 9.59368 101.629 9.59368Z" fill="#131418"/>
<path fill-rule="evenodd" clip-rule="evenodd" d="M74.9673 10.8569C76.3442 8.57461 78.9503 6.875 82.2941 6.875C84.8019 6.875 86.7688 7.79764 88.244 9.25446C89.8175 10.9541 90.7518 13.4307 90.7026 16.0044L90.6534 17.9468H76.9343C76.9343 19.695 77.6227 21.5888 78.8028 22.7542C79.6879 23.6283 80.8681 24.114 82.3432 24.114C83.8676 24.114 85.1461 23.677 85.9329 22.8514C86.4738 22.3173 86.818 21.7831 87.0638 20.7633H90.26C89.965 22.6572 88.834 24.4053 87.2605 25.4736C85.8837 26.3962 84.1626 26.9305 82.3432 26.9305C79.5896 26.9305 77.3768 25.8135 75.9016 24.0653C74.2789 22.22 73.4922 19.6949 73.4922 16.9755C73.4922 14.6932 73.8855 12.6536 74.9673 10.8569ZM82.2931 9.59441C78.8018 9.59441 77.0807 12.411 76.9824 15.2275H87.3087C87.3087 13.8192 86.9153 12.3624 86.1285 11.3426C85.2926 10.2743 84.0141 9.59441 82.2931 9.59441Z" fill="#131418"/>
<path fill-rule="evenodd" clip-rule="evenodd" d="M57.2333 10.025C58.3581 8.13594 60.8523 7.07031 63.0041 7.07031C65.3515 7.07031 67.2099 7.84532 68.3836 9.10471C70.242 10.9453 71.1712 13.8516 71.1712 17.0001C71.1712 20.2939 70.1931 23.297 68.2369 25.1377C66.9654 26.3002 65.2048 27.0752 62.9552 27.0752C60.9012 27.0752 58.407 26.1065 57.38 24.3627V34.0019H54.1523V7.55469H56.6465L57.2333 10.025ZM59.3376 23.1539C60.1201 23.832 61.0493 24.4133 62.4675 24.4133C66.7711 24.4133 67.8959 20.5867 67.8959 17.0991C67.8959 13.6116 66.7711 9.785 62.4675 9.785C61.0493 9.785 60.1201 10.3662 59.3376 11.0444C57.7237 12.4006 57.1858 14.7257 57.1858 17.0991C57.1858 19.4726 57.7237 21.7492 59.3376 23.1539Z" fill="#131418"/>
<path fill-rule="evenodd" clip-rule="evenodd" d="M36.0885 10.8569C37.4653 8.57461 40.0715 6.875 43.4152 6.875C45.923 6.875 47.89 7.79764 49.3651 9.25446C50.9387 10.9541 51.8729 13.4307 51.8238 16.0044L51.7746 17.9468H38.0554C38.0554 19.695 38.7438 21.5888 39.924 22.7542C40.8091 23.6283 41.9892 24.114 43.4644 24.114C44.9888 24.114 46.2673 23.677 47.054 22.8514C47.5949 22.3173 47.9391 21.7831 48.185 20.7633H51.3812C51.0862 22.6572 49.9552 24.4053 48.3817 25.4736C47.0048 26.3962 45.2838 26.9305 43.4644 26.9305C40.7107 26.9305 38.498 25.8135 37.0228 24.0653C35.4001 22.22 34.6133 19.6949 34.6133 16.9755C34.6133 14.6932 35.0067 12.6536 36.0885 10.8569ZM43.4145 9.59441C39.9232 9.59441 38.2022 12.411 38.1038 15.2275H48.4301C48.4301 13.8192 48.0367 12.3624 47.2499 11.3426C46.414 10.2743 45.1355 9.59441 43.4145 9.59441Z" fill="#131418"/>
<path d="M6.57422 7.44922H9.86196V26.5497H6.57422V7.44922Z" fill="#131418"/>
<path d="M6.57422 0H10.2488V3.62908H6.57422V0Z" fill="#131418"/>
<path d="M0 0H3.28774V26.5496H0V0Z" fill="#131418"/>
<path fill-rule="evenodd" clip-rule="evenodd" d="M16.8268 7.44922H13.1523V11.0783H16.8268V7.44922ZM25.334 7.44922H21.6595V11.0783H25.334V7.44922ZM25.3339 23.1124H21.6594V26.7415H25.3339V23.1124ZM29.9782 7.44922H33.6527V11.0783H29.9782V7.44922ZM25.9177 15.2808H29.5922V18.9099H25.9177V15.2808ZM21.0803 15.2808H17.4057V18.9099H21.0803V15.2808Z" fill="url(#paint0_linear_2674_23179)"/>
</g>
<defs>
<linearGradient id="paint0_linear_2674_23179" x1="13.1526" y1="17.0848" x2="33.6526" y2="17.0849" gradientUnits="userSpaceOnUse">
<stop stop-color="#131418"/>
<stop offset="1" stop-color="#131418"/>
</linearGradient>
<clipPath id="clip0_2674_23179">
<rect width="123" height="34" fill="white"/>
</clipPath>
</defs>
</svg>
