<svg width="491" height="464" viewBox="0 0 491 464" fill="none" xmlns="http://www.w3.org/2000/svg">
<g clip-path="url(#clip0_2675_23463)">
<path fill-rule="evenodd" clip-rule="evenodd" d="M192.645 130.922L245.62 253.057C245.683 253.205 245.808 253.316 245.961 253.363C246.014 253.379 246.068 253.387 246.122 253.387C246.225 253.387 246.327 253.358 246.417 253.301L414.318 145.798C458.693 167.857 485.164 200.291 488.867 237.149V254.925C485.766 286.052 466.447 316.498 433.07 342.181C393.291 372.792 338.333 392.961 278.322 398.971C218.31 404.982 160.444 396.113 115.384 373.999C73.5934 353.49 47.4833 323.871 41.0096 289.967L39.868 282.133C33.5666 219.139 96.3678 157.012 192.645 130.922Z" fill="#FFCA71"/>
<path fill-rule="evenodd" clip-rule="evenodd" d="M433.068 403.264C393.287 433.875 338.33 454.043 278.319 460.054C219.531 465.941 163.027 455.51 119.216 430.681C98.4906 418.935 81.7025 404.631 69.319 388.167C56.7231 371.42 49.3745 353.329 47.4754 334.37L42.5391 300.485C46.4109 312.715 52.9301 324.343 62.0395 335.215C75.0917 350.792 92.8757 364.171 114.899 374.979C150.907 392.65 195.034 401.899 241.908 401.898C253.929 401.897 266.138 401.288 278.428 400.058C338.64 394.027 393.795 373.78 433.735 343.046C453.177 328.085 467.955 311.445 477.659 293.588C483.196 283.398 486.935 273.055 488.864 262.648L488.866 298.258C492.588 335.42 472.772 372.712 433.068 403.264Z" fill="#FFDC82"/>
<path fill-rule="evenodd" clip-rule="evenodd" d="M320.14 66.3504C381.928 70.5494 419.422 92.0348 424.925 95.3825L256.722 210.126L204.641 77.9689C210.195 76.2075 257.183 62.069 320.14 66.3504Z" fill="#97F2EF"/>
<path fill-rule="evenodd" clip-rule="evenodd" d="M207.003 90.6623L205.586 83.3477L255.958 211.167C256.019 211.322 256.147 211.441 256.306 211.49C256.359 211.506 256.413 211.514 256.467 211.514C256.575 211.514 256.683 211.481 256.775 211.418L425.445 96.3578L429.039 152.61C424.461 149.852 419.649 147.217 414.607 144.717C414.434 144.633 414.243 144.655 414.089 144.746C413.994 144.749 413.898 144.767 413.812 144.822L246.368 252.032L232.742 220.615C232.74 220.607 232.743 220.599 232.742 220.589L207.003 90.6623Z" fill="#B2F2D7"/>
<path fill-rule="evenodd" clip-rule="evenodd" d="M433.069 403.266C393.289 433.877 338.332 454.045 278.321 460.056C219.533 465.943 163.029 455.512 119.218 430.683C98.4922 418.937 81.7041 404.633 69.3207 388.169C56.7247 371.422 49.3761 353.331 47.477 334.372L42.5407 300.487C46.4126 312.718 52.9317 324.345 62.0412 335.217C75.0933 350.794 92.8773 364.173 114.901 374.981C150.908 392.652 195.036 401.901 241.91 401.9C253.93 401.899 266.14 401.29 278.429 400.06C338.642 394.029 393.797 373.782 433.736 343.048C453.179 328.087 467.956 311.447 477.66 293.59C483.198 283.4 486.937 273.057 488.866 262.65L488.868 298.26C492.59 335.422 472.774 372.714 433.069 403.266ZM192.644 130.922L245.618 253.057C245.682 253.205 245.807 253.316 245.96 253.362C246.013 253.379 246.067 253.387 246.12 253.387C246.224 253.387 246.326 253.357 246.415 253.3L414.317 145.797C458.692 167.856 485.163 200.29 488.866 237.149V254.925C485.765 286.052 466.446 316.497 433.069 342.181C393.289 372.792 338.332 392.96 278.321 398.971C218.309 404.981 160.443 396.113 115.383 373.998C73.5923 353.49 47.4822 323.871 41.008 289.967L39.8669 282.133C33.5655 219.139 96.3668 157.011 192.644 130.922ZM207.001 90.662L205.584 83.3474L255.956 211.167C256.017 211.322 256.145 211.441 256.304 211.49C256.357 211.506 256.411 211.514 256.465 211.514C256.574 211.514 256.681 211.481 256.774 211.419L425.443 96.3575L429.038 152.61C424.46 149.852 419.647 147.217 414.604 144.717C414.432 144.633 414.242 144.655 414.087 144.746C413.992 144.748 413.897 144.767 413.81 144.823L246.366 252.032L232.74 220.615C232.739 220.606 232.742 220.598 232.74 220.59L207.001 90.662ZM320.14 66.3525C381.929 70.5516 419.423 92.0369 424.926 95.3847L256.723 210.128L204.642 77.971C210.195 76.2096 257.184 62.0711 320.14 66.3525ZM489.96 298.206V254.998C490.555 249.029 490.556 243.046 489.957 237.065C486.675 204.298 465.635 175.014 430.179 153.304L426.474 95.3294C426.474 95.3213 426.469 95.3155 426.468 95.3075C426.462 95.2499 426.448 95.194 426.424 95.1416C426.42 95.1318 426.418 95.122 426.412 95.1128C426.385 95.0586 426.346 95.0108 426.301 94.9682C426.293 94.9607 426.285 94.9538 426.276 94.9469C426.259 94.9331 426.245 94.9175 426.228 94.906C425.846 94.656 387.237 69.8154 320.215 65.2604C253.225 60.7129 204.231 76.9469 203.744 77.1111C203.72 77.1185 203.704 77.1364 203.682 77.1468C203.648 77.164 203.615 77.1802 203.585 77.2032C203.559 77.2239 203.538 77.2481 203.516 77.2729C203.49 77.3017 203.466 77.3311 203.447 77.3651C203.441 77.3772 203.428 77.3858 203.423 77.3991C203.414 77.4169 203.415 77.4371 203.409 77.4555C203.397 77.4918 203.388 77.5275 203.383 77.5667C203.378 77.6018 203.379 77.6358 203.382 77.6715C203.384 77.6928 203.377 77.7124 203.381 77.7337L205.927 90.8723L230.696 215.904L193.528 130.21C193.525 130.178 193.53 130.146 193.521 130.115C193.491 130.004 193.423 129.918 193.342 129.848C193.192 129.654 192.932 129.572 192.699 129.675C192.619 129.708 192.556 129.763 192.504 129.825C146.269 142.334 105.556 164.084 77.8386 191.095C63.8976 204.679 53.449 219.276 46.7801 234.481C39.8733 250.23 37.181 266.303 38.7789 282.253C39.045 284.913 39.432 287.55 39.9303 290.163L46.3913 334.505C48.3076 353.642 55.7282 371.918 68.4463 388.827C80.9202 405.411 97.8212 419.814 118.678 431.635C154.667 452.031 199.158 462.755 246.456 462.755C256.992 462.755 267.678 462.222 278.429 461.145C338.642 455.115 393.797 434.867 433.736 404.134C453.179 389.173 467.956 372.533 477.66 354.676C487.722 336.161 491.859 317.142 489.96 298.206Z" fill="black"/>
<mask id="mask0_2675_23463" style="mask-type:luminance" maskUnits="userSpaceOnUse" x="37" y="64" width="454" height="400">
<path d="M37.9297 64.0547H490.813V463.157H37.9297V64.0547Z" fill="#000100"/>
</mask>
<g mask="url(#mask0_2675_23463)">
<path fill-rule="evenodd" clip-rule="evenodd" d="M205.176 78.2252L256.914 209.51L424.18 95.4056C416.186 90.6363 379.705 70.8041 320.114 66.7542C258.497 62.5644 212.059 76.0848 205.176 78.2252ZM256.533 210.745L204.109 77.7166L204.52 77.5865C209.703 75.9426 256.983 61.6526 320.169 65.9495C381.407 70.1111 418.353 90.9122 425.137 95.0398L425.671 95.3653L425.154 95.7172L256.533 210.745ZM233.137 220.516L246.549 251.437L413.593 144.482C413.707 144.41 413.832 144.366 413.975 144.349C414.236 144.231 414.531 144.23 414.782 144.354C419.548 146.716 424.188 149.243 428.587 151.869L425.087 97.0887L257.002 211.751C256.764 211.913 256.459 211.959 256.187 211.874C255.908 211.789 255.688 211.584 255.582 211.314L206.812 87.5599L207.397 90.5833L233.137 220.516ZM246.186 252.627L232.333 220.632L232.335 220.616L206.606 90.7383L205.189 83.4236L205.96 83.1996L256.332 211.019C256.348 211.059 256.381 211.091 256.424 211.103C256.497 211.109 256.524 211.101 256.548 211.085L425.801 95.6251L429.491 153.353L428.831 152.955C424.255 150.198 419.409 147.548 414.427 145.078C414.373 145.052 414.32 145.076 414.292 145.093L414.204 145.144L414.102 145.148C414.066 145.15 414.039 145.154 414.027 145.162L246.186 252.627ZM192.414 131.401C96.5465 157.485 33.9992 219.417 40.269 282.092L41.4077 289.908C44.6166 306.71 52.6409 322.472 65.2547 336.739C77.9083 351.05 94.834 363.464 115.561 373.635C151.36 391.205 195.267 400.402 241.904 400.402C253.881 400.402 266.033 399.796 278.281 398.569C338.219 392.566 393.103 372.427 432.825 341.86C466.109 316.248 485.349 286.173 488.466 254.884V237.148C484.783 200.536 458.463 168.251 414.342 146.259L246.634 253.639C246.4 253.788 246.104 253.829 245.842 253.747C245.577 253.666 245.36 253.473 245.249 253.216L192.414 131.401ZM241.908 401.207C195.143 401.207 151.116 391.984 115.206 374.36C94.3836 364.142 77.3743 351.664 64.6505 337.273C51.9399 322.896 43.8523 307.005 40.6129 290.041L39.4689 282.19C33.1496 219.023 96.0955 156.667 192.539 130.532L192.876 130.44L193.015 130.76L245.989 252.896C246.006 252.935 246.038 252.963 246.078 252.976C246.151 252.983 246.176 252.976 246.199 252.96L414.292 145.334L414.497 145.436C458.997 167.557 485.551 200.113 489.27 237.107V254.924C486.129 286.479 466.781 316.749 433.316 342.5C393.477 373.156 338.446 393.354 278.361 399.371C266.09 400.6 253.909 401.207 241.908 401.207ZM43.5649 304.712L47.8768 334.314C49.7695 353.206 57.0928 371.239 69.6438 387.926C81.9944 404.346 98.7405 418.612 119.417 430.331C163.155 455.119 219.574 465.532 278.281 459.654C338.218 453.651 393.103 433.512 432.825 402.946C472.414 372.482 492.175 335.318 488.467 298.299L488.464 266.582C486.37 275.73 482.863 284.862 478.016 293.782C468.285 311.689 453.47 328.372 433.983 343.367C393.985 374.146 338.756 394.422 278.47 400.46C266.272 401.682 253.971 402.302 241.91 402.302C194.646 402.304 150.665 392.98 114.724 375.343C92.6516 364.51 74.8221 351.097 61.7331 335.475C53.6477 325.826 47.5491 315.495 43.5649 304.712ZM246.456 462.063C199.278 462.063 154.904 451.37 119.02 431.033C98.2457 419.259 81.4167 404.919 68.9993 388.411C56.3584 371.604 48.9827 353.436 47.0767 334.412L42.1427 300.544L42.9255 300.364C46.7778 312.532 53.3131 324.17 62.3505 334.958C75.3681 350.493 93.1084 363.837 115.079 374.619C150.91 392.203 194.768 401.497 241.91 401.495C253.945 401.495 266.218 400.877 278.39 399.658C338.529 393.635 393.611 373.417 433.492 342.728C452.889 327.801 467.63 311.205 477.307 293.397C482.795 283.298 486.551 272.929 488.47 262.577L489.27 262.651L489.272 298.26C493.006 335.524 473.135 372.944 433.316 403.585C393.477 434.242 338.446 454.438 278.361 460.457C267.632 461.531 256.971 462.063 246.456 462.063ZM192.909 130.032C192.894 130.032 192.878 130.036 192.862 130.043C192.846 130.05 192.831 130.063 192.813 130.083L192.732 130.18L192.61 130.214C146.441 142.704 105.782 164.428 78.1208 191.382C64.2185 204.93 53.7981 219.484 47.1499 234.642C40.2713 250.327 37.5906 266.332 39.1804 282.213C39.4413 284.813 39.8266 287.463 40.3272 290.087L46.7905 334.447C48.7022 353.526 56.0957 371.734 68.7695 388.584C81.2093 405.124 98.0683 419.49 118.877 431.283C154.74 451.608 198.856 462.351 246.456 462.351C256.992 462.351 267.736 461.81 278.39 460.743C338.528 454.72 393.611 434.502 433.492 403.814C452.889 388.887 467.63 372.29 477.307 354.483C487.33 336.039 491.452 317.117 489.559 298.245L489.557 298.205V254.997C490.15 249.029 490.149 243.023 489.556 237.104C487.933 220.896 481.961 205.476 471.806 191.272C461.675 177.101 447.599 164.442 429.97 153.647L429.791 153.538L429.778 153.329L426.067 95.3382L426.038 95.2593L425.985 95.2259C425.627 94.9926 387.118 70.2108 320.188 65.6615C254.137 61.1797 205.517 76.9494 203.911 77.4799C203.893 77.4908 203.877 77.5001 203.859 77.5087L203.797 77.5657L203.793 77.583L203.795 77.6158L203.787 77.7011L206.324 90.7953L231.824 219.513L193.124 130.177C193.12 130.193 193.096 130.167 193.081 130.155L193.023 130.094C192.997 130.06 192.955 130.032 192.909 130.032ZM246.456 463.157C198.717 463.157 154.463 452.378 118.48 431.985C97.5735 420.137 80.6316 405.697 68.1244 389.069C55.3613 372.099 47.9148 353.755 45.991 334.545L39.5323 290.22C39.03 287.59 38.6406 284.917 38.3786 282.292C36.7738 266.273 39.4764 250.132 46.412 234.318C53.1017 219.065 63.5809 204.425 77.5581 190.805C105.294 163.777 146.039 141.995 192.293 129.464C192.368 129.396 192.451 129.342 192.54 129.303C192.919 129.137 193.364 129.246 193.635 129.569C193.774 129.696 193.867 129.844 193.911 130.009C193.923 130.052 193.927 130.089 193.93 130.121L229.571 212.294L205.533 90.9502L202.976 77.7547L202.98 77.6636C202.976 77.6418 202.976 77.583 202.983 77.5214C202.99 77.4557 203.005 77.3924 203.028 77.3244C203.021 77.3411 203.028 77.291 203.058 77.2276L203.116 77.1349C203.15 77.0807 203.186 77.0375 203.215 77.0053C203.251 76.9632 203.291 76.9218 203.337 76.886C203.397 76.8382 203.456 76.8089 203.499 76.7876C203.503 76.7824 203.549 76.7507 203.614 76.7288C204.105 76.5635 253.245 60.3093 320.244 64.8574C387.382 69.4205 426.066 94.317 426.449 94.5681L426.577 94.6735C426.659 94.7495 426.724 94.8354 426.772 94.9281L426.8 94.9949C426.828 95.0542 426.851 95.1314 426.863 95.2138L426.877 95.3002L430.569 153.069C448.208 163.897 462.302 176.591 472.462 190.803C482.7 205.124 488.721 220.675 490.358 237.024C490.957 242.996 490.957 249.056 490.361 255.038L490.363 298.185C492.268 317.214 488.114 336.285 478.016 354.868C468.285 372.775 453.47 389.458 433.983 404.453C393.985 435.232 338.756 455.508 278.47 461.545C267.79 462.615 257.019 463.157 246.456 463.157Z" fill="#000100"/>
</g>
<path fill-rule="evenodd" clip-rule="evenodd" d="M401.404 11.3224C400.215 9.20735 400.049 6.89183 399.258 4.36261C398.733 6.24613 398.201 7.77772 397.897 9.35308C397.631 10.7314 396.841 11.3794 395.465 11.7222C393.95 9.91698 393.251 7.61413 391.825 5.4766C391.389 7.17522 391.84 8.56511 392.085 9.9694C392.171 10.4584 392.338 11.0166 392.183 11.4388C392.039 11.8333 391.518 12.0897 391.162 12.4065C390.871 12.0465 390.37 11.7095 390.327 11.3218C390.124 9.47576 389.99 7.61701 389.942 5.75999C389.909 4.47148 390.056 3.17778 390.123 1.87487C391.047 1.4302 391.675 1.622 392.138 2.46988C393.001 4.05215 393.884 5.62405 394.768 7.1948C395.092 7.7708 395.444 8.33125 395.982 9.23269C396.451 7.81803 396.797 6.73228 397.17 5.65631C397.667 4.22207 398.152 2.78149 398.715 1.37375C398.859 1.01317 399.393 0.460211 399.554 0.520115C400.03 0.695795 400.499 1.0702 400.799 1.48952C401.043 1.82936 401.102 2.342 401.134 2.7861C401.296 5.05496 401.812 7.23628 402.611 9.36287C403.031 10.4803 402.986 10.5166 401.404 11.3224Z" fill="black"/>
<mask id="mask1_2675_23463" style="mask-type:luminance" maskUnits="userSpaceOnUse" x="363" y="-1" width="12" height="17">
<path d="M363.039 -0.0546875H374.665V15.0819H363.039V-0.0546875Z" fill="black"/>
</mask>
<g mask="url(#mask1_2675_23463)">
<path fill-rule="evenodd" clip-rule="evenodd" d="M373.485 1.87653C373.202 2.50897 372.828 2.87531 372.266 2.47038C371.122 1.64497 369.969 1.49233 368.621 1.96869C366.793 2.61438 365.697 3.90405 365.272 5.68965C364.856 7.43953 364.962 9.24875 365.23 11.0303C365.271 11.3033 365.403 11.5683 365.52 11.824C366.057 12.9853 366.868 13.4328 367.761 13.0728C369.061 12.5492 369.68 11.3028 369.223 10.1139C369.142 9.90481 369.007 9.71416 368.936 9.50219C368.552 8.36056 368.829 8.09848 370.072 7.97176C371.511 7.82545 372.933 7.50462 374.376 7.25809C374.824 8.26955 374.804 8.44984 373.945 8.91179C373.153 9.33803 372.322 9.69112 371.457 10.1007C371.42 10.5309 371.387 10.9145 371.353 11.2982C371.135 13.7202 368.543 15.6424 366.229 14.9327C364.901 14.5255 363.86 13.5307 363.512 12.1253C362.716 8.9043 362.87 5.7196 364.398 2.72497C364.731 2.07179 365.411 1.50673 366.061 1.12081C367.811 0.0845903 369.693 -0.540946 371.683 0.426158C372.326 0.73835 372.83 1.33681 373.485 1.87653Z" fill="black"/>
</g>
<path fill-rule="evenodd" clip-rule="evenodd" d="M480.135 36.1899C482.016 35.1595 482.394 34.3951 482.094 32.2334C481.579 32.1458 481.034 32.0543 480.515 31.9661C479.969 30.1552 480.311 29.6708 482.029 29.4813C483.424 29.3269 484.802 29.0239 486.192 28.8229C486.653 28.7567 487.13 28.8039 487.793 28.797C487.086 30.7606 485.404 30.9754 484.06 31.5917C484.069 32.3808 484.089 33.1106 484.081 33.8404C484.062 35.7522 482.379 37.7762 480.486 37.9583C479.82 38.0228 478.926 37.8275 478.449 37.4007C475.425 34.6946 474.865 31.7611 476.536 28.2872C477.08 27.156 478.033 26.1888 478.923 25.2667C479.631 24.5328 479.715 24.6141 481.168 24.9113C481.202 25.364 481.238 25.8502 481.281 26.4262C478.631 27.0742 477.748 29.123 477.367 31.4126C477.066 33.2241 478.124 34.8576 480.135 36.1899Z" fill="black"/>
<path fill-rule="evenodd" clip-rule="evenodd" d="M465.859 49.1788C465.33 50.5756 464.906 51.6959 464.466 52.8583C464.727 52.924 464.897 53.0248 465.037 52.9931C465.789 52.8232 466.533 52.6198 467.369 52.4056C467.169 51.2806 466.971 50.2738 465.859 49.1788ZM468.444 54.1105C466.967 54.5592 465.68 54.9077 464.432 55.3633C464.157 55.4635 463.928 55.9197 463.842 56.2538C463.659 56.9583 463.654 57.7105 463.448 58.4057C463.213 59.2024 462.455 59.6159 461.905 59.3239C461.233 58.9679 461.25 58.4524 461.463 57.7503C462.245 55.1761 462.616 52.4776 463.825 50.0324C464.25 49.1742 464.616 48.2791 465.12 47.4687C465.673 46.5793 466.555 46.5286 467.185 47.373C467.75 48.1299 468.198 48.9864 468.611 49.8412C468.973 50.5929 469.215 51.4022 469.557 52.3117C470.332 52.1953 471.03 52.0905 471.78 51.9776C472.431 53.2022 471.074 53.2811 470.662 54.0472C470.818 54.5137 470.998 55.0937 471.204 55.6646C471.393 56.187 471.61 56.6991 471.851 57.3067C471.575 57.5129 471.348 57.7566 471.068 57.8787C470.068 58.3159 469.871 58.203 469.502 57.1236C469.18 56.1835 468.844 55.2487 468.444 54.1105Z" fill="black"/>
<path fill-rule="evenodd" clip-rule="evenodd" d="M429.201 10.9634C429.511 10.4202 429.849 9.82984 430.211 9.19681C429.773 8.84315 429.444 8.62945 429.179 8.35355C428.517 7.66177 428.762 6.74305 429.675 6.57486C431.332 6.27016 432.992 5.96949 434.665 5.77192C435.255 5.70222 435.882 5.93896 436.484 6.03457C436.872 6.72059 436.567 7.18139 436.013 7.44347C435.459 7.70497 434.853 7.91521 434.249 7.99873C432.872 8.18881 431.95 8.77288 431.791 10.2716C431.704 11.0884 431.313 11.7352 430.592 12.2151C428.612 13.5318 426.576 12.8262 426.013 10.5032C425.343 7.7355 426.039 5.13659 427.344 2.70357C427.633 2.16501 428.306 1.77217 428.883 1.46459C429.505 1.13281 430.082 1.35803 430.455 2.002C430.842 2.67073 430.456 3.00942 429.961 3.39246C427.958 4.94536 427.645 7.15201 427.776 9.46465C427.813 10.1282 428.186 10.7589 429.201 10.9634Z" fill="black"/>
<path fill-rule="evenodd" clip-rule="evenodd" d="M445.181 30.7298C445.872 30.3277 446.445 30.0144 446.997 29.6682C447.694 29.2298 448.358 28.6423 448.152 27.776C447.931 26.8538 447.025 26.5117 446.172 26.4357C445.554 26.3804 444.91 26.6177 444.118 26.7513C444.495 28.1614 444.807 29.3295 445.181 30.7298ZM453.238 32.4819C452.338 34.1472 450.202 34.6051 445.857 34.3706C445.765 34.6368 445.634 34.9265 445.568 35.2295C445.447 35.7916 445.043 36.0284 444.582 35.8659C444.293 35.764 443.981 35.3556 443.922 35.0388C443.737 34.0504 443.728 33.0286 443.537 32.0407C443.284 30.7251 443.002 29.4049 442.59 28.1326C442.089 26.582 442.128 26.2922 443.529 25.358C445.687 23.9191 448.829 24.9237 449.748 27.2784C450.183 28.3929 449.95 29.2897 449.127 30.0218C448.418 30.6526 447.606 31.1687 446.821 31.7095C446.637 31.8362 446.383 31.8604 446.27 32.1018C447.478 32.6968 448.561 32.8592 449.669 32.7953C450.763 32.7331 451.853 32.6069 453.238 32.4819Z" fill="black"/>
<path fill-rule="evenodd" clip-rule="evenodd" d="M395.391 35.4742C397.166 34.8014 398.682 34.226 400.253 33.631C400.508 34.2605 400.659 34.719 400.039 35.1723C398.599 36.2241 397.031 36.9556 395.26 37.1855C394.034 37.3444 393.877 37.201 393.555 35.9102C393.459 35.53 393.37 35.1424 393.339 34.753C393.17 32.6748 393.016 30.5954 392.864 28.5161C392.742 26.848 392.964 26.6297 394.668 26.3751C396.167 26.1505 397.649 25.8089 399.147 25.5831C399.784 25.4875 400.445 25.5549 401.164 25.5474C401.173 26.7046 400.503 27.0098 399.802 27.2051C398.665 27.5225 397.507 27.7621 396.361 28.0478C395.928 28.1561 395.504 28.3007 394.978 28.4579C394.985 29.1301 394.992 29.7804 394.999 30.4802C396.38 31.0378 397.658 30.6721 398.926 30.1548C399.461 29.9359 400.082 29.2263 400.559 29.9319C401.089 30.7164 400.072 30.8362 399.708 31.2538C399.054 32.0038 398.174 32.1455 397.298 32.3522C396.592 32.5193 395.891 32.7025 395.007 32.9236C395.132 33.7554 395.244 34.4961 395.391 35.4742Z" fill="black"/>
<path fill-rule="evenodd" clip-rule="evenodd" d="M415.012 6.84246C415.114 8.11427 415.184 9.39011 415.333 10.6567C415.408 11.2909 415.579 11.9239 414.974 12.3617C414.686 12.5696 414.192 12.8311 413.972 12.7177C413.635 12.5426 413.232 12.0593 413.242 11.7183C413.324 9.08367 413.499 6.45193 413.643 3.81903C413.671 3.30927 413.647 2.7327 414.292 2.60137C414.993 2.45852 415.463 2.85423 415.792 3.44175C416.594 4.86908 417.39 6.29929 418.201 7.72086C418.613 8.44259 419.027 9.17641 420.027 9.49321C420.131 9.15222 420.29 8.89475 420.273 8.64937C420.149 6.86377 420.533 5.01942 419.653 3.31734C419.362 2.75459 419.576 2.30646 420.149 2.09737C420.725 1.88713 421.166 2.10601 421.318 2.71484C421.496 3.42505 421.715 4.14447 421.748 4.86735C421.819 6.42774 422.384 7.9622 422.007 9.5462C421.954 9.76508 421.998 10.0387 421.881 10.2046C421.406 10.875 421.149 11.8087 420.149 11.9199C419.225 12.023 418.713 11.3658 418.246 10.7178C417.3 9.40508 416.38 8.07452 415.449 6.75087C415.303 6.7814 415.158 6.81193 415.012 6.84246Z" fill="black"/>
<path fill-rule="evenodd" clip-rule="evenodd" d="M381.261 4.96775C381.131 5.71943 381.023 6.35072 380.871 7.22913C381.467 6.98433 381.834 6.83399 382.239 6.66753C382.044 6.11975 381.904 5.69466 381.737 5.28167C381.703 5.1993 381.562 5.16071 381.261 4.96775ZM384.07 5.96538C384.752 6.03162 385.231 6.0777 386.036 6.15546C385.631 6.68365 385.445 7.09146 385.128 7.30573C384.528 7.71124 384.515 8.17261 384.737 8.7705C385.169 9.93229 385.597 11.0964 385.977 12.276C386.301 13.2835 386.142 13.7644 385.474 13.9044C384.529 14.102 384.39 13.4056 384.177 12.7213C383.747 11.3308 383.249 9.96109 382.766 8.54586C381.994 8.81485 381.329 8.95885 380.752 9.26759C379.856 9.74913 379.952 10.7934 379.625 11.5946C379.44 12.0485 379.447 12.6205 379.164 12.9805C378.963 13.2374 378.388 13.3854 378.045 13.3059C377.567 13.1942 377.403 12.7466 377.593 12.215C377.896 11.3688 378.297 10.5244 378.406 9.64833C378.672 7.51597 379.554 5.54951 379.94 3.45575C379.949 3.40103 379.978 3.34919 380.002 3.2985C380.322 2.61133 380.386 1.67073 381.446 1.67188C382.386 1.67245 382.585 2.45005 382.867 3.13031C383.253 4.06631 383.657 4.99425 384.07 5.96538Z" fill="black"/>
<path fill-rule="evenodd" clip-rule="evenodd" d="M424.878 23.0039C425.176 23.7948 425.451 24.2296 425.494 24.687C425.792 27.8187 426.337 30.9302 426.315 34.0902C426.314 34.2566 426.372 34.4231 426.4 34.5896C426.514 35.2445 426.13 35.5636 425.574 35.6356C424.95 35.7162 424.679 35.313 424.615 34.7272C424.47 33.3915 424.312 32.0569 424.143 30.576C423.591 30.6947 423.106 30.7764 422.635 30.9066C422.207 31.0247 421.792 31.1952 421.28 31.3749C421.291 32.3927 421.287 33.3909 421.321 34.388C421.331 34.6621 421.55 34.9496 421.506 35.2013C421.444 35.5492 421.224 35.8689 421.072 36.2006C420.711 36.0025 420.207 35.8913 420.021 35.5866C419.739 35.1224 419.583 34.5314 419.541 33.9813C419.427 32.4739 419.412 30.9596 419.333 29.4493C419.304 28.8901 419.187 28.3354 419.147 27.7761C419.105 27.1597 419.093 26.5405 419.09 25.9219C419.088 25.4162 419.279 25.0251 419.849 24.9888C420.454 24.9496 420.806 25.305 420.942 25.8476C421.023 26.1708 421.006 26.521 421.013 26.8596C421.028 27.5318 421.029 28.204 421.037 28.9488C422.139 29.1878 423.08 29.5945 424.03 28.8601C424.374 27.0532 422.807 25.0216 424.878 23.0039Z" fill="black"/>
<path fill-rule="evenodd" clip-rule="evenodd" d="M427.778 51.3925C427.27 53.1683 427.524 54.7713 427.937 56.33C428.03 56.6848 428.669 57.0304 429.113 57.126C429.848 57.2844 431.262 56.1117 431.696 55.1803C432.11 54.2898 431.655 53.6165 431.102 53.0474C430.261 52.1799 429.196 51.6702 427.778 51.3925ZM426.434 60.07C426.203 58.418 426.048 56.7505 425.72 55.1181C425.425 53.6493 425.792 52.1108 425.077 50.6742C424.724 49.9669 425.319 49.2509 426.082 49.3489C428.252 49.6271 430.379 49.8627 432.22 51.3908C434.253 53.0779 433.937 56.2845 432.265 57.4492C432.126 57.5459 431.998 57.6582 431.863 57.7596C430.347 58.8932 428.302 58.8863 426.915 60.3004C426.755 60.2237 426.594 60.1466 426.434 60.07Z" fill="black"/>
<path fill-rule="evenodd" clip-rule="evenodd" d="M440.327 51.0895C439.67 52.1424 439.216 52.9839 439.529 54.0582C440.339 53.9965 441.036 53.9441 441.757 53.8888C441.771 52.6043 441.116 51.9477 440.327 51.0895ZM445.745 57.6472C445.655 57.7688 445.508 58.0931 445.259 58.2854C444.548 58.8361 444.069 58.7048 443.661 57.8886C443.26 57.0885 442.88 56.2775 442.45 55.3859C441.676 55.5869 440.987 55.781 440.292 55.9423C439.035 56.2337 438.178 56.8598 438.002 58.2618C437.955 58.6431 437.6 59.0907 437.258 59.2969C436.994 59.4553 436.436 59.4121 436.184 59.2237C435.944 59.0446 435.754 58.4997 435.849 58.2198C436.773 55.5103 437.755 52.8198 438.741 50.131C438.855 49.8205 439.071 49.5412 439.271 49.271C440.038 48.2337 440.599 48.1536 441.389 49.1725C442.174 50.1869 442.882 51.287 443.454 52.4339C444.277 54.0835 444.947 55.8092 445.745 57.6472Z" fill="black"/>
<path fill-rule="evenodd" clip-rule="evenodd" d="M432.439 30.6627C433.586 30.4507 434.305 30.3171 435.321 30.1293C434.64 29.2705 434.148 28.6502 433.499 27.8322C433.125 28.8299 432.859 29.5418 432.439 30.6627ZM435.895 31.8055C434.528 32.0975 433.437 32.3308 432.161 32.6032C432.043 33.3042 431.895 34.1164 431.772 34.9326C431.664 35.6589 431.261 36.1186 430.532 35.9786C429.811 35.8404 429.856 35.224 429.94 34.621C430.306 31.9927 430.737 29.3771 432.123 27.0569C432.445 26.5172 433.003 25.8134 433.513 25.7592C434.341 25.6717 435.093 26.2154 435.497 27.0794C435.782 27.6894 436.111 28.2879 436.492 28.8425C436.856 29.3742 437.314 29.8419 437.628 30.2157C437.703 31.0014 437.7 31.7024 437.851 32.3682C438.036 33.1867 438.384 33.9661 438.6 34.7788C438.884 35.8484 438.858 35.8553 437.319 36.4187C436.85 34.8998 436.382 33.3849 435.895 31.8055Z" fill="black"/>
<path fill-rule="evenodd" clip-rule="evenodd" d="M366.774 29.4362C366.78 29.9465 366.785 30.4269 366.792 31.0812C367.398 30.9361 367.864 30.7563 368.338 30.7264C369.228 30.6699 370.125 30.6671 371.014 30.7218C371.189 30.7327 371.462 31.0996 371.471 31.3116C371.48 31.5259 371.265 31.8571 371.063 31.9492C370.661 32.133 370.185 32.1485 369.767 32.3046C368.891 32.6324 368.032 33.0062 367.138 33.3731C367.333 34.6155 367.496 35.6627 367.661 36.7087C367.695 36.9265 367.815 37.1632 367.763 37.355C367.618 37.8964 367.463 38.4874 366.73 38.5041C365.982 38.5214 365.793 38.0042 365.739 37.393C365.63 36.1621 365.589 34.9208 365.409 33.7003C365.189 32.1998 364.867 30.7143 364.567 29.2265C364.314 27.9656 364.503 27.6114 365.688 27.578C368.015 27.5117 370.268 27.0722 372.481 26.3931C373.094 26.2048 373.656 26.1524 373.816 26.8983C373.977 27.6465 373.404 27.8032 372.803 27.9437C370.841 28.4051 368.888 28.9091 366.774 29.4362Z" fill="black"/>
<path fill-rule="evenodd" clip-rule="evenodd" d="M469.89 30.7792C470.316 28.921 470.606 27.3877 470.133 25.8112C470.069 25.5957 470.379 25.0445 470.547 25.0307C470.877 25.0025 471.436 25.1562 471.535 25.3901C471.816 26.0513 472.055 26.7915 472.052 27.5C472.047 28.9043 471.877 30.3091 471.755 31.7117C471.69 32.4588 471.27 32.8729 470.555 33.1626C469.796 33.4702 469.382 33.1027 468.931 32.6552C468.33 32.0596 467.76 31.43 467.128 30.8702C466.647 30.4439 466.09 30.1029 465.331 29.5523C465.34 30.3811 465.347 30.865 465.349 31.3494C465.351 31.8574 465.409 32.3753 465.331 32.8706C465.206 33.6615 464.523 34.1787 463.905 33.9702C463.127 33.707 463.117 33.0613 463.356 32.4409C463.956 30.8851 463.46 29.3178 463.418 27.7638C463.402 27.1544 463.335 26.5893 463.876 26.2967C464.443 25.9891 464.897 26.3612 465.352 26.7806C466.788 28.1042 468.279 29.3685 469.89 30.7792Z" fill="black"/>
<path fill-rule="evenodd" clip-rule="evenodd" d="M414.247 34.843C413.78 34.3897 413.361 33.8667 412.834 33.4992C411.867 32.8241 410.844 32.228 409.83 31.6209C407.982 30.5138 407.679 28.9517 409.033 27.3256C410.115 26.0273 411.379 25.0188 413.193 25.1386C414.373 25.2169 414.781 26.214 414.171 27.4063C412.285 26.5406 411.632 26.7969 409.959 29.0899C410.322 30.4787 411.544 30.9988 412.627 31.6929C413.564 32.2925 414.51 32.9215 415.297 33.6956C415.95 34.3396 416.276 35.2583 415.736 36.1747C415.241 37.014 414.406 37.4062 413.466 37.3809C411.954 37.3394 410.639 36.6459 409.423 35.8234C409.149 35.6373 408.95 34.9922 409.055 34.6691C409.256 34.0528 409.876 34.1852 410.355 34.3672C411.091 34.6478 411.783 35.0579 412.532 35.2883C413.003 35.4328 413.544 35.3505 414.053 35.3706C414.118 35.1944 414.182 35.0187 414.247 34.843Z" fill="black"/>
<path fill-rule="evenodd" clip-rule="evenodd" d="M456.861 47.7454C456.879 48.5582 456.364 48.8387 455.725 49.0149C454.966 49.224 454.21 49.4498 453.449 49.6549C452.209 49.989 452.121 50.0304 452.221 51.2256C452.381 53.1287 452.619 55.0249 452.83 56.9234C452.855 57.1458 452.928 57.3623 452.961 57.5847C453.061 58.2413 452.783 58.758 452.159 58.8738C451.434 59.0091 451.17 58.3732 451.092 57.822C450.895 56.4327 450.802 55.0284 450.642 53.6322C450.523 52.5907 450.365 51.5534 450.214 50.4377C449.234 50.4474 448.457 50.4659 447.679 50.4607C447.143 50.4572 446.631 50.3513 446.566 49.6917C446.5 49.0155 446.895 48.6538 447.517 48.5121C447.68 48.4752 447.855 48.4718 448.023 48.4839C450.42 48.6538 452.71 48.0582 455.002 47.4966C455.674 47.3319 456.312 47.1625 456.861 47.7454Z" fill="black"/>
<path fill-rule="evenodd" clip-rule="evenodd" d="M386.099 34.7542C387.377 34.8838 388.411 34.3591 389.327 33.6103C389.82 33.2071 390.24 32.983 390.833 33.396C390.835 33.5596 390.909 33.794 390.827 33.8787C389.453 35.306 388.204 36.9091 385.906 36.8803C384.605 36.8641 384.062 36.5393 384.088 35.2611C384.139 32.7619 383.78 30.3346 383.191 27.9125C383.054 27.3486 383.405 26.6384 383.629 26.0319C383.692 25.8619 384.169 25.6747 384.337 25.7525C384.592 25.87 384.875 26.1931 384.916 26.4639C385.329 29.163 385.695 31.8691 386.099 34.7542Z" fill="black"/>
<path fill-rule="evenodd" clip-rule="evenodd" d="M406.721 1.83203C407.239 2.3631 407.739 2.68048 407.943 3.13206C408.215 3.7311 408.326 4.42922 408.383 5.09507C408.507 6.54832 408.513 8.01193 408.653 9.46345C408.704 9.98877 408.955 10.5124 409.197 10.9962C409.485 11.5728 409.541 12.0791 408.974 12.4805C408.506 12.8129 407.632 12.6332 407.362 12.0376C407.044 11.3366 406.844 10.5561 406.74 9.79005C406.612 8.84598 406.687 7.876 406.581 6.92733C406.477 5.99133 406.248 5.06973 406.091 4.13891C406.017 3.69885 405.89 3.23574 405.964 2.81354C406.015 2.5169 406.365 2.27267 406.721 1.83203Z" fill="black"/>
<path fill-rule="evenodd" clip-rule="evenodd" d="M378.857 29.2216C378.806 30.7382 378.733 32.2554 378.714 33.7726C378.705 34.4361 378.899 35.1106 378.829 35.7615C378.774 36.2643 378.561 36.8426 378.221 37.1992C377.783 37.6583 377.127 37.3691 376.956 36.7257C376.87 36.402 376.812 36.0587 376.817 35.7252C376.854 33.1338 376.908 30.5429 376.959 27.9521C376.97 27.4037 376.818 26.7505 377.572 26.5628C378.094 26.4326 378.744 27.1232 378.868 27.8686C378.887 27.9786 378.88 28.0938 378.882 28.2067C378.887 28.5454 378.89 28.884 378.893 29.2222L378.857 29.2216Z" fill="black"/>
<path fill-rule="evenodd" clip-rule="evenodd" d="M474.301 61.9901C474.592 61.3761 474.878 60.6722 475.249 60.0167C475.664 59.2858 476.233 58.6355 476.585 57.8803C476.824 57.3648 476.923 56.718 476.869 56.15C476.807 55.4899 476.766 54.869 477.325 54.4664C477.645 54.2366 478.182 54.0401 478.504 54.1548C478.836 54.2734 479.242 54.7913 479.237 55.1288C479.226 55.9548 479.205 56.8988 478.813 57.5774C477.919 59.1193 476.826 60.5512 475.752 61.9809C475.459 62.3708 474.952 62.6502 474.301 61.9901Z" fill="black"/>
<path fill-rule="evenodd" clip-rule="evenodd" d="M458.713 34.4092C458.408 34.7035 458.089 35.1332 457.661 35.3464C457.543 35.4057 456.96 34.8717 456.842 34.525C456.611 33.8418 456.531 33.1017 456.433 32.38C456.222 30.8219 456.04 29.2609 455.846 27.7017C455.797 27.3094 455.656 26.8993 455.727 26.5307C455.801 26.1407 456.078 25.7899 456.267 25.4219C456.648 25.7012 457.245 25.9103 457.364 26.2749C457.622 27.0623 457.654 27.9286 457.742 28.7661C457.861 29.8847 457.897 31.0131 458.063 32.1236C458.165 32.8148 458.441 33.4807 458.713 34.4092Z" fill="black"/>
<path fill-rule="evenodd" clip-rule="evenodd" d="M485.969 39.4278C486.479 39.0431 486.932 38.785 487.277 38.425C488.084 37.5829 488.542 36.5772 488.458 35.3768C488.446 35.2086 488.404 35.0393 488.416 34.8734C488.463 34.1851 489.07 33.4178 489.566 33.3988C490.077 33.3793 490.676 34.082 490.783 34.8273C491.005 36.3883 489.584 39.2625 488.198 40.0557C487.499 40.456 487.131 40.3897 485.969 39.4278Z" fill="black"/>
<path fill-rule="evenodd" clip-rule="evenodd" d="M437.219 15.0888C437.733 14.7093 438.189 14.4564 438.538 14.0999C439.354 13.2664 439.821 12.2653 439.75 11.0643C439.74 10.8961 439.7 10.7262 439.713 10.5603C439.768 9.87259 440.383 9.1117 440.879 9.09787C441.391 9.08347 441.982 9.7931 442.081 10.539C442.287 12.1017 440.836 14.9616 439.442 15.7403C438.738 16.1326 438.37 16.0629 437.219 15.0888Z" fill="black"/>
<path fill-rule="evenodd" clip-rule="evenodd" d="M254.984 312.392C255.039 313.279 255.041 313.834 255.115 314.379C255.199 314.99 255.349 315.591 255.528 316.487C256.653 316.134 257.645 315.877 258.594 315.509C259.469 315.169 260.298 314.71 261.381 314.191C261.497 315.597 261.047 316.471 260.257 317.01C258.627 318.121 256.862 318.936 254.792 318.901C253.742 318.884 253.219 318.426 253.101 317.444C252.812 315.032 252.593 312.611 252.239 310.209C252.121 309.4 251.662 308.645 251.392 307.854C250.931 306.504 251.064 305.816 252.426 305.354C254.393 304.687 256.46 304.286 258.509 303.901C259.654 303.686 260.849 303.731 262.116 303.652C262.645 304.615 262.624 304.933 261.599 305.3C260.556 305.674 259.437 305.827 258.367 306.137C257.033 306.522 255.717 306.968 254.471 307.363C254.269 309.794 254.37 309.83 256.409 309.727C258.207 309.636 260.016 309.747 261.822 309.769C262.004 311.217 261.83 311.552 260.602 311.745C259.495 311.919 258.371 311.993 257.255 312.117C256.577 312.193 255.899 312.281 254.984 312.392Z" fill="black"/>
<path fill-rule="evenodd" clip-rule="evenodd" d="M267.175 312.845L266.957 312.958C267.411 314.017 267.703 315.193 268.356 316.111C269.431 317.622 270.369 317.674 271.941 316.664C273.958 315.369 275.019 311.45 273.877 309.382C273.65 308.972 273.316 308.549 272.923 308.317C270.541 306.911 267.742 308.225 267.254 310.969C267.145 311.58 267.197 312.218 267.175 312.845ZM264.824 313.555C264.695 310.034 266.122 305.952 270.231 304.769C270.7 304.635 271.136 304.32 271.605 304.276C272.104 304.229 272.836 304.215 273.101 304.512C275.342 307.026 277.038 309.721 276.097 313.381C275.714 314.868 275.58 316.344 274.423 317.553C271.594 320.513 267.238 320.203 265.704 316.017C265.347 315.042 265.005 314.062 264.824 313.555Z" fill="black"/>
<path fill-rule="evenodd" clip-rule="evenodd" d="M240.312 308.661C239.697 311.203 240.927 315.669 242.608 316.996C244.408 316.056 245.617 314.048 245.175 312.558C244.592 310.593 243.314 308.359 240.312 308.661ZM247.537 312.9C248.342 317.081 244.469 319.101 241.648 319.635C240.311 319.887 239.294 318.936 238.922 317.294C238.613 315.935 238.452 314.542 238.198 313.169C237.945 311.797 237.674 310.429 237.383 309.065C236.965 307.107 237.842 305.913 239.824 305.828C243.678 305.663 247.46 308.338 247.537 312.9Z" fill="black"/>
<path fill-rule="evenodd" clip-rule="evenodd" d="M216.774 319.92C212.876 316.439 209.058 309.908 209.486 307.404C210.806 306.964 211.334 307.879 211.872 308.808C212.922 310.623 213.943 312.456 215.066 314.224C215.534 314.961 216.23 315.551 217.089 316.504C217.504 314.492 217.933 312.902 218.137 311.285C218.331 309.749 218.29 308.184 218.367 306.246C219.59 306.766 220.479 307.143 221.621 307.628C219.538 309.733 220.594 312.182 220.027 314.327C219.923 314.721 220.042 315.169 219.97 315.577C219.632 317.49 219.077 319.266 216.774 319.92Z" fill="black"/>
<path fill-rule="evenodd" clip-rule="evenodd" d="M227.692 306.18C229.216 306.384 229.775 307.089 229.889 308.292C230.087 310.377 230.29 312.463 230.587 314.535C230.669 315.102 231.054 315.644 231.368 316.157C231.98 317.16 231.793 318.175 230.859 318.651C229.813 319.184 229.019 318.932 228.754 317.799C228.404 316.304 228.205 314.772 227.988 313.248C227.791 311.869 227.596 310.484 227.518 309.094C227.466 308.167 227.622 307.228 227.692 306.18Z" fill="black"/>
<path fill-rule="evenodd" clip-rule="evenodd" d="M21.0935 90.0741C21.26 88.5183 21.4328 86.9637 21.5912 85.4067C21.7133 84.2075 21.8965 83.0066 21.8982 81.8062C21.8994 81.0712 21.9189 80.4929 22.7927 80.4768C23.6302 80.4612 24.3658 81.3563 24.2166 82.1564C24.0334 83.1419 23.7287 84.1119 23.6291 85.1043C23.4332 87.0581 23.3428 89.0223 23.2098 90.9824C23.1884 91.2998 23.2299 91.6321 23.1504 91.9334C22.9143 92.8302 22.9079 93.9275 21.7058 94.166C20.7122 94.363 20.4507 93.4235 20.021 92.8619C19.0971 91.6535 18.2884 90.3563 17.3904 89.1266C16.7361 88.2303 16.0149 87.3836 15.0064 86.7004C15.1918 88.5661 15.3986 90.43 15.5559 92.2986C15.6878 93.8716 15.2684 94.712 14.4194 94.7339C13.4984 94.757 13.139 93.9742 13.1735 92.3884C13.2398 89.4082 13.6044 86.4107 12.6638 83.4743C12.5451 83.1039 12.7899 82.2704 13.0192 82.2071C13.4834 82.0798 14.2432 82.1495 14.5444 82.4622C15.777 83.741 16.9181 85.113 18.0234 86.5063C18.9658 87.6935 19.8125 88.9555 20.7013 90.1847L21.0935 90.0741Z" fill="black"/>
<path fill-rule="evenodd" clip-rule="evenodd" d="M63.3023 85.3848C62.2269 83.6073 61.8415 83.37 60.765 83.7179C59.4897 84.1297 59.0094 84.992 59.2536 86.5541C59.3475 87.1532 59.5525 87.7355 59.7374 88.4411C61.3473 87.7977 62.1998 86.5276 63.3023 85.3848ZM67.9322 92.0636C66.5302 93.617 65.9467 93.727 64.3754 93.1113C62.9106 92.537 61.4026 92.0722 59.8849 91.5492C59.185 92.9126 61.0398 94.6694 58.9736 95.561C57.9645 95.0985 57.7946 94.2034 57.7306 93.2046C57.5728 90.7422 57.3856 88.2815 57.1708 85.8243C57.1276 85.3272 56.8943 84.8492 56.7779 84.3561C56.6374 83.7646 56.5279 83.1649 56.3477 82.2911C57.1592 82.468 57.6748 82.5803 58.2634 82.7087C58.2974 82.6949 58.427 82.6644 58.5284 82.5935C61.1596 80.7699 63.9866 81.6668 65.0764 84.6741C65.4767 85.7782 65.2486 86.4977 64.2947 87.3876C63.5718 88.0615 62.8922 88.7827 62.1583 89.5176C63.8817 91.1218 66.2681 90.7606 67.9322 92.0636Z" fill="black"/>
<path fill-rule="evenodd" clip-rule="evenodd" d="M81.8136 82.7344C83.6367 83.656 83.7404 83.8144 83.34 85.2319C82.7381 87.3625 82.9017 89.5289 83.0975 91.6745C83.1926 92.7141 82.9293 93.3357 82.0596 93.8811C81.1564 94.4473 80.346 94.373 79.607 93.7423C78.8357 93.0845 78.1739 92.3006 77.4395 91.5973C76.2616 90.4695 75.0635 89.363 73.7421 88.1234C73.5457 89.7241 73.7249 91.186 74.1707 92.6306C74.3763 93.2976 74.6534 93.9502 74.7836 94.6311C74.9362 95.4254 74.3308 96.279 73.6621 96.3694C72.9294 96.4691 72.3413 95.8856 72.2618 94.9266C72.0026 91.7793 71.7555 88.6309 71.5113 85.4825C71.4773 85.0389 71.418 84.5805 71.494 84.1502C71.6259 83.4048 72.3448 83.103 72.9116 83.5955C73.4801 84.0891 73.9121 84.7371 74.4213 85.3028C76.3745 87.4743 78.3311 89.6429 80.2999 91.8C80.403 91.9129 80.6277 91.9147 81.0533 92.0506C80.9479 88.8866 80.7446 85.8148 81.8136 82.7344Z" fill="black"/>
<path fill-rule="evenodd" clip-rule="evenodd" d="M92.8342 90.7732C93.4182 92.8232 93.6751 93.0478 95.3801 92.8255C96.433 92.6884 97.4664 92.3992 98.5389 92.1711C99.154 93.1129 99.0751 93.9562 97.9444 94.2154C96.1894 94.6168 94.341 94.6957 92.5295 94.7235C91.8216 94.7343 91.4541 93.9976 91.2369 93.2546C90.8867 92.0582 90.9501 90.7219 90.0458 89.692C89.8989 89.5244 89.9075 88.9922 90.0596 88.8275C90.9616 87.8517 90.51 86.717 90.0008 86.0189C89.138 84.8369 89.2088 84.0248 90.2088 83.0997C90.4236 82.901 90.5192 82.5732 90.703 82.2461C91.8993 82.3751 92.7783 83.5801 94.1037 83.0375C95.186 82.594 96.346 82.3405 97.4952 81.9961C98.0884 82.4966 97.9295 83.0133 97.4042 83.3987C96.3892 84.1428 95.4106 84.8991 94.038 85.0345C92.5658 85.1791 92.3112 85.6785 92.5686 87.092C92.7823 88.2676 93.1861 88.6339 94.4095 88.4196C95.372 88.2515 96.2942 87.854 97.2763 87.5453C98.0775 88.6287 97.8166 89.5025 96.4163 89.8988C95.273 90.2231 94.1066 90.4662 92.8342 90.7732Z" fill="black"/>
<path fill-rule="evenodd" clip-rule="evenodd" d="M51.2408 81.8965C50.0738 84.1083 47.8314 82.5825 46.1495 83.4724C46.3235 84.2495 46.5101 85.0818 46.6886 85.8778C48.3688 85.9014 49.8555 86.2021 51.3064 85.4159C51.659 85.2252 52.3928 85.7378 53.3691 86.069C51.0559 87.7446 48.7219 87.9122 46.3667 88.4151C46.3667 89.0654 46.3949 89.6823 46.3603 90.2957C46.2883 91.5687 46.646 92.1078 47.8481 92.1931C49.1666 92.2875 50.507 92.4425 51.6175 91.3659C52.0587 90.938 52.1486 91.0307 53.4302 91.719C53.1093 92.1147 52.8714 92.5686 52.4999 92.8393C50.8883 94.0138 49.0526 94.4314 47.0809 94.2488C45.1767 94.0726 44.2447 93.045 44.2234 91.1309C44.1969 88.7129 44.1784 86.2954 44.1566 83.8779C44.1399 81.9777 44.8051 81.2422 46.6863 81.082C48.0981 80.9616 49.3653 81.1799 51.2408 81.8965Z" fill="black"/>
<path fill-rule="evenodd" clip-rule="evenodd" d="M109.744 83.5421C109.936 85.6054 110.078 87.2861 110.252 88.9629C110.415 90.5348 110.615 92.1032 110.793 93.6734C110.822 93.9268 110.918 94.2327 110.816 94.4274C110.603 94.8346 110.279 95.1837 110.001 95.5569C109.646 95.2747 109.169 95.0592 108.969 94.6923C108.737 94.2684 108.704 93.7143 108.664 93.2109C108.452 90.5584 108.252 87.9053 108.078 85.2505C108.04 84.6711 107.892 84.2587 107.259 84.1659C106.821 84.1014 106.385 84.0185 105.945 83.9701C104.26 83.7858 104.139 83.5974 104.609 81.4996C105.227 81.4996 105.909 81.442 106.577 81.51C109.226 81.779 111.78 81.3769 114.285 80.5354C114.804 80.3609 115.44 79.8955 115.823 80.5475C116.07 80.9686 116.124 81.6759 115.947 82.1304C115.724 82.7012 115.189 82.9241 114.415 82.9448C112.801 82.9886 111.195 83.3394 109.744 83.5421Z" fill="black"/>
<path fill-rule="evenodd" clip-rule="evenodd" d="M34.4959 83.9058C34.629 86.2133 34.7413 88.2368 34.864 90.2591C34.9285 91.3357 35.0362 92.411 35.0783 93.4882C35.1071 94.2231 34.6883 94.7035 33.9873 94.8452C33.409 94.9621 32.7455 94.226 32.7345 93.4357C32.7201 92.422 32.8595 91.4025 32.7985 90.3933C32.6729 88.3151 32.4586 86.2415 32.2899 84.2739C31.2254 83.7739 30.3528 83.426 29.5521 82.9548C29.2728 82.7901 29.1714 82.3224 29.0078 82.0269C29.1893 81.2793 29.6466 81.0621 30.3015 81.1399C31.1839 81.2447 32.0658 81.4227 32.9482 81.4279C34.1359 81.4348 35.3242 81.2787 36.5137 81.2516C36.9958 81.2407 37.5677 81.2522 37.9404 81.4958C38.2958 81.7291 38.6771 82.3161 38.6172 82.6761C38.5619 83.0119 37.9773 83.4082 37.562 83.5055C36.6513 83.7198 35.7004 83.7612 34.4959 83.9058Z" fill="black"/>
<path fill-rule="evenodd" clip-rule="evenodd" d="M0.679688 80.0195C1.66407 80.1555 2.27521 80.2217 2.87886 80.3288C3.64666 80.4642 3.92487 80.9694 3.83329 81.7101C3.48423 84.5296 4.11495 87.2449 4.67713 89.9734C4.9202 91.153 4.96455 92.3471 4.52161 93.4743C2.78727 93.5884 2.1819 93.2877 2.15655 92.0268C2.07822 88.0979 1.64852 84.2145 0.679688 80.0195Z" fill="black"/>
<path fill-rule="evenodd" clip-rule="evenodd" d="M395.714 52.9954C394.06 66.9662 385.935 79.2834 376.324 89.1762C367.837 97.9118 357.762 105.489 346.699 110.652C345.491 111.216 346.542 113.004 347.746 112.442C359.434 106.987 370.114 98.8277 378.928 89.4521C388.434 79.3399 396.129 67.0031 397.787 52.9954C397.944 51.6729 395.869 51.6844 395.714 52.9954Z" fill="black"/>
<path fill-rule="evenodd" clip-rule="evenodd" d="M347.93 111.785C348.047 108.611 348.163 105.436 348.28 102.262C348.329 100.927 346.255 100.929 346.207 102.262C346.09 105.436 345.973 108.611 345.856 111.785C345.807 113.12 347.881 113.117 347.93 111.785Z" fill="black"/>
<path fill-rule="evenodd" clip-rule="evenodd" d="M346.56 112.944C349.193 113.633 351.967 114.023 354.657 114.424C355.963 114.62 356.526 112.621 355.208 112.425C352.518 112.023 349.745 111.634 347.112 110.945C345.82 110.606 345.268 112.606 346.56 112.944Z" fill="black"/>
</g>
<defs>
<clipPath id="clip0_2675_23463">
<rect width="491" height="464" fill="white"/>
</clipPath>
</defs>
</svg>
