<svg width="749" height="534" viewBox="0 0 749 534" fill="none" xmlns="http://www.w3.org/2000/svg">
<g clip-path="url(#clip0_2668_26102)">
<path fill-rule="evenodd" clip-rule="evenodd" d="M370.921 122.128C372.652 120.943 373.554 119.007 372.854 117.984C372.44 117.378 371.622 117.293 371.172 117.294C370.256 117.299 369.206 117.661 368.292 118.286C367.5 118.828 366.882 119.529 366.512 120.226C366.072 121.053 365.98 121.876 366.36 122.43C367.06 123.454 369.192 123.312 370.921 122.128Z" fill="#59C94E"/>
<path fill-rule="evenodd" clip-rule="evenodd" d="M65.2832 216.427C86.8607 207.55 108.188 195.057 128.67 179.296C154.293 159.579 178.659 134.663 201.091 105.238C230.705 66.3938 260.299 48.4116 289.051 51.7918C314.137 54.7419 333.785 73.7593 345.85 89.1935C355.506 101.547 361.979 113.639 364.707 119.129C365.233 118.181 366.047 117.283 367.108 116.556C368.378 115.686 369.818 115.203 371.163 115.197C371.249 115.197 371.331 115.205 371.416 115.209C368.605 109.851 360.968 96.1593 349.499 82.1921C336.041 65.8036 314.419 45.6954 287.839 42.9734C259.366 40.0566 230.665 57.2876 202.535 94.1852C179.992 123.755 155.43 148.926 129.533 168.999C108.801 185.068 87.1703 197.925 65.2415 207.213C36.6163 219.338 12.8725 222.786 3.14155 222.992L3.96831 230.886C7.78111 230.887 31.5635 230.297 65.2832 216.427Z" fill="#95F58C"/>
<path fill-rule="evenodd" clip-rule="evenodd" d="M502.074 531.529C528.342 531.863 539.285 522.348 539.391 522.253C539.544 522.115 539.736 522.024 539.941 521.993C546.988 520.954 556.916 511.811 565.233 498.703C578.246 478.189 581.592 458.646 582.427 448.822C584.004 430.269 580.034 413.715 570.629 399.619C559.421 382.823 540.683 370.043 514.934 361.635C477.223 349.321 452.262 329.502 440.745 302.728C424.516 265.007 440.866 225.514 442.989 220.696C442.616 220.07 441.723 218.848 440.237 218.37C438.82 217.914 437.147 218.214 435.26 219.26C434.324 221.271 428.79 233.616 425.974 250.221C420.867 280.343 428.472 301.135 435.751 313.274C459.425 352.752 485.31 361.819 502.438 367.818C503.848 368.312 505.189 368.782 506.452 369.243C549.681 385.023 562.802 413.672 566.196 434.925C573.991 483.729 538.6 510.487 534.54 513.378C529.043 517.29 516.07 523.396 490.943 520.331C461.45 516.732 424.215 501.77 380.272 475.862C374.133 472.242 368.412 468.603 363.172 464.987C362.961 464.925 362.767 464.796 362.626 464.607C359.963 462.758 357.427 460.916 355.025 459.085C354.823 459.014 354.639 458.88 354.509 458.69C329.941 439.824 318.524 421.538 320.575 404.336C322.718 386.362 339.022 375.67 343.27 373.792C347.491 371.926 363.581 368.906 375.35 376.239C383.367 381.235 387.676 389.855 388.157 401.862C389.059 424.362 378.651 443.279 357.215 458.109C359.22 459.619 361.317 461.135 363.501 462.658C394.207 440.38 404.844 411.782 392.676 384.098C385.898 368.678 372.978 360.199 357.229 360.834C338.678 361.582 321.438 374.445 315.306 392.119C310.768 405.198 308.68 431.871 345.691 463.562C352.508 469.4 360.43 475.177 369.237 480.731C434.921 522.154 477.729 531.22 502.074 531.529Z" fill="#95F58C"/>
<path fill-rule="evenodd" clip-rule="evenodd" d="M136.95 519.125C137.642 518.157 145.982 506.806 163.198 497.283C179.424 488.309 206.877 479.453 245.529 488.231C278.501 495.717 318.794 488.964 351.067 470.626C348.897 468.947 346.807 467.259 344.812 465.565C336.026 470.178 325.884 474.26 314.654 477.695C291.117 484.894 268.793 481.383 247.204 477.988C225.397 474.556 204.799 471.316 183.258 478.342C160.912 485.629 146.59 496.79 138.51 504.871C134.545 508.836 131.657 512.464 129.676 515.258L136.95 519.125Z" fill="#95F58C"/>
<path fill-rule="evenodd" clip-rule="evenodd" d="M659.781 134.294L660.179 134.464C665.373 136.686 674.066 140.405 685.89 130.707C690.966 126.543 693.707 121.747 694.036 116.449C694.307 112.099 692.804 108.938 692.631 108.591C691.644 106.608 687.762 99.9289 679.229 97.2584C670.682 94.5825 666.698 97.216 666.624 97.2655C666.471 97.3747 666.292 97.4404 666.105 97.4568C665.994 97.4659 655.012 98.5416 650.675 110.685C646.357 122.788 654.475 132.034 659.781 134.294ZM458.939 139.16L541.794 116.607C545.245 117.985 572.028 128.567 582.542 129.172C592.197 129.727 612.288 130.881 625.486 124.501C634.283 120.249 640.453 114.361 643.817 107.028C643.868 106.919 643.931 106.791 644.007 106.649C645.875 103.135 655.49 89.9769 670.358 89.9345C677.39 89.9147 687.273 91.3073 694.428 98.0529L694.507 98.1262C694.846 98.4457 695.328 99.0211 695.884 99.6873C697.913 102.112 700.977 105.777 704.411 105.783C705.654 105.785 707.95 105.686 710.61 105.571C716.125 105.334 723.679 105.01 726.117 105.421C729.568 106.002 734.31 108.032 737.128 111.258C739.445 113.91 744.263 119.426 745.526 122.119C745.882 122.877 746.963 125.185 746.505 126.224C746.415 126.421 746.224 126.702 745.567 126.904C743.978 127.39 741.818 125.212 741.114 124.328C740.625 123.463 736.688 116.912 728.687 115.373C720.382 113.774 709.542 114.751 706.827 115.887C703.884 117.119 702.07 119.658 698.866 125.255C695.038 131.942 688.885 141.019 679.685 142.638L679.395 142.689C669.449 144.439 663.444 145.497 652.693 139.562C640.772 132.984 633.479 132.759 627.03 133.094C623.438 133.28 616.722 134.785 610.227 136.242C604.34 137.561 598.253 138.926 596.605 138.763C596.175 138.721 595.546 138.642 594.746 138.542C588.826 137.804 573.102 135.842 559.409 138.846C545.528 141.89 502.01 150.314 494.372 151.789C494.082 149.253 492.991 143.484 489.011 141.367C485.257 139.371 482.502 140.111 479.839 140.826C478.944 141.067 478.1 141.294 477.206 141.423C473.707 141.931 418.423 153.795 412.179 155.547C407.9 156.749 388.434 161.652 376.804 164.582C376.431 164.675 376.067 164.768 375.713 164.857C408.455 154.756 458.24 139.377 458.939 139.16Z" fill="#FFA3A3"/>
<path fill-rule="evenodd" clip-rule="evenodd" d="M559.191 109.458C552.766 106.385 549.504 103.352 548.299 102.051C539.147 108.273 526.268 116.123 518.529 120.765L541.583 114.489C541.804 114.429 542.038 114.442 542.25 114.528C542.375 114.578 547.61 116.678 554.436 119.148C555.2 117.565 557.047 113.758 559.191 109.458Z" fill="#FFA3A3"/>
<mask id="mask0_2668_26102" style="mask-type:luminance" maskUnits="userSpaceOnUse" x="319" y="-78" width="453" height="445">
<path d="M470 -77.5703L319.371 205.721L621.263 366.24L771.891 82.9482L470 -77.5703Z" fill="white"/>
</mask>
<g mask="url(#mask0_2668_26102)">
<path fill-rule="evenodd" clip-rule="evenodd" d="M354.526 219.8L355.102 219.695C357.507 219.191 408.397 198.151 418.482 193.619C425.748 190.354 485.256 161.72 506.196 151.638C498.846 153.067 493.78 154.044 493.621 154.075C493.319 154.133 493.009 154.057 492.769 153.867C492.53 153.677 492.384 153.392 492.373 153.086C492.367 152.941 492.357 152.777 492.343 152.601L448.553 162.065L415.865 181.819L351.606 220.147C352.434 220.188 353.438 220.001 354.526 219.8ZM559.406 138.849C573.099 135.845 588.823 137.807 594.743 138.545C595.544 138.645 596.172 138.723 596.602 138.766C598.251 138.928 604.338 137.564 610.224 136.245C616.719 134.788 623.435 133.283 627.027 133.096C633.476 132.762 640.77 132.986 652.691 139.566C663.442 145.5 669.446 144.442 679.392 142.691L679.683 142.64C688.882 141.022 695.036 131.944 698.863 125.257C702.068 119.66 703.882 117.122 706.824 115.89C709.539 114.753 720.379 113.777 728.685 115.375C736.685 116.916 740.622 123.466 741.111 124.33C741.815 125.215 743.975 127.393 745.564 126.906C746.221 126.705 746.412 126.423 746.502 126.228C746.961 125.188 745.879 122.88 745.524 122.122C744.26 119.428 739.442 113.912 737.126 111.262C734.307 108.035 729.565 106.004 726.115 105.424C723.676 105.013 716.123 105.338 710.607 105.574C707.947 105.689 705.651 105.788 704.408 105.786C700.974 105.78 697.91 102.115 695.882 99.6898C695.325 99.0233 694.843 98.4485 694.504 98.1284L694.426 98.0554C687.27 91.3094 677.387 89.9169 670.356 89.9377C655.487 89.9797 645.872 103.138 644.004 106.652C643.928 106.794 643.865 106.921 643.815 107.031C640.45 114.364 634.281 120.251 625.483 124.504C612.286 130.884 592.195 129.729 582.539 129.174C572.025 128.57 545.242 117.988 541.792 116.609L458.936 139.163C458.237 139.379 408.452 154.759 375.71 164.859C376.064 164.77 376.428 164.678 376.801 164.585C388.431 161.655 407.898 156.751 412.176 155.55C418.42 153.798 473.704 141.934 477.202 141.426C478.097 141.297 478.942 141.07 479.836 140.829C482.499 140.114 485.254 139.374 489.008 141.37C492.989 143.486 494.079 149.256 494.369 151.792C502.007 150.317 545.526 141.893 559.406 138.849ZM559.188 109.46C552.764 106.387 549.501 103.354 548.296 102.053C539.144 108.275 526.265 116.125 518.526 120.767L541.58 114.491C541.802 114.43 542.036 114.445 542.248 114.53C542.372 114.58 547.607 116.681 554.434 119.15C555.198 117.567 557.045 113.76 559.188 109.46ZM566.237 95.8908C570.868 87.6188 583.911 70.022 591.324 66.0914C597.172 62.9915 605.29 61.5428 609.651 60.7646C610.806 60.5582 611.719 60.3962 612.237 60.2666C613.247 60.0149 615.189 58.8677 617.244 57.653C620.08 55.9778 623.292 54.0799 626.108 53.2187C630.802 51.7827 634.946 54.2486 636.937 55.4341C637.184 55.5812 637.392 55.7054 637.557 55.7928C639.826 56.9996 641.782 56.7415 643.37 55.0229C645.149 53.0992 643.57 49.7155 642.175 46.7313C641.902 46.146 641.636 45.5773 641.403 45.0372C639.902 41.5558 634.076 18.9724 633.595 17.102C633.131 16.1139 627.531 4.85764 613.105 2.9738C598.989 1.13121 590.625 8.64336 582.408 20.4897C576.377 29.1831 579.687 40.4904 580.93 44.7504C581.099 45.3278 581.232 45.7877 581.307 46.1068C581.93 48.7702 583.827 56.8723 580.378 64.5518C576.875 72.3502 566.142 88.2307 555.899 96.5344C554.378 97.7683 552.369 99.2374 550.051 100.847C551.278 102.104 554.363 104.827 560.128 107.582C562.221 103.413 564.478 99.0275 566.237 95.8908ZM369.329 168.638C366.457 169.382 339.999 177.591 336.125 178.794C336.11 178.951 336.146 179.111 336.154 179.14C336.23 179.405 336.433 179.695 336.668 179.733C339.531 179.476 404.578 168.065 438.72 162.043L447.764 160.088L447.916 159.997C448.168 159.844 448.459 159.812 448.724 159.881L492.054 150.515C491.556 147.893 490.4 144.488 488.022 143.224C484.999 141.617 482.859 142.191 480.38 142.857C479.466 143.103 478.521 143.356 477.503 143.505C474.021 144.011 418.963 155.826 412.744 157.572C408.437 158.781 388.954 163.688 377.313 166.621C373.197 167.658 370.163 168.422 369.329 168.638ZM348.558 221.032C348.333 220.801 348.225 220.48 348.267 220.161C348.307 219.842 348.493 219.558 348.77 219.393L414.785 180.018L442.232 163.432L439.124 164.103C415.432 168.284 338.022 181.915 336.585 181.834C335.463 181.771 334.479 180.92 334.135 179.717C333.916 178.952 334.008 178.193 334.351 177.588C334.357 177.571 334.357 177.551 334.365 177.534C334.67 176.784 336.663 174.665 348.294 171.107C360.565 167.354 457.341 137.459 458.351 137.147L510.954 122.828C512.932 121.662 544.695 102.914 554.577 94.9033C564.569 86.8023 575.041 71.3048 578.463 63.6914C581.622 56.6604 579.845 49.0784 579.262 46.5863C579.193 46.2927 579.069 45.87 578.914 45.3397C577.595 40.8162 574.09 28.7979 580.682 19.2936C588.171 8.49638 597.314 -1.20547 613.376 0.891708C629.557 3.00342 635.314 15.7863 635.551 16.3287C635.573 16.3803 635.592 16.4337 635.605 16.4885C635.668 16.7302 641.863 40.7992 643.331 44.2052C643.556 44.727 643.813 45.2758 644.078 45.8417C645.485 48.8544 647.197 52.518 645.679 55.3745C645.48 55.7473 645.228 56.1061 644.911 56.4484C642.66 58.8848 639.698 59.3101 636.57 57.6472C636.383 57.5473 636.145 57.4067 635.863 57.2384C634.131 56.2081 630.528 54.0623 626.721 55.2267C624.144 56.0149 621.046 57.8452 618.312 59.461C615.931 60.8679 614.052 61.9792 612.743 62.3048C612.157 62.4512 611.213 62.6196 610.02 62.8326C605.771 63.5907 597.863 65.0014 592.307 67.9477C585.345 71.6384 572.476 89.0447 568.069 96.9158C564.284 103.68 558.151 116.285 556.422 119.863C565.601 123.129 576.883 126.746 582.66 127.078C592.139 127.622 611.863 128.756 624.569 122.614C632.916 118.579 638.752 113.043 641.906 106.156C643.573 102.523 653.852 87.884 670.35 87.8374C677.764 87.8161 688.207 89.3063 695.866 96.527L695.943 96.5987C696.374 97.0044 696.892 97.6246 697.492 98.3426C699.27 100.469 701.957 103.681 704.412 103.686C705.608 103.688 707.883 103.589 710.517 103.476C716.438 103.222 723.807 102.905 726.463 103.353C730.281 103.996 735.548 106.263 738.707 109.88C742.514 114.237 746.204 118.627 747.425 121.23C748.337 123.175 749.168 125.391 748.419 127.078C748.391 127.147 748.356 127.212 748.321 127.277C747.908 128.055 747.188 128.605 746.178 128.914C742.878 129.924 739.747 126.003 739.401 125.553C739.367 125.509 739.336 125.461 739.309 125.411C739.273 125.346 735.707 118.865 728.287 117.437C720.482 115.935 710.079 116.804 707.635 117.827C705.258 118.822 703.64 121.14 700.685 126.301C696.648 133.355 690.115 142.937 680.046 144.71L679.755 144.761C669.712 146.528 663.075 147.696 651.676 141.405C640.239 135.092 633.281 134.875 627.136 135.194C623.721 135.371 616.794 136.923 610.682 138.294C604.081 139.774 598.38 141.051 596.396 140.856C595.954 140.813 595.307 140.732 594.482 140.629C588.661 139.903 573.197 137.973 559.855 140.9C551.031 142.836 530.272 146.937 514.325 150.053C512.597 150.886 428.115 191.592 419.342 195.535C411.872 198.892 358.21 221.271 355.477 221.761L354.907 221.866C352.606 222.291 350.227 222.731 348.558 221.032Z" fill="black"/>
</g>
<path fill-rule="evenodd" clip-rule="evenodd" d="M659.78 134.294L660.178 134.464C665.372 136.686 674.065 140.404 685.889 130.707C690.965 126.543 693.706 121.747 694.035 116.448C694.306 112.098 692.803 108.938 692.63 108.591C691.643 106.607 687.761 99.9287 679.228 97.2582C670.681 94.5823 666.697 97.2157 666.623 97.2652C666.47 97.3745 666.291 97.4402 666.104 97.4565C665.993 97.4657 655.011 98.5413 650.674 110.685C646.356 122.788 654.474 132.034 659.78 134.294ZM648.697 109.979C653.144 97.5083 663.79 95.6297 665.66 95.3926C666.765 94.7418 671.332 92.5855 679.856 95.2535C689.181 98.1724 693.43 105.484 694.51 107.654C694.833 108.304 696.429 111.783 696.131 116.579C695.958 119.351 695.206 121.991 693.881 124.481C692.385 127.294 690.161 129.918 687.22 132.33C674.411 142.836 664.984 138.804 659.352 136.395L658.957 136.225C653.017 133.696 643.909 123.399 648.697 109.979Z" fill="black"/>
<path fill-rule="evenodd" clip-rule="evenodd" d="M514.044 141.064C515.589 138.158 514.482 134.538 511.578 132.993C508.673 131.449 505.052 132.556 503.507 135.462C501.962 138.367 503.069 141.988 505.974 143.533C508.879 145.077 512.499 143.97 514.044 141.064ZM501.653 134.476C503.742 130.547 508.637 129.051 512.564 131.139C516.491 133.227 517.987 138.121 515.898 142.05C513.809 145.978 508.915 147.475 504.988 145.387C501.061 143.299 499.565 138.404 501.653 134.476Z" fill="black"/>
<path fill-rule="evenodd" clip-rule="evenodd" d="M621.513 45.9535C624.078 42.8196 630.658 31.9456 627.341 23.3994C624.85 16.9842 618.295 10.0651 609.789 10.0372C603.349 10.0154 594.828 13.2219 590.029 22.2475C589.959 22.3792 589.889 22.5133 589.821 22.6476L589.815 22.6587C589.789 22.7069 587.28 27.5461 586.637 33.3814C585.8 40.9945 588.399 46.6632 594.364 50.2302C610.056 59.6144 621.4 46.091 621.513 45.9535ZM550.054 100.845C552.372 99.2356 554.381 97.7656 555.902 96.532C566.145 88.2283 576.879 72.3484 580.382 64.5494C583.831 56.8699 581.934 48.7678 581.31 46.1044C581.235 45.7853 581.102 45.326 580.934 44.7481C579.69 40.488 576.381 29.1807 582.411 20.488C590.628 8.64097 598.992 1.12882 613.107 2.97171C627.534 4.85526 633.134 16.1116 633.598 17.0996C634.079 18.9696 639.905 41.5534 641.406 45.0345C641.639 45.5749 641.905 46.1437 642.178 46.7289C643.573 49.7131 645.152 53.0969 643.373 55.0205C641.785 56.7391 639.829 56.9979 637.56 55.791C637.395 55.7036 637.187 55.5788 636.94 55.4317C634.949 54.2462 630.805 51.7803 626.111 53.2163C623.296 54.0775 620.083 55.976 617.248 57.6507C615.192 58.8649 613.251 60.0126 612.239 60.2645C611.721 60.3935 610.81 60.5564 609.655 60.7622C605.293 61.5404 597.175 62.9897 591.327 66.0896C583.914 70.0193 570.871 87.6165 566.24 95.8884C564.481 99.0258 562.224 103.412 560.131 107.579C554.366 104.825 551.281 102.101 550.054 100.845Z" fill="#FFA3A3"/>
<path fill-rule="evenodd" clip-rule="evenodd" d="M621.512 45.9548C624.078 42.821 630.657 31.9469 627.341 23.4007C624.849 16.9856 618.295 10.0664 609.788 10.0385C603.348 10.0167 594.827 13.2232 590.028 22.2488C589.958 22.3805 589.889 22.5147 589.82 22.6489L589.814 22.66C589.789 22.7082 587.279 27.5474 586.637 33.3828C585.799 40.9958 588.399 46.6645 594.363 50.2315C610.056 59.6158 621.399 46.0923 621.512 45.9548ZM587.951 21.6928C593.139 11.5485 602.637 7.9154 609.796 7.93822C616.671 7.96148 625.368 12.5163 629.298 22.6405C631.936 29.4383 629.207 36.9306 626.591 41.8498C624.86 45.105 623.179 47.2328 623.136 47.2846C623.013 47.4369 610.515 62.3371 593.285 52.0338C577.408 42.5398 587.668 22.2404 587.951 21.6928Z" fill="black"/>
<path fill-rule="evenodd" clip-rule="evenodd" d="M659.78 134.294L660.178 134.464C665.372 136.686 674.065 140.404 685.889 130.707C690.965 126.543 693.706 121.747 694.035 116.448C694.306 112.098 692.803 108.938 692.63 108.591C691.643 106.607 687.761 99.9287 679.228 97.2582C670.681 94.5823 666.697 97.2157 666.623 97.2652C666.47 97.3745 666.291 97.4402 666.104 97.4565C665.993 97.4657 655.011 98.5413 650.674 110.685C646.356 122.788 654.474 132.034 659.78 134.294ZM648.697 109.979C653.144 97.5083 663.79 95.6297 665.66 95.3926C666.765 94.7418 671.332 92.5855 679.856 95.2535C689.181 98.1724 693.43 105.484 694.51 107.654C694.833 108.304 696.429 111.783 696.131 116.579C695.958 119.351 695.206 121.991 693.881 124.481C692.385 127.294 690.161 129.918 687.22 132.33C674.411 142.836 664.984 138.804 659.352 136.395L658.957 136.225C653.017 133.696 643.909 123.399 648.697 109.979Z" fill="black"/>
<path fill-rule="evenodd" clip-rule="evenodd" d="M369.332 168.636C366.46 169.38 340.002 177.589 336.129 178.792C336.113 178.949 336.149 179.11 336.157 179.137C336.233 179.403 336.436 179.693 336.67 179.732C339.534 179.474 404.58 168.064 438.723 162.041L447.767 160.086L447.918 159.995C448.171 159.842 448.462 159.81 448.727 159.879L492.057 150.513C491.559 147.891 490.403 144.486 488.025 143.222C485.002 141.614 482.861 142.19 480.383 142.856C479.469 143.101 478.524 143.355 477.507 143.503C474.024 144.008 418.965 155.825 412.746 157.57C408.44 158.779 388.956 163.687 377.316 166.619C373.2 167.656 370.166 168.42 369.332 168.636Z" fill="#FFC4BE"/>
<path fill-rule="evenodd" clip-rule="evenodd" d="M354.527 219.8L355.103 219.694C357.508 219.19 408.398 198.151 418.483 193.619C425.749 190.353 485.257 161.72 506.198 151.637C498.847 153.067 493.781 154.043 493.622 154.074C493.321 154.132 493.01 154.057 492.77 153.867C492.531 153.676 492.386 153.391 492.374 153.085C492.369 152.94 492.358 152.777 492.344 152.6L448.555 162.065L415.867 181.819L351.608 220.146C352.435 220.187 353.439 220 354.527 219.8Z" fill="#FFA3A3"/>
<path fill-rule="evenodd" clip-rule="evenodd" d="M514.047 141.064C515.593 138.158 514.486 134.537 511.581 132.993C508.676 131.448 505.056 132.555 503.511 135.461C501.965 138.367 503.072 141.988 505.977 143.532C508.882 145.077 512.502 143.97 514.047 141.064Z" fill="#FFC4BE"/>
<path fill-rule="evenodd" clip-rule="evenodd" d="M136.952 519.126C137.644 518.158 145.984 506.807 163.2 497.285C179.426 488.31 206.879 479.454 245.531 488.232C278.503 495.718 318.796 488.965 351.069 470.627C348.899 468.948 346.809 467.261 344.814 465.567C336.028 470.179 325.886 474.261 314.656 477.696C291.119 484.896 268.796 481.384 247.207 477.989C225.399 474.557 204.801 471.318 183.26 478.343C160.914 485.63 146.592 496.791 138.512 504.872C134.547 508.837 131.659 512.465 129.678 515.259L136.952 519.126ZM355.457 456.768C376.642 442.314 386.939 423.872 386.059 401.946C385.607 390.676 381.631 382.626 374.24 378.021C363.083 371.069 347.526 374.205 344.119 375.711C341.274 376.969 331.662 383.179 326.243 393.37C324.475 396.695 323.154 400.444 322.66 404.584C320.711 420.922 331.745 438.478 355.457 456.768ZM502.074 531.528C528.343 531.862 539.285 522.347 539.39 522.252C539.544 522.113 539.736 522.023 539.941 521.992C546.987 520.953 556.916 511.81 565.233 498.702C578.246 478.188 581.592 458.645 582.427 448.82C584.004 430.267 580.034 413.714 570.628 399.618C559.421 382.822 540.682 370.042 514.934 361.634C477.223 349.32 452.262 329.501 440.744 302.727C424.516 265.006 440.866 225.513 442.989 220.695C442.615 220.069 441.724 218.848 440.237 218.369C438.821 217.912 437.147 218.212 435.261 219.258C434.324 221.27 428.789 233.614 425.974 250.22C420.867 280.342 428.472 301.134 435.75 313.273C459.426 352.751 485.31 361.818 502.438 367.817C503.848 368.311 505.188 368.78 506.452 369.241C549.682 385.022 562.802 413.671 566.197 434.924C573.991 483.728 538.601 510.486 534.54 513.377C529.043 517.29 516.07 523.395 490.943 520.33C461.449 516.731 424.214 501.769 380.272 475.861C374.133 472.241 368.412 468.601 363.173 464.986C362.961 464.924 362.767 464.796 362.625 464.606C359.962 462.757 357.427 460.915 355.025 459.084C354.822 459.012 354.64 458.879 354.509 458.689C329.94 439.823 318.523 421.537 320.575 404.335C322.718 386.361 339.022 375.669 343.27 373.79C347.491 371.925 363.582 368.905 375.35 376.238C383.367 381.233 387.676 389.853 388.158 401.861C389.059 424.361 378.651 443.279 357.216 458.108C359.221 459.618 361.317 461.134 363.501 462.656C394.208 440.38 404.844 411.781 392.676 384.097C385.898 368.677 372.978 360.198 357.229 360.832C338.677 361.58 321.439 374.443 315.306 392.118C310.768 405.197 308.68 431.87 345.691 463.561C352.508 469.399 360.43 475.175 369.237 480.73C434.921 522.153 477.729 531.218 502.074 531.528ZM124.313 519.911C124.462 519.605 127.978 512.457 136.95 503.464C145.199 495.196 159.816 483.78 182.61 476.347C204.63 469.164 226.44 472.596 247.533 475.914C268.887 479.273 290.968 482.746 314.042 475.688C324.835 472.386 334.592 468.482 343.094 464.087C306.424 432.051 308.661 404.864 313.322 391.429C319.726 372.969 337.751 359.515 357.145 358.735C373.803 358.063 387.455 366.998 394.598 383.251C401.232 398.344 401.441 413.515 395.219 428.344C389.813 441.228 379.493 453.509 365.332 463.92C370.264 467.29 375.618 470.678 381.339 474.051C425.031 499.813 461.993 514.681 491.198 518.245C515.621 521.225 528.074 515.402 533.323 511.666C537.275 508.854 571.716 482.809 564.123 435.255C558.134 397.756 529.064 379.732 505.732 371.214C504.476 370.757 503.145 370.29 501.743 369.799C485.389 364.07 458.015 354.482 433.95 314.353C420.42 291.792 421.025 266.8 423.915 249.807C427.038 231.438 433.445 218.182 433.509 218.05C433.602 217.865 433.743 217.709 433.922 217.605C436.472 216.109 438.823 215.696 440.91 216.379C443.841 217.339 445.071 220.123 445.122 220.241C445.241 220.518 445.236 220.833 445.107 221.106C444.912 221.518 425.82 262.747 442.68 301.915C453.953 328.101 478.482 347.522 515.586 359.638C541.793 368.196 560.9 381.254 572.375 398.452C582.051 412.953 586.138 429.959 584.519 448.997C583.186 464.685 578.065 479.732 571.44 492.192C561.991 509.962 549.482 522.465 540.551 524.021C538.747 525.508 527.457 533.882 502.352 533.632C457.702 533.187 404.71 505.584 368.116 482.506C362.688 479.082 357.596 475.573 352.879 472.015C320.04 490.936 278.791 497.938 245.066 490.279C207.115 481.662 180.205 490.303 164.314 499.068C147.084 508.573 138.711 520.275 138.628 520.392C138.294 520.866 137.639 520.979 137.166 520.646C136.846 520.42 136.695 520.05 136.73 519.687L129.332 515.753C127.184 518.842 126.221 520.789 126.203 520.827C126.198 520.838 126.191 520.85 126.185 520.861C125.921 521.357 125.31 521.56 124.8 521.313C124.279 521.06 124.061 520.432 124.313 519.911Z" fill="black"/>
<path fill-rule="evenodd" clip-rule="evenodd" d="M65.2819 216.427C86.8594 207.551 108.186 195.058 128.669 179.297C154.292 159.579 178.658 134.664 201.09 105.239C230.703 66.3944 260.298 48.4122 289.049 51.7925C314.136 54.7425 333.784 73.76 345.848 89.1942C355.505 101.547 361.977 113.639 364.706 119.129C365.232 118.182 366.046 117.283 367.106 116.556C368.376 115.687 369.817 115.204 371.161 115.197C371.248 115.197 371.33 115.205 371.415 115.209C368.604 109.851 360.967 96.1599 349.497 82.1927C336.039 65.8043 314.418 45.696 287.838 42.974C259.364 40.0573 230.664 57.2882 202.533 94.1859C179.991 123.756 155.429 148.927 129.532 169C108.799 185.069 87.169 197.925 65.2402 207.214C36.615 219.339 12.8712 222.787 3.14024 222.993L3.96702 230.887C7.77982 230.888 31.5622 230.298 65.2819 216.427ZM370.921 122.131C372.652 120.945 373.553 119.01 372.854 117.987C372.44 117.382 371.622 117.295 371.172 117.297C370.256 117.302 369.206 117.664 368.292 118.29C367.5 118.831 366.882 119.532 366.511 120.229C366.072 121.055 365.98 121.879 366.359 122.434C367.06 123.457 369.192 123.314 370.921 122.131ZM2.31646 233.005L1.2429 222.763C1.00639 222.568 0.852826 222.275 0.855822 221.945C0.861961 221.365 1.33491 220.899 1.91499 220.904C10.6241 220.977 34.9233 217.793 64.5472 205.227C86.2934 196.002 107.751 183.234 128.324 167.279C154.048 147.328 178.454 122.307 200.864 92.9129C229.468 55.3937 258.802 37.8892 288.052 40.8845C315.343 43.6794 337.412 64.1658 351.121 80.8602C365.917 98.8792 374.428 116.488 374.512 116.664C374.523 116.688 374.527 116.712 374.536 116.736C374.552 116.758 374.571 116.777 374.587 116.8C375.437 118.043 375.371 119.673 374.564 121.19C374.041 122.175 373.206 123.111 372.107 123.864C369.315 125.775 366.029 125.668 364.626 123.62C364.572 123.54 364.527 123.456 364.48 123.372C364.388 123.282 364.31 123.174 364.254 123.05C363.973 122.414 335.537 59.3739 288.803 53.8786C260.841 50.5904 231.892 68.2996 202.759 106.512C180.215 136.083 155.719 161.131 129.949 180.961C109.319 196.837 87.8299 209.423 66.0803 218.369C28.9882 233.627 3.59754 232.989 3.346 232.98C3.24587 232.978 3.15219 232.956 3.06148 232.927L2.31646 233.005Z" fill="black"/>
</g>
<defs>
<clipPath id="clip0_2668_26102">
<rect width="749" height="534" fill="white"/>
</clipPath>
</defs>
</svg>
