<svg width="320" height="787" viewBox="0 0 320 787" fill="none" xmlns="http://www.w3.org/2000/svg">
<path fill-rule="evenodd" clip-rule="evenodd" d="M50.0618 563.974L25.8011 584.572L20.7449 613.882L39.7189 642.015L67.9388 646.288L95.6894 625.184L99.9828 592.461L79.6001 569.807L50.0618 563.974Z" fill="#75F2BC"/>
<path fill-rule="evenodd" clip-rule="evenodd" d="M51.1257 598.312L43.3542 600.631C42.9563 600.749 42.5347 600.521 42.4161 600.123L40.5312 593.805C40.4123 593.407 40.6411 592.985 41.0385 592.866L48.8096 590.549C49.2071 590.43 49.6294 590.658 49.7479 591.056L51.6323 597.374C51.7508 597.772 51.5231 598.194 51.1257 598.312Z" fill="#549680"/>
<path fill-rule="evenodd" clip-rule="evenodd" d="M54.6179 610.023L46.8464 612.342C46.4489 612.46 46.0269 612.232 45.9083 611.834L44.0234 605.515C43.9049 605.118 44.1332 604.696 44.5311 604.577L52.3018 602.26C52.6997 602.141 53.1221 602.369 53.2405 602.767L55.125 609.085C55.2434 609.482 55.0153 609.905 54.6179 610.023Z" fill="#549680"/>
<path fill-rule="evenodd" clip-rule="evenodd" d="M79.9538 602.469L72.1821 604.787C71.7847 604.905 71.3627 604.676 71.2443 604.279L69.3593 597.961C69.2407 597.563 69.4692 597.141 69.8671 597.023L77.6376 594.705C78.0355 594.586 78.4574 594.814 78.5765 595.212L80.4608 601.53C80.5794 601.928 80.3511 602.35 79.9538 602.469Z" fill="#549680"/>
<path fill-rule="evenodd" clip-rule="evenodd" d="M58.114 621.734L50.3424 624.053C49.9446 624.171 49.523 623.943 49.4044 623.545L47.5195 617.226C47.4006 616.829 47.6293 616.407 48.0268 616.288L55.7979 613.971C56.1953 613.852 56.6177 614.08 56.7362 614.478L58.6206 620.796C58.7391 621.193 58.5114 621.616 58.114 621.734Z" fill="#549680"/>
<path fill-rule="evenodd" clip-rule="evenodd" d="M65.6296 599.742L57.8581 602.06C57.4607 602.179 57.0386 601.95 56.92 601.552L55.0352 595.235C54.9166 594.837 55.1451 594.415 55.5429 594.296L63.314 591.978C63.7114 591.86 64.1338 592.088 64.2522 592.485L66.1367 598.804C66.2553 599.202 66.0275 599.624 65.6296 599.742Z" fill="#549680"/>
<path fill-rule="evenodd" clip-rule="evenodd" d="M70.028 614.484L62.2565 616.803C61.8591 616.921 61.4371 616.693 61.3185 616.295L59.4337 609.977C59.3151 609.579 59.5434 609.157 59.9413 609.038L67.712 606.721C68.1099 606.602 68.5322 606.83 68.6507 607.227L70.5352 613.546C70.6536 613.943 70.4254 614.366 70.028 614.484Z" fill="#549680"/>
<path fill-rule="evenodd" clip-rule="evenodd" d="M95.0653 624.821L67.7619 645.585L40.1131 641.398L21.454 613.732L26.4237 584.928L50.2522 564.696L79.2546 570.423L99.2821 592.683L95.0653 624.821ZM59.4585 647.769L32.9534 643.658L14.1806 616.084L18.4331 586.028L38.8619 568.102L47.1571 565.566L25.3714 584.063L25.1858 584.22L20.0878 613.77L20.0415 614.036L39.3317 642.636L64.5792 646.458L59.4585 647.769ZM79.9515 569.194L49.8782 563.256L49.7377 563.375L38.1943 566.904L17.1762 585.347L12.8168 616.152L12.7803 616.41L32.1726 644.894L59.525 649.136L67.9775 646.972L68.1223 646.994L96.0992 625.719L96.3209 625.55L100.691 592.244L79.9515 569.194Z" fill="black"/>
<mask id="mask0_2675_26042" style="mask-type:luminance" maskUnits="userSpaceOnUse" x="0" y="551" width="114" height="110">
<path d="M0.613281 577.906L88.4982 551.037L113.697 633.459L25.8121 660.328L0.613281 577.906Z" fill="black"/>
</mask>
<g mask="url(#mask0_2675_26042)">
<path fill-rule="evenodd" clip-rule="evenodd" d="M59.4392 647.407L62.8074 646.545L39.1248 642.96L39.0378 642.832L19.6683 614.113L24.859 584.032L25.142 583.792L45.625 566.401L39.036 568.416L18.7622 586.206L14.5474 615.996L33.1568 643.332L59.4392 647.407ZM66.3475 646.368L59.4032 648.116L32.7466 643.982L13.8105 616.168L18.1007 585.847L38.7573 567.764L48.6861 564.728L25.5103 584.405L20.4122 613.954L39.5364 642.308L66.3475 646.368ZM40.3175 641.071L67.6654 645.212L94.7338 624.628L98.9098 592.796L79.0692 570.745L50.3498 565.073L26.7477 585.113L21.8247 613.651L40.3175 641.071ZM67.8549 645.954L67.708 645.932L39.9057 641.723L39.8191 641.594L21.0815 613.811L26.0963 584.74L26.1941 584.658L50.1523 564.316L79.4362 570.098L79.5155 570.186L99.6518 592.566L99.6305 592.727L95.3935 625.011L95.277 625.1L67.8549 645.954ZM59.5057 648.775L68.0265 646.622L95.9888 625.357L100.319 592.357L79.7666 569.516L49.9752 563.633L49.8393 563.711L38.3689 567.218L17.5053 585.525L13.1477 616.322L32.3765 644.568L59.5057 648.775ZM68.2154 647.364L67.9942 647.331L59.4697 649.483L31.9658 645.218L12.4103 616.493L12.4664 616.101L16.8439 585.167L38.0899 566.565L49.5631 563.057L49.7782 562.875L80.1336 568.869L80.2124 568.957L101.061 592.127L101.039 592.288L96.6503 625.739L96.3114 625.998L68.2154 647.364Z" fill="black"/>
</g>
<path fill-rule="evenodd" clip-rule="evenodd" d="M59.4586 647.766L32.953 643.656L14.1807 616.081L18.4332 586.025L38.8619 568.099L47.1567 565.563L25.3715 584.061L25.1859 584.217L20.0878 613.766L20.0416 614.033L39.3318 642.633L64.5793 646.456L59.4586 647.766Z" fill="#549680"/>
<path fill-rule="evenodd" clip-rule="evenodd" d="M194.561 2.04688L165.338 14.6517L151.934 41.2026L161.853 73.6535L187.591 85.991L220.299 73.922L233.972 43.8845L221.104 16.2603L194.561 2.04688Z" fill="#75F2BC"/>
<path fill-rule="evenodd" clip-rule="evenodd" d="M185.542 35.1963L177.432 35.1412C177.017 35.1382 176.681 34.7963 176.684 34.381L176.728 27.7878C176.731 27.373 177.073 27.0361 177.488 27.0391L185.597 27.0947C186.012 27.0976 186.349 27.439 186.346 27.8538L186.301 34.447C186.298 34.8618 185.957 35.1992 185.542 35.1963Z" fill="#549680"/>
<path fill-rule="evenodd" clip-rule="evenodd" d="M185.456 47.415L177.346 47.3599C176.932 47.3569 176.595 47.0151 176.598 46.5998L176.642 40.0066C176.645 39.5918 176.987 39.2549 177.402 39.2578L185.511 39.3134C185.926 39.3164 186.263 39.6578 186.26 40.0726L186.215 46.6658C186.212 47.0806 185.871 47.418 185.456 47.415Z" fill="#549680"/>
<path fill-rule="evenodd" clip-rule="evenodd" d="M211.893 47.5947L203.784 47.5391C203.369 47.5361 203.032 47.1943 203.035 46.7795L203.08 40.1863C203.083 39.771 203.425 39.4346 203.84 39.4375L211.948 39.4926C212.364 39.4956 212.7 39.837 212.698 40.2523L212.653 46.845C212.65 47.2603 212.308 47.5972 211.893 47.5947Z" fill="#549680"/>
<path fill-rule="evenodd" clip-rule="evenodd" d="M185.374 59.6416L177.264 59.5865C176.849 59.5835 176.513 59.2416 176.516 58.8263L176.56 52.2331C176.563 51.8183 176.905 51.4814 177.32 51.4844L185.429 51.54C185.844 51.543 186.181 51.8843 186.178 52.2991L186.133 58.8923C186.13 59.3071 185.789 59.6445 185.374 59.6416Z" fill="#549680"/>
<path fill-rule="evenodd" clip-rule="evenodd" d="M198.991 40.8056L190.881 40.7505C190.467 40.7475 190.13 40.4057 190.133 39.9904L190.177 33.3977C190.18 32.9824 190.522 32.646 190.937 32.6485L199.047 32.704C199.461 32.707 199.799 33.0484 199.796 33.4632L199.75 40.0564C199.747 40.4717 199.406 40.8086 198.991 40.8056Z" fill="#549680"/>
<path fill-rule="evenodd" clip-rule="evenodd" d="M198.886 56.1884L190.776 56.1334C190.361 56.1304 190.024 55.7885 190.027 55.3732L190.072 48.7805C190.075 48.3652 190.417 48.0283 190.832 48.0313L198.941 48.0869C199.356 48.0898 199.693 48.4312 199.69 48.846L199.645 55.4392C199.642 55.854 199.3 56.1914 198.886 56.1884Z" fill="#549680"/>
<path fill-rule="evenodd" clip-rule="evenodd" d="M219.808 73.3917L187.627 85.2652L162.411 73.1778L152.656 41.2652L165.83 15.1728L194.532 2.79173L220.593 16.7477L233.237 43.89L219.808 73.3917ZM179.048 84.9258L154.903 73.2458L145.013 41.3873L157.867 13.8882L182.644 2.71829H191.318L165.076 14.0381L164.853 14.1333L151.338 40.9015L151.216 41.1422L161.302 74.1329L184.328 85.1699L179.048 84.9258ZM221.619 15.7762L194.596 1.30469L194.427 1.37763H182.356L156.864 12.8696L143.688 41.0544L143.578 41.2895L153.795 74.1994L178.712 86.253L187.428 86.6549L187.56 86.7185L220.534 74.5527L220.796 74.456L234.713 43.8826L221.619 15.7762Z" fill="black"/>
<mask id="mask1_2675_26042" style="mask-type:luminance" maskUnits="userSpaceOnUse" x="143" y="0" width="93" height="88">
<path d="M143.199 0.914062H235.1V87.1018H143.199V0.914062Z" fill="black"/>
</mask>
<g mask="url(#mask1_2675_26042)">
<path fill-rule="evenodd" clip-rule="evenodd" d="M179.135 84.5773L182.608 84.7376L161.008 74.3854L160.962 74.237L150.836 41.1098L164.595 13.8608L164.935 13.7139L189.608 3.07193H182.718L158.129 14.157L145.388 41.4135L155.192 72.9956L179.135 84.5773ZM186.045 85.6029L178.893 85.2442L154.61 73.4972L144.633 41.3623L157.601 13.6206L182.642 2.36687H193.024L165.108 14.4076L151.594 41.1753L161.592 73.8822L186.045 85.6029ZM162.701 72.9276L187.643 84.883L219.547 73.1127L232.847 43.8919L220.321 17.0041L194.514 3.18357L166.085 15.4471L153.033 41.2983L162.701 72.9276ZM187.607 85.6481L187.474 85.5836L162.117 73.4302L162.071 73.2819L152.276 41.2338L165.571 14.8998L165.688 14.8497L194.547 2.4011L220.861 16.4925L220.911 16.5997L233.624 43.8889L233.557 44.0367L220.066 73.6719L219.928 73.723L187.607 85.6481ZM178.798 85.9046L187.576 86.3372L220.534 74.1765L234.323 43.8849L221.347 16.0326L194.577 1.69653L194.425 1.73126H182.43L157.126 13.1384L143.954 41.3162L154.085 73.9492L178.798 85.9046ZM187.54 87.1019L187.338 87.0056L178.557 86.5714L153.502 74.4509L143.199 41.2636L143.367 40.9054L156.598 12.6025L182.354 1.02521H194.352L194.611 0.914062L221.887 15.521L221.937 15.6282L235.1 43.8819L235.032 44.0293L221.055 74.7357L220.655 74.884L187.54 87.1019Z" fill="black"/>
</g>
<path fill-rule="evenodd" clip-rule="evenodd" d="M179.047 84.9262L154.902 73.2462L145.012 41.3877L157.866 13.8887L182.643 2.71875H191.317L165.075 14.0385L164.852 14.1338L151.337 40.9015L151.215 41.1426L161.301 74.1334L184.327 85.1703L179.047 84.9262Z" fill="#549680"/>
<path fill-rule="evenodd" clip-rule="evenodd" d="M263.303 701.219L234.08 713.824L220.676 740.374L230.595 772.825L256.333 785.163L289.041 773.094L302.714 743.056L289.846 715.432L263.303 701.219Z" fill="#75F2BC"/>
<path fill-rule="evenodd" clip-rule="evenodd" d="M254.284 734.368L246.174 734.313C245.759 734.31 245.423 733.968 245.426 733.553L245.47 726.96C245.473 726.545 245.815 726.208 246.23 726.211L254.339 726.267C254.754 726.27 255.091 726.611 255.088 727.026L255.043 733.619C255.04 734.034 254.699 734.371 254.284 734.368Z" fill="#549680"/>
<path fill-rule="evenodd" clip-rule="evenodd" d="M254.198 746.587L246.088 746.532C245.674 746.529 245.337 746.187 245.34 745.772L245.385 739.178C245.388 738.764 245.729 738.427 246.144 738.43L254.253 738.485C254.668 738.488 255.006 738.83 255.003 739.244L254.958 745.838C254.955 746.252 254.613 746.59 254.198 746.587Z" fill="#549680"/>
<path fill-rule="evenodd" clip-rule="evenodd" d="M280.636 746.767L272.526 746.711C272.111 746.708 271.774 746.366 271.777 745.951L271.822 739.358C271.825 738.943 272.167 738.606 272.582 738.609L280.691 738.664C281.106 738.667 281.443 739.009 281.44 739.424L281.395 746.017C281.392 746.432 281.05 746.769 280.636 746.767Z" fill="#549680"/>
<path fill-rule="evenodd" clip-rule="evenodd" d="M254.116 758.806L246.006 758.751C245.591 758.748 245.255 758.406 245.258 757.99L245.302 751.397C245.305 750.982 245.647 750.645 246.062 750.648L254.171 750.704C254.586 750.707 254.923 751.048 254.92 751.463L254.875 758.056C254.872 758.471 254.531 758.809 254.116 758.806Z" fill="#549680"/>
<path fill-rule="evenodd" clip-rule="evenodd" d="M267.733 739.977L259.624 739.922C259.209 739.919 258.872 739.578 258.875 739.162L258.92 732.57C258.923 732.154 259.264 731.818 259.68 731.82L267.789 731.876C268.203 731.879 268.541 732.22 268.538 732.635L268.493 739.228C268.49 739.644 268.148 739.98 267.733 739.977Z" fill="#549680"/>
<path fill-rule="evenodd" clip-rule="evenodd" d="M267.628 755.36L259.518 755.305C259.103 755.302 258.767 754.96 258.77 754.545L258.814 747.952C258.817 747.537 259.159 747.2 259.574 747.203L267.683 747.259C268.098 747.262 268.435 747.603 268.432 748.018L268.387 754.611C268.384 755.026 268.042 755.363 267.628 755.36Z" fill="#549680"/>
<path fill-rule="evenodd" clip-rule="evenodd" d="M288.551 772.564L256.369 784.437L231.153 772.35L221.398 740.437L234.572 714.345L263.274 701.964L289.335 715.92L301.979 743.062L288.551 772.564ZM247.79 784.098L223.645 772.418L213.755 740.559L226.609 713.06L251.386 701.89H260.06L233.818 713.21L233.595 713.305L220.08 740.073L219.958 740.314L230.044 773.305L253.07 784.342L247.79 784.098ZM290.361 714.948L263.338 700.477L263.169 700.55H251.098L225.606 712.041L212.43 740.226L212.32 740.461L222.537 773.371L247.454 785.425L256.17 785.827L256.302 785.89L289.277 773.725L289.538 773.628L303.455 743.054L290.361 714.948Z" fill="black"/>
<mask id="mask2_2675_26042" style="mask-type:luminance" maskUnits="userSpaceOnUse" x="211" y="700" width="93" height="87">
<path d="M211.941 700.086H303.842V786.274H211.941V700.086Z" fill="black"/>
</mask>
<g mask="url(#mask2_2675_26042)">
<path fill-rule="evenodd" clip-rule="evenodd" d="M247.877 783.749L251.35 783.909L229.75 773.557L229.704 773.409L219.578 740.282L233.337 713.033L233.678 712.886L258.35 702.244H251.46L226.871 713.329L214.13 740.585L223.934 772.167L247.877 783.749ZM254.787 784.775L247.635 784.416L223.352 772.669L213.375 740.534L226.343 712.793L251.384 701.539H261.767L233.851 713.579L220.336 740.347L230.334 773.054L254.787 784.775ZM231.443 772.099L256.385 784.055L288.289 772.285L301.59 743.064L289.063 716.176L263.257 702.355L234.827 714.619L221.775 740.47L231.443 772.099ZM256.35 784.82L256.216 784.755L230.859 772.602L230.814 772.454L221.018 740.406L234.313 714.072L234.43 714.022L263.289 701.573L289.603 715.664L289.653 715.772L302.366 743.061L302.299 743.209L288.808 772.844L288.671 772.895L256.35 784.82ZM247.541 785.076L256.318 785.509L289.276 773.348L303.065 743.057L290.089 715.204L263.32 700.868L263.167 700.903H251.172L225.868 712.31L212.696 740.488L222.827 773.121L247.541 785.076ZM256.282 786.274L256.08 786.177L247.299 785.743L222.244 773.623L211.941 740.435L212.11 740.077L225.34 711.774L251.096 700.197H263.094L263.353 700.086L290.629 714.693L290.679 714.8L303.842 743.054L303.774 743.201L289.797 773.908L289.397 774.056L256.282 786.274Z" fill="black"/>
</g>
<path fill-rule="evenodd" clip-rule="evenodd" d="M247.79 784.098L223.644 772.418L213.754 740.56L226.608 713.061L251.385 701.891H260.059L233.817 713.21L233.594 713.306L220.08 740.073L219.957 740.315L230.043 773.305L253.07 784.342L247.79 784.098Z" fill="#549680"/>
<path fill-rule="evenodd" clip-rule="evenodd" d="M283.495 198.345L251.884 194.65L227 210.941L219.366 244.004L235.486 267.558L269.847 273.46L296.707 254.283L299.374 223.925L283.495 198.345Z" fill="#75F2BC"/>
<path fill-rule="evenodd" clip-rule="evenodd" d="M259.109 222.54L252.113 218.438C251.755 218.228 251.634 217.763 251.845 217.405L255.18 211.718C255.389 211.36 255.854 211.239 256.212 211.449L263.207 215.552C263.565 215.762 263.686 216.226 263.476 216.584L260.14 222.271C259.93 222.629 259.466 222.75 259.109 222.54Z" fill="#549680"/>
<path fill-rule="evenodd" clip-rule="evenodd" d="M252.925 233.079L245.929 228.977C245.572 228.767 245.451 228.302 245.661 227.944L248.996 222.257C249.206 221.899 249.671 221.778 250.029 221.988L257.023 226.091C257.381 226.301 257.503 226.765 257.293 227.123L253.957 232.81C253.747 233.168 253.283 233.289 252.925 233.079Z" fill="#549680"/>
<path fill-rule="evenodd" clip-rule="evenodd" d="M275.734 246.454L268.738 242.351C268.38 242.141 268.26 241.677 268.47 241.319L271.805 235.632C272.015 235.274 272.479 235.153 272.837 235.363L279.832 239.465C280.19 239.675 280.311 240.14 280.101 240.498L276.766 246.185C276.556 246.543 276.091 246.664 275.734 246.454Z" fill="#549680"/>
<path fill-rule="evenodd" clip-rule="evenodd" d="M246.745 243.626L239.75 239.524C239.391 239.314 239.271 238.849 239.481 238.491L242.817 232.804C243.026 232.446 243.491 232.325 243.849 232.535L250.844 236.638C251.201 236.848 251.323 237.312 251.113 237.67L247.777 243.357C247.567 243.715 247.103 243.836 246.745 243.626Z" fill="#549680"/>
<path fill-rule="evenodd" clip-rule="evenodd" d="M267.952 234.126L260.957 230.024C260.599 229.814 260.478 229.349 260.688 228.991L264.023 223.304C264.234 222.946 264.698 222.825 265.056 223.035L272.051 227.138C272.409 227.348 272.53 227.812 272.32 228.17L268.985 233.857C268.774 234.215 268.31 234.336 267.952 234.126Z" fill="#549680"/>
<path fill-rule="evenodd" clip-rule="evenodd" d="M260.167 247.392L253.171 243.289C252.814 243.079 252.693 242.615 252.903 242.257L256.238 236.57C256.449 236.211 256.913 236.091 257.271 236.301L264.266 240.403C264.624 240.613 264.745 241.078 264.535 241.435L261.199 247.123C260.989 247.48 260.525 247.602 260.167 247.392Z" fill="#549680"/>
<path fill-rule="evenodd" clip-rule="evenodd" d="M269.689 272.747L235.882 266.94L220.088 243.863L227.596 211.349L252.051 195.339L283.099 198.968L298.69 224.085L296.069 253.913L269.689 272.747ZM228.622 262.356L213.552 240.168L220.916 207.633L245.797 190.245L272.84 192.96L280.352 197.297L251.966 193.98L251.725 193.95L226.637 210.375L226.411 210.522L218.65 244.136L233.073 265.208L228.622 262.356ZM300.064 223.756L283.897 197.712L283.714 197.69L273.261 191.655L245.438 188.861L219.935 206.682L219.722 206.831L212.115 240.44L227.667 263.337L235.015 268.043L235.097 268.164L269.737 274.116L270.012 274.163L297.351 254.644L300.064 223.756Z" fill="black"/>
<mask id="mask3_2675_26042" style="mask-type:luminance" maskUnits="userSpaceOnUse" x="196" y="171" width="124" height="122">
<path d="M239.582 171.68L319.17 217.63L276.076 292.271L196.488 246.32L239.582 171.68Z" fill="black"/>
</mask>
<g mask="url(#mask3_2675_26042)">
<path fill-rule="evenodd" clip-rule="evenodd" d="M228.871 262.102L231.799 263.977L218.269 244.212L218.304 244.061L226.098 210.308L251.638 193.59L252.006 193.633L278.694 196.753L272.727 193.308L245.89 190.613L221.228 207.848L213.928 240.101L228.871 262.102ZM234.343 266.445L228.329 262.559L213.172 240.244L220.6 207.426L245.701 189.885L273.014 192.659L282.005 197.85L251.809 194.32L226.721 210.744L219.027 244.068L234.343 266.445ZM220.464 243.796L236.087 266.621L269.602 272.379L295.731 253.724L298.326 224.175L282.888 199.303L252.135 195.708L227.906 211.57L220.464 243.796ZM235.674 267.266L235.59 267.143L219.707 243.939L219.742 243.788L227.283 211.136L251.963 194.977L252.09 194.993L283.307 198.641L299.05 224.002L299.04 224.12L296.405 254.109L296.273 254.204L269.772 273.123L269.627 273.099L235.674 267.266ZM227.916 263.083L235.302 267.847L269.925 273.794L297.012 254.455L299.701 223.847L283.686 198.046L283.536 198L273.148 192.003L245.531 189.229L220.035 207.046L212.492 240.373L227.916 263.083ZM234.888 268.491L234.762 268.307L227.374 263.54L211.736 240.516L219.407 206.623L219.732 206.397L245.341 188.502L273.436 191.353L283.826 197.352L284.106 197.385L300.424 223.674L300.414 223.791L297.686 254.841L297.554 254.935L270.096 274.539L269.676 274.467L234.888 268.491Z" fill="black"/>
</g>
<path fill-rule="evenodd" clip-rule="evenodd" d="M228.622 262.36L213.551 240.172L220.916 207.637L245.797 190.249L272.84 192.964L280.351 197.301L251.966 193.983L251.725 193.954L226.637 210.378L226.411 210.526L218.649 244.14L233.073 265.211L228.622 262.36Z" fill="#549680"/>
</svg>
