<svg width="251" height="460" viewBox="0 0 251 460" fill="none" xmlns="http://www.w3.org/2000/svg">
<path fill-rule="evenodd" clip-rule="evenodd" d="M210.167 1.67188L180.944 14.2767L167.539 40.8276L177.459 73.2785L203.196 85.616L235.905 73.547L249.578 43.5095L236.709 15.8853L210.167 1.67188Z" fill="#75F2BC"/>
<path fill-rule="evenodd" clip-rule="evenodd" d="M201.147 34.8213L193.038 34.7662C192.622 34.7632 192.286 34.4213 192.289 34.006L192.334 27.4128C192.336 26.998 192.678 26.6611 193.093 26.6641L201.202 26.7197C201.617 26.7226 201.954 27.064 201.951 27.4788L201.906 34.072C201.903 34.4868 201.562 34.8242 201.147 34.8213Z" fill="#549680"/>
<path fill-rule="evenodd" clip-rule="evenodd" d="M201.061 47.04L192.952 46.9849C192.537 46.9819 192.2 46.6401 192.203 46.2248L192.248 39.6316C192.251 39.2168 192.593 38.8799 193.008 38.8828L201.116 38.9384C201.532 38.9414 201.869 39.2828 201.866 39.6976L201.821 46.2908C201.818 46.7056 201.476 47.043 201.061 47.04Z" fill="#549680"/>
<path fill-rule="evenodd" clip-rule="evenodd" d="M227.499 47.2197L219.389 47.1641C218.974 47.1611 218.638 46.8193 218.641 46.4045L218.685 39.8113C218.688 39.396 219.03 39.0596 219.445 39.0625L227.554 39.1176C227.969 39.1206 228.306 39.462 228.303 39.8773L228.258 46.47C228.255 46.8853 227.914 47.2222 227.499 47.2197Z" fill="#549680"/>
<path fill-rule="evenodd" clip-rule="evenodd" d="M200.979 59.2666L192.87 59.2115C192.454 59.2085 192.118 58.8666 192.121 58.4513L192.166 51.8581C192.168 51.4433 192.511 51.1064 192.925 51.1094L201.034 51.165C201.449 51.168 201.786 51.5093 201.783 51.9241L201.738 58.5173C201.735 58.9321 201.394 59.2695 200.979 59.2666Z" fill="#549680"/>
<path fill-rule="evenodd" clip-rule="evenodd" d="M214.597 40.4306L206.487 40.3755C206.072 40.3725 205.735 40.0307 205.738 39.6154L205.783 33.0227C205.786 32.6074 206.128 32.271 206.543 32.2735L214.652 32.329C215.067 32.332 215.404 32.6734 215.401 33.0882L215.356 39.6814C215.353 40.0967 215.012 40.4336 214.597 40.4306Z" fill="#549680"/>
<path fill-rule="evenodd" clip-rule="evenodd" d="M214.491 55.8134L206.381 55.7584C205.967 55.7554 205.63 55.4135 205.633 54.9982L205.677 48.4055C205.68 47.9902 206.022 47.6533 206.437 47.6563L214.546 47.7119C214.961 47.7148 215.299 48.0562 215.296 48.471L215.25 55.0642C215.247 55.479 214.906 55.8164 214.491 55.8134Z" fill="#549680"/>
<path fill-rule="evenodd" clip-rule="evenodd" d="M235.414 73.0167L203.233 84.8902L178.016 72.8028L168.261 40.8902L181.435 14.7978L210.138 2.41673L236.198 16.3727L248.843 43.515L235.414 73.0167ZM194.654 84.5508L170.508 72.8708L160.618 41.0123L173.472 13.5132L198.249 2.34329H206.924L180.682 13.6631L180.458 13.7583L166.944 40.5265L166.822 40.7672L176.907 73.7579L199.934 84.7949L194.654 84.5508ZM237.224 15.4012L210.201 0.929688L210.032 1.00263H197.961L172.469 12.4946L159.294 40.6794L159.184 40.9145L169.4 73.8244L194.317 85.878L203.033 86.2799L203.165 86.3435L236.14 74.1777L236.401 74.081L250.318 43.5076L237.224 15.4012Z" fill="black"/>
<mask id="mask0_2675_26041" style="mask-type:luminance" maskUnits="userSpaceOnUse" x="158" y="0" width="93" height="87">
<path d="M158.805 0.539062H250.705V86.7268H158.805V0.539062Z" fill="black"/>
</mask>
<g mask="url(#mask0_2675_26041)">
<path fill-rule="evenodd" clip-rule="evenodd" d="M194.74 84.2023L198.213 84.3626L176.613 74.0104L176.568 73.862L166.441 40.7348L180.2 13.4858L180.541 13.3389L205.213 2.69693H198.323L173.734 13.782L160.994 41.0385L170.798 72.6206L194.74 84.2023ZM201.65 85.2279L194.499 84.8692L170.215 73.1222L160.239 40.9873L173.206 13.2456L198.247 1.99187H208.63L180.714 14.0326L167.199 40.8003L177.198 73.5072L201.65 85.2279ZM178.306 72.5526L203.249 84.508L235.152 72.7377L248.453 43.5169L235.926 16.6291L210.12 2.80857L181.69 15.0721L168.639 40.9233L178.306 72.5526ZM203.213 85.2731L203.079 85.2086L177.722 73.0552L177.677 72.9069L167.881 40.8588L181.176 14.5248L181.294 14.4747L210.153 2.0261L236.466 16.1175L236.516 16.2247L249.23 43.5139L249.162 43.6617L235.671 73.2969L235.534 73.348L203.213 85.2731ZM194.404 85.5296L203.182 85.9622L236.14 73.8015L249.929 43.5099L236.952 15.6576L210.183 1.32153L210.03 1.35626H198.036L172.731 12.7634L159.56 40.9412L169.69 73.5742L194.404 85.5296ZM203.145 86.7269L202.944 86.6306L194.162 86.1964L169.107 74.0759L158.805 40.8886L158.973 40.5304L172.203 12.2275L197.96 0.650206H209.957L210.216 0.539062L237.493 15.146L237.542 15.2532L250.705 43.5069L250.637 43.6543L236.66 74.3607L236.261 74.509L203.145 86.7269Z" fill="black"/>
</g>
<path fill-rule="evenodd" clip-rule="evenodd" d="M194.653 84.5512L170.507 72.8712L160.617 41.0127L173.471 13.5137L198.248 2.34375H206.922L180.681 13.6635L180.458 13.7588L166.943 40.5265L166.821 40.7676L176.906 73.7584L199.933 84.7953L194.653 84.5512Z" fill="#549680"/>
<path fill-rule="evenodd" clip-rule="evenodd" d="M178.799 365.298L147.189 361.603L122.305 377.894L114.67 410.957L130.791 434.511L165.152 440.413L192.011 421.236L194.679 390.879L178.799 365.298Z" fill="#75F2BC"/>
<path fill-rule="evenodd" clip-rule="evenodd" d="M154.413 389.493L147.417 385.391C147.059 385.181 146.939 384.717 147.149 384.358L150.485 378.671C150.694 378.313 151.159 378.192 151.517 378.402L158.512 382.505C158.869 382.715 158.991 383.179 158.781 383.537L155.445 389.224C155.235 389.582 154.771 389.703 154.413 389.493Z" fill="#549680"/>
<path fill-rule="evenodd" clip-rule="evenodd" d="M148.23 400.033L141.234 395.93C140.876 395.72 140.756 395.256 140.966 394.897L144.301 389.21C144.511 388.852 144.975 388.731 145.333 388.941L152.328 393.044C152.686 393.254 152.808 393.718 152.598 394.076L149.262 399.763C149.052 400.121 148.587 400.242 148.23 400.033Z" fill="#549680"/>
<path fill-rule="evenodd" clip-rule="evenodd" d="M171.038 413.408L164.043 409.305C163.685 409.095 163.564 408.63 163.774 408.272L167.11 402.585C167.32 402.227 167.784 402.106 168.142 402.316L175.137 406.418C175.495 406.629 175.616 407.093 175.406 407.451L172.071 413.138C171.86 413.496 171.396 413.617 171.038 413.408Z" fill="#549680"/>
<path fill-rule="evenodd" clip-rule="evenodd" d="M142.05 410.579L135.054 406.477C134.696 406.267 134.576 405.802 134.786 405.444L138.121 399.757C138.331 399.399 138.796 399.278 139.153 399.488L146.148 403.591C146.506 403.801 146.627 404.265 146.417 404.623L143.082 410.31C142.872 410.668 142.408 410.789 142.05 410.579Z" fill="#549680"/>
<path fill-rule="evenodd" clip-rule="evenodd" d="M163.257 401.079L156.261 396.977C155.904 396.767 155.783 396.302 155.993 395.944L159.328 390.257C159.538 389.899 160.003 389.779 160.361 389.988L167.356 394.091C167.713 394.301 167.835 394.765 167.625 395.123L164.289 400.81C164.079 401.168 163.615 401.29 163.257 401.079Z" fill="#549680"/>
<path fill-rule="evenodd" clip-rule="evenodd" d="M155.472 414.345L148.476 410.242C148.118 410.033 147.998 409.568 148.208 409.21L151.543 403.523C151.753 403.165 152.218 403.044 152.576 403.254L159.57 407.356C159.928 407.567 160.05 408.031 159.84 408.389L156.504 414.076C156.294 414.434 155.829 414.555 155.472 414.345Z" fill="#549680"/>
<path fill-rule="evenodd" clip-rule="evenodd" d="M164.993 439.701L131.187 433.893L115.392 410.816L122.901 378.302L147.356 362.292L178.404 365.921L193.995 391.038L191.374 420.866L164.993 439.701ZM123.927 429.309L108.857 407.122L116.221 374.586L141.102 357.198L168.145 359.913L175.657 364.25L147.271 360.933L147.03 360.904L121.942 377.328L121.716 377.476L113.954 411.089L128.378 432.161L123.927 429.309ZM195.369 390.709L179.202 364.665L179.019 364.644L168.565 358.608L140.743 355.815L115.24 373.636L115.027 373.784L107.42 407.393L122.972 430.291L130.319 434.997L130.402 435.118L165.042 441.069L165.316 441.116L192.656 421.597L195.369 390.709Z" fill="black"/>
<mask id="mask1_2675_26041" style="mask-type:luminance" maskUnits="userSpaceOnUse" x="91" y="338" width="124" height="122">
<path d="M134.887 338.633L214.475 384.583L171.381 459.224L91.7928 413.274L134.887 338.633Z" fill="black"/>
</mask>
<g mask="url(#mask1_2675_26041)">
<path fill-rule="evenodd" clip-rule="evenodd" d="M124.176 429.055L127.104 430.93L113.574 411.165L113.609 411.014L121.402 377.262L146.942 360.543L147.311 360.586L173.999 363.706L168.032 360.261L141.194 357.566L116.533 374.801L109.232 407.054L124.176 429.055ZM129.648 433.398L123.633 429.512L108.477 407.197L115.904 374.379L141.006 356.838L168.319 359.612L177.31 364.804L147.114 361.273L122.026 377.697L114.331 411.022L129.648 433.398ZM115.769 410.749L131.392 433.574L164.907 439.333L191.035 420.677L193.631 391.128L178.192 366.256L147.44 362.661L123.211 378.524L115.769 410.749ZM130.978 434.219L130.895 434.096L115.012 410.892L115.047 410.741L122.587 378.089L147.268 361.931L147.395 361.946L178.612 365.595L194.354 390.955L194.344 391.073L191.71 421.063L191.577 421.157L165.076 440.076L164.932 440.052L130.978 434.219ZM123.221 430.036L130.607 434.8L165.229 440.747L192.317 421.409L195.005 390.8L178.99 365L178.841 364.953L168.453 358.956L140.835 356.183L115.339 374L107.796 407.326L123.221 430.036ZM130.193 435.444L130.066 435.26L122.679 430.493L107.041 407.469L114.712 373.577L115.037 373.35L140.646 355.455L168.74 358.307L179.13 364.305L179.41 364.339L195.729 390.627L195.718 390.744L192.991 421.794L192.859 421.888L165.401 441.492L164.98 441.421L130.193 435.444Z" fill="black"/>
</g>
<path fill-rule="evenodd" clip-rule="evenodd" d="M123.927 429.313L108.856 407.125L116.22 374.59L141.102 357.202L168.144 359.917L175.656 364.254L147.27 360.937L147.029 360.907L121.941 377.332L121.715 377.479L113.954 411.093L128.377 432.165L123.927 429.313Z" fill="#549680"/>
<path fill-rule="evenodd" clip-rule="evenodd" d="M47.3017 102.813L26.1438 126.587L25.2159 156.315L47.9206 181.534L76.4606 181.838L101.004 157.077L100.701 124.075L77.3642 104.477L47.3017 102.813Z" fill="#75F2BC"/>
<path fill-rule="evenodd" clip-rule="evenodd" d="M53.132 136.665L45.7587 140.042C45.3812 140.215 44.9319 140.047 44.7591 139.67L42.0132 133.675C41.8401 133.298 42.0079 132.848 42.385 132.676L49.758 129.299C50.135 129.127 50.585 129.293 50.7576 129.671L53.5031 135.665C53.6757 136.042 53.509 136.492 53.132 136.665Z" fill="#549680"/>
<path fill-rule="evenodd" clip-rule="evenodd" d="M58.2218 147.782L50.8486 151.159C50.4715 151.332 50.0218 151.165 49.849 150.787L47.103 144.793C46.9304 144.415 47.0978 143.966 47.4753 143.793L54.8478 140.416C55.2253 140.244 55.6753 140.41 55.8479 140.788L58.5934 146.782C58.766 147.159 58.5989 147.61 58.2218 147.782Z" fill="#549680"/>
<path fill-rule="evenodd" clip-rule="evenodd" d="M82.2569 136.766L74.8835 140.143C74.5065 140.316 74.0567 140.148 73.8841 139.771L71.1382 133.777C70.9654 133.399 71.1329 132.95 71.5104 132.777L78.8828 129.4C79.2603 129.227 79.7098 129.394 79.8831 129.772L82.6283 135.766C82.8012 136.144 82.6338 136.593 82.2569 136.766Z" fill="#549680"/>
<path fill-rule="evenodd" clip-rule="evenodd" d="M63.3077 158.891L55.9345 162.269C55.557 162.442 55.1077 162.274 54.9349 161.896L52.189 155.902C52.0159 155.525 52.1837 155.075 52.5608 154.902L59.9338 151.526C60.3108 151.353 60.7608 151.52 60.9334 151.897L63.6789 157.892C63.8515 158.269 63.6848 158.719 63.3077 158.891Z" fill="#549680"/>
<path fill-rule="evenodd" clip-rule="evenodd" d="M67.6944 136.071L60.3212 139.449C59.9442 139.621 59.4944 139.454 59.3216 139.076L56.5759 133.082C56.4031 132.704 56.5706 132.255 56.9479 132.082L64.3209 128.705C64.698 128.533 65.1479 128.699 65.3206 129.077L68.066 135.071C68.2389 135.449 68.072 135.898 67.6944 136.071Z" fill="#549680"/>
<path fill-rule="evenodd" clip-rule="evenodd" d="M74.1007 150.056L66.7275 153.433C66.3504 153.605 65.9007 153.438 65.7279 153.06L62.9821 147.066C62.8093 146.689 62.9767 146.239 63.3542 146.066L70.7267 142.69C71.1042 142.517 71.5542 142.684 71.7268 143.061L74.4723 149.056C74.6449 149.433 74.4778 149.883 74.1007 150.056Z" fill="#549680"/>
<path fill-rule="evenodd" clip-rule="evenodd" d="M100.331 156.804L76.1826 181.166L48.2203 180.868L25.8924 156.068L26.805 126.852L47.5859 103.501L77.103 105.136L100.033 124.391L100.331 156.804ZM68.264 184.484L41.4448 184.102L19.017 159.408L19.0452 129.053L36.7803 108.459L44.6418 104.793L25.6425 126.142L25.4805 126.323L24.5447 156.295L24.5358 156.565L47.6188 182.202L73.1525 182.473L68.264 184.484ZM77.6221 103.822L47.015 102.127L46.8925 102.264L35.9525 107.366L17.7057 128.554L17.6761 159.666L17.6757 159.926L40.8436 185.435L68.5201 185.829L76.5893 182.509L76.7357 182.511L101.479 157.55L101.675 157.351L101.368 123.761L77.6221 103.822Z" fill="black"/>
<mask id="mask2_2675_26041" style="mask-type:luminance" maskUnits="userSpaceOnUse" x="0" y="84" width="120" height="118">
<path d="M0.269531 123.492L83.5597 84.6533L119.984 162.766L36.694 201.605L0.269531 123.492Z" fill="black"/>
</mask>
<g mask="url(#mask2_2675_26041)">
<path fill-rule="evenodd" clip-rule="evenodd" d="M68.1957 184.13L71.4111 182.807L47.46 182.554L47.356 182.438L24.1781 156.695L25.1318 126.184L25.3786 125.907L43.242 105.835L36.9975 108.747L19.3969 129.185L19.3691 159.272L41.6019 183.752L68.1957 184.13ZM74.8921 182.139L68.2586 184.836L41.2861 184.452L18.6633 159.545L18.6919 128.922L36.6307 108.14L46.0404 103.752L25.8286 126.462L24.8926 156.434L47.777 181.851L74.8921 182.139ZM48.3782 180.517L76.0362 180.811L99.9766 156.66L99.6817 124.556L76.9653 105.482L47.736 103.862L27.1526 126.992L26.2492 155.937L48.3782 180.517ZM76.3272 181.52L76.1786 181.518L48.0611 181.219L47.9575 181.104L25.5355 156.198L26.4556 126.713L26.541 126.618L47.435 103.139L77.2387 104.79L77.3294 104.866L100.384 124.225L100.386 124.388L100.683 156.948L100.58 157.052L76.3272 181.52ZM68.4518 185.475L76.5901 182.157L101.321 157.207L101.016 123.926L77.4848 104.168L47.1646 102.488L47.0409 102.584L36.1701 107.653L18.0574 128.686L18.0284 159.79L41.0011 185.084L68.4518 185.475ZM76.8805 182.866L76.6568 182.864L68.5147 186.181L40.6849 185.785L17.322 160.061L17.323 159.666L17.3526 128.423L35.803 107.045L46.6764 101.975L46.8641 101.765L77.7582 103.476L77.8484 103.552L101.719 123.595L101.72 123.758L102.029 157.494L101.729 157.797L76.8805 182.866Z" fill="black"/>
</g>
<path fill-rule="evenodd" clip-rule="evenodd" d="M68.265 184.481L41.4453 184.099L19.018 159.405L19.0462 129.05L36.7813 108.456L44.6423 104.79L25.6435 126.139L25.4815 126.32L24.5455 156.291L24.5368 156.561L47.6197 182.199L73.1535 182.47L68.265 184.481Z" fill="#549680"/>
</svg>
